<svg height="24" viewBox="0 0 24 24" width="24" xmlns="http://www.w3.org/2000/svg"><path d="m17.8535534 19.6464466c.1952621.1952622.1952621.5118446 0 .7071068-.1952622.1952621-.5118446.1952621-.7071068 0l-7.99999999-8c-.19526215-.1952622-.19526215-.5118446 0-.7071068l7.99999999-7.99999999c.1952622-.19526215.5118446-.19526215.7071068 0 .1952621.19526215.1952621.51184463 0 .70710678l-7.6464466 7.64644661zm-11.3535534-16.6464466c.27614237 0 .5.22385763.5.5v17c0 .2761424-.22385763.5-.5.5s-.5-.2238576-.5-.5v-17c0-.27614237.22385763-.5.5-.5z" fill-rule="evenodd"/></svg>