<svg height="24" viewBox="0 0 24 24" width="24" xmlns="http://www.w3.org/2000/svg"><path d="m12 2c5.5228475 0 10 4.4771525 10 10s-4.4771525 10-10 10-10-4.4771525-10-10 4.4771525-10 10-10zm0 1c-4.97056275 0-9 4.02943725-9 9 0 4.9705627 4.02943725 9 9 9 4.9705627 0 9-4.0294373 9-9 0-4.97056275-4.0294373-9-9-9zm6.2279221 10.0428932.7071067.7071068c-3.6460155 3.6460156-9.51831714 3.7088779-13.24110121.188587l-.19392759-.188587.70710678-.7071068c3.25910273 3.2591027 8.50633502 3.3183592 11.83773342.1777693zm-12.22099768-3.66393581c1.17807785-1.04903591 2.98466494-1.00868838 4.11439588.12104261l-.70710674.7071068-.10942342-.1016654c-.78574342-.67776947-1.97345733-.64388099-2.7190037.1016654l-.70710678-.7071068zm8.49999998 0c1.1780779-1.04903591 2.984665-1.00868838 4.1143959.12104261l-.7071067.7071068-.1094235-.1016654c-.7857434-.67776947-1.9734573-.64388099-2.7190037.1016654l-.7071067-.7071068z"/></svg>