<svg xmlns="http://www.w3.org/2000/svg" viewBox="0 0 24 24"><path fill-rule="evenodd" clip-rule="evenodd" d="M21.761 14.181A9.97 9.97 0 0 0 22 12c0-5.523-4.477-10-10-10S2 6.477 2 12c0 5.308 4.135 9.65 9.36 9.98a7.035 7.035 0 0 1-1.51-1.238A9.019 9.019 0 0 1 3.937 16H8c0-.97.197-1.892.553-2.732A14.918 14.918 0 0 1 8.5 12c0-1.118.119-2.115.316-3h6.868l.008.034a6.98 6.98 0 0 1 1.058.187A14.86 14.86 0 0 0 16.707 9h3.78a8.987 8.987 0 0 1 .505 3.38c.336.554.597 1.16.77 1.801ZM7.5 12c0 1.104.109 2.101.293 3h-4.28A8.985 8.985 0 0 1 3 12c0-1.052.18-2.062.512-3h4.281a14.885 14.885 0 0 0-.293 3Zm7.915-4h-6.33a10.28 10.28 0 0 1 1.565-3.075 8.787 8.787 0 0 1 1.6-1.646 8.787 8.787 0 0 1 1.6 1.646A10.28 10.28 0 0 1 15.415 8Zm1.045 0a11.355 11.355 0 0 0-1.81-3.675c-.355-.473-.71-.864-1.035-1.18A9.013 9.013 0 0 1 20.065 8H16.46ZM8.04 8H3.936a9.006 9.006 0 0 1 7.04-4.942c-.349.33-.738.75-1.126 1.267-.683.91-1.36 2.12-1.81 3.675ZM21 16a6 6 0 1 1-12 0 6 6 0 0 1 12 0Zm-6 5a5 5 0 1 0 0-10 5 5 0 0 0 0 10Zm0-7.5h-1V17h3.5v-1H15v-2.5Z"/></svg>