<svg height="24" viewBox="0 0 24 24" width="24" xmlns="http://www.w3.org/2000/svg"><path d="m21 3v18h-18v-18zm-16 9.699v6.301h6v-3.831zm8 3.294v3.007h6v-.537zm6-10.993h-10v7.183l10 4.118zm-4 1c1.6568542 0 3 1.34314575 3 3 0 1.1045695-1 2.7712362-3 5-2-2.2287638-3-3.8954305-3-5 0-1.65685425 1.3431458-3 3-3zm-8-1h-2v5.536l2 .824zm8 3c-.5522847 0-1 .44771525-1 1 0 .2678999.28978.85802646.885261 1.6925166l.114739.1574834.114739-.1574834c.5557823-.77885747.845265-1.3448471.8813925-1.63466334l.0038685-.05785326c0-.55228475-.4477153-1-1-1z" fill-rule="evenodd"/></svg>