<svg width="24" height="24" viewBox="0 0 24 24" fill="none" xmlns="http://www.w3.org/2000/svg">
<path fill-rule="evenodd" clip-rule="evenodd" d="M8.46614 5H7V3H8.46614C9.92078 3 11.1 4.17922 11.1 5.63386C11.1 6.56988 10.6032 7.43558 9.7951 7.90787L9.14772 8.28621C8.9943 8.37586 8.9 8.5402 8.9 8.71789V9H11V11H7.9H6.9V10V8.71789C6.9 7.82945 7.37152 7.00775 8.13858 6.55946L8.78596 6.18112C8.98045 6.06746 9.1 5.85912 9.1 5.63386C9.1 5.28379 8.81621 5 8.46614 5ZM22 12.0858V22L2 21.9142V16L6.50002 20.0858L13.5 13.0858L17 16.5858L22 12.0858ZM2 5H3V9H2V11H6V9H5V3H4H3H2V5ZM16 3H12V5H14.1315L13.4172 6.07143H12.3889V8.07143H14.5357C14.7921 8.07143 15 8.2793 15 8.53571C15 8.79213 14.7921 9 14.5357 9H12V11H14.5357C15.8967 11 17 9.8967 17 8.53571C17 7.57387 16.4489 6.74073 15.6453 6.33479L16.8321 4.5547L16 3ZM20.8459 8.5H19L19.8 6.5L19.923 6.19258L21 3.5L22.077 6.19258L22.2 6.5L23 8.5H21.1541H20.8459Z" fill="black"/>
</svg>
