<svg height="24" viewBox="0 0 24 24" width="24" xmlns="http://www.w3.org/2000/svg"><path d="m9.5 4c3.3436161 0 6.1108512 2.52935138 6.4625627 5.80424342l.0174373.19575658h1.02c2.6887547 0 4.8818181 2.1223067 4.9953805 4.7831104l.0046195.2168896c0 2.7614237-2.2385763 5-5 5h-7c-4.418278 0-8-3.581722-8-8v-1c0-3.86599325 3.13400675-7 7-7zm2.0048953 10.8003597-.0048953.1996403h-1c0-2.585631 1.9626319-4.7128647 4.479421-4.9732263-.2393578-2.82250439-2.6083535-5.0267737-5.479421-5.0267737h-.5c-3.3137085 0-6 2.6862915-6 6v1c0 3.8659932 3.13400675 7 7 7h7c2.209139 0 4-1.790861 4-4s-1.790861-4-4-4h-1.5c-2.1421954 0-3.8910789 1.6839685-3.9951047 3.8003597z"/></svg>