<svg height="24" viewBox="0 0 24 24" width="24" xmlns="http://www.w3.org/2000/svg"><path d="m12 16.6458244c-.6223634-.7051332-1-1.6313779-1-2.6458244 0-2.209139 1.790861-4 4-4s4 1.790861 4 4c0 1.0144465-.3776366 1.9406912-1 2.6458244v5.3541756l-3-2-3 2zm6-7.6458244h-2v-5h-8.00001573c-1.1045695 0-2 .8954305-2 2v11h4.00001573v2h-6.00001573v-13c0-2.209139 1.790861-4 4-4h13.00001573c-1.2988281 0-3 .45825195-3 2zm-11-4h8v2h-8zm0 4h3v2h-3zm0 3h2v2h-2zm14-9v2h-2.0943604c0-1.33333333.6981202-2 2.0943604-2zm-6 13c1.1045695 0 2-.8954305 2-2s-.8954305-2-2-2-2 .8954305-2 2 .8954305 2 2 2z" fill-rule="evenodd"/></svg>