<svg height="24" viewBox="0 0 24 24" width="24" xmlns="http://www.w3.org/2000/svg"><path d="m4 21v1h-2v-1zm3 0v1h-2v-1zm3 0v1h-2v-1zm3 0v1h-2v-1zm3 0v1h-2v-1zm3 0v1h-2v-1zm3 0v1h-2v-1zm-19-3v2h-1v-2zm19 0v2h-1v-2zm-19-3v2h-1v-2zm19 0v2h-1v-2zm-19-3v2h-1v-2zm19 0v2h-1v-2zm-4.3535534-5.85355339.7071068.70710678-6.3535534 6.35355341-6.35355339-6.35355341.70710678-.70710678 5.64644661 5.64655339zm-14.6464466 2.85355339v2h-1v-2zm19 0v2h-1v-2zm-4.3535534-6.85355339.7071068.70710678-6.3535534 6.35355339-6.35355339-6.35355339.70710678-.70710678 5.64644661 5.64655339zm-13.6464466 4.85355339v1h-2v-1zm18 0v1h-2v-1z"/></svg>