<svg height="24" viewBox="0 0 24 24" width="24" xmlns="http://www.w3.org/2000/svg"><path d="m13 3 8.59 8.59c.7754472.7800749.7754472 2.0399251 0 2.82l-7.17 7.17c-.3751365.3755541-.8841815.5865733-1.415.5865733s-1.0398635-.2110192-1.415-.5865733l-8.59-8.58v-10zm-.415 1h-8.585v8.586l8.2975 8.2872867c.1563069.1564808.3591098.2558315.5759622.2846017l.1315378.0086849c.2211744 0 .4347885-.0732706.6086235-.206589l.0992697-.0870911 7.1678995-7.1678932c.3578987-.3600346.3854294-.9244704.0842441-1.3142943l-.0821436-.0935989zm-4.575 3c.55228475 0 1 .44771525 1 1 0 .51283584-.38604019.93550716-.88337887.99327227l-.12662113.00672773c-.55228475 0-1-.44771525-1-1 0-.51283584.38604019-.93550716.88337887-.99327227z"/></svg>