<svg height="24" viewBox="0 0 24 24" width="24" xmlns="http://www.w3.org/2000/svg"><path d="m5.8458278 2h12.3083444c1.3372781 0 1.8222075.13923842 2.3110964.40069906.4888888.26146063.8725717.6451435 1.1340323 1.13403238.2614607.48888889.4006991.97381825.4006991 2.31109636v12.3083444c0 1.3372781-.1392384 1.8222075-.4006991 2.3110964-.2614606.4888888-.6451435.8725717-1.1340323 1.1340323-.4888889.2614607-.9738183.4006991-2.3110964.4006991h-12.3083444c-1.33727811 0-1.82220747-.1392384-2.31109636-.4006991-.48888888-.2614606-.87257175-.6451435-1.13403238-1.1340323-.26146064-.4888889-.40069906-.9738183-.40069906-2.3110964v-12.3083444c0-1.33727811.13923842-1.82220747.40069906-2.31109636.26146063-.48888888.6451435-.87257175 1.13403238-1.13403238.48888889-.26146064.97381825-.40069906 2.31109636-.40069906zm0 1c-1.06826023 0-1.44856785.07344079-1.8394975.28251225-.31462041.16826084-.55555721.40919764-.72381805.72381805-.20907146.39092965-.28251225.77123727-.28251225 1.8394975v12.3083444c0 1.0682602.07344079 1.4485678.28251225 1.8394975.16826084.3146204.40919764.5555572.72381805.723818.39092965.2090715.77123727.2825123 1.8394975.2825123h12.3083444c1.0682602 0 1.4485678-.0734408 1.8394975-.2825123.3146204-.1682608.5555572-.4091976.723818-.723818.2090715-.3909297.2825123-.7712373.2825123-1.8394975v-12.3083444c0-1.06826023-.0734408-1.44856785-.2825123-1.8394975-.1682608-.31462041-.4091976-.55555721-.723818-.72381805-.3909297-.20907146-.7712373-.28251225-1.8394975-.28251225zm2.58965615 8.3978523-2.90698339 3.3797038c-.0949857.1104318-.23340611.1739521-.37906831.1739521h-1.14943225v-1h.91998532l3.32602856-3.8668921c.25186243-.29281921.72648471-.20166381.85195175.1636248l2.02524047 5.8963478 2.2267462-10.25072739c.1091832-.50261972.8148006-.53272267.9663945-.04122818l2.4979732 8.09887507h3.18568v1h-2.764785-.7899205c-.2193772 0-.4131318-.1430008-.4777897-.3526331l-2.0449568-6.63011497-2.2021236 10.13737857c-.1074065.4944407-.7971252.534816-.9614882.0562843z" fill-rule="evenodd"/></svg>