<svg height="24" viewBox="0 0 24 24" width="24" xmlns="http://www.w3.org/2000/svg"><path d="m13.5 2c2.209139 0 4 1.790861 4 4 0 .97867133-.5555888 2.29330416-1.6636584 3.97422849l-.368278.54302951c-.1288786.185092-.2638753.3742781-.4049864.5675935l-.4416728.5923698-.4783377.6173584-.5640667.7054203h7.421v-3h-3v-1h4v11h-20v-11h7v1h-6v.841l3.497 4.954 3.6494466-3.6485534.7071068.7071068-3.7715534 3.7704466 1.677 2.376h9.673l-4.925-5.91-.007.0094988-.6430667-.8049191-.4783377-.6173584-.4416728-.5923698c-.1411111-.1933154-.2761078-.3825015-.4049864-.5675935l-.368278-.54302951c-1.1080696-1.68092433-1.6636584-2.99555716-1.6636584-3.97422849 0-2.209139 1.790861-4 4-4zm-10.5 10.576v6.424h4.535zm18 4.424h-2.932l1.667 2h1.265zm0-3h-5.432l1.666 2h3.766zm-7.5-11c-1.6568542 0-3 1.34314575-3 3 0 .93238414.7602594 2.46734815 2.2862915 4.5510904l.41547.5559982.2982385.3859114.3072486-.3977472.431273-.5780878c.1374736-.1882043.2686645-.3719037.3935769-.55105814l.3559054-.52378851.3182585-.49627899c.7486082-1.20611066 1.1445072-2.1520705 1.1894257-2.82101118l.0043119-.12502818c0-1.65685425-1.3431458-3-3-3zm0 1c1.1045695 0 2 .8954305 2 2s-.8954305 2-2 2-2-.8954305-2-2 .8954305-2 2-2zm0 1c-.5522847 0-1 .44771525-1 1s.4477153 1 1 1 1-.44771525 1-1-.4477153-1-1-1z" fill-rule="evenodd"/></svg>