<svg height="24" viewBox="0 0 24 24" width="24" xmlns="http://www.w3.org/2000/svg"><path d="m22.5258741 9.84149539 1.4741259 1.31700921-3.4278504 4c-.1335252.1558121-.375778.4326502-.7267586.8305142-.3716378-.4059368-.6207602-.6827749-.7473673-.8305142l-3.4278504-4 1.4741259-1.31700921 1.7095662 1.99491351c-.0851328-3.7904275-3.1211183-6.8364089-6.8538654-6.8364089-1.870668 0-3.61947208.76731323-4.90173438 2.10602859l-1.40038561-1.39839104c1.64709439-1.7196096 3.89893528-2.70763755 6.30211999-2.70763755 4.8158031 0 8.7295781 3.94332962 8.81311 8.8401405zm-17.38157491 1.81995401v.3385506c0 3.8659933 3.0694018 7 6.85570081 7 1.870668 0 3.6194721-.7673132 4.9017344-2.1060286l1.4003856 1.398391c-1.6470943 1.7196096-3.8989353 2.7076376-6.30212 2.7076376-4.86809873 0-8.81447247-4.0294373-8.81447247-9v-.3385506l-1.71140163 1.9970552-1.4741259-1.3170092 3.42785041-4.00000001c.13226293-.15433921.38499885-.43170863.75820777-.83210825.34940944.40552659.58804881.68289601.71591813.83210825l3.4278504 4.00000001-1.4741259 1.3170092z" fill-rule="evenodd"/></svg>