<svg height="24" viewBox="0 0 24 24" width="24" xmlns="http://www.w3.org/2000/svg"><path d="m19.9975161 15.9845957c.055775 1.3959003-.8169148 2.7122091-2.4203049 3.657182-3.0726037 1.8108341-8.02689037 1.8108184-11.11823262.0008161-1.53732735-.9001551-2.41415324-2.1368319-2.45732529-3.4589348l-.00020176-.1989247.99953381.0305314c-.03032531.9927875.64107578 1.990183 1.96327132 2.7643715 2.77885503 1.6270389 7.34551724 1.6270534 10.10521864.0006277 1.232707-.7265074 1.8886669-1.6492779 1.9285827-2.5809897l.0002554-.174755zm0-3c.055775 1.3959003-.8169148 2.7122091-2.4203049 3.657182-3.0726037 1.8108341-8.02689037 1.8108184-11.11823262.0008161-1.53732735-.9001551-2.41415324-2.1368319-2.45732529-3.4589348l-.00020176-.1989247.99953381.0305314c-.03032531.9927875.64107578 1.990183 1.96327132 2.7643715 2.77885503 1.6270389 7.34551724 1.6270534 10.10521864.0006277 1.232707-.7265074 1.8886669-1.6492779 1.9285827-2.5809897l.0002554-.174755zm0-2.99999999c.055775 1.39590029-.8169148 2.71220909-2.4203049 3.65718199-3.0726037 1.8108341-8.02689037 1.8108184-11.11823262.0008161-1.53732735-.9001551-2.41415324-2.1368319-2.45732529-3.4589348l-.00020176-.19892469.99953381.03053139c-.03032531.9927875.64107578 1.990183 1.96327132 2.7643715 2.77885503 1.6270389 7.34551724 1.6270534 10.10521864.0006277 1.232707-.7265074 1.8886669-1.6492779 1.9285827-2.5809897l.0002554-.174755zm-2.452424-6.59710823c3.2579949 1.94842704 3.2762797 5.27384845.0361174 7.22432832-2.9814266 1.7946958-7.73410907 1.8490654-10.83996992.1639204l-.28624547-.1630785-.19943146-.1235631c-3.05819328-1.96304609-3.00938533-5.19094987.16364425-7.10101422 3.07439219-1.85069131 8.0323944-1.85065915 11.1258852-.0005929zm-10.61014943.8573406c-2.5918964 1.56024039-2.57894556 3.94730708.0333149 5.50959849 2.77684692 1.66065173 7.33951053 1.66066653 10.09721933.00063966 2.5914786-1.55999191 2.5783523-3.9472542-.0336483-5.50934765-2.7770106-1.66079485-7.33938233-1.66082444-10.09688593-.0008905z"/></svg>