<svg height="24" viewBox="0 0 24 24" width="24" xmlns="http://www.w3.org/2000/svg"><path d="m21 13h-2.3897538l-2.7858916-8.34358197c-.3196811-.95742613-1.6952537-.89211506-1.9227856.09129229l-2.2660656 9.79407998-1.85117149-4.94724158c-.25567019-.68327662-1.13331543-.87164835-1.6468576-.35347019l-3.72529148 3.75892147h-1.41218283v-10h18zm0 2v6h-18v-6h1.82903104c.26677391 0 .52248886-.1065943.71027697-.2960777l2.91924383-2.9455972 2.46665896 6.592127c.3472075.9279093 1.6875142.8402063 1.9108432-.125036l2.2145434-9.57139745 1.8907514 5.66268975c.1362619.4080962.518279.6832916.948523.6832916h.9133455z" fill-rule="evenodd"/></svg>