<svg xmlns="http://www.w3.org/2000/svg" width="24" height="24" viewBox="0 0 24 24"><path d="M15.5 12a3.5 3.5 0 110 7 3.5 3.5 0 010-7m0-1a4.5 4.5 0 100 9 4.5 4.5 0 000-9z"/><path d="M17.9 19.1l2.2 2.2a.5.5 0 00.7-.7l-2.2-2.2a.5.5 0 00-.7.7zM15 13.5h1v4h-1z"/><circle cx="15.5" cy="13.5" r=".5"/><circle cx="15.5" cy="17.5" r=".5"/><path d="M13.5 15h4v1h-4z"/><circle cx="13.5" cy="15.5" r=".5"/><circle cx="17.5" cy="15.5" r=".5"/><path d="M15 3h1v1h-1zM13 3h1v1h-1zM11 3h1v1h-1zM9 3h1v1H9zM7 3h1v1H7zM5 3h1v1H5zM4 3H3v1h1V3zM3 5h1v1H3zM3 7h1v1H3zM3 9h1v1H3zM3 11h1v1H3zM3 13h1v1H3zM4 15H3v1h1v-1zM5 17h1v1H5zM7 17h1v1H7zM9 17h1v1H9zM17 9h1v1h-1zM17 7h1v1h-1zM17 5h1v1h-1zM17 3h1v1h-1zM3 17h1v1H3z"/></svg>
