<svg height="24" viewBox="0 0 24 24" width="24" xmlns="http://www.w3.org/2000/svg"><path d="m18 10c2.209139 0 4 1.790861 4 4 0 1.0330293-.6210188 2.4772604-1.8605212 4.3697305l-.3904027.5812252-.4274965.6083418-.4452804.6097256-.4794386.6351177-.3968606.5178468-.3968606-.5178468-.4794386-.6351177-.4452804-.6097256-.4274965-.6083418-.3904027-.5812252c-1.2395024-1.8924701-1.8605212-3.3367012-1.8605212-4.3697305 0-2.209139 1.790861-4 4-4zm0 1c-1.6568542 0-3 1.3431458-3 3 0 .6473454.3647855 1.6043476 1.0956107 2.8526838l.1622085.2719531.3135935.5015506.1698904.2610748.178622.2679044.3834465.5561876.4183956.5831758.2782328.3754699.2785557-.3759118.4189636-.5839999.3839108-.5569311.1788154-.2682457.1700579-.2613956.3138508-.5021301c.7375689-1.2153267 1.1498549-2.1729698 1.2379083-2.8575854l.0139063-.1425187.0040312-.1212817c0-1.6568542-1.3431458-3-3-3zm-16-8.30901699 6.5 3.249 5.7363885-2.92074498h.4009721l7.3626394 2.10361126v3.87715071h-1v-3.123l-6.001-1.71501699.001 4.83801699h-1v-4.691l-5 2.49998301v10.37199999l4.6143047-1.8452213.3713906.9284766-4.99999996 2-.01069534-.0242553-6.975-2.9066497zm1 1.61801699v10.357l5 2.084v-9.941zm15 7.691c1.1045695 0 2 .8954305 2 2s-.8954305 2-2 2-2-.8954305-2-2 .8954305-2 2-2zm0 1c-.5522847 0-1 .4477153-1 1s.4477153 1 1 1 1-.4477153 1-1-.4477153-1-1-1z" fill-rule="evenodd"/></svg>