<svg height="24" viewBox="0 0 24 24" width="24" xmlns="http://www.w3.org/2000/svg"><path d="m12 22c-5.5228475 0-10-4.4771525-10-10s4.4771525-10 10-10 10 4.4771525 10 10-4.4771525 10-10 10zm0-1c4.9705627 0 9-4.0294373 9-9 0-4.97056275-4.0294373-9-9-9-4.97056275 0-9 4.02943725-9 9 0 4.9705627 4.02943725 9 9 9zm.421875-6.8828125h-1.0859375v-.4609375c.0052084-.8750044.0572912-1.4296863.15625-1.6640625.1197923-.3125016.5104134-.7812469 1.171875-1.40625.4322938-.4010437.7239576-.71614469.875-.9453125.1822926-.28125141.2734375-.57031102.2734375-.8671875 0-.44791891-.1718733-.79687375-.515625-1.046875-.276043-.19791766-.6223937-.296875-1.0390625-.296875-.5989613 0-1.3281207.2499975-2.1875.75l-.3359375-1.0234375c.8906295-.46875234 1.7760373-.703125 2.65625-.703125.8645877 0 1.5520808.22395609 2.0625.671875.4791691.41666875.71875.95312172.71875 1.609375 0 .5000025-.1588526.97135195-.4765625 1.4140625-.1822926.2552096-.4895812.5833313-.921875.984375-.5885446.5468777-.9687491.9479154-1.140625 1.203125-.1406257.2291678-.2109375.5442688-.2109375.9453125zm-.5078125 1.1484375c.2552096 0 .4713533.0859366.6484375.2578125.1875009.1822926.28125.411457.28125.6875 0 .2708347-.0937491.4999991-.28125.6875-.1770842.1718759-.3984362.2578125-.6640625.2578125s-.4869783-.0859366-.6640625-.2578125c-.1875009-.1875009-.28125-.4166653-.28125-.6875 0-.276043.0937491-.5052074.28125-.6875.1822926-.1718759.4088528-.2578125.6796875-.2578125z" fill-rule="evenodd"/></svg>