<svg height="24" viewBox="0 0 24 24" width="24" xmlns="http://www.w3.org/2000/svg"><path d="m20.5149755 15c-.1846095-.2534414-.3379818-.4644164-.3385945-.4652543-.388003-.5305981-.6978963-.9427359-1.0131088-1.3423776-2.4477923-3.1034291-4.7411277-4.6923681-7.6632722-4.6923681-4.7275183 0-8.5 3.3381788-8.5 7.5h-1c0-4.7431889 4.24557878-8.5 9.5-8.5 3.2996354 0 5.829764 1.75300135 8.4484358 5.0730798.323958.4107296.6405856.8318235 1.0351492 1.3713933.0005115.0006996.0139229.0191447.0372303.0511906v-9.78855692h1v11.31370852c0 .2761424-.2238576.4791847-.5.4791847h-11.3137085v-1z" fill-rule="evenodd"/></svg>