<svg height="24" viewBox="0 0 24 24" width="24" xmlns="http://www.w3.org/2000/svg"><path d="m12 2c.360765 0 .717068.01910401 1.0679526.05635558l.3155655.03857449c.1023429.0141638.2041909.02987638.3055196.04711332l-.1539441-.02495026c.105065.0161865.2095906.03400834.3135498.05343869l-.1596057-.02848843c.1133023.01927376.2259554.04045343.337925.06350484l-.1783193-.03501641c.0976493.01825102.194799.03792122.2914268.05898839l-.0004715-.0001028c.2403772.05240795.4770659.11332426.7101975.18251162l-.1021212-.02971227c.1034388.02949518.2061931.06061402.3082337.09332719l-.2061125-.06361492c.1030367.03057857.2053785.06277278.3069961.09655325l-.1008836-.03293833c.1172716.03759609.2336005.077298.3489422.11906121l-.2480586-.08612288c.1003452.03335747.1999842.06826174.2988888.10468452l-.0508302-.01856164c.1100237.03983768.2191491.08155097.3273376.12510126l-.2765074-.10653962c.1256224.04626191.2500599.09497358.3732547.14607705l-.0967473-.03953743c.1134907.04568465.2259504.09339077.3373345.14307376l-.2405872-.10353633c.0903278.03746964.1799875.0762251.2689562.11624357l-.028369-.01270724c.0819708.03656316.163359.07419698.2441469.11288369l.0004146.00019852c.123983.05937139.2469572.1214377.3684432.18593551.0162257.00861391.032621.0173767.048989.02618375l-.048989-.02618375c.0916668.04866661.1824864.09871757.2724307.15012502l-.2234417-.12394127c.1012515.05448012.2014562.11065434.3005763.16848474l-.0001751-.00010217c.3097922.18074448.6088259.37754645.8961199.58935183l-.1158965-.08417358c.0832518.05956111.1655516.12036787.2468721.18239304l-.1309756-.09821946c.0770434.05679966.1532426.11467829.2285752.17361358l.0000584.00004567c.1744792.13650113.3443652.27872012.5093222.42633396l-.0251384-.02241973c.0641457.05701595.1275527.11484487.1902048.17347062l.0000229.00002144c.5191017.4857413.9863996 1.0262096 1.3926779 1.61219049l-.0230016-.03303374c.2119485.30309014.4075228.61847458.5854395.94486997l-.0505834-.09165003c.0569458.10191083.1121598.20492082.1656024.30899012l-.115019-.21734009c.052242.09584.1029615.19262936.1521261.29033559l.0000473.0000939c.0993624.1974657.192415.3987738.2788418.60356184l-.0001134-.00026874c.0518304.12281194.101175.24660119.1480895.37157897l.0000301.00008022c.0859572.22898514.1637812.46204313.2330877.69873939l-.0279829-.0938475c.0288883.09516615.056396.19093295.0824998.28727706l-.0545169-.19342956c.0319498.10911541.0620895.21900401.0903844.32963108l-.0358675-.13620152c.029429.10861678.0570736.21796733.0829005.32801824l-.0000498-.00021211c.0303902.12949538.0582219.25974519.0834909.39090733.0108861.0565177.0212293.1128213.0310988.1692877l-.0310988-.1692877c.0203681.1057236.0390711.21204.0560807.3189207l-.0249819-.149633c.0183694.1050967.0350979.2107575.0501581.3169552l-.0000004-.000003c.0347754.2452207.0606553.4933006.0773031.7439056l-.0078563-.1092822c.0083677.1081702.0150143.2168229.0199126.3259307l-.0120563-.2166485c.0075712.1139717.0132329.2284656.0169535.3434501l-.0000232-.0007166.0053438.3300485c0 .2667969-.0104481.5311535-.0309575.7926829l-.0000277.0003541c-.0197731.252141-.0489522.502001-.0871612.7488776l.0116162-.0770427c-.015162.103292-.0319032.2060706-.0501983.3083106l.0385821-.2312679c-.019108.1234609-.0404744.2461757-.0640555.3681008l.0254734-.1368329c-.0115378.0644776-.0236936.128741-.0364611.1927838l-.0000395.0001985c-.0359747.1804525-.0768559.3593484-.1224614.5363468l.0419066-.1687447c-.0257255.1076075-.0531905.2145394-.0823635.3207644l-.0000116.0000422c-.0648337.2360725-.1381182.4686944-.2194972.6974786l.0351576-.1005458c-.0338414.0984747-.0691772.1962546-.1059803.2933125l.0708227-.1927667c-.0366239.1029623-.0748873.2051473-.1147587.3065237l.000058-.0001474c-.0913471.2322575-.191066.4601286-.2988375.6833834l.0440122-.0923836c-.0390595.083085-.0792289.1655449-.1204891.2473606l.0764769-.154977c-.046251.0958117-.0939852.1907731-.1431726.2848546l.000014-.0000269-.156746.2881702-.1206398.2075011c-.2685814.4494503-.5714351.8760564-.9049524 1.2762096l-.1277915.1503007-.1122543.1272472c-.0342318.0381504-.0687526.0760361-.1035588.1136538l-.2057706.2158831c-.1504355.1532165-.3057669.3016095-.4657409.4449258l-.0001503.0001346c-.2398257.2148532-.4902489.4184168-.7502641.6097011l.0580293-.0430128c-.0829319.0619349-.1668569.1226133-.251747.1820071l.1937177-.1389943c-.0755269.0555626-.1518632.1100891-.2289878.1635587l.0352701-.0245644c-.0822789.0575667-.1654643.1139266-.2495305.1690538l.2142604-.1444894c-.0852601.0591098-.1714838.1169278-.2586425.1734258l-.0006014.0003898c-.1530917.099237-.3096926.194759-.469046.286021-.1830809.1048641-.370288.2043471-.5609103.2979403l.1214572-.0606647c-.070118.0356211-.1407122.0704398-.2117706.1044441l.0903134-.0437794c-.0981443.0481877-.1971939.0948141-.2971164.1398469l.206803-.0960675c-.0841108.0402503-.1688718.0793595-.2542632.1173076l-.0004905.0002179c-.1547745.068782-.3121234.133943-.4714355.1951444l-.1234024.0464683-.2651675.0935988c-.1391493.0469104-.2796688.0908425-.4214827.1317204l.1647994-.0490542c-.0948266.029123-.1902537.0568741-.2862582.0832299l.1214588-.0341757c-.085794.0247302-.1720617.0483426-.2587864.0708204l.1373276-.0366447c-.096435.0264741-.1934525.0515404-.2910291.0751755l.1537015-.0385308c-.0998235.0258728-.2002524.0502425-.3012612.0730833l.1475597-.0345525c-.0884634.0214278-.1773863.0416792-.2667512.0607367l.1191915-.0261842c-.0978609.022129-.196266.042823-.2951921.0620587l.0000852-.0000166c-.2174595.042284-.4373493.0775105-.6595074.1054489l.0803052-.0104294c-.0967921.0129692-.1940225.0245538-.2916708.0347331l.2113656-.0243037c-.1195111.0150296-.2396788.0279501-.3604644.038723l.1490988-.0144193c-.0919425.0095846-.1842554.0179233-.2769215.024999l.1278227-.0105797c-.1010434.0090121-.2025194.0165213-.3044053.0225051l.1765826-.0119254c-.121056.0092435-.2427148.0163316-.3649382.021226l.1883556-.0093006c-.0918102.005392-.1839533.0095454-.2764128.0124437l.000934-.0000293-.3200247.0050237c-5.5228475 0-10-4.4771525-10-10 0-.1255958.0023154-.2506508.00690584-.3751246.00494712-.1341333.01253349-.267558.02270989-.4002578.01811542-.2360102.04432205-.4690451.07839181-.6995185.02059037-.13928.0440356-.277537.07028684-.4147976l.00504157-.0261711.05173895-.24951941c.08669898-.39273412.19648643-.77679867.32786607-1.15069736.07360226-.20948893.15410615-.41607474.24114307-.6191962.04834742-.11282654.09865993-.22447718.15093908-.33501581l.07799891-.16115494.10405646-.20421355c.08342169-.15916646.17100528-.31580852.26260621-.46978162l.00001307-.00002197c.07056201-.11860851.14352183-.23565466.21880029-.35105037.0803386-.12315132.16329211-.24438679.24880453-.36366336l-.00047024.00065597c.10903261-.15208365.22171932-.30035405.3383661-.44530289l-.06986644.08781778c.05505889-.07000458.11103232-.13925598.16790229-.2077362l-.0000884.00010645c.10849541-.1306452.22016018-.25838169.33495798-.3831912l.00007289-.00007925c.1187802-.12913922.24099158-.25522027.36642285-.37802547l-.08366431.08287706c.0709094-.07106905.14288213-.14107672.21589231-.2099971l-.132228.12712004c.06106884-.05979029.12290093-.11880406.1854803-.17702534l.00000596-.00000554c.12928019-.12027699.26175585-.23717704.39728015-.35055375l-.09436048.07993156c.06724957-.05768031.13527419-.11448272.20405608-.17038946l-.1096956.0904579c.06298457-.05269153.12662762-.10462206.19091501-.15577744l-.08121941.06531954c.06954315-.0565255.13986042-.1121354.21093346-.16681133l-.12971405.10149179c.0705746-.0561583.14192573-.11138243.21403469-.16565367l-.08432064.06416188c.04927615-.03790776.09891559-.07536657.1489122-.11237032l-.06459156.04820844c.06836177-.051451.13740464-.10204557.20711269-.15176779l-.00050117.00035751c.13565711-.0967632.2733136-.18988945.41335449-.27962007l.00031652-.00020281c.14774017-.09466391.29846203-.18573516.45171175-.27287364l-.0612998.03514288c.06191112-.03578489.1242415-.07092523.18698196-.10541185l-.12568216.07026897c.07529683-.04281411.1512039-.08467881.22770494-.12557783l-.10202278.05530886c.08366185-.04598649.16805288-.09081059.25315133-.13445054l-.15112855.07914168c.07842501-.04192761.15747424-.08284034.23713014-.12272065l-.08600159.04357897c.07089977-.03635863.1422906-.07189528.2141599-.1065974l-.12815831.06301843c.07637538-.0382379.15330849-.07552666.23078387-.11185082l-.10262556.04883239c.08342668-.04028261.1674981-.07944069.25219459-.11745456l-.14956903.06862217c.07816672-.0366483.15688543-.0723147.23614024-.10698334l-.08657121.03836117c.08996876-.0403802.18064284-.07946932.27199863-.11724376l-.18542742.07888259c.0769565-.03366328.15441847-.06638581.23237135-.09815307l-.04694393.01927048c.06495138-.02685656.13024735-.05304857.19587945-.07856757l-.14893552.05929709c.09382558-.03823566.18836236-.07508741.28358497-.11052989l-.13464945.0512328c.07251732-.02819611.14544499-.05557058.21877157-.08211199l-.08412212.03087919c.07772207-.02892866.15590104-.05691845.23452314-.08395559l-.15040102.0530764c.08847813-.03202569.17753706-.06283848.2671567-.09241827l-.11675568.03934187c.08732328-.03002937.17519319-.05888355.26359085-.08654366l-.14683517.04720179c.07948253-.02623395.1594061-.05149806.23975669-.07577833l-.09292152.02857654c.08410953-.02631833.16869685-.05155563.25374568-.07569562l-.16082416.04711908c.09582821-.02895728.19226381-.05651519.28928303-.08264995l-.12845887.03553087c.07544197-.02141321.15124708-.04196302.22740397-.06163805l-.0989451.02610718c.09479741-.02553625.19015201-.0497138.28604163-.07251047l-.18709653.04640329c.08754266-.02261654.17555015-.04407719.26400523-.06436472l-.0769087.01796143c.07231518-.01719211.14493466-.03359886.21784891-.04921073l-.14094021.0312493c.10097235-.02315841.20252793-.04478818.30464111-.06486365l-.1637009.03361435c.07757599-.01661001.1554857-.03232026.2337175-.04711929l-.0700166.01350494c.0843894-.016591.1691597-.03212042.2542963-.0465738l-.1842797.03306886c.0975186-.01844747.1955379-.03547905.2940357-.05107256l-.109756.0180037c.0861115-.01461887.1725978-.0281369.2594438-.04053912l-.1496878.02253542c.0834187-.01320629.1671806-.02538112.2512723-.03651101l-.1015845.01397559c.0955416-.01364401.1915187-.02593756.2879112-.03686071l-.1863267.02288512c.08691-.01150292.1741722-.02188967.2617718-.0311454l.0005358-.00005659c.3487385-.03684754.7033755-.05577107 1.0624323-.05577107zm-.9430192 2.0549956c-3.9738588.46664292-7.0569808 3.8457728-7.0569808 7.9450044 0 4.418278 3.581722 8 8 8 2.3428583 0 4.4504929-1.0071122 5.9135984-2.612031l-6.8563841-4.8424758zm7.6232043 3.54167695-5.0059708 4.34932745 5.392256 3.8077185c.5958659-1.1193995.9335297-2.3971262.9335297-3.7537185 0-1.626882-.4856215-3.14034098-1.3198149-4.40332745zm-5.6220775-3.52731685-.0018933 5.7646443 4.322836-3.75571683c-1.1746391-1.06762724-2.6682238-1.79054016-4.3209427-2.00892747z" fill-rule="evenodd"/></svg>