<svg height="24" viewBox="0 0 24 24" width="24" xmlns="http://www.w3.org/2000/svg"><path d="m6 10c-1.1045695 0-2 .8954305-2 2s.8954305 2 2 2h2v-4zm3.50015926 5.8661257c-.14712267.085142-.31794994.1338743-.50015926.1338743h-1v4h-2v-4c-2.209139 0-4-1.790861-4-4s1.790861-4 4-4h3c.18220932 0 .35303659.0487323.50015926.13387434.01718547-.00991314.03473223-.01935408.05262714-.02830153l8-4c.6649011-.33245055 1.4472136.15104517 1.4472136.89442719v3.53544443c1.6961471.24261483 3 1.70131957 3 3.46455557s-1.3038529 3.2219407-3 3.4645556v3.5354444c0 .743382-.7823125 1.2268777-1.4472136.8944272l-8-4c-.01789491-.0089475-.03544167-.0183884-.05262714-.0283015zm9.49984074-2.3674159c.5705601-.141818 1-.7595 1-1.5 0-.7405001-.4294399-1.358182-1-1.5zm-9-3.57013837v4.14285717l7 3.4285714v-11z" fill-rule="evenodd"/></svg>