<svg height="24" viewBox="0 0 24 24" width="24" xmlns="http://www.w3.org/2000/svg"><path d="m4 20h17v1h-18v-18h1zm5.75521944-10.93945458-3.40839018 3.28230698c-.19890646.1915485-.51543275.1855837-.70698126-.0133227-.19154851-.1989065-.18558372-.5154328.01332274-.7069813l3.57716426-3.44483777c.10693629-.1029805.25410569-.15311468.40166994-.13683139l4.86206436.53651474 4.1233833-4.89935277c.1778129-.21127511.4932311-.23840157.7045062-.06058864s.2384016.49323111.0605886.70450622l-4.2953379 5.10366719c-.1074538.12767522-.2715199.19332769-.4373881.17502462zm-3.43593176 6.33639268c-.21250793.1763377-.52772961.147016-.70406733-.0654919-.17633771-.212508-.14701596-.5277296.06549197-.7040674l3.51223621-2.9144311c.13758172-.1141644.3256498-.1461834.4932588-.0839783l4.88649657 1.8135354 4.0461271-4.76609434c.1787136-.21051383.4942447-.23629303.7047585-.05757947.2105139.17871357.2362931.49424472.0575795.70475855l-4.2728427 5.03315166c-.1361033.1603215-.3579783.2183415-.5551401.1451685l-4.94402618-1.8348865zm-.08916103 2.8533404c-.24515579.1270955-.54692503.0313886-.67402047-.2137671-.12709544-.2451558-.03138862-.5469251.21376717-.6740205l3.55448542-1.8427421c.12278203-.0636535.26644506-.073608.39683275-.0274967l5.02177008 1.7759364 4.0520787-1.821057c.2518755-.1131961.5478245-.0007743.6610206.2511011.1131961.2518755.0007743.5478245-.2511012.6610206l-4.23484 1.9031924c-.1173065.0527191-.2504162.0582093-.3716658.0153297l-5.00629743-1.7704646z" fill-rule="evenodd"/></svg>