<svg height="24" viewBox="0 0 24 24" width="24" xmlns="http://www.w3.org/2000/svg"><path d="m10.2801732 13.9375206c-.0227226-.275206.1819555-.5167248.4571614-.5394474.2752059-.0227227.5167247.1819554.5394474.4571614.1137847 1.3781059-.3606229 2.7450471-1.33495344 3.7443995-1.80906878 1.8552185-4.74720352 1.8552185-6.55610488 0-1.80204948-1.8480201-1.80204948-4.8391052 0-6.6871254 1.05367988-1.08055943 2.52839174-1.56235694 3.97682027-1.33734788.27286947.04238946.45971043.29795732.41732097.57082678-.04238946.2728695-.29795732.4597104-.57082678.417321-1.13100259-.1756979-2.28115292.2000633-3.10735883 1.0473459-1.42332366 1.459633-1.42332366 3.8312009.00001614 5.2908504 1.41645562 1.4527241 3.70757462 1.4527241 5.12414841.0000133.76933654-.789094 1.14462124-1.870426 1.05432934-2.9639976zm-.245398-3.8672739.7159421.6981597-3.85462684 3.9528061-.71594211-.6981597zm2.6447166 3.7849263c.0227566-.2752031.2643007-.4798514.5395038-.4570947.2752031.0227566.4798514.2643007.4570947.5395038-.0904133 1.0933961.2849175 2.1747595 1.0543054 2.9639062 1.4166029 1.4527407 3.7077219 1.4527407 5.1241937 0 1.4233236-1.4596329 1.4233236-3.8312008 0-5.2908338-.826206-.8472826-1.9763563-1.2230438-3.1073589-1.0473459-.2728694.0423894-.5284373-.1444515-.5708268-.417321-.0423894-.27286946.1444515-.52843732.417321-.57082678 1.4484285-.22500906 2.9231404.25678845 3.9768203 1.33734788 1.8020495 1.8480202 1.8020495 4.8391053.0000161 6.6871089-1.8089175 1.855235-4.7470522 1.855235-6.5561501-.0000133-.9743879-.9994113-1.4488667-2.3664296-1.3349192-3.7444313zm.5260528-3.0867736.7159556-.6981458 3.8544776 3.9528062-.7159556.6981457zm-3.1107459-5.15741107c.1927876.19770569.1888008.51426307-.0089049.70705071-.1977057.19278763-.51426308.18880077-.70705072-.00890492l-1.39629157-1.43191126c-.19278764-.19770569-.18880077-.51426307.00890492-.70705071.19770569-.19278763.51426307-.18880076.70705071.00890493zm5.6429028 1.36606779c.2761424 0 .5.22385763.5.5 0 .27614238-.2238576.5-.5.5h-2c-.2761424 0-.5-.22385762-.5-.5 0-.27614237.2238576-.5.5-.5zm-6.72498508 0c.27614237 0 .5.22385763.5.5 0 .27614238-.22385763.5-.5.5h-2c-.27614238 0-.5-.22385762-.5-.5 0-.27614237.22385762-.5.5-.5zm5.11481318-2.75753207c.1927877-.19770569.5093451-.20169256.7070508-.00890493.1977056.19278764.2016925.50934502.0089049.70705071-.5322827.54578478-1.016605 1.04236437-1.3964038 1.43182552-.1927943.19769915-.5093518.2016753-.707051.00888096-.1976991-.19279433-.2016753-.50935185-.008881-.707051.3798339-.38949709.8641852-.88610645 1.3963801-1.43180126zm-3.1829177-.64507507c0-.27614238.2238577-.5.5-.5.2761424 0 .5.22385762.5.5v2c0 .27614237-.2238576.5-.5.5-.2761423 0-.5-.22385763-.5-.5z" fill-rule="evenodd"/></svg>