<svg height="24" viewBox="0 0 24 24" width="24" xmlns="http://www.w3.org/2000/svg"><path d="m12.5 0c1.1045695 0 2 .8954305 2 2l-.000017 6h1.500017v1h-1.500017l.000017 1h1.5v1h-3c-.8284271 0-1.5-.6715729-1.5-1.5l.0012707.03562352-.2862877-3.99762352-4.53099999 3.56 2.073 2.902h2.05203399l4 8h-14.61803399l3.226-6.451-2.5695945-3.5339124c-.84498517-1.18297919-.57098684-2.82696917.61199239-3.67195434l.10136005-.06725547.00624206-.00487779.04362448-.02837102c.02820007-.01739595.05661717-.03420204.08523593-.05042083l9.62021298-5.80429038c.3314709-.24384803.7408826-.38791777 1.1839436-.38791777zm-2.31 13h-5.381l-3 6h11.381zm-7.98310829-5.94773316-.11979614.0738761-.04647647.0307238c-.69041567.49315405-.8815339 1.42519636-.46478708 2.14472127l.09344709.14357885 2.2517039 3.09583314.27-.541h3.338l-1.919-2.687-.31205296-.39724839.01705296-.01475161-.97184975-1.3603809c-.49128417-.68779785-1.41330491-.88557197-2.13624155-.48835226zm10.79310829 1.94773316c-.2761424 0-.5.22385763-.5.5s.2238576.5.5.5.5-.22385763.5-.5-.2238576-.5-.5-.5zm-2.4999998-7.0010041-6.58476357 4.01317724c.42993153.15772665.82309531.42810751 1.13117391.80308968l.1104562.14411808.94511627 1.3236191 5.64101029-4.43123102c-.6854825-.28051861-1.1805579-.93059372-1.2375076-1.70250664l-.0054857-.14926234c0-.00033472.0000001-.00066942.0000002-.0010041zm2.9999828 1.7440041-1.335 1.049.2366109 3.33211779c.1413216-.06154988.2939677-.10196434.4539461-.11725121l.14446-.00686658h.499983zm-.999983-2.743c-.5522847 0-1 .44771525-1 1s.4477153 1 1 1c.1805703 0 .3499624-.04785951.4961832-.13158553l.0880652-.07048442.0069361.00868963c.2478966-.18199449.4088155-.47551478.4088155-.80661968 0-.55228475-.4477153-1-1-1z" transform="translate(4.5 2)"/></svg>