<svg width="24" height="24" viewBox="0 0 24 24" fill="none" xmlns="http://www.w3.org/2000/svg">
<path fill-rule="evenodd" clip-rule="evenodd" d="M13 6C16.3137 6 19 8.68629 19 12C19 15.3137 16.3137 18 13 18C11.5796 18 10.2782 17.5083 9.2507 16.6847L7.3743 19.0254C8.91481 20.2603 10.8731 21 13 21C17.9706 21 22 16.9706 22 12C22 7.02944 17.9706 3 13 3C8.1711 3 3.44118 6.89454 3.44118 12H1L5 16.5L9 12H6.44118C6.44118 8.82119 9.54463 6 13 6ZM11 7V13V13.7719L11.6281 14.2206L15.1281 16.7206L16.8719 14.2794L14 12.2281V7H11Z" fill="black"/>
</svg>
