<svg height="24" viewBox="0 0 24 24" width="24" xmlns="http://www.w3.org/2000/svg"><path d="m11.5364927 13.5371102.9259127.9269784 4.6324698-5.55896376zm-1.0909113.9090928-.70487544.5873962 1.22569484 1.2256948.5866939-.7040326zm10.9385292-9.1261108-10 12c-.1882242.2258691-.5297635.2413617-.737664.0334612l-1.99999999-2c-.20790048-.2079005-.19240791-.5494398.03346119-.737664l12-10.00000004c.4677006-.38975051 1.0939533.23650223.7042028.70420284zm-12.78530341 12.1697664c-.26310092-.274969-.65947307-.3767619-1.02250928-.2625923-.59005106.1855439-1.04172879.4792496-1.35503852.8811004-.41669132.5344478-.75283227 1.5263301-1.00842285 2.9756469 1.08223166.0118017 2.0798106-.3239527 2.99273682-1.0072632.51728219-.3871773.84688104-.7656274.98879654-1.1353504.13866766-.3612616.05646315-.770101-.21105921-1.0496908zm.72252742-.6913423.3845035.4018507c.53504529.5591801.69945449 1.3768598.42211889 2.0993837-.21972794.5724424-.66812504 1.0872984-1.32316082 1.577582-1.0864477.8131885-2.29768682 1.2208543-3.60286389 1.2066215l-1.17860218-.0128526.20470297-1.1607605c.281682-1.5972672.66284055-2.7219872 1.20459666-3.4168429.44505037-.5708212 1.06906016-.9765867 1.84370737-1.2202021.72607246-.2283019 1.5188019-.0247111 2.0449975.5252202z" fill-rule="evenodd"/></svg>