<svg height="24" viewBox="0 0 24 24" width="24" xmlns="http://www.w3.org/2000/svg"><path d="m12 1c1.5834912 0 2.8915554 1.23055866 2.9944209 2.81945739l.0055791.18051743v10.00002518l.1573788.1226684c1.0909173.8885139 1.7685987 2.2020354 1.8369116 3.6370837l.0057096.2402479c0 2.7614237-2.2385763 5-5 5-2.76142375 0-5-2.2385763-5-5 0-1.5284734.69149356-2.940247 1.84357069-3.8781056l.15642931-.1228944.00026144-10.01516693.00610613-.1805938c.102077-1.57268061 1.41014123-2.80323927 2.99363243-2.80323927zm0 1c-1.0555246 0-1.9277447.82053923-1.9949438 1.85179124l-.0050562.1481844.0005128 10.52448756-.22193864.1485182c-1.10318606.7382363-1.77857416 1.9749501-1.77857416 3.3270186 0 2.209139 1.790861 4 4 4s4-1.790861 4-4c0-1.3516836-.6750004-2.5880894-1.7776705-3.3264137l-.2217994-.1485122-.0005301-2.5250741h-2v-1h2v-2h-2v-1h2v-2h-2v-1h2l.0002614-.98383307-.0045292-.14815758c-.0679875-1.04747012-.9402076-1.86800935-1.9957322-1.86800935z"/></svg>