<svg height="24" viewBox="0 0 24 24" width="24" xmlns="http://www.w3.org/2000/svg"><path d="m10.6057217 21 1.3580372-3.9124405c.2723853-.784729 1.1293458-1.2000657 1.9140748-.9276804.1683845.0584475.3250394.14636.4626551.2596355.4623417.380567 1.129408.380567 1.5917496 0 .6883623-.5666111 1.7057193-.4679123 2.2723304.22045.0874024.1061831.1608778.2230997.2186409.3479093l1.8568517 4.0121261h1.2199386v1h-12v-1zm1.058529 0h7.5139064l-1.6624673-3.5921169c-.0219815-.0474957-.0499422-.0919879-.0832028-.1323954-.2156214-.2619532-.6027722-.2995126-.8647254-.0838912-.8315315.6844578-2.0312644.6844578-2.8627959 0-.0461183-.0379614-.0986172-.067423-.1550469-.0870102-.2629816-.0912829-.5501697.0479065-.6414526.3108881zm-1.0202507-18.954c.339.05.672.142.987.279.4298238.18472187.818935.4525119 1.145.788.117.119.226.247.326.381.643.859.898 1.946.898 3.005 0 .317-.022.633-.07.945-.124.805-.428 1.59-.953 2.22-.4300226.5156489-.9935697.9031092-1.629 1.12-.4344252.1455276-.8898546.2185044-1.348.2160623-.457 0-.914-.0680623-1.347-.2160623-.63583954-.2166354-1.19977372-.6041239-1.63-1.12-.525-.63-.829-1.415-.953-2.22-.04735192-.31275918-.07075327-.62867748-.0700505-.945 0-1.059.2550505-2.146.8980505-3.005.2195812-.29451978.48178909-.5547055.778-.772.216-.157.448-.291.693-.397.315-.137.648-.229.987-.279.178-.026.356-.038.535-.045h.219c.179.007.357.019.534.045zm-1.943 1.226c-.15278641.07174524-.2984364.15779592-.435.257-.11646984.08570661-.22582552.18068218-.327.284-.546.556-.819 1.321-.906 2.084-.022.2-.033.401-.033.602 0 .891.209 1.826.791 2.524.18486938.22451371.40631422.41620718.655.567.188.115.391.206.601.271.308.096.631.139.953.139s.645-.043.953-.139c.3724949-.11539026.7151927-.31097378 1.004-.573.09-.083.174-.171.252-.265.582-.698.791-1.633.791-2.524 0-.201-.011-.402-.033-.602-.087-.763-.36-1.528-.905-2.084-.2205739-.2237597-.4788577-.40689405-.763-.541-.3819625-.17108398-.7945443-.26326014-1.213-.271h-.172c-.41844254.00784941-.83100279.10002074-1.213.271zm1.16348004 13.728h1.13551996v1h-1.86448004l-1.94674531-6.056541 3.50518565 1.4960405 2.3969488-3.2883311 2.3969488 3.2883311 3.570091-1.5237426-1.3951258 3.7382216-.9368807-.3496492.5797451-1.5534196-2.1571817.9207019-2.0575967-2.82278-2.0575967 2.82278-2.22208705-.948404zm-6.86448004 2h6.5v1h-7.5v-5.2344356c0-1.2608081.93884111-2.3243106 2.18991316-2.4806947l2.24806947-.2810086.12403474.9922778-2.24806947.2810087c-.75064324.0938304-1.3139479.7319319-1.3139479 1.4884168z" fill-rule="evenodd"/></svg>