<svg height="24" viewBox="0 0 24 24" width="24" xmlns="http://www.w3.org/2000/svg"><path d="m12.4483537 1.77868804 2.973777 6.02454501 6.6501834.97202392c.4099573.0599214.5733491.56384204.2765523.85292208l-4.8116055 4.68650375 1.1355434 6.6207955c.0700593.4084811-.3587152.7199627-.7255299.5270585l-5.9472744-3.127612-5.94727436 3.127612c-.36681479.1929042-.79558921-.1185774-.72552995-.5270585l1.13554342-6.6207955-4.81160551-4.68650375c-.29679676-.28908004-.13340504-.79300068.2765523-.85292208l6.65018342-.97202392 2.97377698-6.02454501c.1834177-.37158405.7132897-.37158405.8967074 0zm-.4483537 3.60931196-1.744939 3.53593587c-.1964786.39804413-.55776652.68626655-.98383412.79193241l-.14428457.02836082-3.90494231.5697709 2.8245992 2.7514628c.31449831.3063214.47704272.7328088.45064274 1.165693l-.01882901.1624092-.66641293 3.883435 3.4898231-1.8346103c.3885105-.2043137.8442849-.2270153 1.2477429-.0681045l.1486109.0681045 3.4888231 1.8346103-.6654129-3.883435c-.0742141-.4327057.0451401-.8732358.3210719-1.2078211l.1107418-.1202811 2.8235992-2.7514628-3.9039423-.5697709c-.4392282-.06419977-.824791-.31903776-1.056659-.6917791l-.0714597-.12851413z" fill-rule="evenodd"/></svg>