<svg height="24" viewBox="0 0 24 24" width="24" xmlns="http://www.w3.org/2000/svg"><path d="m12.4996974 4.01756068c3.6327811.25622642 6.5003026 3.28446011 6.5003026 6.98243932v4.3382679l3.0900099 3.5903035h-6.6159867c-.2113199 1.7308317-1.6861149 3.0714286-3.4740232 3.0714286s-3.26270333-1.3405969-3.47402322-3.0714286h-6.52597678l3-3.4857203v-4.4428511c0-3.69797921 2.86752145-6.7262129 6.5003026-6.98243932-.0002012-.00582877-.0003026-.01168288-.0003026-.01756068v-2c0-.27614237.2238576-.5.5-.5s.5.22385763.5.5v2c0 .0058778-.0001014.01173191-.0003026.01756068zm-.4996974 16.88243932c1.209479 0 2.2183558-.8588798 2.4499909-2h-4.89998184c.23163516 1.1411202 1.24051194 2 2.44999094 2zm6-9.9c0-3.3137085-2.6862915-6-6-6s-6 2.6862915-6 6v4.8139242l-1.81998011 2.1146472h15.72997021l-1.9099901-2.2192304z" fill-rule="evenodd"/></svg>