<svg height="24" viewBox="0 0 24 24" width="24" xmlns="http://www.w3.org/2000/svg"><path d="m11.1782228 9.5525974h.4797289c.8213101 0 1.6089814.32626414 2.1897353.907018l.8338085.8338085.8338085-.8338085c.5807539-.58075386 1.3684252-.907018 2.1897352-.907018h1.2891532v.9987013h-1.2891532c-.556438 0-1.0900857.2210441-1.4835468.6145052l-.8338085.8338085.8338085.8338085c.3912101.3912101.9210073.6119703 1.4739987.6144835v.9987084c-.8178645-.0025183-1.6016841-.3285004-2.1801871-.9070034l-.8338085-.8338085-.8338085.8338085c-.5807539.5807539-1.3684252.907018-2.1897353.907018h-.1573023v-.9987013h.1573023c.556438 0 1.0900857-.2210441 1.4835468-.6145052l.8338085-.8338085-.8338085-.8338085c-.3934611-.3934611-.9271088-.6145052-1.4835468-.6145052h-.8124849l-1.67427362 5.0250009c-.42139392 1.2647304-1.6048804 2.1178562-2.93796552 2.1178562h-.57673415v-.9987013h.57673415c.90316587 0 1.70497857-.5779931 1.99047318-1.4348487l1.569088-4.7093071h-2.83759403v-.9987013h3.17035009l.8088483-2.42759827c.4213939-1.26473045 1.6048804-2.11785627 2.9379655-2.11785627h.6578355v.9987013h-.6578355c-.9031658 0-1.7049785.57799319-1.9904731 1.43484873zm.8217772 12.4474026c-5.5228475 0-10-4.4771525-10-10s4.4771525-10 10-10 10 4.4771525 10 10-4.4771525 10-10 10zm0-.9090909c5.0207705 0 9.0909091-4.0701386 9.0909091-9.0909091 0-5.02077045-4.0701386-9.09090909-9.0909091-9.09090909-5.02077045 0-9.09090909 4.07013864-9.09090909 9.09090909 0 5.0207705 4.07013864 9.0909091 9.09090909 9.0909091z" fill-rule="evenodd"/></svg>