<svg xmlns="http://www.w3.org/2000/svg" width="24" height="24" viewBox="0 0 24 24">
  <path fill="#000000" d="M10,0 L10.0008689,5.52856479 C11.2278632,6.62718157 12,8.22341969 12,10 C12,11.7765803 11.2278632,13.3728184 10.0008689,14.4714352 L10,19.5 L2,19.5 L2.0001315,14.4723307 C0.772556451,13.3736859 0,11.7770631 0,10 C0,8.22293692 0.772556451,6.62631407 2.0001315,5.52766929 L2,0 L10,0 Z M9.00096303,15.1967496 C8.11822532,15.7076045 7.09325897,16 6,16 C4.90715483,16 3.88255059,15.7078258 3.00003939,15.1973296 L3,18.5 L9,18.5 Z M6,5 C3.23857625,5 1,7.23857625 1,10 C1,12.7614237 3.23857625,15 6,15 C8.76142375,15 11,12.7614237 11,10 C11,7.23857625 8.76142375,5 6,5 Z M6.5,6.5 L6.5,10.2341875 L3.3200922,12.8841106 L2.6799078,12.1158894 L5.5,9.764 L5.5,6.5 L6.5,6.5 Z M9,1 L3,1 L3.00003939,4.80267039 C3.88255059,4.29217416 4.90715483,4 6,4 C7.09325897,4 8.11822532,4.29239547 9.00096303,4.80325037 L9,1 Z" transform="translate(6 2)"/>
</svg>
