<svg height="24" viewBox="0 0 24 24" width="24" xmlns="http://www.w3.org/2000/svg"><path d="m7 18v-10.92857143c0-.13124454.05160346-.25722688.14367377-.35075863.11744159-.11930575.33258736-.26501293.66028576-.39817292.50094241-.20355755 1.14488815-.32249702 1.94604047-.32249702.7876687 0 1.325931.15623033 2.438228.60821131.997078.40516188 1.4431907.53464583 2.061772.53464583.6754102 0 1.1916207-.09534624 1.5695845-.24893155.1996454-.08112572.3009059-.14970425.3240893-.17325565.3138259-.31880731.8563262-.0965945.8563262.35075863v6.85714283c0 .1312446-.0516035.2572269-.1436738.3507587-.1174416.1193057-.3325873.2650129-.6602857.3981729-.5009424.2035575-1.1448882.322497-1.9460405.322497-.7876687 0-1.325931-.1562303-2.438228-.6082113-.997078-.4051619-1.4431907-.5346458-2.061772-.5346458-.67541018 0-1.19162069.0953462-1.56958453.2489315-.07294107.0296395-.13274943.0576043-.18041547.0823101v3.8116155zm2.75-5.1428571c.7876687 0 1.325931.1562303 2.438228.6082113.997078.4051618 1.4431907.5346458 2.061772.5346458.6754102 0 1.1916207-.0953462 1.5695845-.2489315.0729411-.0296396.1327495-.0576043.1804155-.0823102v-5.77560474c-.4695443.15882856-1.0497158.24970358-1.75.24970358-.7876687 0-1.325931-.15623033-2.438228-.60821131-.997078-.40516187-1.4431907-.53464583-2.061772-.53464583-.67541018 0-1.19162069.09534624-1.56958453.24893155-.07294107.02963954-.13274943.05760425-.18041547.08231012v5.77560473c.46954429-.1588285 1.04971575-.2497035 1.75-.2497035z" fill-rule="evenodd"/></svg>