<svg height="24" viewBox="0 0 24 24" width="24" xmlns="http://www.w3.org/2000/svg"><path d="m15 21v1h-1v-1zm-2-1v2h-1v-2zm-2 0v2h-1v-2zm-2 0v2h-1v-1h-1v-1zm13 0v1h-1v1h-1v-2zm-3 0v2h-1v-2zm-2 0v2h-1v-2zm0-2.0303301-2.5 3-2.5-3zm-8 .0303301v1h-2v-1zm13 0v1h-2v-1zm-11-6v5l-3-2.5zm7 0 3 2.5-3 2.5zm-9 4v1h-2v-1zm13 0v1h-2v-1zm-7-14v4h-2v-2h-9v9h2v2h-4v-13zm-7 12v1h-1v-1zm14 0v1h-1v-1zm-13-2v1h-2v-1zm13 0v1h-2v-1zm-13-2v1h-2v-1zm13 0v1h-2v-1zm-7-3v1h-.474l2.474 2.9696699h-5l2.474-2.9696699h-.474v-1zm6 0v1h1v1h-2v-2zm-12 0v2h-2v-1h1v-1zm2 0v2h-1v-2zm2 0v2h-1v-2zm4 0v2h-1v-2zm2 0v2h-1v-2z"/></svg>