<svg height="24" viewBox="0 0 24 24" width="24" xmlns="http://www.w3.org/2000/svg"><path d="m12.4039387 21.7946753-.4039387.553716-.4039387-.553716c-4.39617946-6.0262484-6.5960613-10.2567904-6.5960613-12.7946753 0-3.86599325 3.13400675-7 7-7 3.8659932 0 7 3.13400675 7 7 0 2.5378849-2.1998818 6.7684269-6.5960613 12.7946753zm5.5960613-12.7946753c0-3.3137085-2.6862915-6-6-6s-6 2.6862915-6 6c0 2.176531 1.99891648 6.0903443 6 11.6479828 4.0010835-5.5576385 6-9.4714518 6-11.6479828zm-6 3c-1.6568542 0-3-1.3431458-3-3 0-1.65685425 1.3431458-3 3-3s3 1.34314575 3 3c0 1.6568542-1.3431458 3-3 3zm0-1c1.1045695 0 2-.8954305 2-2s-.8954305-2-2-2-2 .8954305-2 2 .8954305 2 2 2z" fill-rule="evenodd"/></svg>