<svg height="24" viewBox="0 0 24 24" width="24" xmlns="http://www.w3.org/2000/svg"><path d="m18 15c-.2660803 0-.5266722.0343966-.7777384.1015384l-.5574363.1490733-2.1899516-2.1899515-1.4142135 1.4142135 2.1899515 2.1899516-.1490733.5574363c-.0671418.2510662-.1015384.5116581-.1015384.7777384 0 1.634504 1.3071532 2.963706 2.9331229 2.9992693l-.2013968-.2020804c-.4614229-.4088573-.7317261-.996555-.7317261-1.625616 0-1.1993266.9722463-2.1715729 2.1715729-2.1715729.629061 0 1.2167587.2703032 1.5837202.687258l.2439246.2435455c-.036776-1.6248932-1.365491-2.9308035-2.9992177-2.9308035zm-1.0360864-.8645135c.3304533-.088372.6777677-.1354865 1.0360864-.1354865 2.209139 0 4 1.790861 4 4 0 .6783613-.1688643 1.3172822-.4668507 1.8770205l-1.4844129-1.4821061c-.2146358-.2422308-.5280691-.3949144-.8771635-.3949144-.6470419 0-1.1715729.524531-1.1715729 1.1715729 0 .3490944.1526836.6625277.3949144.8771635l1.4821061 1.4844129c-.5597383.2979864-1.1986592.4668507-1.8770205.4668507-2.209139 0-4-1.790861-4-4 0-.3583187.0471145-.7056331.1354865-1.0360864l-2.4890399-2.4890399 2.8284271-2.8284271zm-10.9639136-5.1354865c.26608032 0 .5266722-.03439664.77773845-.10153842l.5574363-.14907327 2.18995152 2.18995149 1.41421353-1.41421353-2.18995149-2.18995152.14907327-.5574363c.06714178-.25106625.10153842-.51165813.10153842-.77773845 0-1.63341696-1.30541515-2.96193787-2.92987935-2.99919662l.20460633.20489528c.4570281.41039245.72527302.99597907.72527302 1.62272846 0 1.19932659-.97224629 2.17157288-2.17157288 2.17157288-.62906101 0-1.21675874-.27030319-1.58372022-.68725801l-.24392458-.24354552c.03677597 1.62489324 1.36549098 2.93080353 2.99921768 2.93080353zm3.5390873 4.7538059 7.1966842-7.19668422-.6909751-1.38034498 3.8890873-3.18198052 2.1213203 2.12132034-3.1819805 3.8890873-1.3798723-.67276556-.0593414-.05934133-7.1878157 7.18781577 1.0675144 1.0675144-6.48528138 6.4852814-2.82842712-2.8284271 6.48528137-6.4852814zm2.8144661-4.22867963-2.82842713 2.82842713-2.48903988-2.48903988c-.33045326.08837197-.67776773.13548648-1.03608639.13548648-2.209139 0-4-1.790861-4-4 0-.67836131.16886433-1.31728224.46685073-1.87702051l1.48441288 1.48210608c.21463575.24223082.52806905.39491443.87716351.39491443.64704184 0 1.17157288-.52453104 1.17157288-1.17157288 0-.34909446-.15268361-.66252776-.39339828-.87867965l-1.48314876-1.48314876c.55962509-.29782959 1.198377-.46659871 1.87654704-.46659871 2.209139 0 4 1.790861 4 4 0 .35831866-.04711451.70563313-.13548648 1.03608639zm5.2216821-3.52501729.5068416.50684167.51821.25265656 2.1078873-2.57630675-.8414747-.84147466-2.5696916 2.10247495zm-14.16102194 13.18517242 1.41421356 1.4142135 5.07106782-5.0710678-1.41421357-1.4142135z" fill-rule="evenodd"/></svg>