<svg height="24" viewBox="0 0 24 24" width="24" xmlns="http://www.w3.org/2000/svg"><path d="m22 15.7099001v6.2900999h-20v-6.2900999l10 4.7368421zm-3-3.7099001v1.2865948s-.0011871.0136396-.0039488.0392657l-.0133967.1111842c-.0913288.6952108-.5952018 3.5629553-2.6930427 3.5629553-2.3798531 0-2.7684156-1.0015408-3.1511018-1.587057-.3826863-.5855162-.389297-1.6996886-1.13851-1.6996886-.4847849 0-.6589608.4664874-.8249961.9543971l-.0915753.265582c-.062936.1749043-.1320676.341941-.2219386.4797095-.3819517.5855162-.7712487 1.587057-3.15110175 1.587057-2.09784095 0-2.60171398-2.8677445-2.69304275-3.5629553l-.01339665-.1111842c-.00138087-.012813-.00236808-.0226295-.00301008-.0292426l-.00093877-1.2966179zm-.819-4 .6221488 2h2.1968512v1h-18v-1h2.19685118l.62114882-2zm-1.5464427-4.82974322c.0686065.12692198.1247343.26020213.1675943.39796661l1.0678484 3.43177661h-11.741l1.06884835-3.43177661c.36588593-1.17606192 1.61588164-1.83283933 2.79194356-1.4669534.13776449.04286006.27104459.09898789.39796659.16759436l.8989659.48592753c.4450859.24058697.9814653.24058697 1.4265512 0l.8989659-.48592753c1.0835021-.58567682 2.436639-.18210968 3.0223158.90139243z" fill-rule="evenodd"/></svg>