<svg height="24" viewBox="0 0 24 24" width="24" xmlns="http://www.w3.org/2000/svg"><path d="m4.50538588 15.4145722 1.03454768-12.4145722h3.41470985l.98121171 10.302723 2.06414488-.802723v3.5l9-3.5v8.5h-18v-5zm1.03707513-.403307 3.42474509-1.3318454-.92184951-9.6794198h-1.58529015zm12.52881709-6.24709386 2.3004571 2.30045706-.7071068.7071068-2.3004571-2.30045708c-.7110301.55896268-1.6077573.89235828-2.5823531.89235828-2.3095544 0-4.1818182-1.87226381-4.1818182-4.18181822s1.8722638-4.18181818 4.1818182-4.18181818 4.1818182 1.87226377 4.1818182 4.18181818c0 .97459586-.3333956 1.87132302-.8923583 2.58235316zm-7.0712781 8.69767356v-3.5l-7 2.7222222v3.3159329h16v-6.0381551zm3.7818182-8.09820854c1.7572696 0 3.1818182-1.42454852 3.1818182-3.18181818s-1.4245486-3.18181818-3.1818182-3.18181818c-1.7572697 0-3.1818182 1.42454852-3.1818182 3.18181818s1.4245485 3.18181818 3.1818182 3.18181818z" fill-rule="evenodd"/></svg>