<svg height="24" viewBox="0 0 24 24" width="24" xmlns="http://www.w3.org/2000/svg"><path d="m15.7139423 6.52901347-1.8013065-.41568612c-.8579514-.19798878-1.7590065-.06533212-2.5234946.37151819l-2.62245632 1.49854648c-.02977167.01701239-.0560598.03949835-.07748032.066274-.09388355.11735444-.07485664.28859667.0424978.38248022.45061508.36049206 1.03525962.5081854 1.60302034.40495618l3.0432628-.55332051 5.5936578 5.59365779.7922983-.4488557c1.2151992-.70341 1.6230566-2.2328753.9312699-3.4277796l-2.1625053-3.73523636c-.8940244.38947598-1.8788073.48035848-2.8187639.26344543zm2.7932741 8.29821293-5.465847-5.46584702-2.5277613.45959295c-.8523743.15497715-1.73009619-.06675361-2.40660079-.60795728-.54861637-.4388931-.63756466-1.2394277-.19867156-1.78804408.10013808-.1251726.22303156-.23029144.3622102-.30982209l1.53857369-.87918496-3.02268466-.48335724c-1.34639212-.21530144-2.69472245.37411558-3.45105499 1.50861439-.79989182 1.19983772-.96685759 2.71354394-.44770464 4.05887573l.32041492.8303226c.65471332-.2611552 1.39897598-.2365484 2.04425655.0860919l1.28045734.6402286c.41935537.2096777.77129677.5330551 1.01563721.9332068l2.37283661 3.8859498c.25476592.4172255.32312302.8974648.22688212 1.341931l1.154142 1.154142c.3503996.3503996.8857054.4372678 1.3289298.2156556.1703785-.0851892.239438-.2923678.1542488-.4627463-.0085622-.0171243-.0185199-.0334752-.0297563-.0488933l-2.6046568-2.5378707.697375-.7167062 2.5657888 2.4931722c.0279092.0271193.05459.0553999.079978.0847538l.3152524.307169c.2840507.2767674.7297949.2985528 1.039481.0508039.235701-.1885608.2739157-.5324929.0853549-.7681939-.0093298-.0116621-.0191336-.022937-.0293869-.0337961l-2.7684606-2.9320516.7254944-.688224 3.3753933 3.5416058c.342795.359675.8944763.4210026 1.3078926.1453917.2611492-.1740994.3317169-.5269381.1576175-.7880872-.0188581-.0282872-.0402165-.0548251-.0638182-.0792945l-.5286131-.5480474c-.0623177-.051124-.1221525-.1064319-.1791022-.1658793l-2.7923717-2.9148442.7209338-.6930018 2.9226027 3.0300513c.3428954.2550924.8164361.2738508 1.1821061.0300708.3301719-.2201146.419391-.66621.1992764-.9963819-.0098315-.0144907-.0098315-.0144907-.0201286-.0286544zm1.1176127-.1705394.3229398.4367028c.0246284.0338765.0246284.0338765.0481432.0685352.526467.7897006.3130741 1.8566653-.4766265 2.3831324-.2495057.1663371-.524455.2707486-.8053998.3153713.2259502.6576028-.0082404 1.4098512-.6139551 1.813661-.6614774.4409849-1.501945.4457877-2.1578011.054828-.0960412.2388503-.2531352.4569734-.4684918.6292586-.5102969.4082376-1.1831697.4944085-1.7606205.2711222-.1208743.2821912-.3384881.5247119-.6345718.6727538-.828213.4141065-1.8284903.2517839-2.4832502-.402976l-.94768062-.9476806c-.08232992.0814273-.1735675.1561454-.27339039.222694-.81712894.5447526-1.90404947.4431534-2.60606421-.2436001l-4.62925497-4.528619c-.70786411-.6924758-.72033883-1.8276755-.02786307-2.5355397.06981993-.0713714.14545299-.1367595.22609874-.1954967l-.38231138-.9907209c-.63615033-1.6485186-.43155681-3.50335678.54860029-4.97359243.97329068-1.45993602 2.70839697-2.21843054 4.44100906-1.94136869l4.27283305.68326835c.9082219-.42535288 1.9363226-.53656152 2.9203235-.30948438l1.8013065.41568612c.7310773.16871015 1.4970196.09802376 2.1848727-.20163499l.8274902-.3604908 2.6094731 4.5072716c.9685014 1.67286612.397501 3.81411752-1.2753651 4.78261892-.0062793.0036224-.2264272.128389-.6604436.3743zm-16.79905303-1.0910619c-.30626627.3130722-.30074898.8151452.0123232 1.1214115l4.62925497 4.528619c.36421703.3562992.92812964.4090106 1.35206986.1263838.37132511-.2475501.48096032-.7441148.2483854-1.1249984l-2.37283661-3.8859498c-.14660426-.240091-.3577691-.4341175-.60938233-.5599241l-1.28045733-.6402287c-.48416382-.2420819-1.06120135-.2045225-1.50989866.0982794l-.34618697.2336231c-.04446087.0300043-.08576287.064442-.12327153.1027842z" fill-rule="evenodd"/></svg>