<svg height="24" viewBox="0 0 24 24" width="24" xmlns="http://www.w3.org/2000/svg"><path d="m7 8h6.9v1h-9.9v2.5c0 .2761424.22385763.5.5.5h3.07084713c.82842713 0 1.5.6715729 1.5 1.5 0 .102528-.01051192.2047859-.03137089.3051697l-1.00572368 4.8400452c-.16711054.8042195.16731109 1.629831.84699815 2.0910472.68068549.4618937 1.57236149.4691149 2.26043839.0183059l.0347978-.0227986c.6951588-.4554488 1.0317213-1.2966865.8425451-2.1059404l-1.1184276-4.7843849c-.1885744-.8066792.3124986-1.6134915 1.1191777-1.8020659.1119299-.0261654.2264965-.0393782.341444-.0393782h2.2208169c-.0350163-.2981521-.024659-.6147571.0295444-.9557027.1367545-.866754.6613185-1.65722946 1.5218461-2.22512225-1.1924052-.73643256-1.5634226-1.31790579-1.4073008-2.31005834.2244684-1.41415123 1.704858-2.12716826 3.4538783-1.85011668 1.2728223.20176841 2.3111789.70173586 3.1105434 1.38482917l-.6496524.76023145c-.6632129-.56674558-1.5328062-.98545376-2.6174004-1.15738414-1.2644174-.20028861-2.1866697.24390636-2.3096288 1.01854577-.0999913.63544555.3246411 1.02205287 2.0465402 1.91573485 2.4263795 1.23905233 3.4797523 2.44835057 3.1713875 4.39341997-.1483118.9403274-.6086888 1.6787317-1.3579535 2.2574326 1.1604295.7761978 1.5434602 1.4735276 1.3858569 2.4728185-.2482917 1.5710869-1.7547943 2.2973927-3.6497748 1.9979598-1.343132-.2137174-2.5691788-.8861494-3.359319-1.6601643l.6997798-.7143585c.6496728.6364141 1.6917558 1.2079501 2.8161486 1.3868624 1.4098018.2227677 2.3581388-.2344387 2.5053997-1.1662445.1134228-.7191627-.2851949-1.1859256-1.9615874-2.0764628-1.6020856-.8433489-2.6182332-1.5938515-3.1057103-2.4722203h-2.5434144c-.0383158 0-.0765047.0044043-.1138146.0131261-.2688931.0628581-.4359174.3317955-.3730593.6006886l1.1184277 4.784385c.2847632 1.2181539-.2218578 2.4844526-1.2682668 3.1700309l-.0347977.0227985c-1.0258168.6720869-2.35516872.6613213-3.36996611-.0272912-1.01478447-.6886038-1.51408172-1.9212559-1.26458281-3.1219694l1.00572369-4.8400453c.00695299-.0334612.01045696-.0675472.01045696-.1017232 0-.2761424-.22385762-.5-.5-.5h-3.07084713c-.82842712 0-1.5-.6715729-1.5-1.5v-8.5h14v1h-10zm-1 0v-4h-2v4zm11.1540464 1.39271523c-.9214712.42772409-1.4421779 1.09123257-1.5552699 1.80801077-.2101063 1.3215943.5686037 2.1715146 2.8785463 3.3874884.0515193.0273681.1021573.0545472.1519221.0815503.7626382-.4699429 1.1888632-1.0561018 1.3143285-1.851577.2206599-1.3918546-.555577-2.282994-2.6413841-3.34814218-.0501992-.02605349-.0995775-.05182508-.1481429-.07733029zm-7.1540464 10.60728477c-.55228475 0-1-.4477153-1-1s.44771525-1 1-1c.5522847 0 1 .4477153 1 1s-.4477153 1-1 1z" fill-rule="evenodd"/></svg>