<svg height="24" viewBox="0 0 24 24" width="24" xmlns="http://www.w3.org/2000/svg"><path d="m12.0136464 2.00009312c.4040135.00551382.8090754.03504596 1.2070815.08820233l.7197113.09612223.6040162 3.28268397c.036267.01445565.0723764.02919788.1083252.04422548l2.7799605-1.89813961.5726866.4294974c.7210141.54073849 1.3639644 1.17486518 1.9153984 1.88808619l.4512216.58360697-1.930617 2.74470205c.0125129.0292415.0248301.05858305.0369518.08802659l3.3324391.59442361.0983648.72150727c.1210848.8881589.1210848 1.7856392 0 2.6737981l-.0983648.7215072-3.3328472.5944965c-.0119868.0290934-.024169.058098-.0365445.0870093l1.93052 2.7457731-.4511238.5834804c-.5506018.7121446-1.1933088 1.3453872-1.9153984 1.8869322l-.5726866.4294974-2.7797419-1.8979903-.1085605.044376-.604238 3.2850974-.7215381.0948366c-.1754709.0230633-.5045336.0506447-1.0110971.0857551l-.1013798.0018737-.040408-.000466h-.1315554c-.0191071.0001036-.0339858.0002589-.040408.000466l-.1013798-.0018737c-.5065635-.0351104-.8356262-.0626918-1.0110971-.0857551l-.7215381-.0948366-.60422394-3.285021c-.03643367-.014541-.07265279-.029342-.10864955-.0444011l-2.77966693 1.897939-.5726866-.4294974c-.72208957-.541545-1.3647966-1.1747876-1.91539839-1.8869322l-.45112378-.5834804 1.93056064-2.745831c-.01236721-.0288912-.02453955-.057871-.03651676-.0869392l-3.33291562-.5945087-.09836478-.7215072c-.12108479-.8881589-.12108479-1.7856392 0-2.6737981l.09836478-.72150727 3.3323342-.59440491c.01213413-.02946717.02446872-.05884334.03700149-.08812382l-1.93056181-2.74462352.45122164-.58360697c.55143404-.71322101 1.19438427-1.3473477 1.91539839-1.88808619l.5726866-.4294974 2.7799403 1.89812582c.03603207-.01507924.07215566-.02984372.10835988-.04429033l.60400174-3.28260533.7197113-.09612223c.3980061-.05315637.803068-.08268851 1.2343743-.08820233zm-.0136464 1.99890688-.243.009-.5457204 2.96909254-.6991407.23379201c-.1592372.05167804-.3142574.11044604-.4665153.17699707l-.22649716.10575044-.64783809.3193114-2.52328835-1.72294346-.00923394.00992852c-.08902674.08021685-.17622097.1624074-.26153571.24652207l-.24523035.25154941 1.74451806 2.48015036-.33553861.66151758c-.07473971.1460718-.14201559.29537096-.2010647.44576256l-.08230821.2261399-.22996704.6984682-3.0196395.5379614-.008.3519366.008.3510634 3.01788751.5385222.22998562.6924103c.05178721.1544279.11141225.3065125.1791009.456597l.10760891.2236695.33387132.6582442-1.74445426 2.4795568.24433387.2519613.12938199.1246246.14228414.1314141 2.52328835-1.7222241.65252064.3216346c.14460486.0722159.29530491.1381199.45133911.1975715l.2379565.0843207.6972468.2270639.5466486 2.9736334.1449844.0092741.2060156-.0002741.134-.009.5476486-2.9736334.6947279-.2262399c.1628571-.0535135.3196413-.1131834.4717251-.1798017l.224772-.1052377.6478381-.3193114 2.5222883 1.7222241.0110651-.0096591c.0890846-.0802061.1762992-.1623472.261601-.2463796l.2433339-.2519613-1.7434543-2.4795568.3354749-.6613918c.0747397-.1460718.1420155-.295371.201309-.4465014l.0828885-.2278946.2308944-.6951332 3.0168875-.5385222.009-.3510634-.009-.3519366-3.0186395-.5379614-.2282336-.6932518c-.0517872-.1544279-.1114123-.3065124-.1791009-.4565969l-.1076089-.22366953-.3339352-.65837001 1.7435181-2.48015036-.2442303-.25154941-.1293759-.12472271-.1423938-.13172788-2.5222883 1.72294346-.6509502-.32085203c-.1477848-.07348023-.2989874-.13951563-.4566601-.19917287l-.3728479-.12868485-.5595331-.18714117-.5467204-2.96909254zm4 8.0009099c0 2.1693931-1.7758785 3.9402152-4.0217734 4.0001832-2.20234815-.059968-3.9782266-1.8307901-3.9782266-4.0001832 0-2.16621291 1.77123867-3.93339313 4.02409-3.99981678 2.2046713.06642365 3.97591 1.83360387 3.97591 3.99981678zm-2 .0000894c0-1.082155-.8911131-1.9664997-2-1.9999062-1.1088869.0334065-2 .9177512-2 1.9999062 0 1.0844946.8940595 1.9699825 2 2.0000938 1.1059405-.0301113 2-.9155992 2-2.0000938z" fill-rule="evenodd"/></svg>