<svg height="24" viewBox="0 0 24 24" width="24" xmlns="http://www.w3.org/2000/svg"><path d="m22.025 4-.001 7.893-6.524-4.893v2.5h-1.3967222l-.4516106-.00555222c-3.6088728-.08875497-7.11533712-1.23967228-10.07820486-3.3136797l-1.14692468 1.63846384.38294002.26161379c3.34165474 2.22755199 7.27085042 3.41915429 11.29380012 3.41915429h3.3967222v-.5l1.333 1-1.333 1v-.5h-3.3967222l-.4637423.0052793c-4.01500746.0914315-7.91726901 1.3684786-11.21299784 3.6754888l1.14692468 1.6384638.37315779-.2544331c3.0074015-1.9968418 6.54001667-3.0647988 10.15665767-3.0647988h1.3967222v2.5l6.524-4.895.001 7.895h-20.05v-16z"/></svg>