<svg height="24" viewBox="0 0 24 24" width="24" xmlns="http://www.w3.org/2000/svg"><path d="m22 19v1h-20v-1zm-18.68765248-12.8904344c3.03557053 2.42845642 6.78096088 3.79096969 10.65932898 3.88519455l.4314477.00523985h1.5968758v-2.46032778l6.3718968 4.46032778-6.3718968 4.4603278v-2.4603278h-1.5968758c-3.887427 0-7.66324081 1.2757827-10.7505993 3.6250028l-.34017738.2654316-.62469504-.7808688c3.21064617-2.5685169 7.17300965-4.0081729 11.27541982-4.1044054l.4400519-.0051602h2.5968758v1.539l3.628-2.54-3.628-2.539v1.54h-2.5968758c-4.1116332 0-8.10506524-1.35108641-11.36862531-3.83869675l-.34684641-.27086885zm18.68765248-2.1095656v1h-20v-1z"/></svg>