<svg height="24" viewBox="0 0 24 24" width="24" xmlns="http://www.w3.org/2000/svg"><path d="m15.1445451 14.4386885c.007428.0065985.0147066.0134564.021824.0205738l7.1871843 7.1871843-.7071068.7071068-7.1871843-7.1871843c-.0071174-.0071174-.0139753-.014396-.0205738-.021824-1.3193328 1.155288-3.0472443 1.8554549-4.9386885 1.8554549-4.14213562 0-7.5-3.3578644-7.5-7.5 0-4.14213562 3.35786438-7.5 7.5-7.5 4.1421356 0 7.5 3.35786438 7.5 7.5 0 1.8914442-.7001669 3.6193557-1.8554549 4.9386885zm-5.6445451 1.5613115c3.5898509 0 6.5-2.9101491 6.5-6.5 0-3.58985087-2.9101491-6.5-6.5-6.5-3.58985087 0-6.5 2.91014913-6.5 6.5 0 3.5898509 2.91014913 6.5 6.5 6.5z" fill-rule="evenodd"/></svg>