<svg height="24" viewBox="0 0 24 24" width="24" xmlns="http://www.w3.org/2000/svg"><path d="m14.7618854 3.94219183c1.5873055-1.42857487 4.0035745-1.35180672 5.4978193.13814719l.1512162.15917047.5061994.56244376c1.3310084 1.47889824 1.366683 3.70005701.1149289 5.21835155l-.1443814.1657335-9.0575208 9.8451313c-.5207322.5660132-1.236929.9084222-1.99894646.9615597l-.20884658.0072707h-4.62235396c-1.59768088 0-2.90366088-1.24892-2.99490731-2.8237272l-.00509269-.1762728v-4.2146195c0-.6883948.23666005-1.3536395.66681226-1.8858057l.13480727-.1555476 6.64603808-7.15727179 1.46558699 1.3609022-6.64603809 7.15727179c-.14312802.1541379-.23326942.3486291-.25934077.5552493l-.00786574.1252018v4.2146195c0 .5128358.38604019.9355072.88337887.9932723l.11662113.0067277h4.62235396c.23972317 0 .47005684-.0860477.65021944-.2402472l.0857116-.0826963 9.0575208-9.84513127c.659695-.71705979.7020339-1.79690988.1233031-2.56067903l-.1085769-.13136349-.5061993-.56244375c-.7389181-.82102005-2.0034978-.88757687-2.8245178-.14865883l-.1103464.10727794-7.4894685 7.86294193v1.101h1.054l4.8716706-5.41225888 1.4865883 1.33792948-5.4668965 6.0743294h-3.9453624v-3.9l8.0411926-8.44325227c.0707844-.07432356.1444031-.14589517.2206928-.2145559z" fill-rule="evenodd"/></svg>