<svg height="24" viewBox="0 0 24 24" width="24" xmlns="http://www.w3.org/2000/svg"><path d="m14 21v1h-4v-1zm1-3v2h-6v-2zm-3-15c3.3137085 0 6 2.6862915 6 6 0 2.0946859-1.0861962 4.0141144-2.8387874 5.1007966l-.1612126.0952034-.000241 2.8041481-1.9999447-.000482.0007463-4.0174152.8169673-.417712c1.3382278-.6842303 2.1824721-2.0555037 2.1824721-3.5645389 0-2.209139-1.790861-4-4-4s-4 1.790861-4 4c0 1.3676897.69380074 2.6256097 1.80937153 3.3495029l.18978709.1156315.18404848.0997803.8176867.4178659-.0011901 4.0176637-1.9997037-.0004443v-.001l-.00029622.0008518.00029622-2.8028518-.18436389-.1106702c-1.6732976-1.0481432-2.72875405-2.8535501-2.81051329-4.83745401l-.00512282-.24887579c0-3.3137085 2.6862915-6 6-6zm-.4681646 2.32443828.9363292.35112344-1.2471646 3.32443828h3.0005002l-1.7533356 4.6755617-.9363292-.3511234 1.2461646-3.3244383h-2.99950023z" fill-rule="evenodd"/></svg>