<svg height="24" viewBox="0 0 24 24" width="24" xmlns="http://www.w3.org/2000/svg"><path d="m21 3v18h-7l2-2h3v-14h-14v14h7l2 2h-11v-18zm-7 9.0857864 3.9142136 3.9142136-3.9142136 3.9142136-1.4142136-1.4142136 1.4992136-1.5h-6.085v-2h6.085l-1.4992136-1.5zm-4.165-6.4667864c1.5 0 2.25.999 2.25 2.997v.468l-.0033284.22610503c-.0554734 1.84726327-.8043639 2.77089497-2.2466716 2.77089497-1.5 0-2.25-.999-2.25-2.997v-.468l.0033284-.22610503c.05547338-1.84726331.80436391-2.77089497 2.2466716-2.77089497zm4.8425 0c.702 0 1.2525.2295 1.6515.6885s.5985 1.1385.5985 2.0385v.468l-.0031481.23751852c-.0545679 2.01965428-.8185186 3.02948148-2.2918519 3.02948148-.528 0-.9585-.144-1.2915-.432s-.5475-.666-.6435-1.134h1.107l.0605556.1171111c.1736296.2939259.4444444.4408889.8124444.4408889.768 0 1.167-.564 1.197-1.692-.33.36-.759.54-1.287.54-.642 0-1.1475-.186-1.5165-.558s-.5535-.885-.5535-1.539v-.108l.0073889-.20177778c.0394074-.52681481.2364444-.96355555.5911111-1.31022222.399-.39.9195-.585 1.5615-.585zm-4.8425 1.008c-.378 0-.6585.144-.8415.432s-.2745.807-.2745 1.557v.468l.0035.23777778c.01866667.61214815.112 1.04888892.28 1.31022222.189.294.4665.441.8325.441.372 0 .651-.1455.837-.4365s.279-.8085.279-1.5525v-.468l-.0035-.23777778c-.0186667-.61214815-.112-1.04888889-.28-1.31022222-.189-.294-.4665-.441-.8325-.441zm4.8425 0c-.306 0-.5535.0975-.7425.2925s-.2835.4605-.2835.7965v.108l.0057857.13968367c.0231429.2707347.1157143.48967347.2777143.65681633.189.195.4365.2925.7425.2925.348 0 .621-.0975.819-.2925s.297-.4605.297-.7965v-.108l-.0060612-.13968367c-.0242449-.2707347-.1212245-.48967347-.2909388-.65681633-.198-.195-.471-.2925-.819-.2925z" fill-rule="evenodd"/></svg>