<svg height="24" viewBox="0 0 24 24" width="24" xmlns="http://www.w3.org/2000/svg"><path d="m19.6 20c.7908131 0 1.4-.5129995 1.4-1.1v-12.8c0-.58700054-.6091869-1.1-1.4-1.1h-15.2c-.79081314 0-1.4.51299946-1.4 1.1v12.8c0 .5870005.60918686 1.1 1.4 1.1zm-11.6-4v-3h-5v-1h5v-3h1v3h6v-3h1v3h5v1h-5v3h5v1h-5v3h-1v-3h-6v3h-1v-3h-5v-1zm1 0h6v-3h-6zm9-12h1.6c1.3086869 0 2.4.91900054 2.4 2.1v12.8c0 1.1809995-1.0913131 2.1-2.4 2.1h-15.2c-1.30868686 0-2.4-.9190005-2.4-2.1v-12.8c0-1.18099946 1.09131314-2.1 2.4-2.1h1.6v-1.85h1v1.85h10v-1.85h1zm-15 5v-1h18v1z" fill-rule="evenodd"/></svg>