<svg height="24" viewBox="0 0 24 24" width="24" xmlns="http://www.w3.org/2000/svg"><path d="m19 11v4.3382679l3.0900099 3.5903035h-6.6159867c-.2113199 1.7308317-1.6861149 3.0714286-3.4740232 3.0714286s-3.26270333-1.3405969-3.47402322-3.0714286h-6.52597678l3-3.4857203v-4.4428511c0-3.69797921 2.36752145-6.7262129 6.0003026-6.98243932-.0001341-.00388585-.000235-.67640607-.0003026-2.01756068 0-.27614237 0-1 1-1s1 .72385763 1 1c-.0000676 1.34115461-.0001685 2.01367483-.0003026 2.01756068 3.6327811.25622642 6.0003026 3.28446011 6.0003026 6.98243932zm-7 9c.7405001 0 1.358182-.4294399 1.5-1h-3c.141818.5705601.7594999 1 1.5 1zm4.9214928-8.9275138c0-2.80145678-2.2200798-5.0724862-4.9586871-5.0724862-2.73860722 0-4.95868705 2.27102942-4.95868705 5.0724862v4.0697606l-1.50411865 1.8577532h13l-1.5785072-1.9461693z" fill-rule="evenodd"/></svg>