<svg height="24" viewBox="0 0 24 24" width="24" xmlns="http://www.w3.org/2000/svg"><path d="m20.9986088 10.8401405 1.7488145-1.99864511 1.5051534 1.31700921-3.5 4c-.3984113.4553272-1.1067421.4553272-1.5051534 0l-3.5-4 1.5051534-1.31700921 1.7455493 1.99491351c-.0869247-3.7904275-3.1868118-6.8364089-6.998126-6.8364089-1.9100419 0-3.69565494.76731323-5.00490637 2.10602859l-1.429861-1.39839104c1.68176252-1.7196096 3.98100029-2.70763755 6.43476737-2.70763755 4.9171664 0 8.9133188 3.94332962 8.9986088 8.8401405zm-15.9986088.8213089v.3385506c0 3.8659933 3.13400675 7 7 7v2c-4.97056275 0-9-4.0294373-9-9v-.3385506l-1.74742331 1.9970552-1.50515339-1.3170092 3.50000001-4.00000001c.39841129-.45532719 1.10674209-.45532719 1.50515338 0l3.5 4.00000001-1.50515338 1.3170092zm15.4366729 6.7758447.9780965.7454118c.0859985.0709412.1126689.1932353.0533408.2895882l-.9253 1.5554118c-.0598723.0963529-.1785284.135-.2846658.0963529l-1.1495491-.45c-.2384008.18-.5023834.3282353-.7799734.4436471l-.171997 1.1895882c-.0201388.1090588-.1192004.1927059-.2313249.1927059h-1.8506c-.1121245 0-.2117304-.0836471-.2313249-.1863529l-.171997-1.1895883c-.2841215-.1154117-.5415726-.2631176-.7799734-.4431176l-1.1495491.45c-.1061374.0381176-.2247935 0-.2846658-.0968824l-.9253-1.5554117c-.0593281-.096353-.0326577-.2186471.0533408-.2895883l.9780965-.7454117c-.0201389-.1477059-.0332019-.2959412-.0332019-.4436471s.013063-.2959412.0332019-.4372941l-.9780965-.7454118c-.0859985-.0709412-.1126689-.1932353-.0533408-.2895882l.9253-1.5554118c.0598723-.0963529.1785284-.135.2846658-.0963529l1.1495491.45c.2384008-.18.5023834-.3282353.7799734-.4436471l.171997-1.1895882c.0195945-.1090588.1192004-.1927059.2313249-.1927059h1.8506c.1121245 0 .2111861.0836471.2313249.1863529l.171997 1.1895883c.2841215.1154117.5415726.2631176.7799734.4431176l1.1495491-.45c.1061374-.0381176.2247935 0 .2846658.0968824l.9253 1.5554117c.0593281.096353.0326577.2186471-.0533408.2890589l-.9780965.7459411c.0201389.1477059.0332019.2959412.0332019.4436471s-.013063.2959412-.0332019.4372941zm-3.4366729.8862353c.7516701 0 1.3607352-.5924118 1.3607352-1.3235294s-.6090651-1.3235294-1.3607352-1.3235294-1.3607352.5924118-1.3607352 1.3235294.6090651 1.3235294 1.3607352 1.3235294z" fill-rule="evenodd"/></svg>