<svg height="24" viewBox="0 0 24 24" width="24" xmlns="http://www.w3.org/2000/svg"><path d="m20.7877634 20-9.2673957-16.42856522-8.84615054 16.42856522zm1 0c0 .5522847-.4477152 1-1 1h-18.11354624c-.16548914 0-.32839142-.0410705-.47409982-.1195289-.48627077-.2618381-.66820938-.8683002-.40637128-1.3545709l8.84615054-16.42856524c.0896051-.16640946.2245345-.30401871.3891499-.39687865.4810281-.2713492 1.0909504-.10137084 1.3622996.37965728l9.2673958 16.42856521c.0845805.1499382.1290215.3191721.1290215.4913212zm-10.7877634-4h1v2h-1zm0-9h1v7h-1z" fill-rule="evenodd"/></svg>