<?xml version="1.0" encoding="UTF-8" standalone="no"?>
<!DOCTYPE svg PUBLIC "-//W3C//DTD SVG 1.1//EN" "http://www.w3.org/Graphics/SVG/1.1/DTD/svg11.dtd">
<svg width="100%" height="100%" viewBox="0 0 24 24" version="1.1" xmlns="http://www.w3.org/2000/svg" xmlns:xlink="http://www.w3.org/1999/xlink" xml:space="preserve" xmlns:serif="http://www.serif.com/" style="fill-rule:evenodd;clip-rule:evenodd;stroke-linejoin:round;stroke-miterlimit:2;">
    <path d="M15,2L20,7L20,22L18,22L18,7.83L14.17,4L6,4L6,13L4,13L4,2L15,2ZM14,13L10,13L10,14L8,14L8,12C8,11.263 8.264,11 9,11L15,11C15.736,11 16,11.263 16,12L16,20L14,17L14,13ZM7.5,14.5C8.227,14.5 8.924,14.723 9.508,15.133L8.359,16.77C8.11,16.595 7.814,16.5 7.5,16.5C6.672,16.5 6,17.172 6,18C6,18.575 6.325,19.091 6.832,19.344L5.939,21.134C4.762,20.546 4,19.342 4,18C4,16.067 5.567,14.5 7.5,14.5ZM11,15L12.152,17.016L13.857,20L15,22L7,22L8.143,20L9.848,17.016L11,15ZM11,18.366L9.686,20.665L12.314,20.665L11,18.366Z"/>
</svg>
