<svg height="24" viewBox="0 0 24 24" width="24" xmlns="http://www.w3.org/2000/svg"><path d="m18 14v6h-1v-5h-2v5h-1v-6zm-6-6v12h-1v-11h-2v11h-1v-12zm-6-4v16h-1v-15h-2v15h-1v-16zm9.5-1c3.5898509 0 6.5 2.91014913 6.5 6.5 0 2.0183131-.9269439 3.8823967-2.4745212 5.1038472l-.2148514.1625323-.5868286-.8097112c.1015637-.0736071.2002468-.1503536.2959415-.2300676l-3.8732937-3.87304731.2065534-.20755339-.353-.146.0002379-5.47745162c-1.8835253.17059055-3.5371482 1.29701611-4.3944861 2.96532443l-.1033656.21216933-.90813026-.41868776c1.05383116-2.28575113 3.34410506-3.78135438 5.90574406-3.78135438zm4.2265614 2.9803837-3.5195614 3.5196163 3.5202069 3.5196186c.809546-.9709415 1.2727931-2.2062997 1.2727931-3.5196186 0-1.3387897-.4783412-2.56585681-1.2734386-3.5196163zm-3.7259493-1.957907-.0006121 4.2695233 3.0196163-3.01856135c-.8335387-.69487584-1.8758268-1.14781661-3.0190042-1.25096195z"/></svg>