<svg height="24" viewBox="0 0 24 24" width="24" xmlns="http://www.w3.org/2000/svg"><path d="m21 3v18h-18v-18zm-9 9.0857864-3.91421356 3.9142136 1.41421356 1.4142136 1.4997864-1.4994272.0002136 4.0852136h2l-.0002136-4.0852136 1.5002136 1.4994272 1.4142136-1.4142136zm-2.665-5.9667864c-1.44230769 0-2.19119822.92363166-2.2466716 2.77089497l-.0033284.22610503v.468c0 1.998.75 2.997 2.25 2.997 1.4423077 0 2.1911982-.9236317 2.2466716-2.77089497l.0033284-.22610503v-.468c0-1.998-.75-2.997-2.25-2.997zm5.3425 0c-.642 0-1.1625.195-1.5615.585-.3546667.34666667-.5517037.78340741-.5911111 1.31022222l-.0073889.20177778v.108c0 .654.1845 1.167.5535 1.539s.8745.558 1.5165.558c.528 0 .957-.18 1.287-.54-.03 1.128-.429 1.692-1.197 1.692-.368 0-.6388148-.146963-.8124444-.4408889l-.0605556-.1171111h-1.107c.096.468.3105.846.6435 1.134s.7635.432 1.2915.432c1.4733333 0 2.237284-1.0098272 2.2918519-3.02948148l.0031481-.23751852v-.468c0-.9-.1995-1.5795-.5985-2.0385s-.9495-.6885-1.6515-.6885zm-5.3425 1.008c.366 0 .6435.147.8325.441.168.26133333.2613333.69807407.28 1.31022222l.0035.23777778v.468c0 .744-.093 1.2615-.279 1.5525s-.465.4365-.837.4365c-.366 0-.6435-.147-.8325-.441-.168-.2613333-.26133333-.6980741-.28-1.31022222l-.0035-.23777778v-.468c0-.75.0915-1.269.2745-1.557s.4635-.432.8415-.432zm5.3425 0c.348 0 .621.0975.819.2925.1697143.16714286.2666939.38608163.2909388.65681633l.0060612.13968367v.108c0 .336-.099.6015-.297.7965s-.471.2925-.819.2925c-.306 0-.5535-.0975-.7425-.2925-.162-.16714286-.2545714-.38608163-.2777143-.65681633l-.0057857-.13968367v-.108c0-.336.0945-.6015.2835-.7965s.4365-.2925.7425-.2925z" fill-rule="evenodd"/></svg>