<svg height="24" viewBox="0 0 24 24" width="24" xmlns="http://www.w3.org/2000/svg"><path d="m4.99559463 19.0903411c-.01583368-.0122989-.03106911-.025746-.04559463-.0403411-.18465841-.1855433-.18465841-.4863684 0-.6719117l9.3816312-9.3780883h-5.8316312c-.27614237 0-.5-.22385763-.5-.5s.22385763-.5.5-.5h6.9698267c.0050467 0 .0100759.00007477.0150866.00022326.0050108-.00014849.01004-.00022326.0150867-.00022326.0046241 0 .0092336.00006277.0138276.00018751.1254143-.00353047.2519602.04279285.3476786.13896995.0954319.0958892.1415444.22256839.1383374.3482129.0001041.00419724.0001564.00840733.0001564.01262964v6.9698267c0 .2761424-.2238576.5-.5.5s-.5-.2238576-.5-.5v-5.79757672l-9.03854697 9.03513372c1.64219 1.4801089 3.7736559 2.3176163 6.03854697 2.3176163 4.9843699 0 9.025-4.0406301 9.025-9.025 0-4.98436987-4.0406301-9.025-9.025-9.025-4.98436987 0-9.025 4.04063013-9.025 9.025h-.95c0-5.50904038 4.46595962-9.975 9.975-9.975 5.5090404 0 9.975 4.46595962 9.975 9.975 0 5.5090404-4.4659596 9.975-9.975 9.975-2.65989773 0-5.15562303-1.0464488-7.01025627-2.8787366z" fill-rule="evenodd"/></svg>