<svg width="24" height="24" viewBox="0 0 24 24" fill="none" xmlns="http://www.w3.org/2000/svg">
<path fill-rule="evenodd" clip-rule="evenodd" d="M7.99999 7H6.99999V8V11.8958V12.8958H7.99999H8.61305C8.52731 13.0479 8.428 13.1929 8.31578 13.3292L6.22806 15.8643L7.77192 17.1357L9.85964 14.6006C10.5969 13.7054 11 12.5818 11 11.4221V8V7H9.99999H7.99999ZM14 7H13V8V11.8958V12.8958H14H14.613C14.5273 13.0479 14.428 13.1929 14.3158 13.3292L12.2281 15.8643L13.7719 17.1357L15.8596 14.6006C16.5969 13.7054 17 12.5818 17 11.4221V8V7H16H14Z" fill="black"/>
</svg>
