<svg height="24" viewBox="0 0 24 24" width="24" xmlns="http://www.w3.org/2000/svg"><path d="m12 2c5.5228475 0 10 4.4771525 10 10s-4.4771525 10-10 10-10-4.4771525-10-10 4.4771525-10 10-10zm1 3.5h-2l-.0001843 1.60005553c-2.2821485.46334155-3.9998157 2.48105168-3.9998157 4.89994447 0 2.4188915 1.71766536 4.4366008 3.999812 4.8999437l.000188 1.6000563h2v-1.5h2v-2h-3l-.1762728-.0050927c-1.5748072-.0912464-2.8237272-1.3972264-2.8237272-2.9949073 0-1.6568542 1.3431458-3 3-3h3v-2h-2z" fill-rule="evenodd"/></svg>