<?xml version="1.0" encoding="UTF-8" standalone="no"?>
<!DOCTYPE svg PUBLIC "-//W3C//DTD SVG 1.1//EN" "http://www.w3.org/Graphics/SVG/1.1/DTD/svg11.dtd">
<svg width="100%" height="100%" viewBox="0 0 24 24" version="1.1" xmlns="http://www.w3.org/2000/svg" xmlns:xlink="http://www.w3.org/1999/xlink" xml:space="preserve" xmlns:serif="http://www.serif.com/" style="fill-rule:evenodd;clip-rule:evenodd;stroke-linejoin:round;stroke-miterlimit:2;">
    <path d="M16,23L2,23L2,1L16,1L16,23ZM14,3L4,3L4,21L14,21L14,3ZM13,4L13,10L5,10L5,4L13,4ZM11,6L7,6L7,8L11,8L11,6ZM8,12L10,12L10,14L8,14L8,12ZM10,18L10,20L8,20L8,18L10,18ZM5,15L7,15L7,17L5,17L5,15ZM13,15L13,17L11,17L11,15L13,15ZM19,23L17,23L17,1L19,1L19,23ZM22,23L20,23L20,1L22,1L22,23Z"/>
</svg>
