<svg height="24" viewBox="0 0 24 24" width="24" xmlns="http://www.w3.org/2000/svg"><path d="m19.0010676 1.64776656 3.4011661 3.40116602-4.2560737 5.20186782-2.0063736-.97803384-4.833 4.83400004 1.4211357 1.4216605-6.89949498 6.899495-4.24264068-4.2426407 6.89949493-6.899495 1.40650507 1.4069802 4.86199996-4.86200004-.9612018-1.92151392zm-4.8802812 11.05901984 1.8471393 1.8470959c.595537-.3519287 1.2902213-.5538823 2.0320743-.5538823 2.1421954 0 3.8910789 1.6839685 3.9951047 3.8003597l.0048953.1996403v2l-2-2c0-1.1045695-.8954305-2-2-2s-2 .8954305-2 2c0 1.0543618.8158778 1.9181651 1.8507377 1.9945143l.1492623.0054857 2 2h-2c-2.209139 0-4-1.790861-4-4 0-.741853.2019536-1.4365373.5538823-2.0320743l-1.8470959-1.8471393zm-5.63550503 1.4074272-4.07106781 4.0710678 1.41421356 1.4142135 4.07106782-4.0710678zm-2.48528137-12.1142136c2.209139 0 4 1.790861 4 4 0 .74185304-.20195358 1.4365373-.55388232 2.03207434l1.84666872 1.8467121-1.41399996 1.41399996-1.8467121-1.84666872c-.59553704.35192874-1.2902213.55388232-2.03207434.55388232-2.14219539 0-3.89107888-1.68396847-3.99510469-3.80035966l-.00489531-.19964034v-2l2 2c0 1.1045695.8954305 2 2 2s2-.8954305 2-2c0-1.0543618-.81587779-1.91816512-1.85073766-1.99451426l-.14926234-.00548574-2-2zm12.8666997 2.3418258-2.5696916 2.10247495.2782274.55580823.5068416.50684167.51821.25265656 2.1078873-2.57630675z"/></svg>