<svg height="24" viewBox="0 0 24 24" width="24" xmlns="http://www.w3.org/2000/svg"><path d="m13.9979106 14.9999952c1.1337216-.0047157 2.1287115.7540338 2.424125 1.8485969.295415 1.0945687-.1827171 2.2509022-1.1648848 2.8172035-.9276029.5348402-2.0854449.4169137-2.8845713-.2751818l-.1371788-.1280787.7091986-.7050088c.4795751.4824251 1.2237494.5817371 1.81305.2419563s.8761799-1.0335809.6989309-1.6903221c-.1654322-.6129577-.6965143-1.0503986-1.3213507-1.1036851l-.1352295-.0054625h-12v-1.0000177zm6.9982602-8.59766496c1.1747523.67863176 1.7478562 2.06120433 1.3977313 3.37192806-.3342101 1.2511454-1.4302191 2.1395562-2.7099031 2.2198477l-.183999.0059247h-17.5v-1l17.4991054.0000008c.9044528-.0016182 1.6952551-.6100319 1.9286717-1.48384773.2334166-.87381582-.1486526-1.79553087-.9318209-2.24795204-.7342202-.42414485-1.6496351-.33684821-2.2888302.20202239l-.1240206.11377737-.7062108-.7080016c.9605325-.95810302 2.4445238-1.1523314 3.6192762-.47369965zm-8.73902-3.0680645c.9821677.56630135 1.4602998 1.72263488 1.1648848 2.81720358-.2798654 1.03695446-1.1876055 1.77251397-2.2445744 1.84304418l-.1774612.00553501h-9v-1l9.0020894.00000436c.6802421.00284269 1.277242-.4524116 1.4544908-1.10915195.177249-.65674122-.1096303-1.35054134-.6989309-1.69032215-.5472077-.31551075-1.2279545-.25241594-1.7063868.1444639l-.10666323.09749243-.70919854-.70500882c.79929177-.80404183 2.03958237-.96956189 3.02175007-.40326054z"/></svg>