<svg height="24" viewBox="0 0 24 24" width="24" xmlns="http://www.w3.org/2000/svg"><path d="m3 4v15h19v1h-20v-16zm3.6128396 1c1.10830246 0 2.18208112.2404453 3.16826687.68519373.44719503-.42454213 1.05260503-.68519373 1.71889353-.68519373 1.3807119 0 2.5 1.11928813 2.5 2.5 0 .56871636-.189901 1.09307897-.5097519 1.5131368.1489484.24416102.2873302.4990046.4143831.76259225l.1281389.27753795c.353161.7994568.7744692 1.5552237 1.2560169 2.2589559.3603439-.1992629.7725869-.3122229 1.211213-.3122229 1.3807119 0 2.5 1.1192881 2.5 2.5 0 .4476854-.1176743.8678864-.3237794 1.2313598.4250211.296235.8685704.5645151 1.3276944.8043532l.3290634.1657187.6670216.3235605-.4061525.9750078-.6670216-.3235605c-.6819109-.330783-1.3338219-.7189432-1.9505834-1.1590467-.4126571.303225-.9235013.4826072-1.4762425.4826072-1.3807119 0-2.5-1.1192881-2.5-2.5 0-.5719114.1920407-1.0989693.515155-1.5202065-.454476-.6588629-.8598023-1.3622338-1.2100806-2.102461l-.1665153-.3640714c-.1268091-.2870599-.2685927-.56309889-.4240612-.82723856-.3613722.20039819-.7746711.31397746-1.2144979.31397746-1.3807119 0-2.5-1.11928813-2.5-2.5 0-.27614237.04477153-.5418278.12745166-.79019336l.04865571-.13379881c-.72369782-.29672275-1.4972846-.46977087-2.29434074-.50164745l-.26892703-.0053731h-2.6128396v-1.06898728zm9.8871604 8c-.194924 0-.3811641.0371805-.5520151.1048364l-.0542735.0246767-.1240303.0599729c-.0077428.0043241-.0154434.0087149-.0231008.0131715-.029909.0183751-.0595461.0369115-.0884634.0564493l.0884634-.0564493c-.0448332.0260927-.0881905.0544428-.1299165.0848945l.0414531-.0284452c-.0398366.0269153-.0783071.055731-.1152842.0863153l.0738311-.0578701c-.0390997.0285352-.076767.0589158-.1128735.0910138l.0390424-.0331437c-.0378034.0312678-.074046.0643841-.1085917.0992084l.0695493-.0660647c-.0354418.031507-.0693798.0646687-.101693.0993639l.0321437-.0332992c-.072859.0734466-.1381702.1544902-.1946575.2418108-.1516412.2345333-.2395835.513776-.2395835.8135587 0 .8284271.6715729 1.5 1.5 1.5.2857784 0 .5528911-.0799178.7802081-.2186236.0322276-.0197797.0638667-.0407654.0946303-.0628831l-.0946303.0628831c.0412494-.0251698.0811883-.0522753.1196905-.0811904l-.0250602.0183073c.0357345-.0256916.0702875-.0529107.1035644-.0815617l-.0785042.0632544c.0493178-.0370375.0962784-.077044.1406166-.1197541.0598922-.0577116.1152086-.1205728.1650354-.1877386.0095848-.012896.0192433-.0263678.0286816-.0400035l-.0286816.0400035c.0269603-.0363419.0523133-.0739441.0759558-.1127022l-.0472742.0726987c.0292788-.0422996.056439-.0861773.0813273-.1314796l-.0340531.0587809c.0276927-.0453978.0530386-.0923814.0758716-.1407833l-.0418185.0820024c.1175694-.2140029.1844405-.4597973.1844405-.7212102 0-.8284271-.6715729-1.5-1.5-1.5zm-5-7c-.243655 0-.4737414.05809454-.6771632.16118779l-.0748864.04292895c-.0896519.05153225-.1733423.11213163-.2498743.1805353l-.1055506.10365198c-.0079119.00865609-.0157236.01740525-.0234334.02624565-.0568167.06544214-.1081176.13546105-.1531286.20972257-.0097123.01592334-.0193777.0325883-.0287275.04945241l.0287275-.04945241c-.0258189.04259727-.0495682.0865905-.0711133.13183756l.0423858-.08238515c-.0227449.0410243-.0436225.08322714-.0625183.12649376l.0201325-.04410861c-.0240364.05047892-.0453293.10251841-.0636918.15592114l.0435593-.11181253c-.0802187.1836811-.1247177.3865347-.1247177.59978159 0 .82842712.6715729 1.5 1.5 1.5.2878433 0 .5567501-.08107685.7851293-.2216394.0816879-.05056013.1583405-.1084505.2288113-.17305515.0140527-.0127796.0280156-.02609215.0417181-.03966713l-.0417181.03966713c.0359829-.0329875.070354-.06772555.1029788-.1040781l-.0612607.06441097c.0319039-.03160703.0623961-.06463669.0913733-.09898596l-.0301126.03457499c.0332603-.03706061.0647056-.07579924.0941933-.11607175l-.0640807.08149676c.0316025-.03746114.0614032-.07649184.0892685-.11695845l-.0251878.03546169c.0264487-.03612198.0513225-.07347796.0745186-.11196395l-.0493308.07650226c.0293615-.04263935.0565742-.08687295.0814817-.13254449l-.0321509.05604223c.0262508-.0435544.0503528-.08855604.072157-.13485416l-.0400061.07881193c.1161891-.21304915.1822178-.45738837.1822178-.71714942 0-.82842712-.6715729-1.5-1.5-1.5z" fill-rule="evenodd"/></svg>