<svg height="24" viewBox="0 0 24 24" width="24" version="1.1" xmlns="http://www.w3.org/2000/svg" xmlns:xlink="http://www.w3.org/1999/xlink" xml:space="preserve" xmlns:serif="http://www.serif.com/" style="fill-rule:evenodd;clip-rule:evenodd;stroke-linejoin:round;stroke-miterlimit:2;"><path d="M6.454,19l3.546,0l0,2l-7,0l0,-7l2,0l0,3.626l4.157,-4.157l1.414,1.414l-4.117,4.117Zm11.126,-14l-3.58,0l0,-2l7,0l0,7l-2,0l0,-3.591l-4.076,4.076l-1.415,-1.414l4.071,-4.071Z"/><path d="M19,17.546l0,-3.546l2,0l0,7l-7,0l0,-2l3.626,0l-4.157,-4.157l1.414,-1.414l4.117,4.117Zm-14,-11.126l0,3.58l-2,0l0,-7l7,0l0,2l-3.591,0l4.076,4.076l-1.414,1.415l-4.071,-4.071Z"/></svg>
