<svg height="24" viewBox="0 0 24 24" width="24" xmlns="http://www.w3.org/2000/svg"><path d="m4 20v2h-1v-1.0001068l-1 .0001068v-1zm2 0v2h-1v-2zm2 0v2h-1v-2zm2 0v2h-1v-2zm2 0v2h-1v-2zm2 0v2h-1v-2zm2 0v2h-1v-2zm2 0v2h-1v-2zm2 0v2h-1v-2zm2 0v2h-1v-2zm-18-2v1h-2v-1zm18 0v1h-2v-1zm-18-2v1h-2v-1zm18 0v1h-2v-1zm-18-2v1h-2v-1zm18 0v1h-2v-1zm-4.7071068-7.20710678 1.4142136 1.41421356-6.7071068 6.70710682-6.70710678-6.70710682 1.41421356-1.41421356 5.29289322 5.29210678zm-13.2928932 5.20710678v1h-2v-1zm18 0v1h-2v-1zm-18-2v1h-2v-1zm18 0v1h-2v-1zm-4.7071068-7.70710678 1.4142136 1.41421356-6.7071068 6.70710682-6.70710678-6.70710682 1.41421356-1.41421356 5.29289322 5.29210678zm-13.2928932 4.70710678v2h-2v-1l1-.00010678v-.99989322zm17 0v.99989322l1 .00010678v1h-2v-2z"/></svg>