<svg height="24" viewBox="0 0 24 24" width="24" xmlns="http://www.w3.org/2000/svg"><path d="m21.9993374 17.2501544c.0198913-.8069994-.5594273-1.4893972-1.3426167-1.5996934-.7070045-.093065-1.7420865-.3504647-3.1052459-.7721992-.8127471-.051652-1.3634285.0649417-1.6520444.3497812l-1.3480135 1.3453858c-.1767413.1763969-.4494538.2131945-.6666239.0899488-2.7442782-1.5573979-5.01655536-3.8252458-6.57707164-6.5643092-.12398812-.21762752-.08702275-.4913128.09025696-.66824694l1.34581936-1.34318371c.42989076-.43388139.56741788-1.07747382.35191584-1.64965903-.3740451-1.00044014-.63349332-2.03990927-.77269309-3.09345971-.11000772-.7767883-.78039812-1.35220023-1.57280589-1.34459672h-3.18376161c-.44018889.00056695-.8598564.18557563-1.15644887.50985264-.2963707.32403454-.44258373.75730598-.40389446 1.18536525.33915866 3.18755948 1.42587805 6.250586 3.17477799 8.94504572 1.58583691 2.4907807 3.70174592 4.6025652 6.20180021 6.1881352 2.6836809 1.7369649 5.73822 2.8214557 8.9081803 3.1653176.4397872.0396683.8759012-.1075341 1.2011287-.4053263.3249839-.2975692.5091343-.7179192.5073406-1.1600813z" fill-rule="evenodd"/></svg>