<svg height="24" viewBox="0 0 24 24" width="24" xmlns="http://www.w3.org/2000/svg"><path d="m12 17 9-3.5v7.5h-9-9v-4l9-3.5zm-3.5-13.5 1 9.6999998-4.5 1.8000002 1-11.5zm6.5-1.5c2.209139 0 4 1.790861 4 4 0 .75395236-.2085949 1.45918479-.5712212 2.06113389l2.278328 2.27863961-1.4142136 1.4142136-2.2907954-2.29033025c-.5888206.34109119-1.2726574.53634315-2.0020978.53634315-2.209139 0-4-1.790861-4-4s1.790861-4 4-4zm0 2c-1.1045695 0-2 .8954305-2 2s.8954305 2 2 2 2-.8954305 2-2-.8954305-2-2-2z" fill-rule="evenodd"/></svg>