<svg height="24" viewBox="0 0 24 24" width="24" xmlns="http://www.w3.org/2000/svg"><path d="m12 1.76393202 10.2183399 7.42405848-4.0012691 11.8120095h-12.43414158l-4.00126909-11.8120095zm-2.49633987 14.74999998-2.397 3.486h9.78599997l-1.75-2.546zm-6.373-6.459 3.169 9.353 2.323-3.379-1.635-4.903zm17.73799997 0-.897.249-3.747 6.958 1.475 2.146zm-2.232.62-5.828 1.618 2.779 4.043zm-6.6366601 2.208068-1.8713399 2.721932 4.227.704zm-3.85133987-1.435068 1.183 3.549 1.85899997-2.704zm4.35099997-3.76899998.0003399 3.66306798 5.7696601-1.60306798zm-1 .259-2.95299997 2.58399998 2.95299997.82zm0-4.575-7.94499997 5.772 3.839 1.06599998 4.10599997-3.59299998zm1 0v3.253l7.443 2.658.502-.139z" fill-rule="evenodd"/></svg>