<svg height="24" viewBox="0 0 24 24" width="24" xmlns="http://www.w3.org/2000/svg"><path d="m21.9993374 17.2501544c.0198913-.8069994-.5594273-1.4893972-1.3426167-1.5996934-.7070045-.093065-1.7420865-.3504647-3.1052459-.7721992-.8127471-.051652-1.3634285.0649417-1.6520444.3497812l-1.3480135 1.3453858c-.1767413.1763969-.4494538.2131945-.6666239.0899488-2.7442782-1.5573979-5.01655536-3.8252458-6.57707164-6.5643092-.12398812-.21762752-.08702275-.4913128.09025696-.66824694l1.34581936-1.34318371c.42989076-.43388139.56741788-1.07747382.35191584-1.64965903-.3740451-1.00044014-.63349332-2.03990927-.77269309-3.09345971-.11000772-.7767883-.78039812-1.35220023-1.57280589-1.3446712h-3.18376161c-.44018889.00064143-.8598564.18565011-1.15644887.50992712-.2963707.32403454-.44258373.75730598-.40389446 1.18536525.33915866 3.18755948 1.42587805 6.250586 3.17477799 8.94504572 1.58583691 2.4907807 3.70174592 4.6025652 6.20180021 6.1881352 2.6836809 1.7369649 5.73822 2.8214557 8.9081803 3.1653176.4397872.0396683.8759012-.1075341 1.2011287-.4053263.3249839-.2975692.5091343-.7179192.5073406-1.1600813zm-1.4731236-.608246c.2726726.0384415.4807741.2855397.4734272.583605l-.0003036.024641v3.1780767c.0004923.16413-.0654586.3152412-.1826548.4225512-.1178081.10787-.2761726.1613141-.4359803.1468997-2.9979714-.3253701-5.9031598-1.357451-8.4546605-3.0088647-2.38335663-1.511609-4.39430589-3.5182573-5.90161464-5.8856985-1.66769338-2.56941855-2.70135469-5.48207545-3.0239305-8.51378213-.01187205-.13275051.04099499-.28830653.14741082-.40465543.10735114-.1173715.25973662-.18455358.41983341-.18481574h3.18247365c.30033349-.00277901.54304512.20496403.58268546.48487304.14792081 1.11988824.42587096 2.23286396.82614005 3.30344416.07849018.20840959.02919408.43938311-.12560841.59562261l-1.34186668 1.33921663c-.49638418.4954166-.5998853 1.261721-.25272318 1.87106996 1.64963265 2.895483 4.05158422 5.2927683 6.95238532 6.9389941.6080958.3450989 1.3717191.2420617 1.8666064-.2518609l1.3480135-1.3453858c.0308598-.0304355.286763-.0862973.7689366-.0656351 1.3545945.4154718 2.3986373.672612 3.1514302.7717042z" fill-rule="evenodd"/></svg>