<svg height="24" viewBox="0 0 24 24" width="24" xmlns="http://www.w3.org/2000/svg"><path d="M12.422,14.117l-1.086,0l-0,-0.461c0.005,-0.875 0.057,-1.429 0.156,-1.664c0.12,-0.312 0.511,-0.781 1.172,-1.406c0.432,-0.401 0.724,-0.716 0.875,-0.945c0.182,-0.282 0.273,-0.571 0.273,-0.868c0,-0.447 -0.171,-0.796 -0.515,-1.046c-0.276,-0.198 -0.623,-0.297 -1.039,-0.297c-0.599,-0 -1.328,0.25 -2.188,0.75l-0.336,-1.024c0.891,-0.469 1.776,-0.703 2.657,-0.703c0.864,0 1.552,0.224 2.062,0.672c0.479,0.417 0.719,0.953 0.719,1.609c-0,0.5 -0.159,0.972 -0.477,1.414c-0.182,0.256 -0.489,0.584 -0.922,0.985c-0.588,0.547 -0.968,0.948 -1.14,1.203c-0.141,0.229 -0.211,0.544 -0.211,0.945l-0,0.836Zm-0.508,1.149c0.255,-0 0.471,0.086 0.649,0.257c0.187,0.183 0.281,0.412 0.281,0.688c-0,0.271 -0.094,0.5 -0.281,0.687c-0.178,0.172 -0.399,0.258 -0.665,0.258c-0.265,0 -0.487,-0.086 -0.664,-0.258c-0.187,-0.187 -0.281,-0.416 -0.281,-0.687c0,-0.276 0.094,-0.505 0.281,-0.688c0.183,-0.171 0.409,-0.257 0.68,-0.257Z"/></svg>
