<svg height="24" viewBox="0 0 24 24" width="24" xmlns="http://www.w3.org/2000/svg"><path d="m6.39063024 16.1764706c.37373998 0 .67647059-.3027306.67647059-.6764706s-.30273061-.6764706-.67647059-.6764706c-.37373997 0-.67647058.3027306-.67647058.6764706s.30273061.6764706.67647058.6764706zm0 1c-.92602472 0-1.67647058-.7504459-1.67647058-1.6764706s.75044586-1.6764706 1.67647058-1.6764706c.92602473 0 1.67647059.7504459 1.67647059 1.6764706s-.75044586 1.6764706-1.67647059 1.6764706zm4.14034486-1.0065032c.2588795.219556.3302747.5974161.1554876.8891521l-.80485923 1.3908042c-.17618092.2914993-.53217957.414009-.86071149.290861l-.74121817-.2983123c-.09124775.0589824-.18563817.11396-.28275393.1647778l-.11416469.8098471c-.05977409.3327963-.35060668.5829027-.69212495.5829027h-1.6c-.33754962 0-.63063433-.2458441-.69512781-.5960163l-.11104383-.789606c-.09718273-.050642-.19162694-.1058087-.28355234-.1655705l-.75403015.3032999c-.31682096.11698-.67216292-.0053037-.85207833-.3047523l-.79618064-1.3761007c-.17860641-.2982235-.10721125-.6760836.16669344-.9078897l.63021489-.4937911c-.00324073-.057374-.00489523-.1137306-.00489523-.1695733 0-.0541668.00156794-.1089244.00461935-.164262l-.64496419-.5057054c-.25887951-.219556-.33027467-.5974161-.15548762-.8891521l.80485924-1.3908042c.17618092-.2914993.53217957-.414009.86071148-.290861l.74121818.2983123c.09124071-.0589779.18562361-.1139515.28273146-.1647661l.11377658-.8075416c.05842697-.334332.35064884-.5852199.69253552-.5852199h1.6c.33715112 0 .62879299.2450368.69512782.5960163l.11104383.789606c.09718273.050642.19162694.1058087.28355234.1655705l.75403015-.3032999c.31682095-.11698.67216291.0053037.85207833.3047523l.79618069 1.3761007c.1787937.2985364.1071314.6773232-.1665578.9073128l-.63035707.4942533c.00324501.0574136.00490171.1138081.00490171.169688 0 .0541668-.00156794.1089244-.00461934.164262zm-1.47742923.1123153c-.14014508-.1098076-.2113274-.2858543-.18688868-.4622093.01572786-.1134957.02397305-.2207802.02397305-.3200734 0-.099037-.00816913-.2064851-.02436625-.3286202-.02326074-.1753986.04790945-.3500298.18714623-.4592032l.63805367-.4999527-.54022385-.9336366-.75087154.3021974c-.16497374.0663957-.35279828.0401696-.49327503-.0688763-.17401629-.1350811-.35869382-.2432134-.56044153-.3274682-.16290469-.068033-.27785837-.2169307-.30244363-.3917506l-.11101747-.7926896h-1.08386702l-.11227164.7983367c-.02437829.1733481-.13763832.3213233-.29860346.390128-.20542352.0878085-.39581148.1987854-.5642817.3295614-.14047676.1090459-.3283013.1352719-.49327504.0688762l-.7509886-.3023673-.54010678.9333556.63791802.4998267c.14014507.1098076.2113274.2858543.18688868.4622093-.01572786.1134957-.02397306.2207802-.02397306.3200734 0 .099037.00816914.2064851.02436626.3286202.02326883.1754595-.04795907.3501462-.18728188.4593096l-.63803542.4995519.54034125.933931.75087153-.3021974c.16497374-.0663957.35279828-.0401696.49327504.0688763.17401629.1350811.35869382.2432134.56044153.3274682.16290469.068033.27785836.2169307.30244363.3917506l.1111075.7926896h1.08377699l.11227164-.7983367c.02437828-.1733481.13763831-.3213233.29860346-.390128.20542352-.0878085.39581148-.1987854.5642817-.3295614.14047675-.1090459.32830129-.1352719.49327503-.0688762l.7509886.3023673.54010679-.9333556zm6.78514353-5.2822827-.0542308-.3856223c-.0971827-.050642-.1916269-.1058087-.2835523-.1655705l-.7540302.3032999c-.3168209.11698-.6721629-.0053037-.8520783-.3047523l-.7961807-1.37610067c-.1786064-.29822353-.1072112-.67608364.1666935-.90788976l.6302149-.49379109c-.0032408-.05737401-.0048953-.11373057-.0048953-.16957328 0-.05416677.001568-.10892444.0046194-.16426204l-.6449642-.50570536c-.2588795-.21955603-.3302747-.59741614-.1554876-.88915209l.8048592-1.39080421c.1761809-.29149934.5321796-.414009.8607115-.29086097l.7412182.29831224c.0912407-.05897782.1856236-.11395149.2827314-.16476603l.0553372-.39276154h-12.68056439v-1h15.03153929c.3371512 0 .628793.24503682.6951279.59601627l.1110438.789606c.0971827.05064205.1916269.10580876.2835523.1655705l.7540302-.30329983c.3168209-.11698005.6721629.00530363.8520783.30475227l.7961807 1.37610066c.1787937.29853639.1071314.67732319-.1665578.90731285l-.6303571.49425323c.003245.05741363.0049017.1138081.0049017.16968805 0 .05416677-.0015679.10892444-.0046193.16426204l.6449642.50570536c.2588795.21955603.3302747.59741614.1554876.88915209l-.8048592 1.39080421c-.1761809.2914993-.5321796.414009-.8607115.290861l-.7412182-.2983123c-.0912477.0589824-.1856382.11396-.2827539.1647778l-.1141647.8098471c-.0597741.3327963-.3506067.5829027-.692125.5829027h-10.1906302v-1zm1.0094703 0h1.083777l.1122716-.7983367c.0243783-.1733481.1376383-.3213233.2986035-.39012801.2054235-.08780848.3958114-.1987854.5642817-.32956138.1404767-.10904588.3283013-.13527191.493275-.06887623l.7509886.30236728.5401068-.93335557-.637918-.4998267c-.1401451-.1098076-.2113274-.28585429-.1868887-.46220934.0157279-.11349568.023973-.22078018.023973-.32007335 0-.099037-.0081691-.20648514-.0243662-.3286202-.0232608-.17539855.0479094-.35002982.1871462-.45920323l.6380537-.49995267-.5402239-.93363658-.7508715.30219735c-.1649737.06639568-.3527983.04016965-.493275-.06887623-.1740163-.13508114-.3586938-.24321342-.5604416-.32746821-.1629047-.06803299-.2778583-.21693073-.3024436-.39175061l-.1110175-.79268962h-1.083867l-.1122716.79833667c-.0243783.17334811-.1376383.32132333-.2986035.39012804-.2054235.08780848-.3958115.1987854-.5642817.32956138-.1404767.10904588-.3283013.13527191-.493275.06887623l-.7509886-.30236728-.5401068.93335557.637918.4998267c.1401451.1098076.2113274.28585429.1868887.46220934-.0157279.11349568-.0239731.22078018-.0239731.32007335 0 .099037.0081692.20648514.0243663.3286202.0232688.17545952-.0479591.35014622-.1872819.45930955l-.6380354.49955194.5403412.93393099.7508716-.30219735c.1649737-.06639568.3527983-.04016965.493275.06887623.1740163.13508114.3586938.24321342.5604416.32746821.1629046.06803299.2778583.21693073.3024436.39175063zm.5424705-1.82352941c-.9260247 0-1.6764705-.75044586-1.6764705-1.67647059s.7504458-1.67647059 1.6764705-1.67647059c.9260248 0 1.6764706.75044586 1.6764706 1.67647059s-.7504458 1.67647059-1.6764706 1.67647059zm0-1c.37374 0 .6764706-.30273061.6764706-.67647059s-.3027306-.67647059-.6764706-.67647059c-.3737399 0-.6764705.30273061-.6764705.67647059s.3027306.67647059.6764705.67647059zm-9.25426656 11.82352941v-1h12.72727276v1z" fill-rule="evenodd"/></svg>