<svg width="24" height="24" viewBox="0 0 24 24" fill="none" xmlns="http://www.w3.org/2000/svg">
<path fill-rule="evenodd" clip-rule="evenodd" d="M4 2H15L20 7V22H18H6H4V2ZM5.69422 17.8759L4.99997 21L8.12409 20.3057C8.94919 20.1224 9.56995 19.4401 9.67479 18.6014L9.68102 18.5516C9.84279 17.2574 8.74255 16.1572 7.4484 16.3189L7.39852 16.3252C6.55982 16.43 5.87758 17.0508 5.69422 17.8759ZM8.99997 15L11 17L16.5 11.5C17.0523 10.9477 17.0523 10.0523 16.5 9.5C15.9477 8.94772 15.0523 8.94772 14.5 9.5L8.99997 15Z" fill="black"/>
</svg>
