<?xml version="1.0" encoding="UTF-8" standalone="no"?>
<!DOCTYPE svg PUBLIC "-//W3C//DTD SVG 1.1//EN" "http://www.w3.org/Graphics/SVG/1.1/DTD/svg11.dtd">
<svg width="100%" height="100%" viewBox="0 0 24 24" version="1.1" xmlns="http://www.w3.org/2000/svg" xmlns:xlink="http://www.w3.org/1999/xlink" xml:space="preserve" xmlns:serif="http://www.serif.com/" style="fill-rule:evenodd;clip-rule:evenodd;stroke-linejoin:round;stroke-miterlimit:2;">
    <g id="g253">
        <path id="path4" d="M3,18L21,18C20.899,18.323 21.248,19.096 20.728,19L3,19L3,18ZM12,11L21,11C20.899,11.323 21.248,12.096 20.728,12L12,12L12,11ZM3,4L21,4C20.899,4.323 21.248,5.096 20.728,5L3,5L3,4ZM5.254,15.654L4.546,14.946C4.546,14.946 7.493,12 7.493,12L4.546,9.054L5.254,8.347L8.907,12L5.254,15.654Z"/>
    </g>
</svg>
