<svg height="24" viewBox="0 0 24 24" width="24" xmlns="http://www.w3.org/2000/svg"><path d="m12 11h4.5c.2761424 0 .5.2238576.5.5s-.2238576.5-.5.5h-4.5v4.5c0 .2761424-.2238576.5-.5.5s-.5-.2238576-.5-.5v-4.5h-4c-.27614237 0-.5-.2238576-.5-.5s.22385763-.5.5-.5h4v-4.5c0-.27614237.2238576-.5.5-.5s.5.22385763.5.5zm-.5 10c-5.24670512 0-9.5-4.2532949-9.5-9.5 0-5.24670512 4.25329488-9.5 9.5-9.5 5.2467051 0 9.5 4.25329488 9.5 9.5 0 5.2467051-4.2532949 9.5-9.5 9.5zm0-1c4.6944204 0 8.5-3.8055796 8.5-8.5 0-4.69442037-3.8055796-8.5-8.5-8.5-4.69442037 0-8.5 3.80557963-8.5 8.5 0 4.6944204 3.80557963 8.5 8.5 8.5z" fill-rule="evenodd"/></svg>