<?xml version="1.0" encoding="UTF-8" standalone="no"?>
<!DOCTYPE svg PUBLIC "-//W3C//DTD SVG 1.1//EN" "http://www.w3.org/Graphics/SVG/1.1/DTD/svg11.dtd">
<svg width="100%" height="100%" viewBox="0 0 24 24" version="1.1" xmlns="http://www.w3.org/2000/svg" xmlns:xlink="http://www.w3.org/1999/xlink" xml:space="preserve" xmlns:serif="http://www.serif.com/" style="fill-rule:evenodd;clip-rule:evenodd;stroke-linejoin:round;stroke-miterlimit:2;">
    <path d="M6,21L6,3L12,3C14.761,3 17,5.239 17,8C17,9.431 16.399,10.721 15.436,11.633C16.966,12.488 18,14.123 18,16C18,18.761 15.761,21 13,21L6,21ZM13,13L8,13L8,19L13,19C14.657,19 16,17.657 16,16C16,14.343 14.657,13 13,13ZM8,5L8,11L12,11C13.657,11 15,9.657 15,8C15,6.343 13.657,5 12,5L8,5Z"/>
</svg>
