<svg height="24" viewBox="0 0 24 24" width="24" xmlns="http://www.w3.org/2000/svg"><path d="m18.1541722 2c1.3372781 0 1.8222075.13923842 2.3110964.40069906.4888888.26146063.8725717.6451435 1.1340323 1.13403238.2614607.48888889.4006991.97381825.4006991 2.31109636v12.3083444c0 1.3372781-.1392384 1.8222075-.4006991 2.3110964-.2614606.4888888-.6451435.8725717-1.1340323 1.1340323-.4888889.2614607-.9738183.4006991-2.3110964.4006991h-12.3083444c-1.33727811 0-1.82220747-.1392384-2.31109636-.4006991-.48888888-.2614606-.87257175-.6451435-1.13403238-1.1340323-.26146064-.4888889-.40069906-.9738183-.40069906-2.3110964v-12.3083444c0-1.33727811.13923842-1.82220747.40069906-2.31109636.26146063-.48888888.6451435-.87257175 1.13403238-1.13403238.48888889-.26146064.97381825-.40069906 2.31109636-.40069906zm-.6837969 2h-10.94075059c-.94956465 0-1.28761586.0652807-1.63510888.251122-.2796626.14956519-.49382864.36373123-.64339383.64339383-.1858413.34749302-.251122.68554423-.251122 1.63510888v10.94075059c0 .9495646.0652807 1.2876159.251122 1.6351089.14956519.2796626.36373123.4938286.64339383.6433938.34749302.1858413.68554423.251122 1.63510888.251122h10.94075059c.9495646 0 1.2876159-.0652807 1.6351089-.251122.2796626-.1495652.4938286-.3637312.6433938-.6433938.1858413-.347493.251122-.6855443.251122-1.6351089v-10.94075059c0-.94956465-.0652807-1.28761586-.251122-1.63510888-.1495652-.2796626-.3637312-.49382864-.6433938-.64339383-.347493-.1858413-.6855443-.251122-1.6351089-.251122zm-5.4653477 1c.188743.00257594.3778171.01263275.5654759.03008047l.2802082.03170351.2651568.03541402.4343818 2.36079957.2242327.08507487.2186619.09565535 1.9998705-1.36552107.2109898.15823844c.4037976.30284077.7726066.64750983 1.1016633 1.02895254l.2392647.29289812.1662395.21501656-1.3873292 1.97235738.0958285.21310044.0853021.2178486 2.3952478.4272591.0362397.2658227c.0677743.497134.0813292.9983705.0406646 1.4971454l-.0406646.3735171-.0362397.2658228-2.39554.4273112-.0851299.2173129-.0957186.2127986 1.3873033 1.9731894-.1662035.21497c-.3083617.3988393-.657961.7622987-1.0443283 1.0858707l-.2965997.2351296-.2109898.1582385-1.9997642-1.3654485-.2177917.0954-.2252918.0857853-.4343871 2.3616967-.324291.0419184-.1637789.0156549-.5375926.0389864-.2175866-.0006903-.66413-.053953-.3241821-.0419164-.4343839-2.3616794-.2254684-.0858452-.217643-.0953405-1.99973945 1.3654316-.21098981-.1582385c-.40447205-.3033465-.77329341-.6477074-1.10199455-1.028575l-.23893348-.2924253-.16620349-.21497 1.38731537-1.9732065-.09572547-.2128254-.08511589-.2172656-2.39555923-.4273146-.03623965-.2658228c-.06777435-.4971339-.08132922-.9983704-.04066461-1.4971453l.04066461-.3735172.03623965-.2658227 2.39520957-.4272523.08526267-.2177521.09589367-.21322149-1.38731675-1.97233963.16623955-.21501656c.30888302-.39951362.65870901-.76351726 1.04471459-1.08695626l.29621344-.2348944.21098981-.15823844 1.99988515 1.36553106.2193748-.09598011.2235127-.08480169.4343742-2.36075798.2651568-.03541402c.2787101-.03722419.5625696-.05792008.8557393-.06178398zm-.0050276 4c-1.6571361 0-3 1.3428639-3 3s1.3428639 3 3 3 3-1.3428639 3-3-1.3428639-3-3-3z" fill-rule="evenodd"/></svg>