<svg height="24" viewBox="0 0 24 24" width="24" xmlns="http://www.w3.org/2000/svg"><path d="m20.5223197 2-7.6276436 9.8069703-.7893522-.6139406 6.3716761-8.1930297h-14.955l6.478 8.3284461v6.9645539l2 2v-1.793h1v4.2071068l-4-4v-7.0361068l-7.52231968-9.671zm-4.0223197 10c2.209139 0 4.209139 1 6 3-1.790861 2-3.790861 3-6 3s-4.209139-1-6-3c1.790861-2 3.790861-3 6-3zm0 1-.1492623.0054857c-1.0348599.0763492-1.8507377.9401525-1.8507377 1.9945143 0 1.1045695.8954305 2 2 2s2-.8954305 2-2-.8954305-2-2-2zm-2.6665996.6241363-.1143246.0563587c-.5320801.2738173-1.0503951.6312371-1.5562013 1.0740083l-.2688745.2454967.017008.0169904c.6213595.5837052 1.2615874 1.0360277 1.9230704 1.3602904-.2137429-.4135283-.3340784-.8813516-.3340784-1.3772808s.1203355-.9637525.3334004-1.3758637zm5.3335204-.0009272.0281557.0574669c.1952789.398159.3049235.8459371.3049235 1.319324 0 .4959292-.1203355.9637525-.3334004 1.3758637.5719254-.2793009 1.1284103-.6558114 1.6705259-1.130367l.2678745-.2454967-.016008-.0169904c-.6210467-.5834113-1.2609427-1.0355721-1.9220712-1.3598005z"/></svg>