<svg height="24" viewBox="0 0 24 24" width="24" version="1.1" xmlns="http://www.w3.org/2000/svg" xmlns:xlink="http://www.w3.org/1999/xlink" xml:space="preserve" xmlns:serif="http://www.serif.com/" style="fill-rule:evenodd;clip-rule:evenodd;stroke-linejoin:round;stroke-miterlimit:2;"><path d="M19.393,4l-5.373,0l0,-1l6.98,0l0,6.997l-1,0l0,-5.189l-5.633,5.633l-0.708,-0.707l5.734,-5.734Zm-14.623,16l5.221,0l0,1l-6.991,0l0,-7.015l1,0l0,5.371l5.887,-5.887l0.707,0.707l-5.824,5.824Z"/><path d="M20,19.393l0,-5.373l1,0l0,6.98l-6.997,0l0,-1l5.189,0l-5.633,-5.633l0.707,-0.708l5.734,5.734Zm-16,-14.623l0,5.221l-1,0l0,-6.991l7.015,0l0,1l-5.371,0l5.887,5.887l-0.707,0.707l-5.824,-5.824Z"/></svg>
