<svg height="24" viewBox="0 0 24 24" width="24" xmlns="http://www.w3.org/2000/svg"><path d="m4.17433685 11.2454047 9.73987675 9.7398767 7.0710678-7.0710678-9.7398767-9.73987675-6.4818122.58925565zm-1.03829788.3759156.70710678-7.77817455 7.77817455-.70710678 10.7781746 10.77817463-8.4852813 8.4852813zm6.29289322-2.19238811c-.78104859.78104861-2.04737854.78104861-2.82842713 0-.78104858-.78104859-.78104858-2.04737854 0-2.82842713.78104859-.78104858 2.04737854-.78104858 2.82842713 0 .78104861.78104859.78104861 2.04737854 0 2.82842713zm-.70710678-.70710678c.39052429-.39052429.39052429-1.02368927 0-1.41421357-.39052429-.39052429-1.02368927-.39052429-1.41421357 0-.39052429.3905243-.39052429 1.02368928 0 1.41421357.3905243.39052429 1.02368928.39052429 1.41421357 0z" fill-rule="evenodd"/></svg>