<svg width="24" height="24" viewBox="0 0 24 24" fill="none" xmlns="http://www.w3.org/2000/svg">
<path d="M4.00003 2H15L20 7V13H18H6.00003H4.00003V2Z" fill="black"/>
<path d="M3.41168 21V16.1565H1.71002V15.1189H6.46222V16.1565H4.73565V21H3.41168ZM7.12844 21V15.1189H10.8513V16.1565H8.45241V17.4971H10.731V18.5347H8.45241V19.9624H10.98V21H7.12844ZM11.4636 21L13.6384 17.9827L11.5715 15.1189H13.1113L14.4809 17.0364L15.8672 15.1189H17.3821L15.2446 18.0159L17.407 21H15.8091L14.4145 19.0369L13.0283 21H11.4636ZM19.2353 21V16.1565H17.5336V15.1189H22.2858V16.1565H20.5593V21H19.2353Z" fill="black"/>
</svg>
