<svg height="24" viewBox="0 0 24 24" width="24" xmlns="http://www.w3.org/2000/svg"><path d="m20 17.2097326.8680832 2.7902674h2.1319168v1h-18v-1h2.13191681l.86808319-2.7902674v-.2097326h.06525015l1.1325982-3.6404942c.36588593-1.1760619 1.61588165-1.8328394 2.79194355-1.4669534.1377645.04286.2710446.0989879.3979666.1675943l.8989659.4859276c.4450859.2405869.9814653.2405869 1.4265512 0l.8989659-.4859276c1.0835021-.5856768 2.436639-.1821096 3.0223158.9013925.0686065.1269219.1247343.2602021.1675943.3979666l1.1325983 3.6404942h.0652501zm-.8014165.7902674h-10.39716698l-.62222222 2h11.6416114zm-.3111111-1-1.0401775-3.3434277c-.0236414-.0759901-.0546012-.1495066-.0924441-.2195161-.323056-.5976536-1.0694387-.820259-1.6670923-.4972029l-.8989659.4859275c-.7418098.4009783-1.6357754.4009783-2.3775852 0l-.8989659-.4859275c-.0700095-.037843-.143526-.0688028-.2195161-.0924441-.6487091-.2018206-1.3381997.160454-1.5400203.8091631l-1.04017747 3.3434277zm-14.50333324-4h4.11586084v1h-4.88413916l-2.3380759-8.76778463 5.04472507 1.68157502 3.67748999-4.72820141 3.67749 4.72820141 5.0782091-1.69273637-1.776786 5.92261988-.9578262-.2873478 1.223214-4.07738012-3.9217909 1.30726363-3.32251-4.27179859-3.32251001 4.27179859-3.95527493-1.31842498zm-1.38413916 3v-1h5v1z" fill-rule="evenodd"/></svg>