<?xml version="1.0" encoding="UTF-8" standalone="no"?>
<!DOCTYPE svg PUBLIC "-//W3C//DTD SVG 1.1//EN" "http://www.w3.org/Graphics/SVG/1.1/DTD/svg11.dtd">
<svg width="100%" height="100%" viewBox="0 0 24 24" version="1.1" xmlns="http://www.w3.org/2000/svg" xmlns:xlink="http://www.w3.org/1999/xlink" xml:space="preserve" xmlns:serif="http://www.serif.com/" style="fill-rule:evenodd;clip-rule:evenodd;stroke-linejoin:round;stroke-miterlimit:2;">
    <path d="M16,1L16,23L2,23L2,1L16,1ZM13,4L5,4L5,10L13,10L13,4ZM10,12L8,12L8,14L10,14L10,12ZM5,15L5,17L7,17L7,15L5,15ZM13,15L11,15L11,17L13,17L13,15ZM8,18L8,20L10,20L10,18L8,18ZM19,23L17,23L17,1L19,1L19,23ZM22,23L20,23L20,1L22,1L22,23Z"/>
</svg>
