<?xml version="1.0" encoding="UTF-8" standalone="no"?>
<!DOCTYPE svg PUBLIC "-//W3C//DTD SVG 1.1//EN" "http://www.w3.org/Graphics/SVG/1.1/DTD/svg11.dtd">
<svg width="100%" height="100%" viewBox="0 0 24 24" version="1.1" xmlns="http://www.w3.org/2000/svg" xmlns:xlink="http://www.w3.org/1999/xlink" xml:space="preserve" xmlns:serif="http://www.serif.com/" style="fill-rule:evenodd;clip-rule:evenodd;stroke-linejoin:round;stroke-miterlimit:2;">
    <path d="M4,2L14.957,2L15.104,2.146L19.854,6.896L20,7.043L20,13L19,13L19,7.457L14.543,3L5,3L5,13L4,13L4,2ZM6.5,17C7.063,17 7.582,17.186 8,17.5L8,10.085L8.408,10.009L16.408,8.509L17,8.398L17,18.5C17,19.881 15.881,21 14.5,21C13.119,21 12,19.881 12,18.5C12,17.119 13.119,16 14.5,16C15.063,16 15.582,16.186 16,16.5L16,13.102L9,14.415L9,19.5C9,20.881 7.881,22 6.5,22C5.119,22 4,20.881 4,19.5C4,18.119 5.119,17 6.5,17ZM14.5,17C13.672,17 13,17.672 13,18.5C13,19.328 13.672,20 14.5,20C15.328,20 16,19.328 16,18.5C16,17.672 15.328,17 14.5,17ZM9,13.398L16,12.085L16,9.602L9,10.915L9,13.398ZM6.5,21C7.328,21 8,20.328 8,19.5C8,18.672 7.328,18 6.5,18C5.672,18 5,18.672 5,19.5C5,20.328 5.672,21 6.5,21Z"/>
</svg>
