<svg height="24" viewBox="0 0 24 24" width="24" xmlns="http://www.w3.org/2000/svg"><path d="m18.05 13.0329085c2.2245356.270105 3.95 2.1697392 3.95 4.4670915v4.500017l-6-.000017v-4.5c0-.7117636-.1361351-1.3944256-.3845801-2.0219612l2.4310271-2.4315918zm-12.3-.0046717v.0207632l2.65000039 2.6438936 2.64644661-2.6464466.003553-.0135385c2.2245356.270105 3.95 2.1697392 3.95 4.4670915v4.500017h-13l.00892353-4.4688279c-.1451948-2.3231167 1.50202092-4.2496184 3.74107647-4.5029523zm8.75-10.0282368c2.4852814 0 4.5 2.01471863 4.5 4.5s-2.0147186 4.5-4.5 4.5c-.7856034 0-1.5241878-.2013121-2.1669808-.555164 1.0285393-1.0005669 1.6669808-2.39814346 1.6669808-3.944836s-.6384415-2.94426909-1.6661657-3.94357094c.6419779-.35511692 1.3805623-.55642906 2.1661657-.55642906zm-6 0c2.4852814 0 4.5 2.01471863 4.5 4.5s-2.0147186 4.5-4.5 4.5c-2.48528137 0-4.5-2.01471863-4.5-4.5s2.01471863-4.5 4.5-4.5z" fill-rule="evenodd"/></svg>