<svg width="24" height="24" viewBox="0 0 24 24" fill="none" xmlns="http://www.w3.org/2000/svg">
<path fill-rule="evenodd" clip-rule="evenodd" d="M15 2H4V13H6H18H20V7L15 2ZM4.76584 15.1189V21H6.08981V18.7588H6.64597C7.04994 18.7588 7.3792 18.7284 7.63376 18.6675C7.89108 18.6038 8.10967 18.5001 8.28952 18.3562C8.70456 18.0242 8.91208 17.5469 8.91208 16.9243C8.91208 16.5425 8.82492 16.2091 8.6506 15.9241C8.43478 15.5671 8.12212 15.3361 7.71262 15.231C7.41656 15.1562 6.9863 15.1189 6.42185 15.1189H4.76584ZM6.43845 17.7627H6.05661V16.115H6.43845C6.80645 16.115 7.07484 16.1662 7.24362 16.2686C7.47328 16.4069 7.5881 16.6407 7.5881 16.97C7.5881 17.3048 7.46913 17.5303 7.23117 17.6465C7.07069 17.724 6.80645 17.7627 6.43845 17.7627ZM9.74631 15.1189V21H11.282C11.8215 21 12.2642 20.9709 12.6101 20.9128C13.3627 20.7883 13.9189 20.4342 14.2786 19.8503C14.5663 19.3883 14.7102 18.792 14.7102 18.0615C14.7102 17.3504 14.5663 16.7597 14.2786 16.2893C13.9908 15.8162 13.5758 15.4924 13.0334 15.3181C12.6184 15.1853 12.065 15.1189 11.3733 15.1189H9.74631ZM11.3235 19.9624H11.0703V16.1565H11.3235C11.7358 16.1565 12.0443 16.1828 12.249 16.2354C12.4538 16.2852 12.6364 16.382 12.7969 16.5259C12.9657 16.6781 13.0985 16.8897 13.1953 17.1609C13.2922 17.432 13.3406 17.7267 13.3406 18.0449C13.3406 18.341 13.2991 18.6204 13.2161 18.8833C13.1026 19.2375 12.9186 19.4989 12.6641 19.6677C12.3735 19.8642 11.9267 19.9624 11.3235 19.9624ZM15.7976 15.1189V21H17.1216V18.5347H19.4167V17.4971H17.1216V16.1565H19.5371V15.1189H15.7976Z" fill="black"/>
</svg>
