<svg height="24" viewBox="0 0 24 24" width="24" xmlns="http://www.w3.org/2000/svg"><path d="m19 16h-.0500091c.032794.161555.0500091.3287671.0500091.5 0 1.3807119-1.1192881 2.5-2.5 2.5s-2.5-1.1192881-2.5-2.5 1.1192881-2.5 2.5-2.5c.1716123 0 .3391859.0172915.5010736.0502272l-.0010736-4.2502272-7 2.8v5.4h-.05000906c.03279393.161555.05000906.3287671.05000906.5 0 1.3807119-1.11928813 2.5-2.5 2.5s-2.5-1.1192881-2.5-2.5 1.11928813-2.5 2.5-2.5c.17161227 0 .33918589.0172915.50107364.0502272l-.00107364-7.5507272 2-.88642254 9-3.61307746zm-11.5 2c-.27614237 0-.5.2238576-.5.5s.22385763.5.5.5.5-.2238576.5-.5l-.00253739-.0521965-.00749818-.0499391-.03796443-.1838644-.15315532-.1150502c-.06449767-.0484461-.13752531-.0798823-.21712577-.0925725zm9-2c-.2761424 0-.5.2238576-.5.5s.2238576.5.5.5.5-.2238576.5-.5l-.0025374-.0521965-.0074982-.0499391-.0379644-.1838644-.1531553-.1150502c-.0644977-.0484461-.1375253-.0798823-.2171258-.0925725zm.5-9.047-7 2.80885493v1.19299997l7-2.8088549z" fill-rule="evenodd"/></svg>