<svg height="24" viewBox="0 0 24 24" width="24" xmlns="http://www.w3.org/2000/svg"><path d="m12 11.2928932 3.1464466-3.14644659.7071068.70710678-3.1464466 3.14644661 3.2461099 3.2461099-.7071068.7071068-3.2461099-3.2461099-3.14644661 3.1464466-.70710678-.7071068 3.14644659-3.1464466-3.14644659-3.14644661.70710678-.70710678zm0 10.7071068c-5.5228475 0-10-4.4771525-10-10s4.4771525-10 10-10 10 4.4771525 10 10-4.4771525 10-10 10zm0-1c4.9705627 0 9-4.0294373 9-9 0-4.97056275-4.0294373-9-9-9-4.97056275 0-9 4.02943725-9 9 0 4.9705627 4.02943725 9 9 9z" fill-rule="evenodd"/></svg>