<svg height="24" viewBox="0 0 24 24" width="24" xmlns="http://www.w3.org/2000/svg"><path d="m12.0068232 2.50004656c.3842268.00524378.7694647.03333061 1.1477141.08384833l.3598557.04806111.5895181 3.2038906c.2053794.07218188.4057725.15394558.6010712.24527278l2.71411-1.85317728.2863433.2147487c.6850139.51373945 1.2958329 1.11617586 1.8198309 1.79391125l.2256108.29180349-1.882804 2.67672756c.0914506.19065738.1734171.38560066.2458202.58485002l3.2506934.57984218.0491823.3607537c.1149744.8433386.1149744 1.6953767 0 2.5387153l-.0491823.3607536-3.25109.579913c-.0721384.1984573-.1541382.3934249-.2454373.5837134l1.8827688 2.6778567-.2255619.2917402c-.5231136.6765915-1.133673 1.2781599-1.8198309 1.7927573l-.2863433.2147487-2.7139657-1.8530787c-.1936942.0907248-.3940617.1725632-.6013276.2458903l-.5895253 3.2051081-.360769.0474183c-.1616756.0212501-.484528.048311-1.0312016.083625-.0145724-.00047-.0507949-.000752-.0945916-.000906l-.2007045-.0000309c-.4959837-.0343771-.8188361-.061438-.9805117-.0826881l-.360769-.0474183-.589521-3.2050846c-.20738928-.0733556-.40813652-.1553534-.60136552-.2458909l-2.71393205 1.8530558-.2863433-.2147487c-.68615795-.5145974-1.29671733-1.1161658-1.8198309-1.7927573l-.22556188-.2917402 1.88278514-2.67788c-.0913755-.1904883-.17325033-.3851626-.24542755-.5836854l-3.2511161-.5799177-.04918239-.3607536c-.11497433-.8433386-.11497433-1.6953767 0-2.5387153l.04918239-.3607537 3.25064156-.57983294c.07223893-.19886079.15437906-.39422071.24585502-.58488335l-1.882787-2.67670347.22561081-.29180349c.52399798-.67773539 1.13481698-1.2801718 1.8198309-1.79391125l.2863433-.2147487 2.71412982 1.85319084c.19645397-.09185917.39712022-.17371091.6010617-.24534278l.58950775-3.20383416.3598557-.04806111c.3782494-.05051772.7634873-.07860455 1.1613605-.08384833zm.0172668 5.50004656c-2.25285133.06642365-4.02409 1.83360387-4.02409 3.99981678 0 2.1693931 1.77587845 3.9402152 3.9782266 4.0001832 2.2458949-.059968 4.0217734-1.8307901 4.0217734-4.0001832 0-2.16621291-1.7712387-3.93339313-3.97591-3.99981678z" fill-rule="evenodd"/></svg>