<?xml version="1.0" encoding="UTF-8" standalone="no"?>
<!DOCTYPE svg PUBLIC "-//W3C//DTD SVG 1.1//EN" "http://www.w3.org/Graphics/SVG/1.1/DTD/svg11.dtd">
<svg width="100%" height="100%" viewBox="0 0 24 24" version="1.1" xmlns="http://www.w3.org/2000/svg" xmlns:xlink="http://www.w3.org/1999/xlink" xml:space="preserve" xmlns:serif="http://www.serif.com/" style="fill-rule:evenodd;clip-rule:evenodd;stroke-linejoin:round;stroke-miterlimit:2;">
    <path d="M12,4C7.582,4 4,7.582 4,12C4,16.418 7.582,20 12,20C13.892,20 15.63,19.344 17,18.246L17.625,19.026C16.084,20.261 14.128,21 12,21C7.029,21 3,16.971 3,12C3,7.029 7.029,3 12,3C17.01,3 20.5,7.07 20.5,12L20.5,14.293L22.646,12.146L23.354,12.854L20,16.207L19.646,15.854L16.646,12.854L17.354,12.146L19.5,14.293L19.5,12C19.5,7.541 16.379,4 12,4ZM10,9L10,8L13,8L13,15L14,15L14,16L10,16L10,15L12,15L12,9L10,9Z"/>
</svg>
