<svg height="24" viewBox="0 0 24 24" width="24" xmlns="http://www.w3.org/2000/svg"><path d="m8.5 2c1.23513809 0 2.2726074.89918959 2.4703115 2.13719454l.0216942.17086633.0079943.19183366v1.50010547h-2.5v1h2.5v2h-2.5v1h2.5v2h-2.5v1h2.5l.001.758.2103545.1498387c.9816587.74124 1.6301358 1.8626466 1.7632418 3.1127741l.0196956.2516672.0057081.22772c0 2.4852814-2.0147186 4.5-4.5 4.5-2.48528137 0-4.5-2.0147186-4.5-4.5 0-1.4455282.68810221-2.7671138 1.80101716-3.6014705l.19798284-.1405295.00212777-9.30547912.01027324-.19210345c.1220846-1.27762551 1.19731826-2.26041743 2.48859899-2.26041743zm12.5 18v2h-7v-2zm-2.5-17.33333333v2.33333333h2.5v2h-2.5v2.33333333h-2v-2.33333333h-2.5v-2h2.5v-2.33333333z" fill-rule="evenodd"/></svg>