<?xml version="1.0" encoding="UTF-8" standalone="no"?>
<!DOCTYPE svg PUBLIC "-//W3C//DTD SVG 1.1//EN" "http://www.w3.org/Graphics/SVG/1.1/DTD/svg11.dtd">
<svg width="100%" height="100%" viewBox="0 0 24 24" version="1.1" xmlns="http://www.w3.org/2000/svg" xmlns:xlink="http://www.w3.org/1999/xlink" xml:space="preserve" xmlns:serif="http://www.serif.com/" style="fill-rule:evenodd;clip-rule:evenodd;stroke-linejoin:round;stroke-miterlimit:2;">
    <path d="M22,2L22,20.5C22,10.283 13.717,2 3.5,2L22,2ZM20,22L17,22C17,13.716 10.284,7 2,7L2,4L3.5,4C12.613,4 20,11.387 20,20.5L20,22ZM15,22L12,22C12,16.477 7.523,12 2,12L2,9C9.18,9 15,14.82 15,22ZM10,22L2,22L2,14C6.418,14 10,17.582 10,22Z"/>
</svg>
