<svg height="24" viewBox="0 0 24 24" width="24" xmlns="http://www.w3.org/2000/svg"><path d="m3 9v9.9c0 .5870005.60918686 1.1 1.4 1.1h15.2c.7908131 0 1.4-.5129995 1.4-1.1v-9.9zm0-1h18v-1.9c0-.58700054-.6091869-1.1-1.4-1.1h-15.2c-.79081314 0-1.4.51299946-1.4 1.1zm15-4h1.6c1.3086869 0 2.4.91900054 2.4 2.1v12.8c0 1.1809995-1.0913131 2.1-2.4 2.1h-15.2c-1.30868686 0-2.4-.9190005-2.4-2.1v-12.8c0-1.18099946 1.09131314-2.1 2.4-2.1h1.6v-1.85h1v1.85h10v-1.85h1zm-12.5 7h3c.27614237 0 .5.2238576.5.5v3c0 .2761424-.22385763.5-.5.5h-3c-.27614237 0-.5-.2238576-.5-.5v-3c0-.2761424.22385763-.5.5-.5zm.5 1v2h2v-2z" fill-rule="evenodd"/></svg>