<svg height="24" viewBox="0 0 24 24" width="24" xmlns="http://www.w3.org/2000/svg"><path d="m5.8458278 2h11.3083444c1.179881 0 1.725428.08748025 2.3110964.40069906.4888889.26146066.8725717.64514355 1.1340323 1.13403232.3132188.58566825.4006991 1.1312153.4006991 2.31109642v12.3083444c0 1.1798811-.0874803 1.7254281-.4006991 2.3110963-.2614606.4888889-.6451435.8725718-1.1340323 1.1340324-.5856683.3132188-1.1312153.4006991-2.3110964.4006991h-11.3083444c-1.17988112 0-1.72542817-.0874803-2.31109628-.4006991-.48888891-.2614606-.8725718-.6451434-1.1340325-1.1340324-.31321877-.5856683-.40069902-1.1312153-.40069902-2.3110963v-12.3083444c0-1.17988109.08748026-1.72542812.40069906-2.31109637.26146063-.48888887.6451435-.87257174 1.13403239-1.13403238.58566823-.31321879 1.13121526-.40069905 2.31109635-.40069905zm0 2c-.87895331 0-1.13843978.04160951-1.36789863.16432544-.14035195.07506105-.23854268.17325178-.31360372.31360371-.12271594.22945887-.16432545.48894534-.16432545 1.36789865v12.3083444c0 .8789533.04160951 1.1384397.16432544 1.3678986.07506104.140352.17325175.2385427.31360378.3136037.22945885.122716.48894529.1643255 1.36789858.1643255h11.3083444c.8789533 0 1.1384397-.0416095 1.3678987-.1643255.1403519-.075061.2385426-.1732517.3136036-.3136037.122716-.2294589.1643255-.4889453.1643255-1.3678986v-12.3083444c0-.87895329-.0416095-1.13843973-.1643255-1.36789872-.075061-.14035189-.1732517-.2385426-.3136036-.3136036-.229459-.12271597-.4889454-.16432548-1.3678987-.16432548zm5.1541722 3.515v.808c-1.696.249-3 1.751-3 3.566v2.381l-1.5 1.736h2.551c.261 1.143 1.259 1.994 2.449 1.994s2.188-.851 2.449-1.994h2.551l-1.5-1.794v-2.323c0-1.815-1.304-3.317-3-3.566v-.808c0-.285-.224-.515-.5-.515s-.5.23-.5.515zm.709 2.787c.736.108 1.291.79 1.291 1.587v3.117h-.645-1.71-.645v-3.117c0-.797.555-1.479 1.291-1.587l.209-.031z" fill-rule="evenodd"/></svg>