<svg height="24" viewBox="0 0 24 24" width="24" xmlns="http://www.w3.org/2000/svg"><path d="m5 4v13l7.7581204.0005166c.8073081 1.2056959 2.1818943 1.9994834 3.7418796 1.9994834l.275999-.0083596c.3662626-.0222382.7250392-.0886288 1.0698285-.1965798l.1851725-.0650606.4129712.2538799c.2993174.1769122.6046021.3440376.9154042.5010772l.5874407.2823769.5011839.232666h-18.448v-16zm6.5 0c1.9329966 0 3.5 1.56700338 3.5 3.5 0 .41694288-.0729056.81685774-.2066641 1.18769192.3147656.42318122.5954222.8774092.8367525 1.35903958l.1285471.2672316c.1107931.2401643.2292962.4758782.3552034.7068354.1273187-.0136835.255909-.0207985.3861611-.0207985 1.9329966 0 3.5 1.5670034 3.5 3.5 0 .2383677-.0238288.4711699-.0692343.6961544.4014962.2674433.8205519.511647 1.2552973.7301383l.3286919.1588878.1171555.0544191-1.2638208 2.7208008-.1171555-.0544191c-.7435776-.3453942-1.4528901-.7497932-2.1221443-1.2073888-.4857835.256181-1.0403269.4014075-1.6287898.4014075-1.9329966 0-3.5-1.5670034-3.5-3.5 0-.6999217.2054502-1.3518578.559334-1.8987919-.124236-.2224698-.2433745-.4488285-.3568031-.6786256l-.1679975-.3519302c-.1215286-.2634354-.2602556-.5154067-.4144872-.7548301-.3521185.1199086-.7285769.1841778-1.1200462.1841778-1.75286074 0-3.2047636-1.28855384-3.46014666-2.97009958-.11120674-.01273333-.22415425-.02040366-.33767414-.02495284l-.24715661-.00494758h-1.45502259v-3h1.45502259c.50077863 0 .9951397.04087981 1.4791507.12012279.63863163-.68896119 1.55187761-1.12012279 2.56582671-1.12012279z" fill-rule="evenodd"/></svg>