<svg height="24" viewBox="0 0 24 24" width="24" xmlns="http://www.w3.org/2000/svg"><path d="m2.99883382 16.7256116c1.50126037 1.2777131 4.53553739 2.2743884 8.00116618 2.2743884 2.8406059 0 5.3914177-.5041242 7.0457881-1.403868.3302-.0711298.6495252-.1515705.9557521-.2407101l-.0015402.4627599c0 1.2780143-1.8944645 2.3800439-4.6274019 2.886092l-.5219937.0877973c-.8855068.1343468-1.8464503.2079289-2.8506044.2079289-1.00415409 0-1.96509764-.0735821-2.85060435-.2079289l-.52199379-.0877973c-2.64753304-.4902341-4.50817901-1.5397829-4.6218839-2.7668065l-.00551796-.1192855zm2.00093478-3.7098816.0002314.8024518c0 2.2934103 3.26575953 3.8323304 7.4849437 4.1293472l.056206-.0031467c-.4986978.0364956-1.0139688.0556177-1.5411497.0556177s-1.04245189-.0191221-1.54114973-.0556177l-.49300075-.0422219-.54857098-.0619375-.53123957-.0759778-.27515674-.0459654c-2.72404897-.4784288-4.61088223-1.5157242-4.61088223-2.7182797 0-.7607877.75517957-1.4554323 1.9997686-1.98427zm17.0013976-.2901184-.0011662 1.0925702c0 1.2780143-1.8944645 2.3800439-4.6274019 2.886092l-.5219937.0877973c-.8855068.1343468-1.8464503.2079289-2.8506044.2079289s-1.9650976-.0735821-2.8506044-.2079289l-.5219937-.0877973c-2.64753308-.4902341-4.50817905-1.5397829-4.62188394-2.7668065l-.00551796-.1192855-.00095931-.2123021c.46819283.0996076.9590613.1811776 1.46800702.2437407 1.64549959.7404376 3.97139909 1.1503796 6.53295229 1.1503796 3.4656288 0 6.4999058-.9966753 8.0011662-2.2743884zm-3.0005893-4.06745226.0891423.027197.4298668.14306016.3813819.14591172.2135905.09105835.2954494.13932688.2368489.12526981.2034292.1196488.2070938.13633802.1373972.10076819c.0949844.07302548.182398.1478233.2617542.22417552l.096885.09829181.0491656.0543906.0932818.1142538.0772001.1097289.0261581.0415684c.0390785.0641657.0726186.128993.100499.1945284.0314169.0738621.0556244.1485343.072383.2239999.0184769.0832156.0278963.1673575.0278963.2523244 0 1.2025555-1.8868333 2.2398509-4.6108822 2.7182797l-.2751568.0459654-.5312395.0759778-.548571.0619375-.4930008.0422219c-.4986978.0364956-1.0139688.0556177-1.5411497.0556177s-1.0424519-.0191221-1.5411497-.0556177l-.4499243-.0376902c3.9774573-.3785533 6.991074-1.885413 6.991074-4.08851028zm-.9994107.06745222-.0011662 1.09257026c0 1.27801428-1.8944645 2.38004388-4.6274019 2.88609198l-.5219937.0877973c-.8855068.1343468-1.8464503.2079289-2.8506044.2079289-1.00415409 0-1.96509764-.0735821-2.85060435-.2079289l-.52199379-.0877973c-2.64753304-.4902341-4.50817901-1.5397829-4.6218839-2.76680654l-.00551796-.11928544-.00116618-1.09257026c1.50126037 1.27771314 4.53553739 2.27438844 8.00116618 2.27438844 3.4656288 0 6.4999058-.9966753 8.0011662-2.27438844zm-2.4711525-3.89346009-.1051799-.03715147.0788036.02772985.1172408.04254351.1157553.04374881.0562003.02197783.018.007.071.028.0670819.02813499.0449181.01886501.014.006.0977457.04240688-.0597008-.02611164c.0664529.02873169.1314735.05794181.1950204.08761474l-.0250653-.01190998.1086326.05160911.0019065.00092187.0464609.02246902.0400279.02014495c.0291196.0146154.0578923.02933368.0863135.04415312l.0118475.0061941.0368111.01950783.032298.0172993c.0266583.01442614.0529878.02894418.0789846.04355259l-.0499803-.02774945.0646977.03589756.042.024-.027-.016.0590929.03487003c.0291546.01712523.0578584.03436886.086105.05172852.0510726.03138785.1006506.06315507.1486971.09528774l.0192182.0129276.0628868.04318611.0037155.00282117.0582845.04217883.0585793.04356202c.0851056.06499595.164257.13143828.2370194.1991039l.0289803.02733865.0493377.04845864.0016277.0016429.0144556.01589389.0356562.03621326.0242384.02635256.0390182.04420732.0360872.04322686.0473003.0601793.0794035.11388353.0674893.11523654c.0321483.06062152.0593167.12160099.0815039.1831733.0477894.13262164.0724692.26799368.0724692.40552733 0 1.2025555-1.8868333 2.23985094-4.6108822 2.71827972l-.2751568.04596541-.5312395.07597775-.548571.06193751-.4930008.04222192c-.4986978.03649555-1.0139688.05561769-1.5411497.05561769s-1.04245189-.01912214-1.54114973-.05561769l-.49300075-.04222192-.54857098-.06193751-.53123957-.07597775-.27515674-.04596541c-2.72404897-.47842878-4.61088223-1.51572422-4.61088223-2.71827972s1.88683326-2.23985094 4.61088223-2.71827972l.27515674-.04596541.53123957-.07597775.54857098-.06193751.49300075-.04222192c.49869784-.03649555 1.01396883-.05561769 1.54114973-.05561769.7029079 0 1.3846426.03399491 2.0341505.09783961l.548571.06193751.5312395.07597775c.1322208.02097176.2626252.04323861.3911001.06675815.1122041.02054091.2229373.04203746.3321234.06446126.1585228.03255457.313926.06709756.465831.10351201l-.1086575-.02558959.1347051.03186031.0847707.02024299-.1108183-.02651371.1589269.03910151.0634037.01617189c.1579084.04068575.3121754.08357625.4620473.12844432l.0867139.02633163.0697265.02146436.021.007.071.023.0501454.01612526c.0329521.01088589.0656633.02187189.0981302.03295673z"/></svg>