<svg height="24" viewBox="0 0 24 24" width="24" xmlns="http://www.w3.org/2000/svg"><path d="m11.811 6.486-.0385597-.07794743c-1.6494593-3.18365896-5.73576477-3.60158234-8.18665386-1.15069326l-.16023881.16655274c-2.18771842 2.36777097-2.11938853 6.03910135.16023881 8.31872865l8.24264066 8.2426407 8.2426407-8.2426407c2.3431458-2.3431458 2.3431458-6.14213564 0-8.48528139l-.1737552-.16702651c-2.5014315-2.3110741-6.5274505-1.83883303-8.0517583 1.32088033zm7.2592632-.79255895.1457368.12855895.1550086.14937591.1715105.18017636c1.7722703 1.95628941 1.714893 4.99053053-.1785581 6.88398163l-7.535961 7.5354661-7.53510678-7.5354661c-1.89961417-1.8996142-1.95655897-4.95922942-.13963146-6.9258127l.14654128-.15230269c2.18796429-2.18782653 5.94446796-1.560157 6.93829536 1.79548113l.1060315.35801306h.9825788l.0967761-.37508534c.8360532-3.2403799 4.3906225-3.95489509 6.6467784-2.04238631z"/></svg>