<svg height="24" viewBox="0 0 24 24" width="24" xmlns="http://www.w3.org/2000/svg"><path d="m11.9948135 1.99994646-.0008164.00104308.3377012.0066299c.2454636.00968478.4886411.02864147.7356091.05723154l.3740544.05015532.3525813.05354711.6080569 3.32344659.0380749.01415768c.1062601.04064783.211444.08383077.3154538.12951346l.0374713.01732886 2.8024076-1.92368387.285801.20777963c.7233542.52588442 1.3723686 1.14506412 1.9301171 1.84068472l.2333981.30275403.2143302.28927531-1.944054 2.77719018.0840261.18908707.0759739.19191293 3.3560283.6030048.0545654.3526233c.1360654.879308.1530735 1.7726236.0510245 2.6554334l-.0510245.3776324-.0545649.3526201-3.3560288.601686-.0129336.0374138-.0634807.1573221-.0825857.1872641 1.9433865 2.7775001-.2143392.2892874c-.5316028.7174888-1.1563624 1.3605312-1.8577782 1.9125035l-.3052519.2309353-.2858509.207816-2.6051663-1.7900423-.1265175.2905326-.1423534.3506617-.1627286.4227765-.1810046.4898915-.305645.8603972-.3243708.9442837-.2999409.0457293c-.3665233.0558803-.7378605.0913203-1.1117365.1064115l-.3746378.0083118-.0040917-.9999916c.2258442-.0009241.4508298-.009988.6743299-.0272024l.3666969-.0368018.355775-1.017197.2358629-.649436.1421215-.3740241.1313576-.3292058.121736-.2863834.1132564-.2455565c.0182328-.0376348.03616-.0736516.0538052-.1080919l.1026785-.1880584c.1162887-.1981082.2210944-.3230483.3225787-.3890813l.0415872-.0238808.2634185-.131135 2.6898225 1.8470502.0344208-.0250806c.4106055-.3267535.791634-.6883389 1.1389547-1.0805923l.2756245-.3283271-1.8639585-2.6648704.1356127-.2672843c.0874074-.1722747.1663516-.3489336.2365911-.5293495l.0988006-.2733631.0939729-.2812965 3.2199812-.5778362.0057182-.0373888c.0713373-.6482974.0713373-1.302603 0-1.9509004l-.0057182-.0377108-3.220304-.5775405-.093889-.2815012c-.0609637-.18278345-.1311265-.36292873-.2102039-.5398643l-.1252665-.26292459-.1353165-.26715669 1.8639799-2.66501272-.0217338-.0279627c-.412647-.50893827-.8798952-.97186268-1.3934593-1.38050112l-.0348069-.02653618-2.6908407 1.84847762-.2634848-.13139256c-.1741073-.08682248-.3526715-.16523477-.5350189-.23498333l-.2762742-.09809334-.2824476-.09268213-.5849338-3.19232626-.3167995-.0308021c-.1099977-.00857295-.2197529-.01500954-.3300299-.01935946l-.333161-.00683946.0343578-.00005252c-1.8989821-.00274715-3.7181663.4380865-5.05842473 1.24488162-2.5918964 1.56024039-2.57894556 3.94730708.03330666 5.50959356 1.25271614.74916816 2.91429668 1.18299036 4.66556097 1.23933166l.3765274.0062727-.0011907.9999993c-2.05921519-.0024518-4.04688587-.4859691-5.55416113-1.3873726-3.25827912-1.94865001-3.27631982-5.2738683-.03577897-7.22457232 1.37685709-.82882641 3.16284125-1.30438036 5.0408408-1.37805504l-.0000286-.0110358.472978.001zm-7.99336197 13.98478784.99953381.0305314c-.03032531.9927875.64107578 1.990183 1.96327132 2.7643715 1.24298599.7277769 2.88873245 1.1520061 4.62616394 1.2127775l.3735968.0074375-.0048847.999988c-2.04042068-.0099669-4.00622052-.482538-5.50015412-1.3572464-1.53732735-.9001551-2.41415324-2.1368319-2.45732529-3.4589348zm0-3 .99953381.0305314c-.03032531.9927875.64107578 1.990183 1.96327132 2.7643715 1.24298599.7277769 2.88873245 1.1520061 4.62616394 1.2127775l.3735968.0074375-.0048847.999988c-2.04042068-.0099669-4.00622052-.482538-5.50015412-1.3572464-1.53732735-.9001551-2.41415324-2.1368319-2.45732529-3.4589348zm7.99854847-5.4847343c2.4852814 0 4.5 2.01471863 4.5 4.5 0 2.4142733-1.9012365 4.3844891-4.2881643 4.495102l-.2118357.004898v-1c1.9329966 0 3.5-1.5670034 3.5-3.5 0-1.8685634-1.4642776-3.39512645-3.3079648-3.49482114l-.1920352-.00517886zm-7.99854847 2.48473431.99953381.03053139c-.03032531.9927875.64107578 1.990183 1.96327132 2.7643715 1.24298599.7277769 2.88873245 1.1520061 4.62616394 1.2127775l.3735968.0074375-.0048847.999988c-2.04042068-.0099669-4.00622052-.482538-5.50015412-1.3572464-1.53732735-.9001551-2.41415324-2.1368319-2.45732529-3.4589348z"/></svg>