<svg height="24" viewBox="0 0 24 24" width="24" xmlns="http://www.w3.org/2000/svg"><path d="m12 4c4.418278 0 8 3.581722 8 8 0 2.4108021-1.0663725 4.5725396-2.7531592 6.0392542l1.8814675 1.8819473-.7071068.7071068-1.9759339-1.9760141c-1.2713615.8512501-2.8003378 1.3477058-4.4452676 1.3477058-1.7739444 0-3.41303329-.5773854-4.73959023-1.55448l-2.18161126 2.1827883-.70710678-.7071068 2.11965416-2.1199088c-1.53455991-1.4576202-2.49134589-3.5177218-2.49134589-5.8012927 0-4.418278 3.581722-8 8-8zm0 1c-3.86599325 0-7 3.13400675-7 7 0 3.8659932 3.13400675 7 7 7 3.8659932 0 7-3.1340068 7-7 0-3.86599325-3.1340068-7-7-7zm4.8214392 11.1143324.4281892.4281892-.7071068.7071068-.4281892-.4281892zm-1.4142136-1.4142135.7071068.7071067-.7071068.7071068-.7071067-.7071068zm-1.4142135-1.4142136.7071068.7071068-.7071068.7071068-.7071068-.7071068zm-1.9930121-7.2859053v5.7771238l-4.23500053 2.6468754-.52999894-.8479984 3.76499947-2.3530008v-5.223zm.5787985 5.8716917.7071068.7071068-.7071068.7071068-.7071068-.7071068zm4.5-8.99999997 4.6708299 4.67082991-.7071068.70710678-4.6708299-4.67082991zm-10.15759701 0 .70710678.70710678-4.67082991 4.67082991-.70710678-.70710678z"/></svg>