<svg height="24" viewBox="0 0 24 24" width="24" xmlns="http://www.w3.org/2000/svg"><path d="m9.5144413 16.516 5.701.95 2.473 3.533h-11.241zm-7.529-6.73 5.011 1.367 1.63 4.89-3.025 4.421zm20.077-.142-3.62 10.687-2.188-3.125 3.756-6.976zm-4.737 1.353-2.356 4.374-2.159-3.084zm-5.3214413 1.881 1.6034413 2.291-2.847-.474zm-2.6885587-1.092 1.874.511-1.145 1.674zm2.184-2.522v2.081l-1.813-.495zm1-.525 4.04 1.443-4.0394413 1.155zm-1-6.612v4.481l-4.127 3.611-5.097-1.39zm1 0 9.099 6.61-1.756.502-7.343-2.623z" fill-rule="evenodd"/></svg>