<svg height="24" viewBox="0 0 24 24" width="24" xmlns="http://www.w3.org/2000/svg"><path d="m14 21v1h-4v-1zm-2-18c2.2461051 0 4.2039479 1.23419757 5.2323526 3.0614168l2.914094-2.91497019.7071068.70710678-3.182144 3.18310008c.212929.61517173.3285906 1.27575202.3285906 1.96334653 0 2.10873-1.0977838 4.0221197-2.8413625 5.1023444l-.1586375.0926556v1.8051481l-1-.000241.0004469-2.4057628.2723225-.1392373c1.6603304-.8489201 2.7272306-2.5566732 2.7272306-4.454907 0-.39825487-.0465616-.78563469-.1345381-1.15699272l-6.8650153 6.86299272-.0004466 1.2941481-1-.0002962-.00055339-.2928519-5.14589322 5.1465534-.70710678-.7071068 5.853-5.8534466.00055339-.097-.15766551-.0930527c-1.67435643-1.0368966-2.75344398-2.8420434-2.83709201-4.85082929l-.00524248-.25211801c0-3.3137085 2.6862915-6 6-6zm3 16v1h-6v-1zm0-2v1h-6v-1zm-3-13c-2.76142375 0-5 2.23857625-5 5 0 1.819495.98022789 3.463968 2.52367177 4.3448572l.20447853.1105199.07229631.0366229 6.69162539-6.69030697c-.8135517-1.65930233-2.519402-2.80169303-4.492072-2.80169303z"/></svg>