<svg height="24" viewBox="0 0 24 24" width="24" xmlns="http://www.w3.org/2000/svg"><path d="m6.02053689 11h1.39612978v1h-3.33333334v-1h.9342487c.25637324-3.63263779 3.28454144-6.5 6.98241797-6.5 3.6978765 0 6.7260447 2.86736221 6.982418 6.5h.9342487v1h-.9342487c-.2563733 3.6326378-3.2845415 6.5-6.982418 6.5v1.4166667h-1v-3.3333334h1v.9166667c3.1453319 0 5.7253877-2.4202347 5.9794631-5.5h-1.3961298v-1h1.3961298c-.2540754-3.07976526-2.8341312-5.5-5.9794631-5.5-3.14533189 0-5.72538766 2.42023474-5.97946311 5.5zm5.97946311 11c-5.5228475 0-10-4.4771525-10-10s4.4771525-10 10-10 10 4.4771525 10 10-4.4771525 10-10 10zm0-1c4.9705627 0 9-4.0294373 9-9 0-4.97056275-4.0294373-9-9-9-4.97056275 0-9 4.02943725-9 9 0 4.9705627 4.02943725 9 9 9zm4.7572479-6.9287465-.5144958.857493-5.2427521-3.1456513v-4.7830952h1v4.2169048z" fill-rule="evenodd"/></svg>