<svg width="24" height="24" viewBox="0 0 24 24" fill="none" xmlns="http://www.w3.org/2000/svg"><path fill-rule="evenodd" clip-rule="evenodd" d="M6 7.78088C6 5.14047 8.14047 3 10.7809 3H12.3333C14.9107 3 17 5.08934 17 7.66667H15C15 6.19391 13.8061 5 12.3333 5H10.7809C9.24504 5 8 6.24504 8 7.78088C8 8.53263 8.43415 9.21676 9.11435 9.53685L10.0985 10H6.68422C6.24695 9.35825 6 8.5888 6 7.78088ZM4 11H2V13H11.7765L13.4252 13.7759C14.3865 14.2282 15 15.195 15 16.2574C15 17.7721 13.7721 19 12.2574 19H10.8039C9.25536 19 8 17.7446 8 16.1961H6C6 18.8492 8.15079 21 10.8039 21H12.2574C14.8767 21 17 18.8767 17 16.2574C17 15.0241 16.5218 13.8652 15.7045 13H22V11H19H12.2235H7.66751H4Z" fill="black"/>
</svg>
