<?xml version="1.0" encoding="UTF-8" standalone="no"?><!DOCTYPE svg PUBLIC "-//W3C//DTD SVG 1.1//EN" "http://www.w3.org/Graphics/SVG/1.1/DTD/svg11.dtd"><svg width="100%" height="100%" viewBox="0 0 24 24" version="1.1" xmlns="http://www.w3.org/2000/svg" xmlns:xlink="http://www.w3.org/1999/xlink" xml:space="preserve" xmlns:serif="http://www.serif.com/" style="fill-rule:evenodd;clip-rule:evenodd;stroke-linejoin:round;stroke-miterlimit:2;"><path id="hide-sidebar-3-a" d="M3,16.961l5,-2l0,-1.922l-5,2l0,1.922Zm0,1.078l0,0.961l5,0l0,-2.961l-5,2Zm0,-4.078l5,-2l0,-1.922l-5,2l0,1.922Zm0,-3l5,-2l0,-1.922l-5,2l0,1.922Zm0,-3l5,-2l0,-0.961l-5,0l0,2.961Zm6,-2.961l0,14l12,0l0,-14l-12,0Zm13,-1l0,16l-20,0l0,-16l20,0Zm-4.561,8l-3.146,3.146c-0.195,0.196 -0.195,0.512 0,0.708c0.195,0.195 0.512,0.195 0.707,0l4,-4c0.195,-0.196 0.195,-0.512 0,-0.708l-4,-4c-0.195,-0.195 -0.512,-0.195 -0.707,0c-0.195,0.196 -0.195,0.512 0,0.708l3.146,3.146l-7.293,0l0,1l7.293,0Z" style="fill-rule:nonzero;"/></svg>