<svg width="24" height="24" viewBox="0 0 24 24" fill="none" xmlns="http://www.w3.org/2000/svg">
<path fill-rule="evenodd" clip-rule="evenodd" d="M15 2H4.00003V13H6.00003V4H14.17L18 7.83V13H20V7L15 2ZM14.5 8C13.1193 8 12 9.11929 12 10.5C12 11.8807 13.1193 13 14.5 13C15.8807 13 17 11.8807 17 10.5C17 9.11929 15.8807 8 14.5 8ZM14 10.5C14 10.2239 14.2239 10 14.5 10C14.7761 10 15 10.2239 15 10.5C15 10.7761 14.7761 11 14.5 11C14.2239 11 14 10.7761 14 10.5ZM8.88866 11.0603L8.00287 9.99592L7.27105 11.1715L4.15105 16.1835L4 16.4262V16.712V21V22H5H19H20V21V17.409V16.9947L19.707 16.7018L16.707 13.7028L15.9999 12.9959L15.2929 13.7029L12.9977 15.9981L8.88866 11.0603ZM6 16.9978L8.23713 13.4041L12.1613 18.1197L12.8623 18.9619L13.6371 18.1871L16.0001 15.8241L18 17.8233V20H6V16.9978Z" fill="black"/>
</svg>
