<svg height="24" viewBox="0 0 24 24" width="24" xmlns="http://www.w3.org/2000/svg"><path d="M12.404,21.795l-0.404,0.553l-0.404,-0.553c-4.396,-6.027 -6.596,-10.257 -6.596,-12.795c0,-3.866 3.134,-7 7,-7c3.866,0 7,3.134 7,7c0,2.538 -2.2,6.768 -6.596,12.795Zm-0.404,-15.795c-0.006,0 -0.012,0 -0.019,0l0,0l-0.008,0l-0.009,0l-0.001,0l-0.002,0l-0.01,0l-0.005,0l-0.001,0.001l-0.003,0l-0.012,0l-0.002,0l-0.001,0c-0.275,0.006 -0.542,0.05 -0.794,0.126l-0.005,0.002l-0.001,0l-0.001,0.001l-0.002,0c-0.456,0.139 -0.885,0.388 -1.245,0.749c-0.361,0.36 -0.61,0.789 -0.749,1.245l0,0.002l-0.001,0.001l0,0.001l-0.002,0.005c-0.076,0.252 -0.12,0.519 -0.126,0.794l0,0.001l0,0.002l0,0.012l0,0.003l-0.001,0.001l0,0.005l0,0.01l0,0.002l0,0.001l0,0.009l0,0.008l0,0c0,0.007 0,0.013 0,0.019l0,0.039l0.001,0.034c0.006,0.275 0.05,0.542 0.126,0.794l0.003,0.009c0.139,0.456 0.388,0.885 0.749,1.245c0.36,0.361 0.789,0.61 1.245,0.749l0.009,0.003c0.252,0.076 0.519,0.12 0.794,0.126l0.037,0.001l0.036,0c0.006,0 0.012,0 0.019,0l0,0l0.008,0l0.009,0l0.001,0l0.002,0l0.01,0l0.005,0l0.001,-0.001l0.003,0l0.012,0l0.002,0l0.001,0c0.275,-0.006 0.542,-0.05 0.794,-0.126l0.005,-0.002l0.001,0l0.001,-0.001l0.002,0c0.456,-0.139 0.885,-0.388 1.245,-0.749c0.361,-0.36 0.61,-0.789 0.749,-1.245l0,-0.002l0.001,-0.001l0,-0.001l0.002,-0.005c0.076,-0.252 0.12,-0.519 0.126,-0.794l0,-0.001l0,-0.002l0,-0.012l0,-0.003l0.001,-0.001l0,-0.005l0,-0.01l0,-0.002l0,-0.001l0,-0.009l0,-0.008l0,0c0,-0.007 0,-0.013 0,-0.019c0,0 0,-0.018 0,-0.018l0,-0.001l0,0l0,-0.008l0,-0.009l0,-0.001l0,-0.002l0,-0.01l0,-0.005l-0.001,-0.001l0,-0.003l0,-0.012l0,-0.002l0,-0.001c-0.006,-0.275 -0.05,-0.542 -0.126,-0.794l-0.002,-0.005l0,-0.001l-0.001,-0.001l0,-0.002c-0.139,-0.456 -0.388,-0.885 -0.749,-1.245c-0.36,-0.361 -0.789,-0.61 -1.245,-0.749l-0.002,0l-0.001,-0.001l-0.001,0l-0.005,-0.002c-0.252,-0.076 -0.519,-0.12 -0.794,-0.126l-0.001,0l-0.002,0l-0.012,0l-0.003,0l-0.001,-0.001l-0.005,0l-0.01,0l-0.002,0l-0.001,0l-0.009,0l-0.008,0l0,0l-0.001,0l-0.018,0c0,0 0,0 0,0Z"/></svg>
