<svg height="24" viewBox="0 0 24 24" width="24" xmlns="http://www.w3.org/2000/svg"><path d="m17.5 1c1.9329966 0 3.5 1.56700338 3.5 3.5s-1.5670034 3.5-3.5 3.5c-.8935303 0-1.7088565-.3348315-2.3273523-.88586813l-6.26290615 4.59269643c.05904694.25485.09025845.5203659.09025845.7931717 0 .255722-.02742482.5050385-.07949375.745169l5.93799935 3.9585571c.6416757-.7375173 1.5871406-1.2037261 2.6414944-1.2037261 1.9329966 0 3.5 1.5670034 3.5 3.5s-1.5670034 3.5-3.5 3.5-3.5-1.5670034-3.5-3.5c0-.1508051.0095376-.2993826.0280426-.4451622l-6.07992433-4.053493c-.63114887.6178014-1.49515699.9986552-2.44811827.9986552-1.93299662 0-3.5-1.5670034-3.5-3.5s1.56700338-3.5 3.5-3.5c.93335067 0 1.78137157.36534017 2.40885921.96081702l6.20957229-4.5546873c-.0772487-.28901314-.1184315-.59276205-.1184315-.90612972 0-1.93299662 1.5670034-3.5 3.5-3.5zm0 17c-.8284271 0-1.5.6715729-1.5 1.5s.6715729 1.5 1.5 1.5 1.5-.6715729 1.5-1.5-.6715729-1.5-1.5-1.5zm-12-7c-.82842712 0-1.5.6715729-1.5 1.5s.67157288 1.5 1.5 1.5 1.5-.6715729 1.5-1.5-.67157288-1.5-1.5-1.5zm12-8c-.8284271 0-1.5.67157288-1.5 1.5s.6715729 1.5 1.5 1.5 1.5-.67157288 1.5-1.5-.6715729-1.5-1.5-1.5z" fill-rule="evenodd"/></svg>