<svg height="24" viewBox="0 0 24 24" width="24" xmlns="http://www.w3.org/2000/svg"><path d="m20 22h-16c0-2.289-.003-4.578.003-6.867.00437888-.3850548.06916726-.7670363.192-1.132.17585796-.5259457.50883926-.9852784.954-1.316.159-.115.332-.212.513-.288.27163327-.1117873.55848547-.1822363.851-.209.647-.052 1.296-.087 1.943-.13l.877-.059 2.667 2.537 2.67-2.536c.939.064 1.88.119 2.819.193.293.029.579.092.851.206.181.076.354.173.512.288.489.355.826.877.997 1.452.091.302.134.613.149.928.022.754.002 1.509.002 2.263zm-2-4.67c0-.2102848.0010645-.3762167.0042355-.747025.001709-.1999198.0023984-.2871425.0030501-.3964032.0025873-.4338118.0005149-.7545119-.0070219-1.0244415-.0088137-.1850875-.0313114-.3302682-.0682872-.4530242-.0558766-.187889-.1503697-.3277162-.2569283-.4050766-.0315815-.0229865-.0692594-.0441631-.1081295-.0604847-.0650192-.0272508-.154001-.0483027-.235046-.0567266-.4062991-.0320193-.8244398-.0614972-1.3840016-.0984044-.2502157-.0164244-.2502157-.0164244-.5016786-.032773-.0114941-.0007473-.0228287-.0014843-.0340088-.0022114l-3.4132299 3.2419292-3.40803593-3.2419292c-.17863896.0118885-.32057408.0208929-.63192391.0403273-.17454305.0108944-.17454305.0108944-.34743632.0218283-.38071435.0242353-.66442159.0439722-.91632857.0640958-.09352505.0085571-.1852397.0310816-.25893731.0613562-.04089911.0171731-.08035677.0393177-.09457221.0493975-.11662883.0866467-.20386748.2069884-.25119669.3485256-.05607581.1666138-.08565312.3409967-.08752973.4992823-.00360324 1.3746356-.00417177 2.4853475-.00345717 4.8617576h12.00046404zm-5.356-15.284c.339.05.672.142.987.279.4298238.18472187.818935.4525119 1.145.788.117.119.226.247.326.381.643.859.898 1.946.898 3.005 0 .317-.022.633-.07.945-.124.805-.428 1.59-.953 2.22-.4300226.5156489-.9935697.9031092-1.629 1.12-.4344252.1455276-.8898546.2185044-1.348.2160623-.457 0-.914-.0680623-1.347-.2160623-.6358395-.2166354-1.19977372-.6041239-1.63-1.12-.525-.63-.829-1.415-.953-2.22-.04735192-.31275918-.07075327-.62867748-.0700505-.945 0-1.059.2550505-2.146.8980505-3.005.2195812-.29451978.48178909-.5547055.778-.772.216-.157.448-.291.693-.397.315-.137.648-.229.987-.279.178-.026.356-.038.535-.045h.219c.179.007.357.019.534.045zm-.6748474 1.95347246c-.1414292.00553075-.2425058.01361121-.3213245.02512208-.1735173.02559252-.3356191.07115296-.4846646.13597196-.1055456.04566462-.210017.10563687-.3041772.17405353-.1361401.09986975-.2566523.21945254-.3598686.3578883-.3209094.42871098-.49916304 1.06121583-.49916304 1.81114294-.00047674.21458828.01539854.42886406.04673194.63586533.0783481.50863065.2582508.93870842.5122733 1.24353568.1950657.23389956.4507549.40958785.7409006.50844369.2084711.07125571.4453686.10856636.7107999.10859477.2386786.00127223.4758721-.03674323.6912796-.10886821.2882955-.09840362.5439775-.27419478.7386174-.50759133.2545052-.30540618.4344079-.73548395.5126992-1.24374557.0311442-.20243759.0467434-.41624769.0467434-.64088563 0-.7452969-.1782183-1.37779405-.5008662-1.80883117-.047891-.06417385-.0981678-.12300354-.1573457-.1832405-.1425215-.14664031-.3126002-.2636901-.5084532-.3478808-.1455439-.06330003-.3076457-.10886047-.480001-.13428195-.0754776-.01108711-.1694313-.01888408-.2987309-.02436638z" fill-rule="evenodd"/></svg>