<svg height="24" viewBox="0 0 24 24" width="24" xmlns="http://www.w3.org/2000/svg"><path d="m18 0v18h-18v-18zm-17 8.747v8.253h7v-5.371zm8 3.294v4.959h8v-1.665zm8-11.041h-12v8.312l12 4.941zm-5 2c1.6568542 0 3 1.34314575 3 3 0 1.1045695-1 2.77123617-3 5-2-2.22876383-3-3.8954305-3-5 0-1.65685425 1.3431458-3 3-3zm0 1c-1.1045695 0-2 .8954305-2 2 0 .61716232.5715184 1.69572399 1.7331282 3.14485225l.2668718.32514775.0678031-.08021078c.2056211-.24965095.3946478-.48904083.5671676-.7177424l.3230561-.4430255c.6523805-.92846272.9958906-1.65087456 1.037639-2.13247148l.0043342-.09654984c0-1.1045695-.8954305-2-2-2zm-8-3h-3v6.665l3 1.235z" fill-rule="evenodd" transform="translate(3 3)"/></svg>