<svg height="24" viewBox="0 0 24 24" width="24" xmlns="http://www.w3.org/2000/svg"><g transform="translate(4 4)" fill="none" fill-rule="evenodd"><path d="m12 0c1.6568542 0 3 1.34314575 3 3v7c0 1.6568542-1.3431458 3-3 3h-.473l1 3h-1.054l-1-3h-4.947l-1 3h-1.054l1-3h-.472c-1.65685425 0-3-1.3431458-3-3v-7c0-1.65685425 1.34314575-3 3-3zm2 10v-1.975l.1581139-.05065835c-2.0503173.68343909-4.1036328 1.02565835-6.1581139 1.02565835-1.8832743 0-3.76556925-.28755924-5.64547316-.8619079l-.35452684-.1130921v1.975c0 1.0543618.81587779 1.9181651 1.85073766 1.9945143l.14926234.0054857h8c1.0543618 0 1.9181651-.8158778 1.9945143-1.8507377zm-10.37873219-.48507125 2 .49999995-.24253562.9701426-2-.5zm8.75746439 0 .2425356.97014255-2 .5-.2425356-.9701426zm-.3787322-8.51492875h-8c-1.0543618 0-1.91816512.81587779-1.99451426 1.85073766l-.00548574.14926234v3.972l.15811388.05365835c1.94968272.64989424 3.89636718.97434165 5.84188612.97434165 1.78339236 0 3.5677641-.27262595 5.3545268-.81864765l.4873593-.155694.1581139-.05365835v-3.972c0-1.0543618-.8158778-1.91816512-1.8507377-1.99451426z" fill="#000" fill-rule="nonzero"/></g></svg>