<svg height="24" viewBox="0 0 24 24" width="24" version="1.1" xmlns="http://www.w3.org/2000/svg" xmlns:xlink="http://www.w3.org/1999/xlink" xml:space="preserve" xmlns:serif="http://www.serif.com/" style="fill-rule:evenodd;clip-rule:evenodd;stroke-linejoin:round;stroke-miterlimit:2;"><path d="M10.983,13.017l-0,7.983l-3.051,-3.051l-2.661,2.661l-1.881,-1.881l2.66,-2.662l-3.05,-3.05l7.983,0Z"/><path d="M13.017,11.011l0,-7.983l3.051,3.051l2.661,-2.661l1.881,1.881l-2.66,2.662l3.05,3.05l-7.983,-0Z"/><path d="M13.017,13.017l7.983,0l-3.051,3.051l2.661,2.661l-1.881,1.881l-2.662,-2.66l-3.05,3.05l0,-7.983Z"/><path d="M10.983,11.011l-7.983,-0l3.051,-3.051l-2.661,-2.661l1.881,-1.881l2.662,2.66l3.05,-3.05l-0,7.983Z"/></svg>
