<svg height="24" viewBox="0 0 24 24" width="24" xmlns="http://www.w3.org/2000/svg"><path d="m13 2c1.5976809 0 2.9036609 1.24891996 2.9949073 2.82372721l.0050927.17627279h5v2h-1.547l-1.1798976 11.4115966c-.2038901 1.9709373-1.8161228 3.4845594-3.7749383 3.5832777l-.2038289.0051257h-4.58867043c-1.98145524 0-3.65294017-1.4479243-3.95269482-3.3861839l-.02607235-.2022195-1.1808976-11.4115966h-1.546v-2h5c0-1.59768088 1.24891996-2.90366088 2.8237272-2.99490731l.1762728-.00509269zm4.443 5h-10.887l1.16028119 11.2057983c.09990983.965795.87615592 1.7119711 1.82902275 1.7878406l.16036083.0063611h4.58867043c.9709491 0 1.7930393-.6953447 1.9665553-1.6353466l.0228283-.1588551zm-4.443-3h-2c-.5128358 0-.9355072.38604019-.9932723.88337887l-.0067277.11662113h4c0-.51283584-.3860402-.93550716-.8833789-.99327227z" fill-rule="evenodd"/></svg>