<svg height="24" viewBox="0 0 24 24" width="24" xmlns="http://www.w3.org/2000/svg"><path d="m5.01894482 11c.24275908-3.19120304 2.78985214-5.7382961 5.98105518-5.98105518v-3.01894482h1v3.01894482c3.191203.24275908 5.7382961 2.78985214 5.9810552 5.98105518h3.0189448v1h-3.0189448c-.2427591 3.191203-2.7898522 5.7382961-5.9810552 5.9810552v3.0189448h-1v-3.0189448c-3.19120304-.2427591-5.7382961-2.7898522-5.98105518-5.9810552h-3.01894482v-1zm6.98105518 4v2h-1v-2zm-.5-4.5c.5522847 0 1 .4477153 1 1s-.4477153 1-1 1-1-.4477153-1-1 .4477153-1 1-1zm5.5.5v1h-2v-1zm-9 0v1h-2v-1zm4-5v2h-1v-2z" fill-rule="evenodd"/></svg>