<svg height="24" viewBox="0 0 24 24" width="24" xmlns="http://www.w3.org/2000/svg"><path d="m12 3c5.5228475 0 10 4.4771525 10 10 0 2.5008801-.9180398 5.2465757-2.4355031 7h-15.09921213c-1.5352251-1.7578504-2.46528477-4.4828012-2.46528477-7 0-5.5228475 4.4771525-10 10-10zm0 2c-4.418278 0-8 3.581722-8 8 0 1.6633849.50166284 3.4329253 1.31049097 4.7705597l.14450903.2294403h13.111l.1373467-.2197438c.7478379-1.253949 1.2331164-2.8986513 1.290855-4.4676121l.0057983-.3126441c0-2.156605-.8533497-4.1138996-2.2408061-5.55264067l-5.4411744 5.44172797-1.2071068-1.2071068 5.3343549-5.33427471c-1.2713615-.85125005-2.8003378-1.34770579-4.4452676-1.34770579zm-5.47520661 5.5c.4049607 0 .74793248.1363623 1.02892562.4090909.29752215.2892577.44628099.6528904.44628099 1.0909091 0 .4297542-.14875884.7933869-.44628099 1.0909091-.28099314.2727286-.6322293.4090909-1.05371901.4090909s-.77272587-.1363623-1.05371901-.4090909c-.29752215-.2975222-.44628099-.6611549-.44628099-1.0909091 0-.4380187.14875884-.8016514.44628099-1.0909091.28925765-.2727286.64875818-.4090909 1.0785124-.4090909zm11.00000001 0c.4049607 0 .7479325.1363623 1.0289256.4090909.2975222.2892577.446281.6528904.446281 1.0909091 0 .4297542-.1487588.7933869-.446281 1.0909091-.2809931.2727286-.6322293.4090909-1.053719.4090909s-.7727259-.1363623-1.053719-.4090909c-.2975222-.2975222-.446281-.6611549-.446281-1.0909091 0-.4380187.1487588-.8016514.446281-1.0909091.2892576-.2727286.6487582-.4090909 1.0785124-.4090909zm-5.5-4.5c.4049607 0 .7479325.13636227 1.0289256.40909091.2975222.28925764.446281.65289037.446281 1.09090909 0 .42975421-.1487588.79338694-.446281 1.09090909-.2809931.27272864-.6322293.40909091-1.053719.40909091s-.7727259-.13636227-1.053719-.40909091c-.2975222-.29752215-.446281-.66115488-.446281-1.09090909 0-.43801872.1487588-.80165145.446281-1.09090909.2892576-.27272864.6487582-.40909091 1.0785124-.40909091z" fill-rule="evenodd"/></svg>