<svg height="24" viewBox="0 0 24 24" width="24" xmlns="http://www.w3.org/2000/svg"><path d="m20 2v20h-16v-20zm-2 2h-12v16h12zm-9.89934637 3.26858154 1.41792506 1.4104923c-.6488145.65223351-1.01857869 1.52975586-1.01857869 2.46830896 0 1.9329966 1.5670034 3.5 3.5 3.5s3.5-1.5670034 3.5-3.5c0-.9243098-.358527-1.78954675-.9898906-2.43913327l1.4341871-1.39395382c.9906401 1.01923262 1.5557035 2.3829063 1.5557035 3.83308709 0 3.0375661-2.4624339 5.5-5.5 5.5-3.03756612 0-5.5-2.4624339-5.5-5.5 0-1.47258743.58272591-2.85550944 1.60065363-3.87880126zm4.89934637-1.89358154v7.25h-2v-7.25z" fill-rule="evenodd"/></svg>