<svg height="24" viewBox="0 0 24 24" width="24" xmlns="http://www.w3.org/2000/svg"><path d="m12.4039387 21.7946753-.4039387.553716-.4039387-.553716c-4.39617946-6.0262484-6.5960613-10.2567904-6.5960613-12.7946753 0-3.86599325 3.13400675-7 7-7 3.8659932 0 7 3.13400675 7 7 0 2.5378849-2.1998818 6.7684269-6.5960613 12.7946753zm4.5960613-12.47395389c0-2.93855329-2.2385763-5.32072141-5-5.32072141-2.76142375 0-5 2.38216812-5 5.32072141 0 1.93011919 1.66576374 5.20083759 5 10.12927859 3.3342363-4.928441 5-8.1991594 5-10.12927859zm-5 3.67927859c-2.209139 0-4-1.790861-4-4s1.790861-4 4-4 4 1.790861 4 4-1.790861 4-4 4zm0-2c1.1045695 0 2-.8954305 2-2s-.8954305-2-2-2-2 .8954305-2 2 .8954305 2 2 2z" fill-rule="evenodd"/></svg>