<svg height="24" viewBox="0 0 24 24" width="24" xmlns="http://www.w3.org/2000/svg"><path d="m10.9998991 2.04938526.0003444 6.07656957c-1.72535078.44395811-3.0002435 2.01011807-3.0002435 3.87404517 0 2.209139 1.790861 4 4 4 .7418188 0 1.4364732-.201935 2.031992-.5538336l4.2969309 4.2966225c-1.7238989 1.4107833-3.927564 2.2572111-6.3289229 2.2572111-5.5228475 0-10-4.4771525-10-10 0-5.18531358 3.94662476-9.44884356 8.9998991-9.95061474zm8.7434209 16.27888864-4.2966033-4.2972136c.1878455-.3180878.3329133-.6644415.4272877-1.0311454l6.0766103.000186c-.1996825 2.010978-.9951093 3.8466975-2.2072947 5.328173zm2.2072947-7.3283748-6.0768282-.0006604c-.3619165-1.4049918-1.4680334-2.51110866-2.8730252-2.87302518l.0003384-6.07672903c4.7238661.46953909 8.4804393 4.22641213 8.949515 8.95041461z" fill-rule="evenodd"/></svg>