<svg height="24" viewBox="0 0 24 24" width="24" xmlns="http://www.w3.org/2000/svg"><path d="m3 20.5v-16.5c0-.55228475.44771525-1 1-1h16c.5522847 0 1 .44771525 1 1v16.5c0 .2761424-.2238576.5-.5.5h-17c-.27614237 0-.5-.2238576-.5-.5zm6.75521944-11.43945458 4.89460196.54010518c.1658682.01830307.3299343-.0473494.4373881-.17502462l4.2953379-5.10366719c.177813-.21127511.1506865-.52669329-.0605886-.70450622s-.5266933-.15068647-.7045062.06058864l-4.1233833 4.89935277-4.86206436-.53651474c-.14756425-.01628329-.29473365.03385089-.40166994.13683139l-3.57716426 3.44483777c-.19890646.1915485-.20487125.5080748-.01332274.7069813.19154851.1989064.5080748.2048712.70698126.0133227zm-3.43593176 6.33639268 3.28987234-2.7299149 4.94402618 1.8348865c.1971618.073173.4190368.015153.5551401-.1451685l4.2728427-5.03315166c.1787136-.21051383.1529344-.52604498-.0575795-.70475855-.2105138-.17871356-.5260449-.15293436-.7047585.05757947l-4.0461271 4.76609434-4.88649657-1.8135354c-.167609-.0622051-.35567708-.0301861-.4932588.0839783l-3.51223621 2.9144311c-.21250793.1763378-.24182968.4915594-.06549197.7040674.17633772.2125079.4915594.2418296.70406733.0654919zm-.08916103 2.8533404 3.36202982-1.7429678 5.00629743 1.7704646c.1212496.0428796.2543593.0373894.3716658-.0153297l4.23484-1.9031924c.2518755-.1131961.3642973-.4091451.2511012-.6610206-.1131961-.2518754-.4091451-.3642972-.6610206-.2511011l-4.0520787 1.821057-5.02177008-1.7759364c-.13038769-.0461113-.27405072-.0361568-.39683275.0274967l-3.55448542 1.8427421c-.24515579.1270954-.34086261.4288647-.21376717.6740205.12709544.2451557.42886468.3408626.67402047.2137671z" fill-rule="evenodd"/></svg>