<svg height="24" viewBox="0 0 24 24" width="24" xmlns="http://www.w3.org/2000/svg"><path d="m12 2c5.5228475 0 10 4.4771525 10 10s-4.4771525 10-10 10-10-4.4771525-10-10 4.4771525-10 10-10zm0 1c-4.97056275 0-9 4.02943725-9 9 0 4.9705627 4.02943725 9 9 9 4.9705627 0 9-4.0294373 9-9 0-4.97056275-4.0294373-9-9-9zm-4.21092767 13.5880505c2.54884847-2.3752588 6.54141107-2.3212756 9.02463617.1619495l-.7071068.7071068-.1595051-.153329c-2.1574581-1.9932769-5.5231733-1.9421672-7.61866948.153329l-.70710678-.7071068zm1.62514123-8.29515728.70710674.70710678c-1.12973094 1.129731-2.93631803 1.1700785-4.11439588.12104261l-.12824476-.12104261.70710678-.70710678c.74554637.74554637 1.93326028.77943485 2.7190037.10166541zm8.00000004 0 .7071067.70710678c-1.1297309 1.129731-2.936318 1.1700785-4.1143959.12104261l-.1282447-.12104261.7071067-.70710678c.7455464.74554637 1.9332603.77943485 2.7190037.10166541z"/></svg>