<svg height="24" viewBox="0 0 24 24" width="24" xmlns="http://www.w3.org/2000/svg"><path d="m15.6312303 13.8205701 6.6490998 6.6490998-1.5606602 1.5606602-6.6121019-6.6121019c-1.2713964.9912469-2.87052 1.5817718-4.607568 1.5817718-4.14213562 0-7.5-3.3578644-7.5-7.5 0-4.14213562 3.35786438-7.5 7.5-7.5 4.1421356 0 7.5 3.35786438 7.5 7.5 0 1.608752-.5065155 3.0992009-1.3687697 4.3205701zm-6.1312303 1.1794299c3.0375661 0 5.5-2.4624339 5.5-5.5 0-3.03756612-2.4624339-5.5-5.5-5.5-3.03756612 0-5.5 2.46243388-5.5 5.5 0 3.0375661 2.46243388 5.5 5.5 5.5z" fill-rule="evenodd"/></svg>