<svg height="24" viewBox="0 0 24 24" width="24" xmlns="http://www.w3.org/2000/svg"><path d="m21.5223197 2-5.9452691 7.64391738-.7811819-.62467737 4.6811313-6.01924001h-14.955l6.478 8.3284461v6.9645539l2.8535534 2.8534466-.7071068.7071068-3.1464466-3.1464466v-7.0361068l-7.52231968-9.671zm-4.0223197 8c3.0375661 0 5.5 2.4624339 5.5 5.5s-2.4624339 5.5-5.5 5.5-5.5-2.4624339-5.5-5.5 2.4624339-5.5 5.5-5.5zm0 1c-2.4852814 0-4.5 2.0147186-4.5 4.5s2.0147186 4.5 4.5 4.5 4.5-2.0147186 4.5-4.5-2.0147186-4.5-4.5-4.5zm.5 1.5-.0003197 2.5h2.5003197v1h-2.5003197l.0003197 2.5h-1l-.0003197-2.5h-2.4996803v-1h2.4996803l.0003197-2.5z"/></svg>