<svg width="24" height="24" viewBox="0 0 24 24" fill="none" xmlns="http://www.w3.org/2000/svg">
<path fill-rule="evenodd" clip-rule="evenodd" d="M4.50009 2H4.00009V2.5V13H5.00009V3H14.543L19.0001 7.45711V13H20.0001V7.25V7.04289L19.8537 6.89645L15.1037 2.14645L14.9572 2H14.7501H4.50009ZM5.72852 17.9951L3.63257 21H4.83619L6.34278 18.8335L7.82447 21H9.06129L6.96949 17.9993L9.01978 15.1189H7.85352L6.37598 17.2107L4.9358 15.1189H3.73633L5.72852 17.9951ZM9.63022 15.1189V21H10.589V16.1772C10.7384 16.6864 10.8836 17.1401 11.0248 17.5386L12.2408 21H13.2203L14.4405 17.4639C14.5927 17.0212 14.7269 16.5923 14.8431 16.1772V21H15.8475V15.1189H14.3741L13.0751 18.8501C12.9948 19.077 12.8897 19.4201 12.7596 19.8794C12.6185 19.3924 12.512 19.0493 12.44 18.8501L11.1285 15.1189H9.63022ZM16.9685 15.1189V21H20.5336V20.1699H17.9978V15.1189H16.9685Z" fill="black"/>
</svg>
