<svg height="24" viewBox="0 0 24 24" width="24" xmlns="http://www.w3.org/2000/svg"><path d="m10.9246212 6.63172798-8.51040764 8.51040762 1.06417415 1.0641742c.62764493-.5621646 1.45195867-.8926013 2.33532079-.8926013 1.93299662 0 3.5 1.5670034 3.5 3.5 0 .8833621-.33043672 1.7076759-.89260127 2.3353208l1.06417414 1.0641741 8.51040763-8.5104076zm.7071068-.70710678 7.0710678 7.0710678 3.5104076-3.51040763-1.0641741-1.06417414c-.6276449.56216455-1.4519587.89260127-2.3353208.89260127-1.9329966 0-3.5-1.56700338-3.5-3.5 0-.88336212.3304367-1.70767586.8926013-2.33532079l-1.0641742-1.06417415zm-8.06249191 11.7867505-2.56923609-2.5692361 14.1421356-14.1421356 2.5692361 2.56923609c-.8279286.40739506-1.3976632 1.25939941-1.3976632 2.24447241 0 1.38071187 1.1192881 2.5 2.5 2.5.985073 0 1.8370773-.56973462 2.2444724-1.39766321l2.5692361 2.56923608-14.14213563 14.14213563-2.56923608-2.5692361c.82792859-.4073951 1.39766321-1.2593994 1.39766321-2.2444724 0-1.3807119-1.11928813-2.5-2.5-2.5-.985073 0-1.83707735.5697346-2.24447241 1.3976632z" fill-rule="evenodd"/></svg>