<?xml version="1.0" encoding="UTF-8" standalone="no"?><!DOCTYPE svg PUBLIC "-//W3C//DTD SVG 1.1//EN" "http://www.w3.org/Graphics/SVG/1.1/DTD/svg11.dtd"><svg width="100%" height="100%" viewBox="0 0 24 24" version="1.1" xmlns="http://www.w3.org/2000/svg" xmlns:xlink="http://www.w3.org/1999/xlink" xml:space="preserve" xmlns:serif="http://www.serif.com/" style="fill-rule:evenodd;clip-rule:evenodd;stroke-linejoin:round;stroke-miterlimit:2;"><path d="M5.846,2l11.308,0c1.337,0 1.822,0.139 2.311,0.401c0.489,0.261 0.873,0.645 1.134,1.134c0.262,0.489 0.401,0.974 0.401,2.311l0,12.308c0,1.337 -0.139,1.822 -0.401,2.311c-0.261,0.489 -0.645,0.873 -1.134,1.134c-0.489,0.262 -0.974,0.401 -2.311,0.401l-11.308,0c-1.337,0 -1.822,-0.139 -2.311,-0.401c-0.489,-0.261 -0.873,-0.645 -1.134,-1.134c-0.262,-0.489 -0.401,-0.974 -0.401,-2.311l0,-12.308c0,-1.337 0.139,-1.822 0.401,-2.311c0.261,-0.489 0.645,-0.873 1.134,-1.134c0.489,-0.262 0.974,-0.401 2.311,-0.401Zm10.654,13.25l-1.5,-1.743l0,-2.257c0,-1.764 -1.304,-3.222 -3,-3.465l0,-0.785c0,-0.276 -0.224,-0.5 -0.5,-0.5c-0.276,0 -0.5,0.224 -0.5,0.5l0,0.785c-1.696,0.243 -3,1.701 -3,3.465l0,2.313l-1.5,1.687l2.551,0c0.262,1.11 1.259,1.937 2.449,1.937c1.191,0 2.188,-0.827 2.449,-1.937l2.551,0Zm-3.775,0c-0.116,0.57 -0.62,1 -1.225,1c-0.605,0 -1.109,-0.43 -1.225,-1l2.45,0Zm0.432,-1l1.163,0l-0.32,-0.372l0,-2.628c0,-1.236 -0.921,-2.3 -2.142,-2.475l-0.358,-0.051l-0.358,0.051c-1.221,0.175 -2.142,1.239 -2.142,2.475l0,2.694l-0.272,0.306l4.429,0Z"/></svg>