<svg height="24" viewBox="0 0 24 24" width="24" xmlns="http://www.w3.org/2000/svg"><path d="m12.5 2c1.4556902 0 2.6357602 1.18007004 2.6357602 2.6357602 0 .13785177-.0108146.27549111-.0323442.41165126l-.625416 3.95258854h3.8371421c1.3254834 0 2.4100386 1.0315359 2.4946823 2.3356243l.0053177.1643757c0 .2759439-.0456849.549984-.1352016.8110046l-2.7435898 8c-.346507 1.0103758-1.2966568 1.6889954-2.3647984 1.6889954h-5.0403361c-.60704219 0-1.19334703-.2208723-1.64950294-.6213994l-1.57071326-1.3786006h-4.311v-10h4.222l5.0008762-8zm.262 1.021-4.762 7.618v8.636l1.54151443 1.3521603c.19549539.1716545.43083229.2883126.68208687.3409618l.1524715.0238363.1551434.0080416h5.0403361c.6408849 0 1.2109748-.4071718 1.4188791-1.0133972l2.7435897-8c.05371-.1566124.081121-.3210365.081121-.4866028 0-.8284271-.6715729-1.5-1.5-1.5h-5.0072514l.8077966-5.10876787c.0133614-.08450137.0200729-.16992073.0200729-.25547193 0-.80831011-.5862896-1.47968495-1.3568149-1.61207067zm-5.763 7.979h-2.999v8h2.999z"/></svg>