<svg height="24" viewBox="0 0 24 24" width="24" xmlns="http://www.w3.org/2000/svg"><path d="m12 22c-5.5228475 0-10-4.4771525-10-10s4.4771525-10 10-10 10 4.4771525 10 10-4.4771525 10-10 10zm-8.48788288-7h4.82558728c-.20387301-.9809183-.31812578-1.9886765-.33761238-3.0095923.01943892-1.0130721.13318077-2.01454039.33611732-2.9904077h-4.82409222c-.33165446.93833678-.51211712 1.9480937-.51211712 3s.18046266 2.0616632.51211712 3zm.42340253 1c1.3215941 2.6593698 3.91989834 4.5723136 6.99295685 4.9368757-1.06383502-1.4786689-1.85792927-3.1534542-2.3493813-4.9368757zm16.55236325-1c.3316544-.9383368.5121171-1.9480937.5121171-3s-.1804627-2.06166322-.5121171-3h-4.8255873c.203873.98091833.3181258 1.9886765.3376124 3.0095923-.0194389 1.0130721-.1331808 2.0145404-.3361173 2.9904077zm-.4234025 1h-4.642284c-.4913489 1.7812734-1.2858964 3.4570275-2.3506547 4.9368735 3.0730506-.3645674 5.6713472-2.2775089 6.9929387-4.9368735zm-5.4220794-1c.2168847-.9744856.3381334-1.976883.357691-2.9904077-.0196017-1.0215582-.1413535-2.0302164-.3591593-3.0095923h-5.28333372c-.2168847.97448558-.33813334 1.976883-.357691 2.9904077.01960175 1.0215582.14135351 2.0302164.3591593 3.0095923zm-.2589871 1h-4.76561677c.50585777 1.709965 1.31150737 3.3085096 2.38220467 4.7022625 1.0715502-1.394825 1.8776301-2.9944271 2.3834121-4.7022625zm-10.44789425-8h4.64228393c.49134897-1.78127338 1.28589637-3.45702749 2.35065472-4.93687351-3.07305056.36456742-5.67134716 2.27750895-6.99293865 4.93687351zm16.12896075 0c-1.3215942-2.65936981-3.9198984-4.57231364-6.9929569-4.93687567 1.063835 1.47866883 1.8579293 3.15345415 2.3493813 4.93687567zm-5.6822775 0c-.5058578-1.70996499-1.3115074-3.3085096-2.3822047-4.70226251-1.0715502 1.39482506-1.8776301 2.99442713-2.38341205 4.70226251z" fill-rule="evenodd"/></svg>