<svg width="24" height="24" viewBox="0 0 24 24" fill="none" xmlns="http://www.w3.org/2000/svg">
<path fill-rule="evenodd" clip-rule="evenodd" d="M15 2H4.00005V13H6.00005H18H20V7L15 2ZM4.78614 15.1189H3.46216V18.875C3.46216 19.1351 3.45248 19.3274 3.43311 19.4519C3.41651 19.5736 3.38469 19.6733 3.33765 19.7507C3.21314 19.9417 3.00562 20.0371 2.71509 20.0371C2.50757 20.0371 2.25855 19.9707 1.96802 19.8379L1.86011 20.9253C2.17001 21.0443 2.53939 21.1038 2.96827 21.1038C3.91732 21.1038 4.49284 20.7344 4.69483 19.9956C4.7557 19.7715 4.78614 19.3011 4.78614 18.5845V15.1189ZM5.6705 19.6428L5.47959 20.7717C6.10768 20.9931 6.76482 21.1038 7.45102 21.1038C8.10955 21.1038 8.62143 20.9668 8.98667 20.6929C9.41554 20.3691 9.62998 19.8918 9.62998 19.261C9.62998 18.727 9.45981 18.3299 9.11948 18.0698C8.99497 17.9757 8.86215 17.8941 8.72104 17.825C8.57993 17.753 8.29217 17.6271 7.85776 17.4473C7.42058 17.2674 7.14389 17.1332 7.02768 17.0447C6.91424 16.9534 6.85751 16.8289 6.85751 16.6711C6.85751 16.4885 6.9253 16.3377 7.06088 16.2188C7.19093 16.1081 7.38046 16.0527 7.62949 16.0527C7.84807 16.0527 8.05698 16.0763 8.2562 16.1233C8.45818 16.1703 8.75839 16.2672 9.15683 16.4138L9.42246 15.3347C8.74733 15.1217 8.122 15.0151 7.54648 15.0151C6.7496 15.0151 6.17685 15.26 5.82822 15.7498C5.60133 16.0652 5.48789 16.4318 5.48789 16.8496C5.48789 17.3338 5.66082 17.7046 6.00668 17.9619C6.12843 18.0532 6.26124 18.1348 6.40512 18.2068C6.55177 18.2787 6.80218 18.388 7.15634 18.5347C7.63502 18.7311 7.93523 18.8764 8.05698 18.9705C8.17872 19.0645 8.23959 19.196 8.23959 19.3647C8.23959 19.5529 8.17734 19.712 8.05283 19.842C7.90895 19.9915 7.68483 20.0662 7.38046 20.0662C6.91285 20.0662 6.34287 19.925 5.6705 19.6428ZM15.0134 15.895C14.5208 15.3084 13.8125 15.0151 12.8884 15.0151C12.0417 15.0151 11.3762 15.26 10.892 15.7498C10.3331 16.3197 10.0536 17.0779 10.0536 18.0242C10.0536 18.929 10.2902 19.6622 10.7634 20.2239C11.2559 20.8105 11.9642 21.1038 12.8884 21.1038C13.7378 21.1038 14.4032 20.8575 14.8847 20.365C15.4436 19.795 15.7231 19.0272 15.7231 18.0615C15.7231 17.1789 15.4865 16.4567 15.0134 15.895ZM11.776 16.6504C12.0361 16.252 12.4055 16.0527 12.8842 16.0527C13.3214 16.0527 13.6714 16.2229 13.9343 16.5632C14.2137 16.9229 14.3534 17.4224 14.3534 18.0615C14.3534 18.6426 14.2358 19.1102 14.0007 19.4644C13.735 19.8656 13.3643 20.0662 12.8884 20.0662C12.4539 20.0662 12.1053 19.896 11.8425 19.5557C11.563 19.196 11.4233 18.6896 11.4233 18.0366C11.4233 17.4722 11.5409 17.0101 11.776 16.6504ZM16.4705 15.1189V21H17.7446V18.3687C17.7446 17.7793 17.7377 17.3089 17.7239 16.9575C17.9895 17.5192 18.269 18.0449 18.5623 18.5347L20.0315 21H21.4675V15.1189H20.1934V18.0242C20.1934 18.5278 20.2003 18.9027 20.2141 19.1489C19.9596 18.6011 19.7216 18.1404 19.5003 17.7668L17.9314 15.1189H16.4705Z" fill="black"/>
</svg>
