<?xml version="1.0" encoding="UTF-8" standalone="no"?>
<!DOCTYPE svg PUBLIC "-//W3C//DTD SVG 1.1//EN" "http://www.w3.org/Graphics/SVG/1.1/DTD/svg11.dtd">
<svg width="100%" height="100%" viewBox="0 0 24 24" version="1.1" xmlns="http://www.w3.org/2000/svg" xmlns:xlink="http://www.w3.org/1999/xlink" xml:space="preserve" xmlns:serif="http://www.serif.com/" style="fill-rule:evenodd;clip-rule:evenodd;stroke-linejoin:round;stroke-miterlimit:2;">
    <g>
        <path d="M10,4.209L10,2.064L10.935,2.003C13.063,1.864 15.042,2.286 16.873,3.265C18.733,4.259 20.059,5.52 20.878,7.022L21.316,7.825L19.61,8.963C20.2,10.172 20.5,11.517 20.5,13C20.5,14.672 20.119,16.168 19.37,17.493L18.854,18.405L17.967,17.847C17.299,17.426 16.654,17.02 16.03,16.629C15.641,17.032 15.151,17.435 14.555,17.833C13.787,18.344 12.936,18.69 12,18.866L12,22.113L10.894,21.995C9.383,21.833 8.095,21.457 7.026,20.881C5.916,20.283 4.949,19.337 4.146,18.022L3.646,17.201L6.249,15.466C6.084,14.86 6,14.205 6,13.5C6,12.562 6.261,11.702 6.79,10.922C6.099,10.507 5.502,10.156 5.001,9.867L4.266,9.444L4.564,8.65C5.154,7.075 6.778,5.091 10,4.209ZM10,15.369L6.402,17.768C6.868,18.352 7.39,18.806 7.974,19.12C8.565,19.438 9.241,19.675 10,19.834L10,15.369ZM12,14.112L12,16.816C12.521,16.678 13.003,16.463 13.445,16.168C13.765,15.955 14.046,15.746 14.287,15.537C13.481,15.034 12.719,14.559 12,14.112ZM17.926,10.085L13.768,12.857C15.072,13.668 16.507,14.566 18.072,15.55C18.359,14.767 18.5,13.917 18.5,13C18.5,11.94 18.311,10.967 17.926,10.085ZM10,12.876C9.473,12.551 8.975,12.246 8.507,11.961C8.172,12.424 8,12.936 8,13.5C8,13.766 8.015,14.021 8.047,14.268L10,12.965L10,12.876ZM12,11.632L18.625,7.215C17.976,6.365 17.074,5.64 15.93,5.029C14.702,4.372 13.392,4.024 12,3.982L12,11.632ZM10,6.302C8.408,6.848 7.383,7.734 6.815,8.61C7.678,9.118 8.739,9.758 10,10.529L10,6.302Z"/>
    </g>
</svg>
