<svg height="24" viewBox="0 0 24 24" width="24" xmlns="http://www.w3.org/2000/svg"><path d="m4 4v14h18v2h-20v-16zm2.6375913 1c1.08055324 0 2.13044534.19788766 3.1067431.56656738.4939085-.35638354 1.1002415-.56656738 1.7556656-.56656738 1.6568542 0 3 1.34314575 3 3 0 .46832605-.1073127.91158787-.2986898 1.30653713.086005.14247598.1674053.2889263.244855.4381983l.1329874.26726397c.2061231.4323962.4361694.8505794.6884691 1.2529169.3761574-.1705671.7932496-.2649163 1.2323783-.2649163 1.6568542 0 3 1.3431458 3 3 0 .4336785-.0920217.8458641-.2576043 1.2180962.3592873.223839.7328876.4298319 1.1177973.6167222l.3325093.1554166.2172977.0976795-.82 1.824171-.2172976-.0976794c-.7141955-.3210446-1.3969232-.6978614-2.0427735-1.1251606-.4003893.1990492-.852114.3107545-1.3299289.3107545-1.6568542 0-3-1.3431458-3-3 0-.4729976.1094643-.9204285.3044419-1.3183416-.3162772-.4702405-.6041548-.9607639-.8631311-1.4691904l-.1675222-.339852-.0637179-.1266644c-.3701277.1633436-.7795066.2540484-1.2100707.2540484-1.65685425 0-3-1.34314575-3-3 0-.24607461.02962703-.48522945.08550863-.71409207-.5408051-.16296903-1.10709503-.25871525-1.68664099-.2809094l-.26127634-.00499853h-1.6375913v-2zm9.8624087 8c-.5522847 0-1 .4477153-1 1s.4477153 1 1 1 1-.4477153 1-1-.4477153-1-1-1zm-5-6c-.5522847 0-1 .44771525-1 1s.4477153 1 1 1 1-.44771525 1-1-.4477153-1-1-1z" fill-rule="evenodd"/></svg>