<svg height="24" viewBox="0 0 24 24" width="24" xmlns="http://www.w3.org/2000/svg"><path d="m9.29425431.7934574.46299357.27779614c1.64662892.98797735 2.31029882 3.04043293 1.55386242 4.80545134l-.0531103.12329512h2.7989995c.7796961 0 1.4204487.59488808 1.4931335 1.35553999l.0068665.14446001c0 .17986793-.0323504.35826957-.0955062.52668516l-.2884933.76677224h1.4985729c.5967371 0 1.1714775.2133476 1.6222432.59780217l.1455237.13443087.4736602.47376696 3.087.0005426v7l-3.295-.0005426-2.9992543 6.0005426-.4629936-.2777961c-1.5878207-.9526925-2.2616401-2.8951868-1.629495-4.615304l.0756326-.1901474.0531108-.1232951h-2.799c-.7796961 0-1.42044871-.5948881-1.49313345-1.35554l-.00686658-.14446c0-.1349009.01819709-.2689771.05393951-.3986342l.04156672-.128051.2874933-.7673148-1.49757288.0005426c-.5967371 0-1.17147748-.2133476-1.62224324-.5978022l-.14552371-.1344308-.26866017-.2683096-3.292.0005426v-7l3.19-.0005426zm7.37731859 9h-1.8735729l-1.343178 3.5843512c-.3443856.9183617-1.1909317 1.545001-2.1581488 1.6155456l-.1826741.0066458-.2209991-.0005426-.4181641 1.1184383c-.021052.0561385-.0318354.1156057-.0318354.1755617 0 .2454599.1768751.4496084.4101243.4919443l.0898757.0080557h4.315269l-.6502347 1.5172144c-.4621535 1.0783582-.207569 2.3017879.5814927 3.1066324l.128473.1231532 2.6819995-5.364v-5.676l-.267767-.2676602c-.2461414-.24614147-.5690187-.39790491-.9124036-.4319998zm4.3284271 1.2065426h-2v5h2zm-11.318-8.747-2.682 5.3614574v5.679l.26776695.2672028c.21097843.2109784.47833415.3526178.76665817.4102514l.14574543.0217484.14825657.00734h2.78557198c.6252668 0 1.1849479-.3878593 1.4044937-.9733148l2.0066713-5.35112348c.021052-.05613853.0318354-.11560574.0318354-.17556172 0-.27614237-.2238576-.5-.5-.5h-4.31526901l.65023471-1.51721442c.4621535-1.07835815.207569-2.30178792-.58149271-3.10663242zm-3.683 5.7464574-1.999.0005426v5l1.999-.0005426z"/></svg>