<svg height="24" viewBox="0 0 24 24" width="24" xmlns="http://www.w3.org/2000/svg"><path d="m13 19v3h-1v-3zm4.7135534-1.9935534 1.42 1.42-.7071068.7071068-1.42-1.42zm-11.42710679 0 .70710678.7071068-1.42 1.42-.70710678-.7071068zm5.71355339-10.0064466c2.7614237 0 5 2.23857625 5 5 0 2.7614237-2.2385763 5-5 5-2.76142375 0-5-2.2385763-5-5 0-2.76142375 2.23857625-5 5-5zm0 1c-2.209139 0-4 1.790861-4 4s1.790861 4 4 4 4-1.790861 4-4-1.790861-4-4-4zm-7 4v1h-3v-1zm17 0v1h-3v-1zm-16.42644661-7.13355339 1.42 1.42-.70710678.70710678-1.42-1.42zm12.85289321 0 .7071068.70710678-1.42 1.42-.7071068-.70710678zm-5.4264466-2.86644661v3h-1v-3z"/></svg>