<?xml version="1.0" encoding="UTF-8" standalone="no"?>
<!DOCTYPE svg PUBLIC "-//W3C//DTD SVG 1.1//EN" "http://www.w3.org/Graphics/SVG/1.1/DTD/svg11.dtd">
<svg width="100%" height="100%" viewBox="0 0 24 24" version="1.1" xmlns="http://www.w3.org/2000/svg" xmlns:xlink="http://www.w3.org/1999/xlink" xml:space="preserve" xmlns:serif="http://www.serif.com/" style="fill-rule:evenodd;clip-rule:evenodd;stroke-linejoin:round;stroke-miterlimit:2;">
    <path d="M15,2L20,7L20,22L4,22L4,2L15,2ZM18,17.5L18,7.295L16.816,7.517L8.816,9.017L8,9.17L8,16.05C7.838,16.017 7.671,16 7.5,16C6.119,16 5,17.119 5,18.5C5,19.881 6.119,21 7.5,21C8.881,21 10,19.881 10,18.5L10,13.83L16,12.705L16,15.05C15.838,15.017 15.671,15 15.5,15C14.119,15 13,16.119 13,17.5C13,18.881 14.119,20 15.5,20C16.881,20 18,18.881 18,17.5ZM8.425,18.5C8.425,19.011 8.011,19.425 7.5,19.425C6.989,19.425 6.575,19.011 6.575,18.5C6.575,17.989 6.989,17.575 7.5,17.575C8.011,17.575 8.425,17.989 8.425,18.5ZM16,10.67L10,11.795L10,10.83L16,9.705L16,10.67ZM16.466,17.5C16.466,18.034 16.034,18.466 15.5,18.466C14.966,18.466 14.534,18.034 14.534,17.5C14.534,16.966 14.966,16.534 15.5,16.534C16.034,16.534 16.466,16.966 16.466,17.5Z"/>
</svg>
