<svg height="24" viewBox="0 0 24 24" width="24" xmlns="http://www.w3.org/2000/svg"><path d="m11.4596423 1.29292373 3.5629511 3.56233663.1911994.18373364c.2800417.25631077.3768379.27403201.438514.21771695l.0175973-.01895105c.0205449-.02542865.0342115-.05341855.0385837-.06617765.1229789-.3437011.3192356-.65660341.5809981-.91870455.9122126-.91155507 2.3584621-.96031308 3.3265635-.14639821l.1606656.14644661c.9628841.96288407.9628841 2.52328556.0002288 3.48594071-.2629903.2633309-.5770529.46033786-.9312376.58486316-.14458.10775234-.1375952.21572191.3273672.68256384l3.5340488 3.53374089-2.9729581 2.972958c-.8564103.8556026-1.651768.908652-2.1376513.3070906-.0809887-.1002703-.1372286-.1990992-.173366-.2822891l-.0296087-.077451c-.0721659-.2040479-.188898-.3901911-.3454711-.5465618-.5717979-.5722108-1.4989359-.5722108-2.1474777.0625994l.0753722-.0619177c-.5716139.5716139-.5714222 1.4993553.0019734 2.0725481.1539024.1549018.3395041.2710528.5350919.3409903.1056134.0348098.2365314.0989203.3699706.2069936.600625.4864496.5470492 1.2816362-.3086365 2.1375239l-3.0340126 3.0346397-3.52956507-3.5298729c-.47027323-.4701623-.57933233-.4774814-.65295167-.3864414l-.0310782.0485088-.00692383.0158679c-.12191958.3447258-.31908079.6589819-.58124597.9197896-.91038135.9120259-2.35760256.9606933-3.32628386.1467658l-.15999146-.1465104c-.9622343-.9625818-.9622343-2.5225586-.00039149-3.4850959.26242045-.2630976.57545004-.4590821.9318599-.5855921.13480169-.1005066.13813459-.2016898-.23842505-.5919798l-3.65247067-3.6534307 3.03432819-3.03464172c.85607526-.8558733 1.6513855-.90924814 2.13755289-.3080379.08100717.10017608.13727975.19892001.17358257.28241599l.0298227.07790162c.07174907.20367477.18836179.38970106.34528588.54682825.57222209.57180909 1.49928146.57197584 2.07171051.00050027.57271171-.57278166.57271171-1.50047374.00065023-2.07232871-.15681996-.15681996-.34275639-.27338961-.53640917-.34201153-.10569415-.03474297-.23674061-.09877168-.37034036-.20676859-.60136469-.48612016-.54808973-1.28143386.30783267-2.13735627zm-.0006423 2.82807627-1.199 1.199.0792969.06665823.1604752.15067832c1.3536314 1.35314275 1.3531559 3.54729505-.0015741 4.90218945-1.35347924 1.3512247-3.54556605 1.3507371-4.89987271-.0025935-.05239403-.0524618-.10298197-.1064391-.15175215-.1619699l-.06457314-.0779626-1.261 1.262 2.14481006 2.1440545c.35557728.3555773.57547055.6108427.74274362.9385443l.07963608.170687c.41195555.9663366.0977123 1.9124475-.58475925 2.4964504l-.12418573.0992308-.24199087.1804256-.28446056.1009711c-.07835313.0278119-.13540115.0636283-.18615281.1145097-.15876303.1588776-.17859093.4040127-.10215445.5436009l.03852783.0528022.09588795.0902734c.18169022.152664.45452946.1414936.62914354-.0334186.04748845-.0472426.08337469-.1041347.09869854-.1470668.0823776-.2417209.2132312-.4755925.37593191-.6767934.66053117-.8168342 1.74871899-1.0027143 2.65102768-.5364564.28904851.1493626.52748303.3369977.82006606.617863l.1512889.1484562 2.1139415 2.1148661 1.262-1.262-.0789473-.0653812-.1580812-.1491439c-1.3056817-1.3052199-1.3537855-3.3921644-.1420459-4.7530772l.0870744-.0933977-.0074125-.0078826c1.356048-1.3273365 3.43344-1.4160512 4.8098055-.1900955l.1499723.1416314.1518832.1617424.0647515.0786043 1.2-1.199-2.1219897-2.122348c-.3536108-.3550402-.5720174-.6096457-.7381353-.93743052l-.0790854-.17079446c-.408661-.96622744-.0927128-1.90855377.5879402-2.49044714l.1238278-.09887705.2443235-.18208895.2874642-.1010675c.0724964-.02548851.1293278-.06117051.180385-.11229324.1589116-.15891157.1787654-.40392397.1042661-.54170146l-.0375747-.05191844-.1004144-.09369691c-.1812769-.15240544-.4541829-.14124655-.624394.02884047-.0508582.05092402-.0884682.11051933-.104128.15374593-.0819679.23920008-.2112698.47223328-.374889.67474677-.6590897.81576329-1.7463993 1.00344375-2.6488912.53761935-.2879274-.14861475-.5248222-.33473019-.8170096-.61465338l-.1511937-.1480396z" fill-rule="evenodd"/></svg>