<?xml version="1.0" encoding="UTF-8" standalone="no"?>
<!DOCTYPE svg PUBLIC "-//W3C//DTD SVG 1.1//EN" "http://www.w3.org/Graphics/SVG/1.1/DTD/svg11.dtd">
<svg width="100%" height="100%" viewBox="0 0 24 24" version="1.1" xmlns="http://www.w3.org/2000/svg" xmlns:xlink="http://www.w3.org/1999/xlink" xml:space="preserve" xmlns:serif="http://www.serif.com/" style="fill-rule:evenodd;clip-rule:evenodd;stroke-linejoin:round;stroke-miterlimit:2;">
    <path d="M4,2L15,2L20,7L20,13L18,13L18,7.83L14.17,4L6,4L6,13L4,13L4,2ZM6.5,17C6.671,17 6.838,17.017 7,17.05L7,10.17L7.816,10.017L15.816,8.517L17,8.295L17,18.5C17,19.881 15.881,21 14.5,21C13.119,21 12,19.881 12,18.5C12,17.119 13.119,16 14.5,16C14.671,16 14.838,16.017 15,16.05L15,13.705L9,14.83L9,19.5C9,20.881 7.881,22 6.5,22C5.119,22 4,20.881 4,19.5C4,18.119 5.119,17 6.5,17ZM6.5,20.275C6.928,20.275 7.275,19.928 7.275,19.5C7.275,19.072 6.928,18.725 6.5,18.725C6.072,18.725 5.725,19.072 5.725,19.5C5.725,19.928 6.072,20.275 6.5,20.275ZM9,12.795L15,11.67L15,10.705L9,11.83L9,12.795ZM14.5,17.717C14.068,17.717 13.717,18.068 13.717,18.5C13.717,18.932 14.068,19.283 14.5,19.283C14.932,19.283 15.283,18.932 15.283,18.5C15.283,18.068 14.932,17.717 14.5,17.717Z"/>
</svg>
