<svg height="24" viewBox="0 0 24 24" width="24" xmlns="http://www.w3.org/2000/svg"><path d="m4.01636504 13h-3.01636504l4.5-6 2.25 3h.12705388v.1694052l2.12294612 2.8305948h-2.09251586c.25399588 2.2600461 2.06651846 4 4.24796696 4 1.1600474 0 2.2441433-.4904755 3.0453991-1.3530579l2.7991498 2.7676616c-1.5231075 1.6396835-3.6134126 2.5853963-5.8445489 2.5853963-4.33750906 0-7.87081512-3.5424149-8.13908606-8zm15.98308276-2h3.0005522l-4.5 6-4.5-6h2.1082752c-.052998-2.19547978-1.9334995-4-4.2921706-4-1.1937332 0-2.30060739.46471495-3.10484953 1.26815789l-2.71125507-2.86876062c1.52822808-1.52670942 3.60682635-2.39939727 5.8161046-2.39939727 4.4664654 0 8.1317137 3.55014947 8.1833432 8z" fill-rule="evenodd"/></svg>