<?xml version="1.0" encoding="UTF-8" standalone="no"?>
<!DOCTYPE svg PUBLIC "-//W3C//DTD SVG 1.1//EN" "http://www.w3.org/Graphics/SVG/1.1/DTD/svg11.dtd">
<svg width="100%" height="100%" viewBox="0 0 24 24" version="1.1" xmlns="http://www.w3.org/2000/svg" xmlns:xlink="http://www.w3.org/1999/xlink" xml:space="preserve" xmlns:serif="http://www.serif.com/" style="fill-rule:evenodd;clip-rule:evenodd;stroke-linejoin:round;stroke-miterlimit:2;">
    <path d="M22,4L22,12L10,12L10,15L14,15L14,16L10,16L10,19L14,19L14,20L2,20L2,4L22,4ZM9,15L9,12L3,12L3,15L9,15ZM3,16L3,19L9,19L9,16L3,16ZM15,11L15,8L10,8L10,11L15,11ZM21,11L21,8L16,8L16,11L21,11ZM3,11L9,11L9,8L3,8L3,11ZM21,7L21,5L3,5L3,7L21,7ZM18,16L18,13L19,13L19,16L22,16L22,17L19,17L19,20L18,20L18,17L15,17L15,16L18,16Z"/>
</svg>
