<svg height="24" viewBox="0 0 24 24" width="24" xmlns="http://www.w3.org/2000/svg"><path d="m10.0595608 2.18441768.7197113-.09612223c.3980061-.05315637.803068-.08268851 1.2343743-.08820233.4040135.00551382.8090754.03504596 1.2070815.08820233l.7197113.09612223.6040162 3.28268397c.036267.01445565.0723764.02919788.1083252.04422548l2.7799605-1.89813961.5726866.4294974c.7210141.54073849 1.3639644 1.17486518 1.9153984 1.88808619l.4512216.58360697-1.930617 2.74470205c.0125129.0292415.0248301.05858305.0369518.08802659l3.3324391.59442361.0983648.72150727c.1210848.8881589.1210848 1.7856392 0 2.6737981l-.0983648.7215072-3.3328472.5944965c-.0119868.0290934-.024169.058098-.0365445.0870093l1.93052 2.7457731-.4511238.5834804c-.5506018.7121446-1.1933088 1.3453872-1.9153984 1.8869322l-.5726866.4294974-2.7797419-1.8979903c-.0359853.0150576-.0721712.0298487-.1085605.044376l-.604238 3.2850974-.7215381.0948366c-.1754709.0230633-.5045336.0506447-1.0110971.0857551l-.1013798.0018737c-.0256887-.0008285-.1866827-.0008285-.2123714 0l-.1013798-.0018737c-.5065635-.0351104-.8356262-.0626918-1.0110971-.0857551l-.7215381-.0948366-.60422394-3.285021c-.03643367-.014541-.07265279-.029342-.10864955-.0444011l-2.77966693 1.897939-.5726866-.4294974c-.72208957-.541545-1.3647966-1.1747876-1.91539839-1.8869322l-.45112378-.5834804 1.93056064-2.745831c-.01236721-.0288912-.02453955-.057871-.03651676-.0869392l-3.33291562-.5945087-.09836478-.7215072c-.12108479-.8881589-.12108479-1.7856392 0-2.6737981l.09836478-.72150727 3.3323342-.59440491c.01213413-.02946717.02446872-.05884334.03700149-.08812382l-1.93056181-2.74462352.45122164-.58360697c.55143404-.71322101 1.19438427-1.3473477 1.91539839-1.88808619l.5726866-.4294974 2.7799403 1.89812582c.03603207-.01507924.07215566-.02984372.10835988-.04429033zm3.0287859.89507665c-.3596917-.04803923-.7251339-.07453734-1.0883467-.07949433-.3632128.00495699-.728655.0314551-1.0883467.07949433l-.5770956 3.13637697-.1311049.04384927c-.28445082.09231426-.55953697.2042453-.82642906.33694705l-.12408141.0611582-2.65838574-1.81512913c-.65084213.48811165-1.22910834 1.05930613-1.72426341 1.69973631l1.84249192 2.61941712-.0620407.12231639c-.13461663.26309564-.24933341.53542271-.34297976.81467339l-.04331143.1315478-3.1828053.5677327c-.10886388.7985183-.10886388 1.6051142 0 2.4036325l3.1828053.5677327.04331143.1303939c.09364635.2792506.20836313.5515777.34297976.8146733l.0620407.1223164-1.84249192 2.6205711c.49515507.6404302 1.07342128 1.2104707 1.72426341 1.6985824l2.65838574-1.8151292.12408141.0611582c.26572151.1327018.54197824.2446328.82642906.338101l.1311049.0426953.5770956 3.137531c.1478802.0194368.4645223.0459772.9499262.079621.047173-.0015214.229668-.0015214.276841 0 .4854039-.0336438.802046-.0601842.9499262-.079621l.5770956-3.137531.1311049-.0426953c.2844508-.0934682.5607075-.2053992.8264291-.338101l.1240814-.0611582 2.6583857 1.8151292c.6508421-.4881117 1.2291083-1.0581522 1.7242634-1.6985824l-1.8424919-2.6205711.0620407-.1223164c.1346166-.2630956.2493334-.5354227.3429798-.8146733l.0433114-.1303939 3.1828053-.5677327c.1088639-.7985183.1088639-1.6051142 0-2.4036325l-3.1828053-.5677327-.0433114-.1315478c-.0936464-.27925068-.2083632-.55157775-.3429798-.81467339l-.0620407-.12231639 1.8424919-2.61941712c-.4951551-.64043018-1.0734213-1.21162466-1.7242634-1.69973631l-2.6583857 1.81512913-.1240814-.0611582c-.2668921-.13270175-.5419783-.24463279-.8264291-.33694705l-.1311049-.04384927zm2.9116533 8.92041557c0 2.1693931-1.7758785 3.9402152-4.0217734 4.0001832-2.20234815-.059968-3.9782266-1.8307901-3.9782266-4.0001832 0-2.16621291 1.77123867-3.93339313 4.02409-3.99981678 2.2046713.06642365 3.97591 1.83360387 3.97591 3.99981678zm-1 .0000426c0-1.6232326-1.3366696-2.9497497-3-2.99985938-1.6633304.05010968-3 1.37662678-3 2.99985938 0 1.6267417 1.3410893 2.9549736 3 3.0001406 1.6589107-.045167 3-1.3733989 3-3.0001406z" fill-rule="evenodd"/></svg>