<svg height="24" viewBox="0 0 24 24" width="24" xmlns="http://www.w3.org/2000/svg"><path d="m21 3v18h-18v-18zm-1 1h-16v16h7.999l.001-5.293-1.6464466 1.6465534-.70710679-.7071068 2.85355339-2.8535534 2.8535534 2.8535534-.7071068.7071068-1.6464466-1.6465534-.001 5.293h7.001zm-10.165 2.128c1.44 0 2.16.987 2.16 2.961v.522l-.0031953.22338905c-.0532544 1.82507395-.7721893 2.73761095-2.1568047 2.73761095-1.44 0-2.16-.987-2.16-2.961v-.522l.00319527-.22338905c.05325443-1.82507397.77218935-2.73761095 2.15680473-2.73761095zm4.8425 0c.678 0 1.2075.2175 1.5885.6525s.5715 1.1145.5715 2.0385v.522l-.0030247.23490123c-.052428 1.99739917-.7864197 2.99609877-2.2019753 2.99609877-.486 0-.888-.1335-1.206-.4005s-.531-.6225-.639-1.0665h.891l.05328.12483c.17388.35478.47412.53217.90072.53217.408 0 .7275-.1485.9585-.4455s.3645-.8055.4005-1.5255c-.33.414-.783.621-1.359.621-.63 0-1.125-.1815-1.485-.5445s-.54-.8685-.54-1.5165v-.162l.0072778-.20155556c.0388148-.52562963.2328889-.95644444.5822222-1.29244444.393-.378.8865-.567 1.4805-.567zm-4.8425.81c-.42 0-.738.1605-.954.4815s-.324.8775-.324 1.6695v.522l.003285.227205c.01971.66123.128115 1.138995.325215 1.433295.219.327.5355.4905.9495.4905.42 0 .738-.1605.954-.4815s.324-.8775.324-1.6695v-.522l-.003285-.227205c-.01971-.66123-.128115-1.138995-.325215-1.433295-.219-.327-.5355-.4905-.9495-.4905zm4.8425 0c-.366 0-.6555.1125-.8685.3375s-.3195.5295-.3195.9135v.162l.0066122.162c.026449.31371429.1322449.56571429.3173878.756.216.222.507.333.873.333.396 0 .7065-.108.9315-.324s.3375-.51.3375-.882v-.162l-.0055547-.15082031c-.0259219-.34157813-.1425703-.61080469-.3499453-.80767969-.237-.225-.5445-.3375-.9225-.3375z" fill-rule="evenodd"/></svg>