<svg height="24" viewBox="0 0 24 24" width="24" xmlns="http://www.w3.org/2000/svg"><path d="m12.2071068 19.8786797 7.6715729-7.6715729c.3905242-.3905243.3905242-1.0236893 0-1.4142136l-7.6715729-7.67157286c-.3905243-.39052429-1.0236893-.39052429-1.4142136 0l-7.67157286 7.67157286c-.39052429.3905243-.39052429 1.0236893 0 1.4142136l7.67157286 7.6715729c.3905243.3905242 1.0236893.3905242 1.4142136 0zm-2.1213204.7071067-7.67157284-7.6715728c-.78104858-.7810486-.78104858-2.0473786 0-2.8284272l7.67157284-7.67157284c.7810486-.78104858 2.0473786-.78104858 2.8284272 0l7.6715728 7.67157284c.7810486.7810486.7810486 2.0473786 0 2.8284272l-7.6715728 7.6715728c-.7810486.7810486-2.0473786.7810486-2.8284272 0zm.9142136-5.5857864h1v2h-1zm0-9h1v7h-1z" fill-rule="evenodd"/></svg>