<?xml version="1.0" encoding="UTF-8" standalone="no"?>
<!DOCTYPE svg PUBLIC "-//W3C//DTD SVG 1.1//EN" "http://www.w3.org/Graphics/SVG/1.1/DTD/svg11.dtd">
<svg width="100%" height="100%" viewBox="0 0 24 24" version="1.1" xmlns="http://www.w3.org/2000/svg" xmlns:xlink="http://www.w3.org/1999/xlink" xml:space="preserve" xmlns:serif="http://www.serif.com/" style="fill-rule:evenodd;clip-rule:evenodd;stroke-linejoin:round;stroke-miterlimit:2;">
    <path d="M11,13L11,11L10,11L10,8L14,8L14,13L15,13L15,16L10,16L10,13L11,13ZM6,12C6,15.314 8.686,18 12,18C13.42,18 14.722,17.508 15.749,16.685L17.626,19.025C16.085,20.26 14.127,21 12,21C7.029,21 3,16.971 3,12C3,7.029 7.029,3 12,3C16.829,3 21.559,6.895 21.559,12L24,12L20,16.5L16,12L18.559,12C18.559,8.821 15.455,6 12,6C8.686,6 6,8.686 6,12Z"/>
</svg>
