<svg height="24" viewBox="0 0 24 24" width="24" xmlns="http://www.w3.org/2000/svg"><path d="m11.9850958 17c.2761423 0 .5.2238576.5.5s-.2238577.5-.5.5h-7.4850958c-.82842712 0-1.5-.6715729-1.5-1.5v-12c0-.82842712.67157288-1.5 1.5-1.5h12c.8284271 0 1.5.67157288 1.5 1.5v6.5726176c0 .2761424-.2238576.5-.5.5s-.5-.2238576-.5-.5v-6.5726176c0-.27614237-.2238576-.5-.5-.5h-12c-.27614237 0-.5.22385763-.5.5v12c0 .2761424.22385763.5.5.5zm3.9270754.0013349c.2015995-.2673599.6038976-.2648605.8021594.0049837l2.7302012 3.715939c.1635022.2225346.115647.5354792-.1068876.6989814s-.5354792.115647-.6989814-.1068876l-2.3324692-3.1746061-1.4402862 1.9100983c-.25779.3418794-.7980249.2227019-.8880489-.1959064l-2.0583738-9.5713664c-.0915073-.42550605.3666431-.75666149.7419718-.53630421l8.4013849 4.93249261c.3660123.2148876.3147126.7593205-.0849972.9020572l-2.9031742 1.0367257c-.2600583.092867-.5461608-.0426683-.6390278-.3027266s.0426683-.5461609.3027266-.6390279l1.8949619-.6766923-6.4969775-3.8144061 1.5893014 7.3901963z" fill-rule="evenodd"/></svg>