<svg height="24" viewBox="0 0 24 24" width="24" xmlns="http://www.w3.org/2000/svg"><path d="m13.9287609 20.5309413c-.2325966.8468705-1.0080189 1.4690587-1.9287609 1.4690587h-1c-1.1045695 0-2-.8954305-2-2s.8954305-2 2-2h1c.9103402 0 1.6786254.6082095 1.9206705 1.4404433 1.8561399-.9096995 3.0793295-2.8094099 3.0793295-4.9404433v-6c0-3.03756612-2.4624339-5.5-5.5-5.5-3.03756612 0-5.5 2.46243388-5.5 5.5v6.5h-2c-1.1045695 0-2-.8954305-2-2v-3c0-1.1045695.8954305-2 2-2h1.01894482c.25531243-3.35622386 3.0594403-6 6.48105518-6 3.4216149 0 6.2257427 2.64377614 6.4810552 6h1.0189448c1.1045695 0 2 .8954305 2 2v3c0 1.1045695-.8954305 2-2 2h-1.0190843c-.1892566 2.4718761-1.7706691 4.612125-4.0521548 5.5309413zm-8.9287609-11.5309413h-1c-.55228475 0-1 .44771525-1 1v3c0 .5522847.44771525 1 1 1h1zm13 0v5h1c.5522847 0 1-.4477153 1-1v-3c0-.55228475-.4477153-1-1-1zm-7 10c-.5522847 0-1 .4477153-1 1s.4477153 1 1 1h1c.5522847 0 1-.4477153 1-1s-.4477153-1-1-1z" fill-rule="evenodd"/></svg>