<svg height="24" viewBox="0 0 24 24" width="24" xmlns="http://www.w3.org/2000/svg"><path d="m18.2158397 6.49126708-6.3978202 6.39782022-.7071068-.7071068 6.342335-6.34233503c-1.5132061-1.1542053-3.4031803-1.83964547-5.4532477-1.83964547-4.97056275 0-9 4.02943725-9 9 0 2.1498623.74769375 4.4434566 1.93891884 6h14.14862816c1.1714781-1.5507929 1.912453-3.8578223 1.912453-6 0-2.5597767-1.0686548-4.86995563-2.7841603-6.50873292zm1.3486572 13.50873292h-15.09921213c-1.5352251-1.7578504-2.46528477-4.4828012-2.46528477-7 0-5.5228475 4.4771525-10 10-10s10 4.4771525 10 10c0 2.5008801-.9180398 5.2465757-2.4355031 7zm-13.54796797-9c.2699738 0 .49862165.0909082.68595041.2727273.1983481.1928384.29752066.4352602.29752066.7272727 0 .2865028-.09917256.5289246-.29752066.7272727-.18732876.1818191-.4214862.2727273-.70247934.2727273s-.51515058-.0909082-.70247934-.2727273c-.1983481-.1983481-.29752066-.4407699-.29752066-.7272727 0-.2920125.09917256-.5344343.29752066-.7272727.19283843-.1818191.43250546-.2727273.71900827-.2727273zm5.99999997-5.5c.2699738 0 .4986217.09090818.6859504.27272727.1983481.19283843.2975207.43526025.2975207.72727273 0 .28650281-.0991726.52892463-.2975207.72727273-.1873287.18181909-.4214862.27272727-.7024793.27272727s-.5151506-.09090818-.7024793-.27272727c-.1983481-.1983481-.2975207-.44076992-.2975207-.72727273 0-.29201248.0991726-.5344343.2975207-.72727273.1928384-.18181909.4325054-.27272727.7190082-.27272727zm6 5.5c.2699738 0 .4986217.0909082.6859504.2727273.1983481.1928384.2975207.4352602.2975207.7272727 0 .2865028-.0991726.5289246-.2975207.7272727-.1873287.1818191-.4214862.2727273-.7024793.2727273s-.5151506-.0909082-.7024793-.2727273c-.1983481-.1983481-.2975207-.4407699-.2975207-.7272727 0-.2920125.0991726-.5344343.2975207-.7272727.1928384-.1818191.4325054-.2727273.7190082-.2727273z" fill-rule="evenodd"/></svg>