<svg height="24" viewBox="0 0 24 24" width="24" xmlns="http://www.w3.org/2000/svg"><path d="m8.5 2c1.23513809 0 2.2726074.89918959 2.4703115 2.13719454l.0216942.17086633.0079943.19183366v1.50010547h-1.999l.00073441-1.41683109-.00573441-.12316891c-.03897551-.24731701-.20156654-.41390096-.40604302-.45179841l-.08995698-.00820159c-.22536215 0-.41876556.1503678-.47570817.3023967l-.01574456.0648234-.00754727.1317799-.00223619 10.2921659-.99804991.707591c-.62772389.470607-1.0007139 1.208318-1.0007139 2.0012431 0 1.3807119 1.11928813 2.5 2.5 2.5 1.3254834 0 2.4100387-1.0315359 2.495238-2.2912843l.00539-.158599-.005628-.1861167-.0091625-.1316363c-.0665675-.6252006-.3668784-1.198659-.8007612-1.5852915l-.1340719-.1102498-1.04989305-.7478549-.00011135-1.7889675h1.999l.001.758.2103545.1498387c.9816587.74124 1.6301358 1.8626466 1.7632418 3.1127741l.0196956.2516672.0057081.22772c0 2.4852814-2.0147186 4.5-4.5 4.5-2.48528137 0-4.5-2.0147186-4.5-4.5 0-1.4455282.68810221-2.7671138 1.80101716-3.6014705l.19798284-.1405295.00212777-9.30547912.01027324-.19210345c.1220846-1.27762551 1.19731826-2.26041743 2.48859899-2.26041743zm12.5 18v2h-7v-2zm-10-10v2h-1.999v-2zm7.5-7.33333333v2.33333333h2.5v2h-2.5v2.33333333h-2v-2.33333333h-2.5v-2h2.5v-2.33333333zm-7.5 4.33333333v2h-1.999v-2z" fill-rule="evenodd"/></svg>