<?xml version="1.0" encoding="UTF-8"?>
<svg xmlns="http://www.w3.org/2000/svg" xmlns:xlink="http://www.w3.org/1999/xlink" width="24" height="24" viewBox="0 0 24 24">
    <path id="window-sidebar-a" d="M3,16.9614835 L8,14.9614835 L8,13.0385165 L3,15.0385165 L3,16.9614835 Z M3.00071728,18.0382296 C3.02081036,18.5727984 3.46051604,19 4,19 L8,19 L8,16.0385165 L3.00071728,18.0382296 Z M3,13.9614835 L8,11.9614835 L8,10.0385165 L3,12.0385165 L3,13.9614835 Z M3,10.9614835 L8,8.96148352 L8,7.03851648 L3,9.03851648 L3,10.9614835 Z M3,7.96148352 L8,5.96148352 L8,5 L4,5 C3.44771525,5 3,5.44771525 3,6 L3,7.96148352 Z M9,5 L9,19 L20,19 C20.5522847,19 21,18.5522847 21,18 L21,6 C21,5.44771525 20.5522847,5 20,5 L9,5 Z M4,4 L20,4 C21.1045695,4 22,4.8954305 22,6 L22,18 C22,19.1045695 21.1045695,20 20,20 L4,20 C2.8954305,20 2,19.1045695 2,18 L2,6 C2,4.8954305 2.8954305,4 4,4 Z"/>
</svg>
