<svg height="24" viewBox="0 0 24 24" width="24" xmlns="http://www.w3.org/2000/svg"><path d="m12 16.6458244c-.6223634-.7051332-1-1.6313779-1-2.6458244 0-2.209139 1.790861-4 4-4s4 1.790861 4 4c0 1.0144465-.3776366 1.9406912-1 2.6458244v5.3541756l-3-2-3 2zm1 .8190468v2.5351288l2-1 2 1v-2.5351288c-.5883467.3403402-1.2714257.5351288-2 .5351288s-1.4116533-.1947886-2-.5351288zm5-8.4648712h-1v-4.99645664c0-.41170469.106406-.74621914.3192181-1.00354336h-9.31923383c-1.65685425 0-3 1.34314575-3 3v12h5.00001573v1h-6.00001573v-13c0-2.209139 1.790861-4 4-4h13.00001573c-1.2988281 0-3 .45825195-3 2zm-11-4h8v1h-8zm0 3h8v1h-8zm0 2h4v1h-4zm0 2h3v1h-3zm14-9v2h-2.0943604c0-1.33333333.6981202-2 2.0943604-2zm-6 14c1.6568542 0 3-1.3431458 3-3s-1.3431458-3-3-3-3 1.3431458-3 3 1.3431458 3 3 3z" fill-rule="evenodd"/></svg>