<svg height="24" viewBox="0 0 24 24" width="24" xmlns="http://www.w3.org/2000/svg"><path d="m6.70710678 18-3.85355339 3.8535534c-.19526215.1952621-.51184463.1952621-.70710678 0-.19526215-.1952622-.19526215-.5118446 0-.7071068l3.14644661-3.1464466h-.79289322c-.82842712 0-1.5-.6715729-1.5-1.5v-12c0-.82842712.67157288-1.5 1.5-1.5h12c.8284271 0 1.5.67157288 1.5 1.5v.79289322l3.1464466-3.14644661c.1952622-.19526215.5118446-.19526215.7071068 0 .1952621.19526215.1952621.51184463 0 .70710678l-3.8535534 3.85355339v4.36551082c0 .2761424-.2238576.5-.5.5s-.5-.2238576-.5-.5v-3.36551082l-2.8897521 2.88975202 6.9525935 4.0819004c.3660123.2148876.3147126.7593205-.0849972.9020572l-2.9031742 1.0367257c-.2600583.092867-.5461608-.0426683-.6390278-.3027266s.0426683-.5461609.3027266-.6390279l1.8949619-.6766923-6.2537268-3.6715925-.1749203.1749204 1.520971 7.0724623 1.1865166-1.5735506c.2015995-.2673599.6038976-.2648605.8021594.0049837l2.7302012 3.715939c.1635022.2225346.115647.5354792-.1068876.6989814s-.5354792.115647-.6989814-.1068876l-2.3324692-3.1746061-1.4402862 1.9100983c-.25779.3418794-.7980249.2227019-.8880489-.1959064l-1.6149991-7.5096898-4.65575262 4.6557526h4.27798902c.2761423 0 .5.2238576.5.5s-.2238577.5-.5.5zm10.29289322-11.70710678v-1.79289322c0-.27614237-.2238576-.5-.5-.5h-12c-.27614237 0-.5.22385763-.5.5v12c0 .2761424.22385763.5.5.5h1.79289322l5.81966128-5.8196613-.1930698-.8977679c-.0915073-.42550605.3666431-.75666149.7419718-.53630421l.5577264.32744371z" fill-rule="evenodd"/></svg>