<svg height="24" viewBox="0 0 24 24" width="24" xmlns="http://www.w3.org/2000/svg"><path d="m12 12c.1111094 0 .2214492.0032947.3309272.0097917.0392711.0023274.0788664.0051021.118344.0082937.0131763.0010655.0262311.0021678.0392728.0033158.059043.0051968.1178183.0113267.1763109.0183746.0243886.0029366.0491654.0060916.0738902.0094108.1173045.0157564.2330507.0351328.3475132.0580622.0443816.0088912.0885149.018304.1324488.0282426.0319082.0072193.0635495.0146763.0950841.0224052.01116.0027347.0225419.0055628.0339097.0084262.1220216.0307396.2422711.0655071.3607511.104189.036843.0120307.073261.0243509.1095058.03704.035185.0123162.0704481.02507.1055415.0381719.1031142.0385037.2044877.0798908.304298.1241616.0320195.0142016.0639459.0287317.0957074.0435564.0142893.0066702.0283631.013313.042404.0200137.0484027.0230953.0967027.0470254.1445945.0716376.0250825.0128943.0494326.0256448.0736745.0385714.0326515.0174091.0653222.0352583.0977898.0534273.0312244.0174701.0626287.0354511.0938366.053731.0346744.0203117.0689573.0409006.1029948.0618499.0182382.0112257.0363092.0224938.0543097.0338634.0402188.0254022.0801881.05138.1197943.0778583.0178945.0119639.0355934.0239467.0532184.0360295.0445927.030568.0888771.0618962.1326714.0938558.0099756.0072808.0196489.0143895.029298.021529.0360399.0266634.0719745.0539372.1075595.0816388.0361751.028163.0718259.0566346.1071109.0855362.0147056.0120452.0293625.0241774.0439551.0363839.0334017.0279402.0664544.0562587.0991639.0849591.0311872.027367.0619074.0549388.0923126.0828484.0129337.0118712.025961.0239445.0389296.0360798.0344533.0322413.0683984.064829.1019218.0978436.0191091.0188223.0377374.0374349.0562321.0561797.0324365.0328693.0647901.0664946.0967157.1005263.0161554.017221.032222.0345689.0481776.0520199.0236413.0258575.0470107.0519095.0701334.078184.0259132.0294451.0515437.0592016.0768585.089233.0243807.0289211.0485902.0582476.0724993.087827.0166153.0205525.0333492.0415632.0499318.0626983.0717422.0914569.1403383.1847911.2059956.2803026.0164945.0239954.0327514.0480498.048822.0722386.0161888.0243654.0322739.0490002.0481657.0737708.0221694.0345566.0439174.0693033.0652852.1043074.0095201.0155953.0189848.0312755.0283732.0470065.0272517.0456557.0540258.0920353.0801361.1388358.0174705.0313121.0347288.0629718.0516831.094818.0128713.0241791.0254755.0482865.0379053.0724981.0195185.0380189.0386199.076321.0572844.114874.0144099.0297576.0287763.0601339.0428711.0906613.0094144.0203963.0184628.040312.0273954.0602909.0212176.0474467.0419257.0955948.0619602.144092.0602574.1458562.1144531.2949668.162231.4469212.0142499.045315.0279822.091069.0411306.1370693.005472.0191477.010773.0380835.015975.0570602.0332903.1214194.062578.2447869.0876351.3696837.0372678.185857.065114.3745447.0831371.5660897.0093378.099166.0160584.1994859.0200542.3005062l.0043672.2212071c0 .5135098-.0705455 1.0175043-.2074559 1.5010857l4.2074559-.0010857v1h-18v-1l3.20748131.0011731c-.1369339-.4836312-.20748131-.9876523-.20748131-1.5011731 0-3.0375661 2.46243388-5.5 5.5-5.5zm0 1c-.1432571 0-.2849507.0066942-.424785.0197867-.0266487.0024914-.0538327.0052826-.0809439.0083147l.0809439-.0083147c-.3568026.0334071-.7015001.1084724-1.0291795.2202827-.016598.0056625-.0333932.0115046-.0501428.0174431l.0501428-.0174431c-.0618377.0211002-.1230692.0435089-.1836617.0671932l.1335189-.0497501c-.0736226.0261027-.146364.0540675-.2181676.0838378l.0846487-.0340877c-.0613832.0239934-.1221106.049296-.1821477.0758732l.097499-.0417855c-.0709457.0294145-.1409759.0605917-.210036.0934768l.112537-.0516913c-.0592749.0262398-.117877.0537222-.1757732.0824142l.0632362-.0307229c-.062472.0297481-.12415006.0608937-.18499384.0933966l.12175764-.0626737c-.06165548.0305549-.12251049.0624816-.18252515.0957401l.06076751-.0330664c-.04910662.0262328-.09766977.0533498-.14566819.0813295l.08490068-.0482631c-.06525806.0361643-.1295225.0739032-.19274203.1131656l.10784135-.0649025c-.0530096.030901-.10533039.0628543-.15693375.0958314l.0490924-.0309289c-.05630822.0349702-.11178751.0711488-.16640161.1084998l.11730921-.0775709c-.06248443.0399306-.12391697.0813623-.18424677.1242441l.06693756-.0466732c-.05251602.0359161-.10423205.0729161-.15511587.1109678l.08817831-.0642946c-.05492341.0390391-.10893287.07928-.16199002.1206845l.07381171-.0563899c-.05168388.03865-.10250917.0783851-.15244211.1191715l.0786304-.0627816c-.0564708.0440684-.1118628.089455-.16612976.1361133l.08749936-.0733317c-.05024211.0410389-.09958079.0831422-.14798161.1262754l.06048225-.0529437c-.04714781.0405374-.0934464.0820348-.13886543.1244619l.07838318-.0715182c-.05726038.0510286-.11320815.1034986-.16778635.1573532l.08940317-.085835c-.04545579.0424614-.0900306.0858541-.13369403.1301475l.04429086-.0443125c-.04793457.047299-.0948127.0956661-.1405958.1450625l.09630494-.10075c-.04746969.0481547-.09386218.097374-.1391384.1476189l.04283346-.0468689c-.03947456.0425899-.07813506.0859452-.11595678.1300409l.07312332-.083172c-.05005895.0555526-.09875334.1123589-.14603038.1703662l.07290706-.0871942c-.0405228.0472449-.08008273.0953399-.11864937.1442545l.04574231-.0570603c-.04533562.0556252-.08936791.1123548-.13205029.1701421l.08630798-.1130818c-.03321425.042126-.06569178.08486-.09741317.1281825l.01110519-.0151007c-.03468524.0469601-.06847903.0946187-.10135639.1429509l.0902512-.1278502c-.05062438.0691387-.09932291.1397762-.1460166.2118336l.0557654-.0839834c-.03980403.0585149-.0782648.118017-.11533797.1784621l.05957257-.0944787c-.03381454.0521823-.06657767.1051093-.09825939.1587509l.03868682-.0642722c-.03574077.0582727-.0701919.1174218-.10331363.1774075l.06462681-.1131353c-.02858965.0484062-.05629869.0973944-.08310505.1469425l.01847824-.0338072c-.03176027.0575199-.0622982.1158092-.09157876.1748327l.07310052-.1410255c-.07061634.1305251-.13496855.2649357-.19265365.4028286-.04004664.0957402-.0768202.1929847-.11025698.2917677-.13186082.3896623-.21177776.802879-.23165339 1.2317772l-.00489799.2118357c0 .5184035.08750927 1.0238955.2561889 1.5008063l8.4875217.0002868c.168736-.4769667.2562894-.982565.2562894-1.5010931 0-2.4852814-2.0147186-4.5-4.5-4.5zm10 3v1h-3v-1zm-17 0v1h-3v-1zm14.4609464-7.16497377.6381072.76994754-2.92 2.42000003-.6381072-.7699476zm-14.7818928 0 2.92 2.41999997-.6381072.7699476-2.92-2.42000003zm7.6052519-7.74643507.0692479.05785545 4 4-.7071068.70710678-3.1464466-3.14655339v5.793h-1v-5.793l-3.14644661 3.14655339-.70710678-.70710678 3.99999999-4c.1735664-.17356635.4429908-.1928515.6378589-.05785545z"/></svg>