<svg width="24" height="24" viewBox="0 0 24 24" fill="none" xmlns="http://www.w3.org/2000/svg">
<path fill-rule="evenodd" clip-rule="evenodd" d="M4.5 2H4V2.5V13H5V3H14.5429L19 7.45711V22H20V7.25V7.04289L19.8536 6.89645L15.1036 2.14645L14.9571 2H14.75H4.5ZM15 12V18.375L16 20V12C16 11.263 15.7364 11 15 11H9C8.26362 11 8 11.263 8 12V13.5H9V12H15ZM11 17.0156L13.2768 21H8.72318L11 17.0156ZM15 22L11 15L7 22H15ZM8.93366 15.9516L9.50792 15.1329C8.92406 14.7234 8.22813 14.5 7.5 14.5C5.567 14.5 4 16.067 4 18C4 19.3408 4.76097 20.5457 5.93936 21.1335L6.38577 20.2387C5.54344 19.8185 5 18.958 5 18C5 16.6193 6.11929 15.5 7.5 15.5C8.02094 15.5 8.5167 15.6591 8.93366 15.9516Z" fill="black"/>
</svg>
