<svg height="24" viewBox="0 0 24 24" width="24" xmlns="http://www.w3.org/2000/svg"><path d="m12 22c-5.5228475 0-10-4.4771525-10-10s4.4771525-10 10-10 10 4.4771525 10 10-4.4771525 10-10 10zm.921875-7.8828125v-.8359375c0-.3160006.0506279-.5428888.1370989-.6838044.1327536-.196318.4930709-.5763786 1.0548135-1.0983518.4546425-.4217766.7827201-.7720967.9883918-1.0600372.3766981-.52490498.5696958-1.09757038.5696958-1.7046816 0-.79962805-.3012359-1.4741345-.8906606-1.98667776-.6066258-.53235183-1.4115814-.79457224-2.3905894-.79457224-.9643715 0-1.9290189.25534784-2.88912322.76066589l-.37399686.19684045.66037801 2.0118493.53387637-.31061897c.7897166-.45947151 1.4392661-.68217417 1.9360532-.68217417.3172258 0 .5616967.06984881.7477186.20322305.2095805.1524363.3069689.35016431.3069689.64052695 0 .19707659-.0616308.39253428-.193014.59523977-.1217418.18468497-.3902537.47477378-.7954796.85070623-.7173711.6778022-1.1436203 1.1893011-1.298692 1.593836-.1281007.302677-.1837444.8952824-.189368 1.8400544l-.0000089.4639136zm-1.0078125.6484375c-.3957041 0-.7455314.1326931-1.0226939.3940178-.2913801.2832044-.4382436.642204-.4382436 1.0512947 0 .4026636.1458645.7592213.4276966 1.0410534.2776908.269601.6245374.4042591 1.0176159.4042591s.7399251-.1346581 1.0123002-.3990222c.2871478-.287069.4330123-.6436267.4330123-1.0462903 0-.4090907-.1468635-.7680903-.4327108-1.0459975-.2715796-.2635922-.612943-.399315-.9969767-.399315z" fill-rule="evenodd"/></svg>