<svg height="24" viewBox="0 0 24 24" width="24" xmlns="http://www.w3.org/2000/svg"><path d="m17.3360618 6h-5.8360618c-.2761424 0-.5-.22385763-.5-.5s.2238576-.5.5-.5h6.9698267c.0050467 0 .0100759 0 .0150866.00022326.0050108-.00022326.01004-.00022326.0150867-.00022326.0046241 0 .0092336 0 .0138276.00018751.1254143-.00353047.2519602.04279285.3476786.13896995.0954319.0958892.1415444.22256839.1383374.3482129.0001564.00419724.0001564.00840733.0001564.01262964v6.9698267c0 .2761424-.2238576.5-.5.5s-.5-.2238576-.5-.5v-5.79312311l-7.6927989 7.72966221c-.1846584.1855433-.48404888.1855433-.66870729 0s-.18465841-.4863684 0-.6719116zm-1.2735618 9.84375c0-.2588835.2098665-.46875.46875-.46875s.46875.2098665.46875.46875v1.8125c0 1.2944174-1.0493326 2.34375-2.34375 2.34375h-8.3125c-1.29441738 0-2.34375-1.0493326-2.34375-2.34375v-8.3125c0-1.29441738 1.04933262-2.34375 2.34375-2.34375h1.8125c.25888348 0 .46875.20986652.46875.46875s-.20986652.46875-.46875.46875h-1.8125c-.77665043 0-1.40625.62959957-1.40625 1.40625v8.3125c0 .7766504.62959957 1.40625 1.40625 1.40625h8.3125c.7766504 0 1.40625-.6295996 1.40625-1.40625z" fill-rule="evenodd"/></svg>