<svg height="24" viewBox="0 0 24 24" width="24" xmlns="http://www.w3.org/2000/svg"><path d="m12.4685409 3c.6070421 0 1.193347.2208723 1.6495029.62139944l1.5705712 1.37860056h4.311385v10h-4.223385l-4.9997341 8h-.2771238c-1.45569021 0-2.63576024-1.18007-2.63576024-2.6357602 0-.1378518.01081456-.2754911.03234416-.4116513l.62603142-3.9525885h-3.83775744c-1.3254834 0-2.41003867-1.0315359-2.49468232-2.3356243l-.00531768-.1643757c0-.2759439.04568489-.549984.13520158-.8110046l2.74358974-7.99999999c.34650708-1.01037577 1.29665687-1.68899541 2.36479842-1.68899541zm0 1h-5.04033616c-.64088493 0-1.2109748.40717178-1.41887905 1.01339725l-2.74358974 7.99999995c-.05371002.1566124-.08112095.3210365-.08112095.4866028 0 .8284271.67157288 1.5 1.5 1.5h5.00725136l-.80779663 5.1087679c-.01336132.0845013-.02007287.1699207-.02007287.2554719 0 .8083101.58628956 1.4796849 1.35681484 1.6120707l.0165607.0026895 4.763-7.621v-8.631l-1.5421298-1.35416034c-.2345944-.20598539-.5265607-.33277598-.8345583-.36479808zm6.5314591 2h-3v8h3z"/></svg>