<svg height="24" viewBox="0 0 24 24" width="24" xmlns="http://www.w3.org/2000/svg"><path d="m10.8535534.64644661 3.7625631 3.76256313c.0878187.08781866.2302009.08781866.3180195 0 .042172-.042172.065864-.09936952.065864-.15900974 0-1.19086399.9251616-2.16564492 2.0959512-2.24480919l.1540488-.00519081h.25c1.3254834 0 2.4100387 1.03153594 2.4946823 2.33562431l.0053177.16437569v.25c0 1.24264069-1.0073593 2.25-2.25 2.25-.1241943 0-.2248737.1006794-.2248737.22487373 0 .03976015.0105297.07843465.030045.11229527l.035819.04671448 3.7625631 3.76256312-.7071068.7071068-3.7625631-3.76256314c-.2297084-.22970839-.3587572-.54125981-.3587572-.86611653 0-.63419914.4819875-1.15582407 1.0996375-1.21854984l.1252362-.00632389c.6472087 0 1.1795339-.49187466 1.2435464-1.12219476l.0064536-.12780524v-.25c0-.77969612-.5948881-1.42044868-1.35554-1.49313342l-.14446-.00686658h-.25c-.6472087 0-1.1795339.49187466-1.2435464 1.12219476l-.0064536.12780524c0 .32485671-.1290488.63640814-.3587572.86611652-.4464534.44645342-1.1518047.47621698-1.6327779.08929069l-.0994552-.08929069-3.4091165-3.40966991-3.08567964 3.08644661c-.02275198.02275198-.0355339.05361028-.0355339.08578644 0 .06700337.05431696.12132034.12132034.12132034 1.0543618 0 1.91816512.81587779 1.99451426 1.85073766l.00548574.14926234v.25c0 1.19086399-.92516159 2.16564492-2.09595119 2.24480919l-.15404881.00519081h-.25c-1.1045695 0-2-.8954305-2-2 0-.03217616-.01278193-.06303446-.03553391-.08578644-.0355339-.0355339-.08762626-.04441738-.13143939-.02665043l-.04013348.02665043-3.08589322 3.08578644 3.40911652 3.4090097c.1968929.1968929.31983184.4539154.35093903.7279067l.00781818.1382099c0 .6341991-.48198748 1.155824-1.09963751 1.2185498l-.12523622.0063239c-.64720869 0-1.1795339.4918747-1.24354639 1.1221948l-.00645361.1278052v.25c0 .7796961.59488808 1.4204487 1.35553999 1.4931334l.14446001.0068666h.25c.64720869 0 1.1795339-.4918747 1.24354639-1.1221948l.00645361-.1278052c0-.3248567.12904883-.6364081.35875721-.8661165.44645342-.4464534 1.15180472-.476217 1.63277786-.0892907l.09945519.0892907 3.76256314 3.7625631-.7071068.7071068-3.76256312-3.7625631c-.08781866-.0878187-.23020083-.0878187-.31801949 0-.042172.042172-.06586399.0993695-.06586399.1590097 0 1.190864-.92516159 2.1656449-2.09595119 2.2448092l-.15404881.0051908h-.25c-1.3254834 0-2.41003867-1.0315359-2.49468232-2.3356243l-.00531768-.1643757v-.25c0-1.2426407 1.00735931-2.25 2.25-2.25.12419433 0 .22487373-.1006794.22487373-.2248737 0-.0397602-.01052977-.0784347-.03004502-.1122953l-.03581897-.0467145-4.11611652-4.1161165 3.79289322-3.79289322c.43790283-.43790283 1.1478836-.43790283 1.58578644 0 .18024716.18024716.29279258.41554043.3212699.6663679l.00715722.12652532c0 .51283584.38604019.93550716.88337887.99327227l.11662113.00672773h.25c.64720869 0 1.1795339-.49187466 1.24354639-1.12219476l.00645361-.12780524v-.25c0-.51283584-.38604019-.93550716-.88337887-.99327227l-.11662113-.00672773c-.61928813 0-1.12132034-.50203222-1.12132034-1.12132034 0-.25490799.08679583-.50086708.24402112-.69836539l.084406-.09452783 3.43933982-3.43933983.3534466-.3321819zm-.3535534 13.35355339c.8284271 0 1.5.6715729 1.5 1.5s-.6715729 1.5-1.5 1.5c-.82842712 0-1.5-.6715729-1.5-1.5s.67157288-1.5 1.5-1.5zm5 0c.8284271 0 1.5.6715729 1.5 1.5s-.6715729 1.5-1.5 1.5-1.5-.6715729-1.5-1.5.6715729-1.5 1.5-1.5zm5 0c.8284271 0 1.5.6715729 1.5 1.5s-.6715729 1.5-1.5 1.5-1.5-.6715729-1.5-1.5.6715729-1.5 1.5-1.5zm-10 1c-.2761424 0-.5.2238576-.5.5s.2238576.5.5.5.5-.2238576.5-.5-.2238576-.5-.5-.5zm5 0c-.2761424 0-.5.2238576-.5.5s.2238576.5.5.5.5-.2238576.5-.5-.2238576-.5-.5-.5zm5 0c-.2761424 0-.5.2238576-.5.5s.2238576.5.5.5.5-.2238576.5-.5-.2238576-.5-.5-.5z" transform="translate(1 1)"/></svg>