<svg height="24" viewBox="0 0 24 24" width="24" xmlns="http://www.w3.org/2000/svg"><path d="m7.63978494 14.999589-.311 1-4.32878494.000411v-1zm2.36021506-12.81400002 3.67749 4.72820141 5.0782091-1.69273637-1.6786297 5.59598438c-.6463058-.0820964-1.3234941.0299689-1.940345.3634018l-.8989659.4859276c-.1483619.0801956-.3271551.0801956-.475517 0l-.8989659-.4859276c-.1838346-.09937-.3768783-.1806658-.5764171-.2427446-1.7034148-.5299513-3.51391567.4213289-4.04386693 2.1247436l-.29220663.9371498-4.3349241.000411-2.3380759-8.76778463 5.04472507 1.68157502zm10.2457849 15.81400002.6222983 2.000411h2.1319168v1h-18v-1h2.13191681l.62186813-2.000411zm-4.6335434-5.9394423c1.0835021-.5856768 2.436639-.1821096 3.0223158.9013925.0686065.1269219.1247343.2602021.1675943.3979666l1.1326333 3.6400832h-11.86999996l1.13306341-3.6400832c.34997785-1.1249288 1.50885765-1.7747466 2.63820365-1.5089194l.1537399.041966c.1377645.04286.2710446.0989879.3979666.1675943l.8989659.4859276c.4450859.2405869.9814653.2405869 1.4265512 0z" fill-rule="evenodd"/></svg>