<svg height="24" viewBox="0 0 24 24" width="24" xmlns="http://www.w3.org/2000/svg"><path d="m4 2h16v20h-16zm1 1v18h14v-18zm3.45513489 4.62120462.70896253.70524615c-.7410928.74499808-1.16409742 1.74887043-1.16409742 2.82093203 0 2.209139 1.790861 4 4 4s4-1.790861 4-4c0-1.0557775-.4101611-2.04562368-1.1313438-2.78762173l.7170936-.69697691c.9008209.9268211 1.4142502 2.16588561 1.4142502 3.48459864 0 2.7614237-2.2385763 5-5 5-2.76142375 0-5-2.2385763-5-5 0-1.33907883.52948548-2.59565094 1.45513489-3.52617818zm4.04486511 4.50379538h-1v-6.25h1z" fill-rule="evenodd"/></svg>