<svg height="24" viewBox="0 0 24 24" width="24" xmlns="http://www.w3.org/2000/svg"><path d="m17 19.3235294c.7516701 0 1.3607352-.5924118 1.3607352-1.3235294s-.6090651-1.3235294-1.3607352-1.3235294-1.3607352.5924118-1.3607352 1.3235294.6090651 1.3235294 1.3607352 1.3235294zm3.5-7.3235294 2.1-2.8.8.6-3 4c-.2.2666667-.6.2666667-.8 0l-3-4 .8-.6 2.1 2.8v-1.5c0-4.14213563-3.3578644-7.5-7.5-7.5-2.04597321 0-3.95999242.82249191-5.36237162 2.25643083l-.7149305-.69919552c1.58863475-1.62438604 3.75946633-2.55723531 6.07730212-2.55723531 4.6944204 0 8.5 3.80557963 8.5 8.5zm-17-2-2.1 2.8-.8-.6 3-4c.2-.26666667.6-.26666667.8 0l3 4-.8.6-2.1-2.8v1.5c0 4.1421356 3.35786437 7.5 7.5 7.5v1c-4.69442037 0-8.5-3.8055796-8.5-8.5zm16.9366729 8.4372941.9780965.7454118c.0859985.0709412.1126689.1932353.0533408.2895882l-.9253 1.5554118c-.0598723.0963529-.1785284.135-.2846658.0963529l-1.1495491-.45c-.2384008.18-.5023834.3282353-.7799734.4436471l-.171997 1.1895882c-.0201388.1090588-.1192004.1927059-.2313249.1927059h-1.8506c-.1121245 0-.2117304-.0836471-.2313249-.1863529l-.171997-1.1895883c-.2841215-.1154117-.5415726-.2631176-.7799734-.4431176l-1.1495491.45c-.1061374.0381176-.2247935 0-.2846658-.0968824l-.9253-1.5554117c-.0593281-.096353-.0326577-.2186471.0533408-.2895883l.9780965-.7454117c-.0201389-.1477059-.0332019-.2959412-.0332019-.4436471s.013063-.2959412.0332019-.4372941l-.9780965-.7454118c-.0859985-.0709412-.1126689-.1932353-.0533408-.2895882l.9253-1.5554118c.0598723-.0963529.1785284-.135.2846658-.0963529l1.1495491.45c.2384008-.18.5023834-.3282353.7799734-.4436471l.171997-1.1895882c.0195945-.1090588.1192004-.1927059.2313249-.1927059h1.8506c.1121245 0 .2111861.0836471.2313249.1863529l.171997 1.1895883c.2841215.1154117.5415726.2631176.7799734.4431176l1.1495491-.45c.1061374-.0381176.2247935 0 .2846658.0968824l.9253 1.5554117c.0593281.096353.0326577.2186471-.0533408.2890589l-.9780965.7459411c.0201389.1477059.0332019.2959412.0332019.4436471s-.013063.2959412-.0332019.4372941z" fill-rule="evenodd"/></svg>