<svg height="24" viewBox="0 0 24 24" width="24" xmlns="http://www.w3.org/2000/svg"><path d="m8.5 2c1.23513809 0 2.2726074.89918959 2.4703115 2.13719454l.0216942.17086633.0079943.19183366.001 9.25810547.2103545.1498387c.9816587.74124 1.6301358 1.8626466 1.7632418 3.1127741l.0196956.2516672.0057081.22772c0 2.4852814-2.0147186 4.5-4.5 4.5-2.48528137 0-4.5-2.0147186-4.5-4.5 0-1.4455282.68810221-2.7671138 1.80101716-3.6014705l.19798284-.1405295.00212777-9.30547912.01027324-.19210345c.1220846-1.27762551 1.19731826-2.26041743 2.48859899-2.26041743zm12.5 19v1h-7v-1zm-12.5-18c-.72491203 0-1.338512.517166-1.47021941 1.17952193l-.01980645.13429683-.0088464.13893078-.00224659 9.82511926-.45070574.316161c-.96417922.6479673-1.54817541 1.7332553-1.54817541 2.9059702 0 1.9329966 1.56700338 3.5 3.5 3.5 1.8685634 0 3.3951264-1.4642776 3.4951048-3.2853297l.0052092-.1896119-.0047637-.2026271c-.0486772-.9693879-.4966837-1.8665085-1.2079717-2.4743547l-.1563991-.1257461-.6301238-.4488468-.0000557-1.2734837h-2.001v-1h2.001v-2h-2.001v-1h2v-2h-2v-1h2l.0008672-1.45846828-.00440826-.13920137c-.07667689-.80975759-.71901764-1.40233035-1.49645894-1.40233035zm9.5-.83333333v2.83333333h3v1h-3v2.83333333h-1v-2.83333333h-3v-1h3v-2.83333333z" fill-rule="evenodd"/></svg>