<?xml version="1.0" encoding="UTF-8"?>
<svg xmlns="http://www.w3.org/2000/svg" xmlns:xlink="http://www.w3.org/1999/xlink" width="24" height="24" viewBox="0 0 24 24">
  <defs>
    <path id="hide-sidebar-3-a" d="M3,16.9614835 L8,14.9614835 L8,13.0385165 L3,15.0385165 L3,16.9614835 Z M3,18.0385165 L3,19 L8,19 L8,16.0385165 L3,18.0385165 Z M3,13.9614835 L8,11.9614835 L8,10.0385165 L3,12.0385165 L3,13.9614835 Z M3,10.9614835 L8,8.96148352 L8,7.03851648 L3,9.03851648 L3,10.9614835 Z M3,7.96148352 L8,5.96148352 L8,5 L3,5 L3,7.96148352 Z M9,5 L9,19 L21,19 L21,5 L9,5 Z M22,4 L22,20 L2,20 L2,4 L22,4 Z M11.7071068,12 L14.8535534,15.1464466 C15.0488155,15.3417088 15.0488155,15.6582912 14.8535534,15.8535534 C14.6582912,16.0488155 14.3417088,16.0488155 14.1464466,15.8535534 L10.1464466,11.8535534 C9.95118446,11.6582912 9.95118446,11.3417088 10.1464466,11.1464466 L14.1464466,7.14644661 C14.3417088,6.95118446 14.6582912,6.95118446 14.8535534,7.14644661 C15.0488155,7.34170876 15.0488155,7.65829124 14.8535534,7.85355339 L11.7071068,11 L19,11 L19,12 L11.7071068,12 Z"/>
  </defs>
  <use xlink:href="#hide-sidebar-3-a"/>
</svg>
