<svg height="24" viewBox="0 0 24 24" width="24" xmlns="http://www.w3.org/2000/svg"><path d="m10 4 .2998336.00184389c.6367505.00785264 1.2545347.04069358 1.8448928.09672865l.4374939.04634717.5311963.06990901c2.7785214.4069818 4.7556643 1.36635261 4.8803306 2.65519687l.0062528.12997441.0004418 1.36901002c2.3043276.46800306 3.8823621 1.35404409 3.9933054 2.50101558l.0062528.1299744v3c0 1.0007766-1.1006507 1.8137629-2.8339126 2.3396976l-.1650467.0486671-.0010407 1.6116353c0 1.3542468-2.0154446 2.3646234-4.8865834 2.7851713l-.5311963.069909c-.8101635.09495-1.6787456.1449197-2.5822203.1449197s-1.77205685-.0499697-2.58222035-.1449197l-.53119621-.069909c-2.78413464-.407804-4.76364952-1.3702311-4.88106352-2.6630121l-.00551992-.1221592v-3l.00625278-.1299744c.09335715-.9651591 1.22555658-1.7455541 2.95519199-2.2475723l-.14309551-.0294519c-2.21066708-.4781543-3.71107054-1.350432-3.81282934-2.4708422l-.00551992-.1221592v-3l.00625278-.12997441c.12051078-1.24588278 1.97205797-2.18389094 4.60518871-2.61266565l.27514195-.04253122.53119621-.06990901c.6481308-.07596001 1.33364954-.12313262 2.04451085-.13896326zm7.7399872 12.6815338c-.7981543.4653362-1.9333629.8238237-3.2766869 1.0487635l-.3498837.054874-.5311963.069909c-.8101635.09495-1.6787456.1449197-2.5822203.1449197-.7227798 0-1.42322829-.0319806-2.08930022-.0933873l-.49292013-.0515324-.53119621-.069909c-1.65281624-.242095-3.02206307-.6796539-3.88658344-1.2657552v1.4805839c0 .5391474.99686694 1.1064493 2.56012349 1.4985787l.44006199.1024485c.45345786.0977998.94613306.1811955 1.46929314.2460623l.53299829.0585377c.63293192.060732 1.30339519.0943728 1.99752309.0943728s1.3645912-.0336408 1.9975231-.0943728l.5329983-.0585377c.5231601-.0648668 1.0158353-.1482625 1.4692931-.2460623l.440062-.1024485c1.4921994-.3743053 2.468329-.9082203 2.553985-1.4249032l.0061385-.0736755.0014454-1.3692139zm-13.7399872-1.6815338c0 .51219.89967241 1.0497895 2.32993674 1.4384709l.23018675.0601078.44006199.1024485c.3400934.0733499.70224654.1385974 1.08277544.1940025l.3865177.0520598.53299829.0585377c.63293192.060732 1.30339519.0943728 1.99752309.0943728.4992112 0 .9861821-.0174003 1.4557545-.0497644-.3553813-.0240847-.7017101-.0557456-1.0379748-.0951553l-.5311963-.069909c-2.7841346-.407804-4.76364948-1.3702311-4.88106348-2.6630121l-.00551992-.1221592-.00070928-.3431036c-1.23688713.3785717-1.99929072.8716039-1.99929072 1.3431036zm17.000886-2.4812452c-.8026353.5445453-2.0409445.9609297-3.5375857 1.2115425l-.3498837.054874-.5311963.069909c-.8101635.09495-1.6787456.1449197-2.5822203.1449197-.7227798 0-1.4232283-.0319806-2.0893002-.0933873l-.4929201-.0515324-.5311963-.069909c-1.2971417-.1899979-2.41962681-.5003862-3.26055239-.9084842l-.20825136-.0216068-.41877965-.0550803.001 1.2c0 .5391474.99686694 1.1064493 2.56012349 1.4985787l.44006201.1024485c.4534578.0977998.946133.1811955 1.4692931.2460623l.5329983.0585377c.6329319.060732 1.3033952.0943728 1.9975231.0943728s1.3645912-.0336408 1.9975231-.0943728l.5329983-.0585377c.5231601-.0648668 1.0158353-.1482625 1.4692931-.2460623l.440062-.1024485c1.4921994-.3743053 2.468329-.9082203 2.553985-1.4249032l.0061385-.0736755zm-3.000886-3.1207548v.602c0 1.3542468-2.0154446 2.3646234-4.8865834 2.7851713l-.5311963.069909c-.1742011.0204161-.3511032.0387526-.5304723.05496l-.0492711-.0044131c.6329319.060732 1.3033952.0943728 1.9975231.0943728.5205959 0 1.0278805-.018923 1.5160037-.0540057l.4815194-.0403671.5329983-.0585377c.39237-.0486501.7675924-.1077227 1.1219829-.1754777l.3473102-.0705846.440062-.1024485c1.5632566-.3921294 2.5601235-.9594313 2.5601235-1.4985787 0-.51219-.8996724-1.04978953-2.3299367-1.43847093l-.2301868-.06010778zm-.999114-.87924525c-.8026353.54454536-2.0409445.96092971-3.5375857 1.2115426l-.3498837.05487393-.5311963.06990901c-.8101635.09495001-1.6787456.14491971-2.5822203.14491971-.72277976 0-1.42322829-.03198061-2.08930022-.09338726l-.49292013-.05153245-.53119621-.06990901c-1.65281624-.24209499-3.02206307-.67965392-3.88658344-1.2657552v1.48058392c0 .5391474.99686694 1.1064493 2.56012349 1.4985787l.44006199.1024485c.45345786.0977998.94613306.1811955 1.46929314.2460623l.53299829.0585377c.63293192.060732 1.30339522.0943728 1.99752309.0943728.6941279 0 1.3645912-.0336408 1.9975231-.0943728l.5329983-.0585377c.5231601-.0648668 1.0158353-.1482625 1.4692931-.2460623l.440062-.1024485c1.4921994-.3743053 2.468329-.9082203 2.553985-1.4249032l.0061385-.0736755zm-7.000886-3.51875475c-.5205959 0-1.02788048.01892296-1.51600368.05400574l-.48151941.04036704-.53299829.05853776c-.39237006.0486501-.76759238.10772265-1.12198294.17547761l-.3473102.07058464-.44006199.1024485c-1.56325655.39212937-2.56012349.95943132-2.56012349 1.49857871 0 .51219002.89967241 1.04978953 2.32993674 1.43847093l.23018675.06010778.44006199.1024485c.3400934.07334988.70224654.13859738 1.08277544.19400245l.3865177.0520598.53299829.05853776c.63293192.06073195 1.30339522.09437278 1.99752309.09437278.5205959 0 1.0278805-.01892296 1.5160037-.05400574l.4815194-.04036704.5329983-.05853776c.39237-.0486501.7675924-.10772265 1.1219829-.17547761l.3473102-.07058464.440062-.1024485c1.5632566-.39212937 2.5601235-.95943132 2.5601235-1.49857871 0-.51219002-.8996724-1.04978953-2.3299367-1.43847093l-.2301868-.06010778-.440062-.1024485c-.3400934-.07334988-.7022465-.13859738-1.0827754-.19400245l-.3865177-.0520598-.5329983-.05853776c-.6329319-.06073195-1.3033952-.09437278-1.9975231-.09437278z"/></svg>