<svg height="24" viewBox="0 0 24 24" width="24" xmlns="http://www.w3.org/2000/svg"><path d="m3.65217391 8.71836659c.19716099.23216199.32841183.38998841.3937525.47347928l3.13043479 4.00000003-.787505.6163082-2.23686957-2.8581541.00018728 1.55c0 4.137263 3.50894297 7.5 7.84782609 7.5 2.1453724 0 4.1511248-.8259985 5.6185793-2.2639573l.6998922.7142485c-1.6536035 1.6203661-3.910304 2.5497088-6.3184715 2.5497088-4.88187096 0-8.84782609-3.800707-8.84782609-8.5l-.00018728-1.55-2.236495 2.8581541-.787505-.6163082 3.13043478-4.00000003c.06811732-.0870388.19936815-.24486522.3937525-.47347928zm8.34782609-5.71836659c4.881871 0 8.8478261 3.80070699 8.8478261 8.5l-.0008395 1.549 2.2375218-2.8571541.787505.6163082-3.1304348 4-.3937525.4539253-.3937525-.4539253-3.1304348-4 .787505-.6163082 2.2358428 2.8571541.0008395-1.549c0-4.13726299-3.508943-7.5-7.8478261-7.5-2.14537235 0-4.15112478.82599852-5.61857934 2.26395733l-.69989217-.71424852c1.65360347-1.62036614 3.91030402-2.54970881 6.31847151-2.54970881z" fill-rule="evenodd"/></svg>