<svg height="24" viewBox="0 0 24 24" width="24" xmlns="http://www.w3.org/2000/svg"><path d="m15.5 2v1h-3l.000482 2.01540073c1.8325866.11311981 3.4982154.8432044 4.7917238 1.98509093l1.3542408-1.35404505.7071068.70710678-1.3540451 1.35424082c1.2450196 1.41033561 2.0004917 3.26304569 2.0004917 5.29220579 0 4.418278-3.581722 8-8 8s-8-3.581722-8-8c0-2.0291601.75547207-3.88187018 2.00049166-5.29220579l-1.35404505-1.35424082.70710678-.70710678 1.35424082 1.35404505c1.29374484-1.1420953 2.95974628-1.87223807 4.79272889-1.98515291l-.0005231-2.01533875h-3v-1zm-3.5 4c-3.86599325 0-7 3.13400675-7 7 0 3.8659932 3.13400675 7 7 7 3.8659932 0 7-3.1340068 7-7 0-3.86599325-3.1340068-7-7-7zm3.8890873 2.90380592.7071068.70710678-4.2426407 4.2426407-.7071068-.7071068z"/></svg>