<svg height="24" viewBox="0 0 24 24" width="24" xmlns="http://www.w3.org/2000/svg"><path d="m12 2c4.418278 0 8 3.581722 8 8 0 4.0792885-3.0531957 7.445465-6.9990449 7.9379871l-.0009551 1.0620129h6.5v3h-15v-3h6.5l.0000487-1.0618877c-3.94633514-.4920764-7.0000487-3.8584779-7.0000487-7.9381123 0-4.418278 3.581722-8 8-8zm0 2c-3.3137085 0-6 2.6862915-6 6s2.6862915 6 6 6 6-2.6862915 6-6-2.6862915-6-6-6zm2.7928932 1.79289322 1.4142136 1.41421356-2.2745824 2.27585197c.0440135.16492668.0674756.33824403.0674756.51704125 0 1.1045695-.8954305 2-2 2s-2-.8954305-2-2 .8954305-2 2-2c.1787972 0 .3521146.02346212.5170412.06747557z" fill-rule="evenodd"/></svg>