<svg height="24" viewBox="0 0 24 24" width="24" xmlns="http://www.w3.org/2000/svg"><path d="m12 22c-5.5228475 0-10-4.4771525-10-10s4.4771525-10 10-10 10 4.4771525 10 10-4.4771525 10-10 10zm-3.43801806-14.38617923c-.0077261.46959622.0813646.86170493.2848614 1.20049974-.53753614.63200817-.83302219 1.37833019-.84610707 2.15428099-.03527655 1.955903 1.10343345 3.0330444 3.98433113 4.0681093 1.4181414.5155551 1.7231528.7637635 1.7165423 1.1572032-.009321.5445409-.5623165.9060826-1.6189622.8880212-.8828849-.0160438-1.8123943-.3345014-2.44756077-.8029463l-.40239852-.2967751-1.13813822 1.5432062.40239851.2967751c.95312184.7029419 2.2645869 1.1535594 3.5518941 1.1769517 2.057495.0351696 3.5402768-1.0361858 3.5700013-2.7727175.0086117-.5125486-.1017815-.9509528-.3457776-1.3342749.4855804-.6345425.7389197-1.360518.7526826-2.1792424.0350949-1.9936147-1.1223708-3.15034046-3.7791894-4.06783027-1.4819158-.52274126-1.7718384-.7255543-1.7673491-.99843415.0071459-.40158936.5486214-.74457597 1.4597553-.7286548.8758021.01540345 1.6374191.23844161 2.2658817.63905386l.4216235.2687631 1.0307118-1.61693455-.4216236-.2687631c-.928066-.59159385-2.0338762-.91771729-3.2629829-.93933459-1.9118429-.03340759-3.38213276 1.01340062-3.41059426 2.61304327zm1.81726466 2.36147225c.3302018.14758088.7285323.30138368 1.2354322.48018398 1.9009294.6564769 2.5113811 1.2282265 2.4938442 2.2244456-.0065225.3879958-.1138798.7164383-.3392135 1.021703-.3191902-.154605-.6919575-.3081087-1.1324942-.4682606-2.1160985-.7602905-2.73560958-1.3026873-2.71886134-2.2313094.00596334-.3536081.15988794-.7076079.46129264-1.02676258z" fill-rule="evenodd"/></svg>