<?xml version="1.0" encoding="UTF-8" standalone="no"?>
<!DOCTYPE svg PUBLIC "-//W3C//DTD SVG 1.1//EN" "http://www.w3.org/Graphics/SVG/1.1/DTD/svg11.dtd">
<svg width="100%" height="100%" viewBox="0 0 24 24" version="1.1" xmlns="http://www.w3.org/2000/svg" xmlns:xlink="http://www.w3.org/1999/xlink" xml:space="preserve" xmlns:serif="http://www.serif.com/" style="fill-rule:evenodd;clip-rule:evenodd;stroke-linejoin:round;stroke-miterlimit:2;">
    <path d="M11.776,2.053L11.769,2.057L11.754,2.064C11.678,2.105 11.602,2.147 11.528,2.192C11.379,2.282 11.171,2.415 10.923,2.597C10.428,2.96 9.771,3.518 9.116,4.305C8.211,5.395 7.525,6.65 7.097,8L2.832,8C4.403,4.401 7.954,2.046 11.881,2L11.776,2.053ZM12.225,2.053L12.119,2C16.169,2.047 19.639,4.502 21.168,7.999L16.903,7.999C16.475,6.649 15.789,5.394 14.884,4.304C14.353,3.664 13.746,3.09 13.077,2.596C12.827,2.412 12.566,2.243 12.296,2.09C12.279,2.081 12.263,2.072 12.246,2.063L12.225,2.053ZM15.847,8L8.153,8C8.544,6.887 9.13,5.852 9.884,4.945C10.363,4.367 10.91,3.849 11.514,3.403C11.671,3.287 11.834,3.178 12,3.076C12.166,3.178 12.329,3.287 12.486,3.403C13.09,3.849 13.637,4.367 14.116,4.945C14.87,5.852 15.456,6.887 15.847,8ZM7.852,9L14.977,9C11.521,9.012 8.565,11.58 8.071,15L7.852,15C7.613,14.018 7.495,13.011 7.5,12C7.5,10.881 7.632,9.885 7.852,9ZM16.172,9.098C15.792,9.034 15.408,9.001 15.023,9L16.148,9L16.172,9.098ZM17.254,9.371C17.23,9.246 17.203,9.122 17.176,9L21.542,9C21.847,9.971 22.001,10.983 22,12C22.001,12.734 21.921,13.465 21.761,14.181C21.153,11.93 19.461,10.124 17.254,9.371ZM11.359,21.98C7.627,21.74 4.329,19.427 2.832,16L7.097,16C7.548,17.405 8.202,18.529 8.882,19.405C9.472,20.462 10.326,21.349 11.359,21.98ZM6.824,9C6.604,9.985 6.496,10.991 6.5,12C6.5,13.104 6.62,14.101 6.824,15L2.458,15C2.154,14.029 1.999,13.017 2,12C2,10.955 2.16,9.947 2.458,9L6.824,9ZM21,16C21,19.292 18.292,22 15,22C11.708,22 9,19.292 9,16C9,12.708 11.708,10 15,10C18.292,10 21,12.708 21,16ZM14,17L19,17L19,15L16,15L16,12L14,12L14,17Z"/>
</svg>
