<svg height="24" viewBox="0 0 24 24" width="24" xmlns="http://www.w3.org/2000/svg"><path d="m12 2c5.5228475 0 10 4.4771525 10 10s-4.4771525 10-10 10-10-4.4771525-10-10 4.4771525-10 10-10zm0 2c-4.418278 0-8 3.581722-8 8s3.581722 8 8 8 8-3.581722 8-8-3.581722-8-8-8zm-.0859375 10.765625c.3840337 0 .7253971.1357228.9969767.399315.2858473.2779072.4327108.6369068.4327108 1.0459975 0 .4026636-.1458645.7592213-.4330123 1.0462903-.2723751.2643641-.6192217.3990222-1.0123002.3990222s-.7399251-.1346581-1.0176159-.4042591c-.2818321-.2818321-.4276966-.6383898-.4276966-1.0410534 0-.4090907.1468635-.7680903.4382436-1.0512947.2771625-.2613247.6269898-.3940178 1.0226939-.3940178zm.4765625-8.8125c.979008 0 1.7839636.26222041 2.3905894.79457224.5894247.51254326.8906606 1.18704971.8906606 1.98667776 0 .60711122-.1929977 1.17977662-.5696958 1.7046816-.2056717.2879405-.5337493.6382606-.9883918 1.0600372-.5617426.5219732-.9220599.9020338-1.0548135 1.0983518-.086471.1409156-.1370989.3678038-.1370989.6838044v.8359375h-2.0859375l.0000089-.4639136c.0056236-.944772.0612673-1.5373774.189368-1.8400544.1550717-.4045349.5813209-.9160338 1.298692-1.593836.4052259-.37593245.6737378-.66602126.7954796-.85070623.1313832-.20270549.193014-.39816318.193014-.59523977 0-.29036264-.0973884-.48809065-.3069689-.64052695-.1860219-.13337424-.4304928-.20322305-.7477186-.20322305-.4967871 0-1.1463366.22270266-1.9360532.68217417l-.53387637.31061897-.66037801-2.0118493.37399686-.19684045c.96010432-.50531805 1.92475172-.76066589 2.88912322-.76066589z" fill-rule="evenodd"/></svg>