<svg height="24" viewBox="0 0 24 24" width="24" xmlns="http://www.w3.org/2000/svg"><path d="m16.1267191 7.26831669c-1.1571184-.79753695-2.5836085-1.26831669-4.1267191-1.26831669-3.86599325 0-7 2.95492065-7 6.6 0 1.5765657.58153958 3.2585349 1.50804798 4.4h11.00448852c.9111497-1.1372481 1.4874635-2.8290697 1.4874635-4.4 0-1.8427006-.8009317-3.50902309-2.0924678-4.70637323l-4.8499439 5.30387803-.777146-.6293204zm1.9248784 10.73168331h-12.07936968c-1.22818008-1.3442385-1.97222782-3.4280245-1.97222782-5.3529412 0-4.22335395 3.581722-7.6470588 8-7.6470588s8 3.42370485 8 7.6470588c0 1.9124377-.7344319 4.0120873-1.9484025 5.3529412zm-11.03506857-7c.2699738 0 .49862165.0909082.68595041.2727273.1983481.1928384.29752066.4352602.29752066.7272727 0 .2865028-.09917256.5289246-.29752066.7272727-.18732876.1818191-.4214862.2727273-.70247934.2727273s-.51515058-.0909082-.70247934-.2727273c-.1983481-.1983481-.29752066-.4407699-.29752066-.7272727 0-.2920125.09917256-.5344343.29752066-.7272727.19283843-.1818191.43250546-.2727273.71900827-.2727273zm4.99999997-3.5c.2699738 0 .4986217.09090818.6859504.27272727.1983481.19283843.2975207.43526025.2975207.72727273 0 .28650281-.0991726.52892463-.2975207.72727273-.1873287.18181909-.4214862.27272727-.7024793.27272727s-.5151506-.09090818-.7024793-.27272727c-.1983481-.1983481-.2975207-.44076992-.2975207-.72727273 0-.29201248.0991726-.5344343.2975207-.72727273.1928384-.18181909.4325054-.27272727.7190082-.27272727zm5 3.5c.2699738 0 .4986217.0909082.6859504.2727273.1983481.1928384.2975207.4352602.2975207.7272727 0 .2865028-.0991726.5289246-.2975207.7272727-.1873287.1818191-.4214862.2727273-.7024793.2727273s-.5151506-.0909082-.7024793-.2727273c-.1983481-.1983481-.2975207-.4407699-.2975207-.7272727 0-.2920125.0991726-.5344343.2975207-.7272727.1928384-.1818191.4325054-.2727273.7190082-.2727273z" fill-rule="evenodd"/></svg>