<?xml version="1.0" encoding="UTF-8" standalone="no"?>
<!DOCTYPE svg PUBLIC "-//W3C//DTD SVG 1.1//EN" "http://www.w3.org/Graphics/SVG/1.1/DTD/svg11.dtd">
<svg width="100%" height="100%" viewBox="0 0 24 24" version="1.1" xmlns="http://www.w3.org/2000/svg" xmlns:xlink="http://www.w3.org/1999/xlink" xml:space="preserve" xmlns:serif="http://www.serif.com/" style="fill-rule:evenodd;clip-rule:evenodd;stroke-linejoin:round;stroke-miterlimit:2;">
    <path d="M22,22L2,22L2,2L22,2L22,22ZM18,20L20,20L20,14.112C18.838,9.078 14.835,5.187 9.763,4.172L8.901,4L4,4L4,6L5,6C12.18,6 18,11.82 18,19L18,20ZM20,8.984L20,4L14.852,4C16.941,5.226 18.708,6.937 20,8.984ZM4,8L4,11C8.971,11 13,15.029 13,20L16,20L16,19C16,12.925 11.075,8 5,8L4,8ZM4,13L4,20L11,20C11,16.134 7.866,13 4,13Z"/>
</svg>
