<svg height="24" viewBox="0 0 24 24" width="24" xmlns="http://www.w3.org/2000/svg"><path d="m11 3.05492878c-4.49995046.49744429-8 4.31251757-8 8.94507122 0 4.9705627 4.02943725 9 9 9 2.7765961 0 5.2595206-1.2573572 6.9104511-3.2337492l-7.9104511-5.4924913zm1.0572143-.05475074v7.89373636l6.1687291-5.39298057c-1.6038538-1.5368628-3.7755061-2.48585726-6.1687291-2.50075579zm6.8679254 3.25120076-6.5566177 5.7320902 7.1503478 4.9647262c.9362269-1.419743 1.4811302-3.1203346 1.4811302-4.9481952 0-2.18571973-.7791521-4.18945876-2.0748603-5.7486212zm-6.9251397 15.7486212c-5.5228475 0-10-4.4771525-10-10s4.4771525-10 10-10 10 4.4771525 10 10-4.4771525 10-10 10z" fill-rule="evenodd"/></svg>