<svg height="24" viewBox="0 0 24 24" width="24" xmlns="http://www.w3.org/2000/svg"><path d="m7 3h-1c-.55228475 0-1 .44771525-1 1v16c0 .5522847.44771525 1 1 1h12c.5522847 0 1-.4477153 1-1v-16c0-.55228475-.4477153-1-1-1h-4.9681996v8.8545659l-3.05338581-1.83801-2.97841459 1.8534991zm1 0v7.0699198l1.9697355-1.22578728 2.0620649 1.24127638v-7.0854089zm6 10.9074641h1v2.0925359h2.0951274v1h-2.0951274v2.0925359h-1v-2.0925359h-2.0633269v-1h2.0633269zm-8-11.9074641h12c1.1045695 0 2 .8954305 2 2v16c0 1.1045695-.8954305 2-2 2h-12c-1.1045695 0-2-.8954305-2-2v-16c0-1.1045695.8954305-2 2-2z" fill-rule="evenodd"/></svg>