<svg height="24" viewBox="0 0 24 24" width="24" xmlns="http://www.w3.org/2000/svg"><path d="m21.3841106 5.3200922-10 12c-.1882242.2258691-.5297635.2413617-.737664.0334612l-1.99999999-2c-.20790048-.2079005-.19240791-.5494398.03346119-.737664l12-10.00000004c.4677006-.38975051 1.0939533.23650223.7042028.70420284zm-12.06277599 11.4784241.3845035.4018507c.53504529.5591801.69945449 1.3768598.42211889 2.0993837-.21972794.5724424-.66812504 1.0872984-1.32316082 1.577582-1.0864477.8131885-2.29768682 1.2208543-3.60286389 1.2066215l-1.17860218-.0128526.20470297-1.1607605c.281682-1.5972672.66284055-2.7219872 1.20459666-3.4168429.44505037-.5708212 1.06906016-.9765867 1.84370737-1.2202021.72607246-.2283019 1.5188019-.0247111 2.0449975.5252202z" fill-rule="evenodd"/></svg>