<svg height="24" viewBox="0 0 24 24" width="24" xmlns="http://www.w3.org/2000/svg"><g transform="translate(4 4)" fill="none" fill-rule="evenodd"><path d="m14.9994678 7.54.0005322 2.46c0 1.639035-1.3144104 2.971073-2.9466524 2.9995352l1.0001202 3.0004648h-2.108l-.99999996-3h-3.892l-1 3h-2.108l1.001-3.002-.12274063-.0030927c-1.57480725-.0912464-2.82372721-1.3972264-2.82372721-2.9949073l-.00053216-2.46.28250501.11797155c2.07570205.83015138 4.15561087 1.27575024 6.23754568 1.33517175l.48048147.0068567c2.2424054 0 4.4826557-.44801927 6.7180272-1.34202845zm-11.37819999 1.97492875-.24253562.97014255 2 .5.24253562-.9701426zm8.75746439 0-2 .49999995.2425356.9701426 2-.5zm-.3787322-9.51492875c1.6568542 0 3 1.34314575 3 3l-.0005322 3.456-.1964274.08442748-.4544009.18826764c-2.1201841.84821304-4.2354894 1.27130488-6.3486395 1.27130488-2.11315014 0-4.2284554-.42309184-6.34863951-1.27130488l-.45440084-.18826764-.19749181-.08542748.00053216-3.455c0-1.65685425 1.34314575-3 3-3z" fill="#000" fill-rule="nonzero"/></g></svg>