<?xml version="1.0" encoding="UTF-8" standalone="no"?>
<!DOCTYPE svg PUBLIC "-//W3C//DTD SVG 1.1//EN" "http://www.w3.org/Graphics/SVG/1.1/DTD/svg11.dtd">
<svg width="100%" height="100%" viewBox="0 0 24 24" version="1.1" xmlns="http://www.w3.org/2000/svg" xmlns:xlink="http://www.w3.org/1999/xlink" xml:space="preserve" xmlns:serif="http://www.serif.com/" style="fill-rule:evenodd;clip-rule:evenodd;stroke-linejoin:round;stroke-miterlimit:2;">
    <path d="M16.891,8.523C17.611,9.538 17.998,10.752 17.998,11.996C17.998,15.288 15.288,17.998 11.996,17.998C10.752,17.998 9.538,17.611 8.523,16.891L3.707,21.707L2.293,20.293L20.293,2.293L21.707,3.707L16.891,8.523ZM15.446,9.968L9.968,15.446C10.583,15.807 11.283,15.998 11.996,15.998C14.191,15.998 15.998,14.191 15.998,11.996C15.998,11.283 15.807,10.583 15.446,9.968ZM11,22L11,19L13,19L13,22L11,22ZM16.653,18.067L18.067,16.653L19.987,18.573L18.573,19.987L16.653,18.067ZM22,13L19,13L19,11L22,11L22,13ZM9.835,7.69C9.905,8.643 10.17,9.563 10.602,10.398L9.135,11.865C8.123,10.207 7.674,8.265 7.855,6.331C5.087,8.371 4.205,12.159 5.788,15.212L4.321,16.679C3.457,15.264 3,13.638 3,11.98C3,7.345 6.573,3.426 11.189,3C10.191,4.35 9.71,6.016 9.835,7.69Z"/>
</svg>
