<svg height="24" viewBox="0 0 24 24" width="24" xmlns="http://www.w3.org/2000/svg"><path d="m14 2 5 5v15h-14v-20zm-.5 1h-7.5v18h12v-13.5zm-1.5 7c2.209139 0 4.209139 1 6 3-1.790861 2-3.790861 3-6 3s-4.209139-1-6-3c1.790861-2 3.790861-3 6-3zm0 1-.1492623.0054857c-1.0348599.0763492-1.8507377.9401525-1.8507377 1.9945143 0 1.1045695.8954305 2 2 2s2-.8954305 2-2-.8954305-2-2-2zm-2.6665996.6241363-.11432461.0563587c-.53208005.2738173-1.05039508.6312371-1.55620126 1.0740083l-.26887453.2454967.01700803.0169904c.62104663.5834113 1.26094264 1.0355721 1.92207122 1.3598005-.21274373-.4130384-.33307925-.8808617-.33307925-1.3767909s.12033552-.9637525.3334004-1.3758637zm5.3335204-.0009272.0281557.0574669c.1952789.398159.3049235.8459371.3049235 1.319324 0 .4959292-.1203355.9637525-.3334004 1.3758637.5719254-.2793009 1.1284103-.6558114 1.6705259-1.130367l.2678745-.2454967-.016008-.0169904c-.6210467-.5834113-1.2609427-1.0355721-1.9220712-1.3598005z" fill-rule="evenodd"/></svg>