<svg height="24" viewBox="0 0 24 24" width="24" xmlns="http://www.w3.org/2000/svg"><path d="m13.2906645 2.43410569 7.9320841 7.93208401c.8075714.8075714.8075714 2.1169034 0 2.9244748l-7.9320841 7.9320841c-.8075714.8075714-2.1169034.8075714-2.9244748 0l-7.93208401-7.9320841c-.80757142-.8075714-.80757142-2.1169034 0-2.9244748l7.93208401-7.93208401c.8075714-.80757142 2.1169034-.80757142 2.9244748 0zm-1.479466 1.39653167-.0307952.01768189-7.93208405 7.93208405c-.01768189.0176819-.02357585.0426878-.01768189.0652525l.01768189.0307952 7.93208405 7.932084c.0176819.0176819.0426878.0235759.0652525.0176819l.0307952-.0176819 7.932084-7.932084c.0176819-.0176819.0235759-.0426879.0176819-.0652525l-.0176819-.0307952-7.932084-7.93208405c-.0176819-.01768189-.0426879-.02357585-.0652525-.01768189zm1.1888015 11.16936264v2h-2v-2zm0-9v7h-2v-7z" fill-rule="evenodd"/></svg>