<svg height="24" viewBox="0 0 24 24" width="24" xmlns="http://www.w3.org/2000/svg"><path d="m19 17.7272727c0 1.5484972-1.9232611 2.5858652-4.6935718 3.0290128l-.5127872.0740059c-.6955225.0898947-1.4369925.1445714-2.209077.1628463l-.584564.0068623c-.9830418 0-1.92423786-.0573403-2.79364102-.1697086l-.51278717-.0740059c-2.68636194-.4297189-4.57623271-1.4181905-4.68830352-2.8896507l-.00526829-.1393621v-2.7272727l.00616297-.1428011c.09013692-1.0347319 1.16306863-1.7908413 2.82777703-2.2643712-2.2225236-.4905119-3.72897941-1.4172593-3.82867171-2.72619288l-.00526829-.13936209v-2.72727273l.00616297-.14280107c.118796-1.36372552 1.94470046-2.24348557 4.58256656-2.63022139l.27574241-.03824807.53295716-.06234003.41174805-.03859301.42137506-.03159009.57574384-.03121589.59030275-.01874037.30015457-.00468725h.60649323l.3001546.00468725.5903027.01874037.5757439.03121589.421375.03159009.4117481.03859301.5329572.06234003c2.7856542.36488624 4.7354165 1.25771892 4.8583089 2.66846946l.006163.14280107.0006236 1.32413091c2.3172637.42668157 3.8834835 1.27341725 3.9932134 2.53306799l.006163.1428011v2.7272727c0 1.1555237-1.0709645 2.0264259-2.7656924 2.5781797l-.2329274.0726615zm-13.97386561-.01328.13286736.1046865c.2499094.1918351.66172329.3897457 1.20005754.5645296 1.19721203.3887052 2.85812013.6167912 4.64094071.6167912 1.7828206 0 3.4437287-.228086 4.6409407-.6167912.5383343-.1747839.9501482-.3726945 1.2000575-.5645296l.1396391-.108948c.0102459-.0058366.0154363-.0053244.0177581.0018186l.0016046.0157229.0009156-.6015388c-.683579.2726938-1.5162215.4818963-2.4561261.6271846l-.4092614.058352-.5329572.0623401-.4117481.038593-.421375.0315901-.5757439.0312159-.5903027.0187403-.3001546.0046873-.3032466.0015628-.3032466-.0015628-.3001546-.0046873-.59030275-.0187403-.57574384-.0312159-.42137506-.0315901-.41174805-.038593-.53295716-.0623401c-1.10729755-.1450423-2.08251896-.3735034-2.86342339-.6847535l.00055609.5850328c.00185743-.0057144.00555072-.0071851.01219965-.0045564zm1.28709159-2.9676849-.09857319-.1659699.11032087-.0330275c-.32695442.0934155-.60818027.1944065-.8353439.2970648l-.16010585.0772141-.13952391.0784107.1647672.0912996c.153207.0773225.3378006.1543995.55026504.2287384l.2216245.0733339.19831692.0593177c.31809889.0908854.66840673.1718544 1.04466187.241828l.06181007.0351824c-.49232006-.2830602-.87345571-.6115059-1.11821962-.9833922zm13.68768962-1.6205739c-.683579.2726938-1.5162215.4818963-2.4561261.6271846l-.4092614.058352-.5329572.0623401-.4117481.038593-.421375.0315901-.5757439.0312159-.5903027.0187403-.3001546.0046873h-.6064932l-.3001546-.0046873-.5903027-.0187403-.5757439-.0312159-.421375-.0315901-.4117481-.038593-.5329572-.0623401c-.96888531-.126912-1.83664988-.3176915-2.56159714-.5719166l-.30182621-.1128369.00055609.5850328c.00185743-.0057144.00555072-.0071851.01219965-.0045564l.0123301.0069993.13286736.1046865c.2499094.1918351.66172329.3897457 1.20005754.5645296 1.19721201.3887052 2.85812011.6167912 4.64094071.6167912s3.4437287-.228086 4.6409407-.6167912c.5383343-.1747839.9501482-.3726945 1.2000575-.5645296l.1396391-.108948c.0102459-.0058366.0154363-.0053244.0177581.0018186zm-2.1136092-2.7699247.0126707-.0365948c-.204148.5832973-.7125679 1.0773169-1.4491839 1.4761854l-.1749761.0908386c.9048156-.0926014 1.7244715-.2407666 2.3992092-.4335488.3269545-.0934155.6081803-.1944065.8353439-.2970648l.1601059-.0772141.1385239-.0784107-.0211526-.0139876c-.175856-.1029457-.4095937-.2069318-.6928796-.3060504l-.2216245-.0733339-.198317-.0593177c-.2444933-.0698553-.5080143-.1338523-.7877199-.1915012zm-1.8863908-1.23007535c-.683579.2726938-1.5162215.48189635-2.4561261.62718463l-.4092614.05835205-.5329572.06234003-.4117481.03859301-.421375.03159009-.5757439.03121589-.5903027.01874037-.3001546.00468725-.3032466.00156283-.30324663-.00156283-.30015457-.00468725-.59030275-.01874037-.57574384-.03121589-.42137506-.03159009-.41174805-.03859301-.53295716-.06234003c-1.10729755-.14504228-2.08251896-.3735034-2.86342339-.68475348l.00055609.58503278c.00185743-.00571441.00555072-.00718509.01219965-.00455646l.0123301.00699937.13286736.10468643c.2499094.19183513.66172329.38974573 1.20005754.56452963 1.19721203.3887052 2.85812013.6167912 4.64094071.6167912 1.7828206 0 3.4437287-.228086 4.6409407-.6167912.5383343-.1747839.9501482-.3726945 1.2000575-.56452963l.1396391-.10894796.0118506-.00395803.0059075.00577665zm-6.0009156-3.12573385c-1.7942434 0-3.46692439.2021384-4.67502634.54731039-.32695442.09341554-.60818027.1944065-.8353439.29706483l-.16010585.07721407-.13952391.07841071.1647672.09129964c.153207.07732249.3378006.15439942.55026504.22873835l.2216245.07333395.19831692.05931767c1.20810195.34517199 2.88078294.54731039 4.67502634.54731039s3.4669244-.2021384 4.6750263-.54731039c.3269545-.09341554.6081803-.1944065.8353439-.29706483l.1601059-.07721407.1385239-.07841071-.0211526-.01398761c-.175856-.10294567-.4095937-.20693181-.6928796-.30605038l-.2216245-.07333395-.198317-.05931767c-1.2081019-.34517199-2.8807829-.54731039-4.6750263-.54731039z"/></svg>