<svg width="24" height="24" viewBox="0 0 24 24" fill="none" xmlns="http://www.w3.org/2000/svg">
<path d="M13.0103 19.4473L13.1348 20.8755C12.3047 21.0806 11.3916 21.1831 10.3955 21.1831C8.48633 21.1831 6.9873 20.7388 5.89844 19.8501C5.27832 19.3423 4.82178 18.7124 4.52881 17.9604C4.27002 17.2866 4.14062 16.5688 4.14062 15.8071C4.14062 14.1274 4.73877 12.7969 5.93506 11.8154C7.04834 10.8975 8.47901 10.4385 10.2271 10.4385C11.8286 10.4385 13.1445 10.8267 14.1748 11.603C15.2979 12.4478 15.8594 13.6123 15.8594 15.0967C15.8594 16.2295 15.5127 17.1401 14.8193 17.8286C14.248 18.395 13.5645 18.6782 12.7686 18.6782C11.9482 18.6782 11.4648 18.3389 11.3184 17.6602C10.8838 18.3389 10.2246 18.6782 9.34083 18.6782C8.64259 18.6782 8.0835 18.4927 7.66357 18.1216C7.21436 17.7261 6.98975 17.1426 6.98975 16.3711C6.98975 15.3848 7.33888 14.5718 8.03712 13.9321C8.34962 13.644 8.73535 13.4194 9.19434 13.2583C9.6582 13.0972 10.1465 13.0166 10.6592 13.0166C11.5527 13.0166 12.3364 13.1436 13.0103 13.3975L12.5488 16.2539C12.5049 16.5225 12.4829 16.7349 12.4829 16.8911C12.4829 17.2036 12.6221 17.3599 12.9004 17.3599C13.2227 17.3599 13.5059 17.1914 13.75 16.8545C14.1162 16.3564 14.2993 15.7388 14.2993 15.0015C14.2993 13.9663 13.9551 13.1899 13.2666 12.6724C12.4854 12.0815 11.4868 11.7861 10.271 11.7861C9.35791 11.7861 8.52783 11.979 7.78076 12.3647C6.39404 13.0776 5.70068 14.2422 5.70068 15.8584C5.70068 17.2646 6.22315 18.312 7.26807 19.0005C8.0835 19.5376 9.12354 19.8062 10.3882 19.8062C11.2915 19.8062 12.1655 19.6865 13.0103 19.4473ZM11.0913 14.3203C10.9106 14.2812 10.7642 14.2617 10.6519 14.2617C10.0952 14.2617 9.63135 14.5205 9.26025 15.0381C8.94775 15.4727 8.7915 15.9512 8.7915 16.4736C8.7915 16.752 8.86476 16.9692 9.01124 17.1255C9.16261 17.2817 9.36768 17.3599 9.62646 17.3599C10.0073 17.3599 10.3003 17.2085 10.5054 16.9058C10.6372 16.7056 10.7568 16.2856 10.8643 15.646L11.0913 14.3203Z" fill="black"/>
<path d="M3 2H14L19 7V21H17V7.83L13.17 4H5V13H3V2Z" fill="black"/>
</svg>
