<svg height="24" viewBox="0 0 24 24" width="24" xmlns="http://www.w3.org/2000/svg"><path d="m10.103 14.1038932 1.293 1.293-6.60310678 6.6031068-2.58589322-.0001068zm11.897-7.10399998v1.793l-13.20710678 13.20710678h-2.58589322l15.001-15.00010678zm0 3.20799998v2.584l-9.2071068 9.2081068h-2.5858932zm0 3.999v2.585l-5.2071068 5.2081068-2.5868932-.0001068zm0 3.999v2.586l-1.2071068 1.2081068-2.5868932-.0001068zm-13.897-6.102 1.293 1.293-7.396 7.396v-2.5857864zm-2-2 1.293 1.293-5.396 5.396v-2.5857864zm11.1898932-3.31099998 1.4142136 1.41421356-6.7071068 6.70710682-6.70710678-6.70710682 1.41421356-1.41421356 5.29289322 5.29210678zm-13.1898932 1.311 1.293 1.293-3.396 3.39599998v-2.585zm13.1898932-5.811 1.4142136 1.41421356-6.7071068 6.70710682-6.70710678-6.70710682 1.41421356-1.41421356 5.29289322 5.29210678zm-14.2928932 4.70710678.396.39689322-1.396 1.396v-1.79289322z" fill-rule="evenodd"/></svg>