<svg width="24" height="24" viewBox="0 0 24 24" fill="none" xmlns="http://www.w3.org/2000/svg">
<path fill-rule="evenodd" clip-rule="evenodd" d="M8.46615 5H7.00001V3H8.46615C9.92079 3 11.1 4.17922 11.1 5.63386C11.1 6.56988 10.6032 7.43558 9.79511 7.90787L9.14773 8.28621C8.99432 8.37586 8.90001 8.5402 8.90001 8.71789V9H11V11H7.90001H6.90001V10V8.71789C6.90001 7.82945 7.37153 7.00775 8.13859 6.55946L8.78598 6.18112C8.98046 6.06746 9.10001 5.85912 9.10001 5.63386C9.10001 5.28379 8.81622 5 8.46615 5ZM22.7071 13.2071L17.7071 18.2071L17 18.9142L16.2929 18.2071L13.5 15.4142L7.20712 21.7071L6.50001 22.4142L5.79291 21.7071L1.29291 17.2071L2.70712 15.7929L6.50001 19.5858L12.7929 13.2929L13.5 12.5858L14.2071 13.2929L17 16.0858L21.2929 11.7929L22.7071 13.2071ZM2.00001 5H3.00001V9H2.00001V11H6.00001V9H5.00001V3H4.00001H3.00001H2.00001V5ZM16 3H12V5H14.1315L13.4172 6.07143H12.3889V8.07143H14.5357C14.7921 8.07143 15 8.2793 15 8.53571C15 8.79213 14.7921 9 14.5357 9H12V11H14.5357C15.8967 11 17 9.8967 17 8.53571C17 7.57387 16.449 6.74073 15.6453 6.33479L16.8321 4.5547L16 3ZM20.8459 8.5H19L19.8 6.5L19.923 6.19258L21 3.5L22.077 6.19258L22.2 6.5L23 8.5H21.1541H20.8459Z" fill="black"/>
</svg>
