<svg width="24" height="24" viewBox="0 0 24 24" fill="none" xmlns="http://www.w3.org/2000/svg">
<path fill-rule="evenodd" clip-rule="evenodd" d="M12.9536 4C17.3718 4 20.9536 7.58172 20.9536 12C20.9536 16.4183 17.3718 20 12.9536 20C11.0612 20 9.32349 19.3436 7.9538 18.2456L7.32832 19.0258C8.86903 20.2609 10.8257 21 12.9536 21C17.9241 21 21.9536 16.9706 21.9536 12C21.9536 7.02944 17.9241 3 12.9536 3C7.94395 3 4.45356 7.07018 4.45356 12V14.2929L2.30711 12.1464L1.60001 12.8536L4.60001 15.8536L4.95356 16.2071L5.30711 15.8536L8.30711 12.8536L7.60001 12.1464L5.45356 14.2929V12C5.45356 7.54098 8.57433 4 12.9536 4ZM12 7V13V13.2071L12.1464 13.3536L15.1464 16.3536L15.8536 15.6464L13 12.7929V7H12Z" fill="black"/>
</svg>
