<svg width="24" height="24" viewBox="0 0 24 24" fill="none" xmlns="http://www.w3.org/2000/svg">
<path fill-rule="evenodd" clip-rule="evenodd" d="M6.5 7.49228C6.5 5.01126 8.51126 3 10.9923 3H13.1042C15.5319 3 17.5 4.96808 17.5 7.39583H16.5C16.5 5.52037 14.9796 4 13.1042 4H10.9923C9.06355 4 7.5 5.56355 7.5 7.49228C7.5 8.51742 8.10122 9.44726 9.03606 9.86794L11.5518 11H9.11491L8.6257 10.7799C7.332 10.1977 6.5 8.91093 6.5 7.49228ZM4 12H2V13H13.5593L14.4672 13.4085C15.7044 13.9653 16.5 15.1958 16.5 16.5524C16.5 18.4565 14.9565 20 13.0524 20H11.0417C9.08566 20 7.5 18.4143 7.5 16.4583H6.5C6.5 18.9666 8.53337 21 11.0417 21H13.0524C15.5088 21 17.5 19.0088 17.5 16.5524C17.5 15.1375 16.8291 13.8289 15.7287 13H22V12H19H13.774H11.3371H4Z" fill="black"/>
</svg>
