<svg height="24" viewBox="0 0 24 24" width="24" xmlns="http://www.w3.org/2000/svg"><path d="m15.7158787 13.6981118 6.9180048 6.9180047-2.267767 2.267767-6.9724857-6.9724858c-1.1349784.6907475-2.4678426 1.0886023-3.8936308 1.0886023-4.14213562 0-7.5-3.3578644-7.5-7.5 0-4.14213562 3.35786438-7.5 7.5-7.5 4.1421356 0 7.5 3.35786438 7.5 7.5 0 1.5553735-.4734607 3.0001644-1.2841213 4.1981118zm-6.2158787.3018882c2.4852814 0 4.5-2.0147186 4.5-4.5 0-2.48528137-2.0147186-4.5-4.5-4.5-2.48528137 0-4.5 2.01471863-4.5 4.5 0 2.4852814 2.01471863 4.5 4.5 4.5zm0-1c-1.93299662 0-3.5-1.5670034-3.5-3.5 0-1.93299662 1.56700338-3.5 3.5-3.5 1.9329966 0 3.5 1.56700338 3.5 3.5 0 1.9329966-1.5670034 3.5-3.5 3.5z" fill-rule="evenodd"/></svg>