<svg height="24" viewBox="0 0 24 24" width="24" xmlns="http://www.w3.org/2000/svg"><path d="m12 11.5c3.0375661 0 5.5 2.4624339 5.5 5.5 0 .6945561-.1291588 1.3707193-.3753897 2.0009161l4.3753897-.0009161v1h-18v-1l3.37523849.0005254c-.24614895-.6301248-.37523849-1.3061463-.37523849-2.0005254 0-3.0375661 2.46243388-5.5 5.5-5.5zm0 1c-2.48528137 0-4.5 2.0147186-4.5 4.5 0 .7055007.16225564 1.3863243.46827885 2.0013474l8.06339175.000106c.3060314-.614998.4683294-1.2958744.4683294-2.0014534 0-2.4852814-2.0147186-4.5-4.5-4.5zm10 3.5v1h-3v-1zm-17 0v1h-3v-1zm14.4609464-7.16497377.6381072.76994754-2.92 2.42000003-.6381072-.7699476zm-14.7818928 0 2.92 2.41999997-.6381072.7699476-2.92-2.42000003zm7.8209464-6.83502623v6.146l3.1464466-3.146.7071068.70710678-4 4-.0692479.05785545c-.1948681.13499605-.4642925.1157109-.6378589-.05785545l-3.99999999-4 .70710678-.70710678 3.14644661 3.146v-6.146z"/></svg>