<?xml version="1.0" encoding="UTF-8" standalone="no"?>
<!DOCTYPE svg PUBLIC "-//W3C//DTD SVG 1.1//EN" "http://www.w3.org/Graphics/SVG/1.1/DTD/svg11.dtd">
<svg width="100%" height="100%" viewBox="0 0 24 24" version="1.1" xmlns="http://www.w3.org/2000/svg" xmlns:xlink="http://www.w3.org/1999/xlink" xml:space="preserve" xmlns:serif="http://www.serif.com/" style="fill-rule:evenodd;clip-rule:evenodd;stroke-linejoin:round;stroke-miterlimit:2;">
    <path d="M6,21L6,3L12.5,3C14.985,3 17,5.015 17,7.5C17,9.13 16.133,10.558 14.835,11.348C16.689,12.079 18,13.886 18,16C18,18.761 15.761,21 13,21L6,21ZM13,12L7,12L7,20L13,20C15.209,20 17,18.209 17,16C17,13.791 15.209,12 13,12ZM7,4L7,11L12.5,11C14.433,11 16,9.433 16,7.5C16,5.567 14.433,4 12.5,4L7,4Z"/>
</svg>
