<svg height="24" viewBox="0 0 24 24" width="24" xmlns="http://www.w3.org/2000/svg"><path d="m15.3748616 3.65415067c-1.0421978-.42185071-2.1814014-.65415067-3.3748616-.65415067-4.97056275 0-9 4.02943725-9 9 0 2.4636217.98987721 4.6960452 2.59359813 6.3212388 1.78141004-1.48824 4.02959114-2.3212388 6.40640187-2.3212388 2.3767081 0 4.6248657.8329107 6.4064001 2.3212388 1.603722-1.625192 2.5935999-3.8576162 2.5935999-6.3212388 0-3.42153647-1.9093064-6.39713054-4.7205979-7.91946102l-3.8269927 8.13235952c-.1175807.2498588-.4154491.3570915-.6653079.2395109-.2498588-.1175807-.3570915-.4154491-.2395109-.6653079l3.827271-8.13295084zm-9.03225909 15.34579823c1.54573567 1.2508306 3.51407166 2.0000511 5.65739749 2.0000511 2.1433247 0 4.1116597-.7492197 5.657395-2.0000491-1.5859169-1.2839652-3.5653281-1.9999509-5.657395-1.9999509-2.09215016 0-4.07158724.7160597-5.65739749 1.9999489zm5.65739749 3.0000511c-5.5228475 0-10-4.4771525-10-10s4.4771525-10 10-10 10 4.4771525 10 10-4.4771525 10-10 10zm-5.98347107-12c.2699738 0 .49862165.0909082.68595041.2727273.1983481.1928384.29752066.4352602.29752066.7272727 0 .2865028-.09917256.5289246-.29752066.7272727-.18732876.1818191-.4214862.2727273-.70247934.2727273s-.51515058-.0909082-.70247934-.2727273c-.1983481-.1983481-.29752066-.4407699-.29752066-.7272727 0-.2920125.09917256-.5344343.29752066-.7272727.19283843-.1818191.43250546-.2727273.71900827-.2727273zm11.99999997 0c.2699738 0 .4986217.0909082.6859504.2727273.1983481.1928384.2975207.4352602.2975207.7272727 0 .2865028-.0991726.5289246-.2975207.7272727-.1873287.1818191-.4214862.2727273-.7024793.2727273s-.5151506-.0909082-.7024793-.2727273c-.1983481-.1983481-.2975207-.4407699-.2975207-.7272727 0-.2920125.0991726-.5344343.2975207-.7272727.1928384-.1818191.4325054-.2727273.7190082-.2727273zm-6-5c.2699738 0 .4986217.09090818.6859504.27272727.1983481.19283843.2975207.43526025.2975207.72727273 0 .28650281-.0991726.52892463-.2975207.72727273-.1873287.18181909-.4214862.27272727-.7024793.27272727s-.5151506-.09090818-.7024793-.27272727c-.1983481-.1983481-.2975207-.44076992-.2975207-.72727273 0-.29201248.0991726-.5344343.2975207-.72727273.1928384-.18181909.4325054-.27272727.7190082-.27272727z" fill-rule="evenodd"/></svg>