<svg height="24" viewBox="0 0 24 24" width="24" xmlns="http://www.w3.org/2000/svg"><path d="m15.6867938 3.15445831c1.4109186-1.58728342 3.3040729-1.78739837 4.9555316-.49217828l.1681241.13932685 1.4608434 1.34073797c1.6071283 1.40623727 1.8181252 3.31450013.5163553 4.97526062l-.1845955.21907958-10.3364736 11.69815525c-.5205933.5639761-1.2355229.9049983-1.9959923.9579188l-.208418.0072409h-6.0621688c-1.59768088 0-2.90366088-1.24892-2.99490731-2.8237272l-.00509269-.1762728v-6.6110163c0-.6823409.23252526-1.3421483.65585593-1.8721686l.13268165-.1550053 6.5886034-7.18756734 2.44861652 2.20289852-6.8257575 7.39985902v6.223h5.623l10.5142745-11.84734837-1.9608434-1.84073797-9.6764311 11.18808634h-2.5v-2.5z" fill-rule="evenodd"/></svg>