<svg height="24" viewBox="0 0 24 24" width="24" xmlns="http://www.w3.org/2000/svg"><path d="m5.01894482 11c.24275908-3.19120304 2.78985214-5.7382961 5.98105518-5.98105518v-3.01894482h1v3.01894482c3.191203.24275908 5.7382961 2.78985214 5.9810552 5.98105518h3.0189448v1h-3.0189448c-.2427591 3.191203-2.7898522 5.7382961-5.9810552 5.9810552v3.0189448h-1v-3.0189448c-3.19120304-.2427591-5.7382961-2.7898522-5.98105518-5.9810552h-3.01894482v-1zm1.00347669 0h.97757849v1h-.97757849c.23777419 2.638569 2.3390095 4.7398043 4.97757849 4.9775785v-.9775785h1v.9775785c2.638569-.2377742 4.7398043-2.3390095 4.9775785-4.9775785h-.9775785v-1h.9775785c-.2377742-2.63856899-2.3390095-4.7398043-4.9775785-4.97757849v.97757849h-1v-.97757849c-2.63856899.23777419-4.7398043 2.3390095-4.97757849 4.97757849zm5.47757849 1.5c-.5522847 0-1-.4477153-1-1s.4477153-1 1-1 1 .4477153 1 1-.4477153 1-1 1z" fill-rule="evenodd"/></svg>