<svg height="24" viewBox="0 0 24 24" width="24" xmlns="http://www.w3.org/2000/svg"><path d="m8.45994867 16 .10117928.3671677c.47730953 1.7321 1.24745855 3.3519517 2.27322065 4.7777014l.6636162.9223878-1.1283911-.1338629c-3.19369066-.3788728-5.96358195-2.3570543-7.38181122-5.2108777l-.35906-.7225163zm12.91134883 0-.35906.7225163c-1.4182263 2.8538174-4.1881092 4.831997-7.381792 5.2108754l-1.128446.1338718.66368-.9224103c1.02622-1.4262838 1.7970878-3.0469942 2.2745181-4.7778084l.1012461-.3670448zm-11.75350037 0h4.76561677c-.505782 1.7078354-1.3118619 3.3074375-2.3834121 4.7022625-.9814725-1.2776068-1.7402314-2.7272956-2.24951467-4.2771465l-.13269-.425116h4.76561677zm-7.13413308-7.00034864 5.86233595.00008518-.02026351.10206311c-.19759288.95017105-.30698316 1.92085805-.32573649 2.87906615.01566991.8209149.0945943 1.6361997.23536799 2.4379941l.11263201.5808766h-5.863l-.06986867-.2139433c-.27404743-.8946861-.41513133-1.8308702-.41513133-2.7857932 0-1.031546.1646334-2.04122522.48366405-3.00034864zm13.16733595.00008518h5.863l-.0546972-.16635958c.3564244 1.00841719.5406972 2.07528244.5406972 3.16662304 0 1.0317476-.1646978 2.04162-.4838512 3.0009111l-5.8631488-.0011746.0212635-.1015362c.1975929-.950171.3069832-1.920858.3257355-2.8790661-.0188029-.9850978-.1286932-1.9620885-.3272419-2.91738905zm-6.29340102.00026346h5.28333372c.2178058.9793759.3395576 1.9880341.3591593 3.0095923-.016298.8446039-.1032148 1.6814806-.2572463 2.5009166l-.1004447.4894911h-5.28333372c-.21780579-.9793759-.33955755-1.9880341-.3591593-3.0095923.01629805-.8446039.10321483-1.6814806.25724635-2.50091663l.10044465-.48949107h5.28333372zm2.14040152-7.06726346-.66368.92241031c-1.02621998 1.42628374-1.79708781 3.04699416-2.27451806 4.7778084l-.10124615.36704475h-5.82985381l.35906-.72251634c1.41822629-2.85381734 4.18810923-4.83199692 7.38179202-5.21087539zm1.0040347.00000656 1.1283911.13386289c3.1936907.37887282 5.9635819 2.35705433 7.3818112 5.21087767l.35906.72251634h-5.8312462l-.1011793-.3671677c-.4773095-1.73210003-1.2474585-3.3519517-2.2732206-4.77770142zm-.502037 1.36499439c.9814725 1.27760684 1.7402314 2.72729558 2.2495147 4.27714655l.13269.42511596h-4.76561675c.50578195-1.70783538 1.31186185-3.30743745 2.38341205-4.70226251z" fill-rule="evenodd"/></svg>