<svg height="24" viewBox="0 0 24 24" width="24" xmlns="http://www.w3.org/2000/svg"><path d="m10.6057217 21 1.3580372-3.9124405c.2723853-.784729 1.1293458-1.2000657 1.9140748-.9276804.1683845.0584475.3250394.14636.4626551.2596355.4623417.380567 1.129408.380567 1.5917496 0 .6883623-.5666111 1.7057193-.4679123 2.2723304.22045.0874024.1061831.1608778.2230997.2186409.3479093l1.8568517 4.0121261h1.2199386v1h-12v-1zm1.058529 0h7.5139064l-1.6624673-3.5921169c-.0219815-.0474957-.0499422-.0919879-.0832028-.1323954-.2156214-.2619532-.6027722-.2995126-.8647254-.0838912-.8315315.6844578-2.0312644.6844578-2.8627959 0-.0461183-.0379614-.0986172-.067423-.1550469-.0870102-.2629816-.0912829-.5501697.0479065-.6414526.3108881zm-3.1642507-1v1h-2c-1.93299662 0-3.5-1.5670034-3.5-3.5v-11c0-1.93299662 1.56700338-3.5 3.5-3.5h11c1.9329966 0 3.5 1.56700338 3.5 3.5v10.5h-1v-10.5c0-1.38071187-1.1192881-2.5-2.5-2.5h-11c-1.38071187 0-2.5 1.11928813-2.5 2.5v11c0 1.3807119 1.11928813 2.5 2.5 2.5zm.31122535-6.2767924 1.05325469 3.2767924h1.13551996v1h-1.86448004l-1.94674531-6.056541 3.50518565 1.4960405 2.3969488-3.2883311 2.3969488 3.2883311 3.570091-1.5237426-1.3951258 3.7382216-.9368807-.3496492.5797451-1.5534196-2.1571817.9207019-2.0575967-2.82278-2.0575967 2.82278z" fill-rule="evenodd"/></svg>