<?xml version="1.0" encoding="UTF-8" standalone="no"?>
<!DOCTYPE svg PUBLIC "-//W3C//DTD SVG 1.1//EN" "http://www.w3.org/Graphics/SVG/1.1/DTD/svg11.dtd">
<svg width="100%" height="100%" viewBox="0 0 24 24" version="1.1" xmlns="http://www.w3.org/2000/svg" xmlns:xlink="http://www.w3.org/1999/xlink" xml:space="preserve" xmlns:serif="http://www.serif.com/" style="fill-rule:evenodd;clip-rule:evenodd;stroke-linejoin:round;stroke-miterlimit:2;">
    <path d="M14.71,19.623L14.922,20.751C14.039,21.029 13.138,21.169 12.22,21.169C10.53,21.169 9.156,20.697 8.096,19.755C6.968,18.759 6.404,17.44 6.404,15.8C6.404,14.252 6.939,12.98 8.008,11.984C9.112,10.963 10.511,10.453 12.205,10.453C13.738,10.453 15.005,10.849 16.006,11.64C16.504,12.035 16.893,12.521 17.171,13.097C17.454,13.693 17.596,14.35 17.596,15.067C17.596,16.205 17.266,17.113 16.607,17.792C16.016,18.398 15.35,18.7 14.607,18.7C13.816,18.7 13.382,18.356 13.304,17.668C12.815,18.356 12.156,18.7 11.326,18.7C10.657,18.7 10.127,18.515 9.737,18.144C9.312,17.743 9.1,17.194 9.1,16.496C9.1,16.032 9.195,15.578 9.385,15.133C9.581,14.684 9.849,14.296 10.191,13.969C10.84,13.349 11.675,13.039 12.696,13.039C13.467,13.039 14.188,13.158 14.856,13.398L14.366,16.444C14.317,16.742 14.293,16.959 14.293,17.096C14.293,17.433 14.441,17.602 14.739,17.602C15.13,17.602 15.479,17.375 15.787,16.92C16.163,16.369 16.351,15.714 16.351,14.958C16.351,13.918 15.984,13.107 15.252,12.526C14.441,11.886 13.435,11.566 12.234,11.566C11.307,11.566 10.462,11.786 9.7,12.226C8.982,12.641 8.443,13.202 8.082,13.91C7.793,14.486 7.649,15.126 7.649,15.829C7.649,17.162 8.133,18.219 9.1,19.001C9.949,19.689 11.028,20.033 12.337,20.033C13.084,20.033 13.875,19.897 14.71,19.623ZM13.326,14.159C13.077,14.091 12.874,14.057 12.718,14.057C12.44,14.057 12.164,14.127 11.89,14.269C11.617,14.406 11.382,14.596 11.187,14.84C10.787,15.334 10.586,15.885 10.586,16.496C10.586,16.837 10.674,17.108 10.85,17.309C11.026,17.504 11.265,17.602 11.568,17.602C12.007,17.602 12.371,17.421 12.659,17.06C12.81,16.874 12.93,16.515 13.018,15.983L13.326,14.159ZM5,13L4,13L4,2L14.957,2L20,7.043L20,22L19,22L19,7.457L14.543,3L5,3L5,13Z"/>
</svg>
