<svg height="24" viewBox="0 0 24 24" width="24" xmlns="http://www.w3.org/2000/svg"><path d="m11.5 2c3.3301634 0 6.1148827 2.75991021 6.5873747 6h.5178885c1.3228876 0 2.3947368.77482661 2.3947368 2.1v2.85c0 1.3251734-1.0718492 2.05-2.3947368 2.05h-.5183433c-.3311858 2.2575483-1.7972881 4.5475844-3.8833035 5.4765699-.3538093.904931-1.2306473 1.5234301-2.2299322 1.5234301h-.9473684c-1.32288761 0-2.39473685-1.0748266-2.39473685-2.4s1.07184924-2.4 2.39473685-2.4h.9473684c.8600545 0 1.6301528.4582487 2.0535053 1.1641782 1.3444727-.8572697 2.1833368-2.354429 2.1833368-3.9891782v-5.7c0-2.60985545-2.1092854-4.725-4.7105263-4.725-2.60124089 0-4.71052632 2.11514455-4.71052632 4.725v6.325h-2.39473684c-1.32288759 0-2.39473684-.7248266-2.39473684-2.05v-2.85c0-1.32517339 1.07184925-2.1 2.39473684-2.1h.51788851l.03867347-.53566302c.56998293-3.12295903 3.29976125-5.46433698 6.54870118-5.46433698z" fill-rule="evenodd"/></svg>