<svg height="24" viewBox="0 0 24 24" width="24" xmlns="http://www.w3.org/2000/svg"><g transform="translate(4 4)" fill="none" fill-rule="evenodd"><path d="m12 0c1.6568542 0 3 1.34314575 3 3v7c0 1.639035-1.3144104 2.971073-2.9466524 2.9995352l.9996524 3.0004648h-2.107l-1-3h-3.893l-1 3h-2.108l1.001-3.002-.12227279-.0030927c-1.57480725-.0912464-2.82372721-1.3972264-2.82372721-2.9949073v-7c0-1.65685425 1.34314575-3 3-3zm1.0004835 8.0120966c-1.6644544.44164116-3.33182216.6629034-5.0004835.6629034-1.66832747 0-3.33536192-.22117371-4.99948444-.66263833l-.00051556 1.98763833c0 .5128358.38604019.9355072.88337887.9932723l.11662113.0067277h8c.5128358 0 .9355072-.3860402.9932723-.8833789l.0067277-.1166211zm-9.28826483.63902871 2 .5-.42443734 1.69774939-2-.5zm8.57556263 0 .4244374 1.69774939-2 .5-.4244374-1.69774939zm-.2877813-6.65112531h-8c-.51283584 0-.93550716.38604019-.99327227.88337887l-.00672773.11662113v3.19585254c1.6696943.48648732 3.33562589.72914746 5 .72914746 1.66470645 0 3.330971-.24275706 5.0009351-.72943891l-.0009351-3.19556109c0-.51283584-.3860402-.93550716-.8833789-.99327227z" fill="#000" fill-rule="nonzero"/></g></svg>