<svg height="24" viewBox="0 0 24 24" width="24" xmlns="http://www.w3.org/2000/svg"><path d="m23 5v13h-22v-13zm-14.35283676 7.9859588-1.14879421 1.0918128-1.14740261-1.0921473-.65743672.0442562c-.15317131.0099801-.15317131.0099801-.3082118.0196651-.08751722.0054658-.08751722.0054658-.17546463.0110311-.19783289.0126013-.34712418.0229936-.4937716.0347871-.20145372.0184127-.39360787.0656336-.57556351.1405615-.12901541.0541918-.24882662.1214743-.35911203.2012897-.30971692.230188-.53751227.5446153-.65781066.9046188-.07773861.2311184-.11890681.473989-.12168924.7188123-.00057989.2192805-.00099429.4285593-.00124388.6279408l-.00001288.8307608c.00024336.1699237.00065054.3301064.00122087.4806523h.5000036l.49999639-.0018998c-.00056982-.1499694-.00097684-.309623-.001221-.4789582l.00000065-.8273508c.00024448-.1983742.00065188-.4064261.00122224-.6241531.00156339-.1358783.02514685-.2750083.06985775-.4079364.05577348-.166904.16077069-.3118323.3011176-.416164.04318582-.0312039.09623505-.0609948.15173066-.0843112.08623474-.035497.18077019-.0587286.27716947-.0675542.13462495-.0107959.27890026-.020839.47167344-.0331181.08691341-.0054998.08691341-.0054998.1742337-.0109534.15572418-.0097271.15572418-.0097271.31263454-.0199513l.21947071-.0147739 1.51808569 1.4449796 1.51996231-1.4445708c.06303979.0041499.13729728.0089959.23480183.0153396l.0746504.0048576c.05892396.0038369.08244185.0053816.17651342.0115603.28156236.0185826.49243656.0334579.69797206.0496656.0976281.0097695.1902261.0316905.2711929.0656461.0551123.0231555.1076976.052729.1548701.0870845.1449163.1052706.2550513.2683445.3132941.4643111.0306469.1017812.0480639.2142446.0543029.3453454.0042688.1492966.0054225.4762626.0040592.9581541l-.0003403.1045824c-.0000943.0286234-.0001736.0521106-.0002502.0737653l-.0005261.1343679-.0004237.100247c-.00039.0858932-.0007153.1584906-.0009839.2205931l-.0008525.2180758c-.0000582.0184605-.0001052.0353476-.0001419.0510117l-.0001064.0821081h1l.0001049-.0804027c.0000364-.0153947.0000828-.0320232.0001405-.0502406l.0008476-.2164408c.0002677-.0618913.0005923-.1343982.0009823-.2203609.0001718-.0404843.0003092-.0728716.0004247-.100478l.0005276-.1347923c.0001539-.043491.0003187-.0943844.0005934-.1792068l.0004013-.1777118c.0006436-.3969137-.0008057-.6697452-.0052341-.8216131-.0102566-.2173022-.0400072-.4094051-.0954825-.5936235-.1183328-.3981597-.3542775-.7475168-.6831203-.9863945-.1095374-.0797763-.2297369-.1473754-.3560404-.2004416-.1784129-.0748223-.3674848-.1195819-.5696558-.1396044-.220521-.0174899-.43524893-.032637-.72070057-.0514763-.12621423-.0082899-.12621423-.0082899-.2520994-.0164792-.22616424-.0147148-.32598968-.0212883-.45115775-.0298248zm10.47783676 1.0140412h-6.125v1h6.125zm-11.55237359-6.99961764-.12898811-.00038236c-.13887173.00505144-.23923454.01307979-.33965888.02775757-.21595901.03187152-.42451995.09052597-.62042952.17578367-.15425442.06677885-.30223789.15178179-.440877.25261408-.1898046.13931688-.35624747.30457806-.49562796.49164166-.37038445.49510983-.54782369 1.12516035-.54782369 1.80131548-.00041569.18241607.013159.36578754.04062704.54732584.07888269.5124283.27480359.9810883.58639512 1.3552289.2738884.3286171.63275864.575355 1.03740507.7133062.26408394.0903202.54614284.1348263.83445893.1348263.28114783.0014706.56334628-.0437761.83252615-.134004.40703456-.1390099.76561634-.3857008 1.03922245-.71399.31170693-.3742791.50762783-.8429391.58631626-1.3540946.02745776-.1785856.04080145-.36159404.04080145-.54859864 0-.67615513-.1774194-1.30620565-.54837741-1.80208373-.06356465-.08523009-.13281912-.16631581-.20663077-.24143552-.20680321-.21292295-.4560078-.3845338-.73129602-.50291519-.19391418-.08439448-.40247512-.14304893-.61774354-.17481903-.10042403-.01476074-.20077958-.02279978-.32029957-.02747663zm11.55237359 3.99961764h-6.125v1h6.125zm-11.58314109-3.00004772c.08280753.00341227.14734344.00870698.20535554.01723379.12920931.01906927.2526735.0537916.36641093.10328889.15628734.06721294.29597333.16340551.41303482.28392434.0436436.0444289.08347563.09106573.12076306.14106172.23101751.30881352.34955046.72974689.34955046 1.20365144 0 .13723987-.00964629.26953854-.02917306.39654084-.0523249.3398995-.17758379.6395298-.36624475.8660626-.15605737.1872471-.3607032.3280358-.59143482.4068398-.16230298.0543947-.33527581.0821285-.50927886.081223-.18368075 0-.3565329-.0272823-.51404857-.0811546-.23129647-.0788533-.43604075-.2196233-.59225535-.4070529-.18854037-.2263881-.31379926-.5260184-.36613834-.8660101-.01966278-.1299638-.02947617-.26252638-.02917473-.39525871 0-.47509448.1185488-.89602785.34912943-1.20425647.0806498-.10823916.17626619-.2031767.28427663-.28245994.07814641-.05682997.16224744-.1051383.24908244-.14273092.11461313-.04987739.23807732-.08459972.36757729-.1037118.05993124-.00875891.12703261-.01412657.21389745-.01752562zm13.45814109.00004772h-8v1h8z" fill-rule="evenodd"/></svg>