<svg height="24" viewBox="0 0 24 24" width="24" xmlns="http://www.w3.org/2000/svg"><path d="m5.75 13.0282368v.0207632l.00355378-.002553 2.64644661 2.6464466 2.64644661-2.6464466.002553.002553.001-.0160915c2.2245356.270105 3.95 2.1697392 3.95 4.4670915v4.500017h-1v-4.500017c0-1.6231092-1.1079063-2.9913076-2.607367-3.3856338l-2.99263261 2.992741-2.9999037-2.9994599c-1.47297228.3824839-2.4944327 1.7401697-2.39312059 3.3611636l-.0069761 4.5312061h-1l.00892353-4.4688279c-.1451948-2.3231167 1.50202092-4.2496184 3.74107647-4.5029523zm12.6104758-.0282368c2.1633766 0 3.8193557 1.7655023 3.6844553 3.9239094l-.0449311 5.0760906h-1l.0468785-5.1384689c.0989419-1.58307-1.1002097-2.8615311-2.6864027-2.8615311h-1.153369l-1.3535534 1.3535534-.7071068-.7071068 1.5-1.5.1535534-.1464466zm-9.8604758-10c2.4852814 0 4.5 2.01471863 4.5 4.5s-2.0147186 4.5-4.5 4.5c-2.48528137 0-4.5-2.01471863-4.5-4.5s2.01471863-4.5 4.5-4.5zm6 9-.2926673-.0093834c-.3882669-.0249667-.7681054-.0995332-1.1322705-.22103l-.270072-.0998803.3768696-.9262663c.3455327.1405867.7123023.2250289 1.0901694.2492711l.2279708.0072889c1.9329966 0 3.5-1.56700338 3.5-3.5 0-1.8685634-1.4642776-3.39512645-3.3079648-3.49482114l-.1920352-.00517886c-.3601446 0-.7122365.0542557-1.0477954.15939271l-.2484367.08834027-.3705619-.92880777c.525852-.20979662 1.089164-.31892521 1.666794-.31892521 2.4852814 0 4.5 2.01471863 4.5 4.5 0 2.41427333-1.9012365 4.3844891-4.2881643 4.495102l-.2118357.004898-.2926673-.0093834zm-6-8c-1.93299662 0-3.5 1.56700338-3.5 3.5s1.56700338 3.5 3.5 3.5c1.9329966 0 3.5-1.56700338 3.5-3.5s-1.5670034-3.5-3.5-3.5z" fill-rule="evenodd"/></svg>