<svg height="24" viewBox="0 0 24 24" width="24" xmlns="http://www.w3.org/2000/svg"><path d="m14.9236989 8.65437613.7698125.63827009-4.0063985 4.83208558-2.33613037-2.2577784.69494557-.7190623 1.560158 1.5078315zm-7.9236989-4.65437613v1h-2v16h14v-16h-2v-1h3v18h-16v-18zm7-2v1h2v3h-8v-3h2v-1zm-1 1h-2v1h-2v1h6v-1h-2zm-4.4332687 14c-.31299705 0-.5667313-.2238576-.5667313-.5s.25373425-.5.5667313-.5h6.8665374c.3129971 0 .5667313.2238576.5667313.5s-.2537342.5-.5667313.5zm0 2c-.31299705 0-.5667313-.2238576-.5667313-.5s.25373425-.5.5667313-.5h6.8665374c.3129971 0 .5667313.2238576.5667313.5s-.2537342.5-.5667313.5z" fill-rule="evenodd"/></svg>