<svg height="24" viewBox="0 0 24 24" width="24" xmlns="http://www.w3.org/2000/svg"><path d="m7.34272793 18.5797559-.16243992.9867185c-2.91392167-.4797085-5.08028801-3.0084659-5.08028801-5.9927775 0-3.3544102 2.71928672-6.0736969 6.07369689-6.0736969 1.74597908 0 3.37365031.74140202 4.51814341 2.01453782l-.7436801.66853568c-.9567785-1.06432183-2.3151836-1.6830735-3.77446331-1.6830735-2.80212542 0-5.07369689 2.2715715-5.07369689 5.0736969 0 2.4927775 1.8100049 4.6055685 4.24272793 5.006059zm1.65727207-12.45473326h-1v-3.12502264h13v13h-2l-.3463664-1.007733 1.3463664.007733v-11h-11zm5 2.87497736 6.5 12h-13zm0 2.0995914-4.82105466 8.9004086h9.64210936z" fill-rule="evenodd"/></svg>