<svg height="24" viewBox="0 0 24 24" width="24" xmlns="http://www.w3.org/2000/svg"><path d="m12.1252013 4.63991988.1175405-.01592484c.346316-.04692024.6986917-.07298187 1.077851-.07784785.3514727.00486598.7038485.03092761 1.0501645.07784785l.7200123.09755005.5104419 2.81416043 2.3508446-1.62830405.5779263.43968139c.6261422.47636357 1.1843152 1.03482039 1.6628506 1.66268595l.4408179.578378-1.6306386 2.35168339 2.8166469.5096691.0969306.7212467c.1048803.7803996.1048803 1.5689914 0 2.3493911l-.0969306.7212467-2.816171.509583 1.6300671 2.3518948-.4407223.5782527c-.4778383.6269509-1.0358095 1.1846385-1.6628506 1.6616859l-.5779263.4396814-2.3508079-1.6282786-.5107179 2.8167176-.7218666.0962488c-.1543035.0205739-.4374015.044645-.8735267.0753094l-.1028374.001928c-.018505-.0006055-.1525951-.0006055-.1711002 0l-.1028373-.001928c-.4361252-.0306644-.7192232-.0547355-.8735268-.0753094l-.7218666-.0962488-.5107178-2.8167176-2.35080789 1.6282786-.57792636-.4396814c-.62704111-.4770474-1.18501233-1.034735-1.66285061-1.6616859l-.44072228-.5782527 1.63006713-2.3518948-2.81617105-.509583-.09693055-.7212467c-.10442813-.7770351-.10487835-1.5621919-.00135066-2.3392971l-4.60977219-4.60977219 7.48528137-7.48528137zm-6.50331317 8.46724962c-.0130473.4270688.00898968.8547408.06611093 1.279772l2.719.492.037.113c.08.242.178.478.293.706l.053.106-1.574 2.271c.423.555.917 1.049 1.473 1.472l2.27100004-1.573.106.053c.227.115.463.212.706.293l.112.037.493 2.719c.1263308.0168442.3968311.0398442.8115009.069.0402988-.0013184.1962002-.0013184.2364991 0 .4146698-.0291558.6851701-.0521558.8115009-.069l.493-2.719.112-.037c.243-.081.479-.178.706-.293l.106-.053 2.271 1.573c.556-.423 1.05-.917 1.473-1.472l-1.574-2.271.053-.106c.115-.228.213-.464.293-.706l.037-.113 2.719-.492c.093-.692.093-1.391 0-2.083l-2.719-.492-.037-.114c-.08-.242-.178-.478-.293-.706l-.053-.106 1.574-2.26999995c-.423-.555-.917-1.05-1.473-1.473l-2.271 1.573-.106-.053c-.228-.115-.463-.212-.706-.292l-.112-.038-.493-2.718c-.3072767-.04163104-.6194659-.06459443-.9297505-.06889019-.0889376.00123131-.1780317.00399631-.2671218.00829501l1.1025079 1.10250788-2.1213203 2.12132034.3579325.35793249c.2466836-.05157695.5018879-.08224376.7635912-.08995989 2.2046714.06642365 3.9759101 1.83360391 3.9759101 3.99981671 0 .7307035-.2014741 1.416189-.5545216 2.0063105-.1094587.8235688-.7870384 1.4666658-1.6263713 1.5229232-.5495084.2847474-1.1745054.4531566-1.8408806.4709496-2.2023481-.059968-3.97822654-1.8307902-3.97822654-4.0001833 0-.215615.01754821-.4272766.05137288-.6337013l-.39144735-.3914473-2.12132034 2.1213203zm7.15370447 2.9110637-1.1662621-1.166262-.0132056-1.663575-1.4751892-.0164786c.0622583 1.4563314 1.1993089 2.6477282 2.6546569 2.8463156zm.5237646-5.9615167 2.8136509 2.8136509c-.08878-1.483743-1.2949535-2.6818635-2.8136509-2.8136509zm-2.9534157 2.1176522 2.2423643.0250482.0177421 2.2350581.9218742.9218742 1.2873773.2228454c.4230825.001192.7650872-.3408127.7638952-.7638952l-.2228454-1.2873773-4.7497475-4.74974751 2.1213204-2.12132034-5.15685429-5.15685425-6.07106781 6.07106781 5.15685425 5.15685429 2.12132034-2.1213204zm-2.07354273-3.90196993c-.78015217.78015217-2.0464745.77656541-2.82841834-.00537843s-.7855306-2.04826617-.00537843-2.82841834 2.0464745-.77656541 2.82841834.00537843.7855306 2.04826617.00537843 2.82841834zm-.70779164-.70779164c.38941659-.38941659.38762321-1.02257902-.00400563-1.41420786-.39162885-.39162884-1.02479127-.39342222-1.41420786-.00400563s-.38762321 1.02257901.00400563 1.41420786c.39162884.39162884 1.02479127.39342222 1.41420786.00400563z" fill-rule="evenodd"/></svg>