<svg height="24" viewBox="0 0 24 24" width="24" xmlns="http://www.w3.org/2000/svg"><path d="m15.1459522 1.00381658 2.436726 2.436726-.6314737.70502714c-.4088624.45648633-.637496 1.04714544-.637496 1.66813878 0 1.38071187 1.1192881 2.5 2.5 2.5.5519941 0 1.0800204-.18064875 1.5111497-.50795006l.1569891-.12954594.7050271-.6314737 2.454398 2.45439795-5.9392724 5.71186325-8.20744194 8.4256937-2.44981926-2.4498193.6314737-.7050271c.40886243-.4564863.637496-1.0471455.637496-1.6681388 0-1.3807119-1.11928813-2.5-2.5-2.5-.55199408 0-1.08002038.1806487-1.51114975.5079501l-.15698903.1295459-.70502714.6314737-2.43793085-2.4379308 7.58538827-7.6417474 1.002-1.004zm-5.1439522 7.91318342-5.576 5.617.13333441-.0424107c.24193278-.0701396.49054463-.1201488.74347063-.1489338l.25427645-.0216697.25662701-.0072773c2.48528137 0 4.5 2.0147186 4.5 4.5 0 .3435028-.0390281.6821389-.1144918 1.0103025l-.063389.2440716-.0218277.0669174 5.48-5.626zm4.534-4.497-3.117 3.083 5.595 5.595 3.093-2.975-.0389174.0128277c-.2419328.0701396-.4905446.1201488-.7434706.1489338l-.2542765.0216697-.256627.0072773c-2.4852814 0-4.5-2.01471863-4.5-4.5 0-.3435028.0390281-.68213891.1144918-1.01030254l.063389-.24407155z" fill-rule="evenodd"/></svg>