<svg height="24" viewBox="0 0 24 24" width="24" xmlns="http://www.w3.org/2000/svg"><path d="m12 2c4.418278 0 8 3.581722 8 8 0 4.0792885-3.0531957 7.445465-6.9990449 7.9379871l-.0009551 1.0620129h6.5v3h-15v-3h6.5l.0000487-1.0618877c-3.86569526-.4820213-6.87487609-3.7220991-6.99624188-7.688933l-.00380682-.2491793c0-4.418278 3.581722-8 8-8zm2.7928932 3.79289322-2.275852 2.27458235c-.1649266-.04401345-.338244-.06747557-.5170412-.06747557-1.1045695 0-2 .8954305-2 2s.8954305 2 2 2 2-.8954305 2-2c0-.17879722-.0234621-.35211457-.0674756-.51704125l2.2745824-2.27585197z" fill-rule="evenodd"/></svg>