<svg height="24" viewBox="0 0 24 24" width="24" xmlns="http://www.w3.org/2000/svg"><path d="m21 1.58578644 1.4142136 1.41421356-7.7062563 7.7072705c.1872131.3914613.2920427.829853.2920427 1.2927289.000572.7974096-.3150876 1.5602553-.8774158 2.1225835-.5623282.5623281-1.3251741.8779876-2.1204269.8774165-.4638683 0-.9030426-.1050061-1.2950671-.2925154l-7.7070902 7.7067296-1.41421356-1.4142136 7.70677576-7.706285c-.18755626-.3917115-.2925622-.830451-.2925622-1.2937156 0-1.656855 1.3431452-3.00000005 3-3.00000005.4632648 0 .9020044.10500593 1.2937159.29251502zm-2.3572403 6.60030853c1.3495209.98697027 2.5023136 2.27887633 3.3572403 3.81502423-2.0693758 3.7135458-5.8789781 5.9988805-10 5.9988805-.9594826 0-1.9020838-.1238837-2.80977037-.3608333l1.77490617-1.7743263c.3300874.0881615.6769873.1351599 1.0348642.1351599 1.0610994.0007632 2.078959-.4204187 2.8292701-1.1707299.7503112-.7503111 1.1714931-1.7681707 1.1707299-2.8292701 0-.3578769-.0469984-.7047768-.1351599-1.0348642zm-6.6427597-2.1860953c.9600772-.00023183 1.9032552.12364924 2.8114495.3607906l-1.7755844 1.77463709c-.3303871-.08833387-.6776265-.13542736-1.0358651-.13542736-2.20913923 0-4 1.79086077-4 4 0 .3586005.04718868.7061795.13569516 1.0368662l-2.77754074 2.7773222c-1.34953551-.9865046-2.50257983-2.2777196-3.35815442-3.8130692 2.06780887-3.71547658 5.87816214-6.00211486 10-6.00111953z" fill-rule="evenodd"/></svg>