<svg height="24" viewBox="0 0 24 24" width="24" xmlns="http://www.w3.org/2000/svg"><path d="m6.88754212 7h15.23539198l-2.2218331 10h-11.8021868l-3.01665248-13h-3.08226172v-1h3.85734597zm3.11245788 15c-1.1045695 0-2-.8954305-2-2s.8954305-2 2-2 2 .8954305 2 2-.8954305 2-2 2zm8 0c-1.1045695 0-2-.8954305-2-2s.8954305-2 2-2 2 .8954305 2 2-.8954305 2-2 2zm-10.87669197-14 1.77777777 8h10.1978132l1.7774664-8zm2.87669197 13c.5522847 0 1-.4477153 1-1s-.4477153-1-1-1c-.55228475 0-1 .4477153-1 1s.44771525 1 1 1zm8 0c.5522847 0 1-.4477153 1-1s-.4477153-1-1-1-1 .4477153-1 1 .4477153 1 1 1z" fill-rule="evenodd"/></svg>