<svg width="24" height="24" viewBox="0 0 24 24" fill="none" xmlns="http://www.w3.org/2000/svg">
<path fill-rule="evenodd" clip-rule="evenodd" d="M4.5 2H4V2.5V13H5V3H14.5429L19 7.45711V13H20V7.25V7.04289L19.8536 6.89645L15.1036 2.14645L14.9571 2H14.75H4.5ZM5.23935 21L5.84115 19.3149H8.04916L8.65512 21H9.75082L7.52621 15.1189H6.3807L4.2059 21H5.23935ZM7.27304 17.1152L7.76693 18.5098H6.11923L6.61312 17.1152C6.75147 16.7306 6.86215 16.3931 6.94516 16.1025C7.04753 16.4456 7.15683 16.7832 7.27304 17.1152ZM10.9001 15.1189V21H11.9294V18.6509H12.4026C12.7927 18.6509 13.1095 18.6246 13.353 18.572C13.5965 18.5194 13.8096 18.4309 13.9922 18.3064C14.4543 17.9937 14.6853 17.5192 14.6853 16.8828C14.6853 16.252 14.4653 15.7816 14.0254 15.4717C13.84 15.3389 13.6214 15.2476 13.3696 15.1978C13.1178 15.1452 12.7664 15.1189 12.3154 15.1189H10.9001ZM12.2449 17.8457H11.9128V15.9241H12.2947C12.7485 15.9241 13.0694 15.9863 13.2576 16.1108C13.5094 16.2741 13.6353 16.5411 13.6353 16.9119C13.6353 17.3048 13.4969 17.569 13.2202 17.7046C13.0293 17.7987 12.7042 17.8457 12.2449 17.8457ZM15.9218 15.1189V21H16.9511V18.6509H17.4242C17.8144 18.6509 18.1312 18.6246 18.3747 18.572C18.6182 18.5194 18.8312 18.4309 19.0138 18.3064C19.4759 17.9937 19.7069 17.5192 19.7069 16.8828C19.7069 16.252 19.487 15.7816 19.047 15.4717C18.8616 15.3389 18.6431 15.2476 18.3913 15.1978C18.1395 15.1452 17.7881 15.1189 17.3371 15.1189H15.9218ZM17.2665 17.8457H16.9345V15.9241H17.3163C17.7701 15.9241 18.0911 15.9863 18.2792 16.1108C18.531 16.2741 18.6569 16.5411 18.6569 16.9119C18.6569 17.3048 18.5185 17.569 18.2419 17.7046C18.0509 17.7987 17.7258 17.8457 17.2665 17.8457Z" fill="black"/>
</svg>
