<svg height="24" viewBox="0 0 24 24" width="24" xmlns="http://www.w3.org/2000/svg"><path d="m16.6432677 4.60620247c-.2141363.21441335-.3681593.46594734-.4640082.73382551 0 0-.3401803 1.03577711-1.509758-.13075336l-3.2098287-3.20927462-2.61922237 2.61922241c-1.17401 1.17401-.13490865 1.51557543-.13490865 1.51557543.26787817.09474078.51941217.24904082.73382551.46345416.76734491.76706789.76734491 2.01144092 0 2.77850881l-.00027702.00055404c-.76762193.76706785-2.01144092.76706785-2.77906285 0-.21441334-.21469036-.3689904-.46622436-.46345416-.73437955 0 0-.34156543-1.03882433-1.51585245.13518567l-2.68072081 2.68099783 3.20511933 3.2045653c1.17401 1.17401.13490865 1.5158524.13490865 1.5158524-.26815519.0952949-.51941216.2484868-.73410253.4637312-.76706788.7676219-.76706788 2.0111639 0 2.7785088h.00027702c.76734491.767622 2.01171794.768176 2.77850881 0 .21469036-.2135823.3689904-.4653933.46373118-.7332714 0 0 .34156544-1.0388244 1.51585246.1351856l3.17603228 3.1763093 2.6804437-2.6809978c1.173733-1.17401.1357398-1.5161295.1357398-1.5161295-.2678782-.0955718-.5199662-.2487638-.7332715-.4634542-.7676219-.7673449-.7676219-2.0117179-.0008311-2.7785088l.0008311-.000554c.7676219-.7676219 2.0114409-.7676219 2.7785088 0 .2138593.2135823.3684364.4653933.4631771.7332715 0 0 .3410114 1.0393783 1.5158525-.1343547l2.6192224-2.6192224-3.1804646-3.1801875c-1.1659764-1.17068576-.1299223-1.51114312-.1299223-1.51114312.2684322-.09446376.5196892-.24904082.7335485-.46317714.767622-.76762193.767622-2.01144092 0-2.77906285h-.0011081c-.7670678-.76789894-2.0106098-.76789894-2.7787858-.00027702z" fill-rule="evenodd"/></svg>