<svg width="24" height="24" viewBox="0 0 24 24" fill="none" xmlns="http://www.w3.org/2000/svg">
<path fill-rule="evenodd" clip-rule="evenodd" d="M15.0001 2H4.00012V13H6.00012H18.0001H20.0001V7L15.0001 2ZM5.25537 17.9827L3.08057 21H4.64527L6.0315 19.0369L7.42603 21H9.02393L6.86157 18.0159L8.99903 15.1189H7.48413L6.0979 17.0364L4.72827 15.1189H3.18848L5.25537 17.9827ZM9.54306 15.1189V21H10.7674V16.2395C10.903 16.7458 11.0206 17.1526 11.1202 17.4597L12.2657 21H13.4029L14.5816 17.3601C14.7034 16.9893 14.8113 16.6158 14.9054 16.2395V21H16.1795V15.1189H14.2372L13.2079 18.2981C13.1083 18.6052 12.9934 19.0009 12.8634 19.4851C12.7333 18.9954 12.6199 18.5997 12.523 18.2981L11.5062 15.1189H9.54306ZM17.2382 15.1189V21H21.0898V19.9624H18.5622V15.1189H17.2382Z" fill="black"/>
</svg>
