<svg height="24" viewBox="0 0 24 24" width="24" xmlns="http://www.w3.org/2000/svg"><path d="m20.8478261 13.0498288 2.2366823-2.8579829c.1701888-.21746353.4844431-.25578723.7019066-.0855984.2174635.1701888.2557872.4844431.0855984.7019066l-3.1304348 4c-.200187.2557945-.587318.2557945-.787505 0l-3.1304348-4c-.1701888-.2174635-.1318651-.5317178.0855984-.7019066.2174635-.17018883.5317178-.13186513.7019066.0855984l2.2366823 2.8579829v-1.5498288c0-4.13726299-3.508943-7.5-7.8478261-7.5-2.14537235 0-4.15112478.82599852-5.61857934 2.26395733-.19723428.19326989-.51380046.19005611-.70707035-.00717817-.19326988-.19723428-.19005611-.51380046.00717818-.70707035 1.65360347-1.62036614 3.91030402-2.54970881 6.31847151-2.54970881 4.881871 0 8.8478261 3.80070699 8.8478261 8.5zm-16.69565219-2.0996576v1.5498288c0 4.137263 3.50894297 7.5 7.84782609 7.5 2.1453724 0 4.1511248-.8259985 5.6185793-2.2639573.1972343-.1932699.5138005-.1900561.7070704.0071781.1932699.1972343.1900561.5138005-.0071782.7070704-1.6536035 1.6203661-3.910304 2.5497088-6.3184715 2.5497088-4.88187096 0-8.84782609-3.800707-8.84782609-8.5v-1.5498288l-2.23668228 2.8579829c-.17018883.2174635-.48444313.2557872-.70190663.0855984-.2174635-.1701888-.2557872-.4844431-.08559837-.7019066l3.13043478-4.00000003c.200187-.25579449.58731801-.25579449.787505 0l3.13043479 4.00000003c.17018882.2174635.13186513.5317178-.08559837.7019066s-.53171781.1318651-.70190663-.0855984zm6.84782609 3.0498288h1v2h-1zm0-7h1v6h-1z" fill-rule="evenodd"/></svg>