<svg height="24" viewBox="0 0 24 24" width="24" xmlns="http://www.w3.org/2000/svg"><path d="m6.48550424 13.4425071 3.57174366-2.2256023v-6.2169048h1v6.7830952l-4.0572479 2.5169048zm14.61449576-3.2424777c.1656854-.22091387.4790861-.2656854.7-.1.2209139.1656855.2656854.4790861.1.7l-3 4c-.2.2666667-.6.2666667-.8 0l-3-4c-.1656854-.2209139-.1209139-.5343145.1-.7.2209139-.1656854.5343146-.12091387.7.1l2.1 2.8v-1.5000294c0-4.14213562-3.3578644-7.5-7.5-7.5-4.14213562 0-7.5 3.35786438-7.5 7.5 0 4.1421356 3.35786438 7.5 7.5 7.5 2.0459732 0 3.9599924-.8224919 5.3623716-2.2564308.1930775-.1974226.5096404-.200945.707063-.0078675s.200945.5096404.0078675.707063c-1.5886347 1.624386-3.7594663 2.5572353-6.0773021 2.5572353-4.69442037 0-8.5-3.8055796-8.5-8.5 0-4.69442037 3.80557963-8.5 8.5-8.5 4.526573 0 8.2267293 3.53831026 8.4855382 8h.0144618v2.0000294z" fill-rule="evenodd"/></svg>