<?xml version="1.0" encoding="UTF-8" standalone="no"?>
<!DOCTYPE svg PUBLIC "-//W3C//DTD SVG 1.1//EN" "http://www.w3.org/Graphics/SVG/1.1/DTD/svg11.dtd">
<svg width="100%" height="100%" viewBox="0 0 24 24" version="1.1" xmlns="http://www.w3.org/2000/svg" xmlns:xlink="http://www.w3.org/1999/xlink" xml:space="preserve" xmlns:serif="http://www.serif.com/" style="fill-rule:evenodd;clip-rule:evenodd;stroke-linejoin:round;stroke-miterlimit:2;">
    <path d="M4,2L14.957,2L15.104,2.146L19.854,6.896L20,7.043L20,22L11,22L11,21L19,21L19,7.457L14.543,3L5,3L5,13L4,13L4,2ZM5.239,19.922L5.694,17.876C5.878,17.051 6.56,16.43 7.399,16.325L7.448,16.319C8.743,16.157 9.843,17.257 9.681,18.552L9.675,18.601C9.57,19.44 8.949,20.122 8.124,20.306L6.078,20.761L5,21L5.239,19.922ZM6.317,19.683L7.907,19.33C8.32,19.238 8.63,18.897 8.683,18.477L8.689,18.427C8.77,17.781 8.22,17.23 7.572,17.311L7.523,17.318C7.103,17.37 6.762,17.68 6.67,18.093L6.317,19.683ZM11,17L10.293,16.293L9.707,15.707L9,15L9.707,14.293L14.5,9.5C15.052,8.948 15.948,8.948 16.5,9.5C17.052,10.052 17.052,10.948 16.5,11.5L11,17ZM15.207,10.207L10.414,15L11,15.586L15.793,10.793C15.955,10.631 15.955,10.369 15.793,10.207C15.631,10.045 15.369,10.045 15.207,10.207Z"/>
</svg>
