<svg height="24" viewBox="0 0 24 24" width="24" xmlns="http://www.w3.org/2000/svg"><path d="m13 2 .0010997.04948449c5.0527956.50223376 8.9989003 4.76554356 8.9989003 9.95051551 0 5.5228475-4.4771525 10-10 10s-10-4.4771525-10-10 4.4771525-10 10-10zm-1 1c-4.97056275 0-9 4.02943725-9 9 0 4.9705627 4.02943725 9 9 9 2.1853658 0 4.1888099-.7788998 5.7478638-2.074231l-2.7286052-2.939941c-.8389353.6364799-1.8849896 1.014172-3.0192586 1.014172-2.76142375 0-5-2.2385763-5-5 0-2.76142375 2.23857625-5 5-5zm5 9c0 1.2671364-.4713598 2.4241808-1.2483041 3.3053581l2.7291595 2.9395347c1.5598488-1.6184134 2.5191446-3.8196253 2.5191446-6.2448928zm-5-4c-2.209139 0-4 1.790861-4 4s1.790861 4 4 4 4-1.790861 4-4-1.790861-4-4-4zm1.0006955-4.94499431.0004909 4.0452534c1.9585043.39805182 3.5010946 1.9409073 3.8987573 3.89955291l4.045161.0004912c-.4609962-4.17152748-3.7730189-7.48384627-7.9444092-7.94529751z" fill-rule="evenodd"/></svg>