<svg height="24" viewBox="0 0 24 24" width="24" xmlns="http://www.w3.org/2000/svg"><path d="m15.4645556 19h-6.92911117c-.00339482-.0237335-.00655153-.0475439-.00946765-.0714286h-6.52597678l3-3.4857203v-4.4428511c0-3.52979415 2.61262154-6.44937784 6.0095896-6.93047605-.0063217-.0227217-.0095896-.04593201-.0095896-.06952395v-2c0-.27614237.4477153-.5 1-.5s1 .22385763 1 .5v2c0 .02359194-.0032679.04680225-.0095896.06952395 3.3969681.48109821 6.0095896 3.4006819 6.0095896 6.93047605v4.3382679l3.0900099 3.5903035h-6.6159867c-.0029161.0238847-.0060728.0476951-.0094676.0714286zm-.3013712 1c-.5617319 1.1824737-1.7669864 2-3.1631844 2s-2.60145245-.8175263-3.16318442-2z" fill-rule="evenodd"/></svg>