<svg height="24" viewBox="0 0 24 24" width="24" xmlns="http://www.w3.org/2000/svg"><path d="m14 8.94087397 6.6995145 12.05912603h-13.39902896zm-6-1.44087397c1.35594271 0 2.6442569.45247696 3.6879779 1.26694523l.2198463.18003662-1.3031663 1.51715445c-.72050242-.61887862-1.63456086-.9641363-2.6046579-.9641363-2.209139 0-4 1.790861-4 4 0 1.7516622 1.13599616 3.2787354 2.76511802 3.8060768l.19012745.0563663-.52073139 1.9310201c-2.59768931-.7005097-4.43451408-3.0647776-4.43451408-5.7934632 0-3.3137085 2.6862915-6 6-6zm6 5.559-3.301 5.941h6.601zm7-10.059v13h-2v-11.001h-9v1.501h-2v-3.5z" fill-rule="evenodd"/></svg>