<svg height="24" viewBox="0 0 24 24" width="24" xmlns="http://www.w3.org/2000/svg"><path d="m14 20v1h-4v-1zm1-2v1h-6v-1zm0-2v1h-6v-1zm-3-14c3.3137085 0 6 2.6862915 6 6 0 2.10873-1.0977838 4.0221197-2.8413625 5.1023444l-.1586375.0926556v1.8051481l-1-.000241.0004469-2.4057628.2723225-.1392373c1.6603304-.8489201 2.7272306-2.55667316 2.7272306-4.454907 0-2.76142375-2.2385763-5-5-5-2.76142375 0-5 2.23857625-5 5 0 1.81949504.98022789 3.463968 2.52367177 4.3448572l.20447853.1105199.2725622.1392886-.0007125 2.4054824-1-.0002962v-1.8038519l-.15766551-.0930527c-1.67435643-1.0368966-2.75344398-2.8420434-2.83709201-4.85082929l-.00524248-.25211801c0-3.3137085 2.6862915-6 6-6z"/></svg>