<svg height="24" viewBox="0 0 24 24" width="24" xmlns="http://www.w3.org/2000/svg"><path d="m12.5734616 5.08818026c.2416095-.02464827.4874316-.03872171.7402096-.04208098.3314028.00458812.6636733.02916277.9899574.07336901l.3600062.04877503.5055511 2.78719643c.1501239.05475242.2971355.11553893.4409284.18232601l2.3281637-1.61259425.2889632.21984069c.5902901.44908762 1.1165567.97562176 1.5679253 1.56784298l.2204089.289189-1.6138057 2.32740732c.0673578.1448047.1285997.2924305.1837005.4429446l2.7871094.5043243.0484653.3606234c.0989401.7361998.0989401 1.4799957 0 2.2161955l-.0484653.3606234-2.7874476.5043855c-.0549031.1499088-.1161375.2974692-.1833731.4419743l1.6137688 2.3283791-.2203612.2891263c-.45062.591239-.9766678 1.1170194-1.5679253 1.566843l-.2889632.2198407-2.3280209-1.6124953c-.1428636.0664367-.2898637.127284-.4411477.1827549l-.5055942 2.7884599-.3609333.0481244c-.1403172.018709-.4171164.0422445-.8939326.0731187-.0294019-.000962-.1743977-.000962-.2552183-.000964-.4253975-.0299102-.7021966-.0534457-.8425138-.0721547l-.3609333-.0481244-.5055894-2.7884334c-.1513928-.0554997-.2986323-.1164459-.4411912-.1827546l-2.32798226 1.6124685-.28896319-.2198407c-.59125752-.4498236-1.11730528-.975604-1.5679253-1.566843l-.22036114-.2891263 1.61378656-2.3284049c-.0672868-.1446384-.12844087-.2920067-.18336263-.4419434l-2.78747589-.5043906-.04846527-.3606234c-.08119742-.6041786-.09575839-1.2134732-.04368291-1.8194867l1.50808298 1.508083 2.12132034-2.1213203.63617323.6361732c-.03837903.2237357-.05834876.453598-.05834876.687953 0 2.195977 1.75265574 3.9990394 3.93670994 4.0603944.7935112-.0220085 1.5279004-.2681254 2.1434804-.6760963.6832215-.1662823 1.2099753-.7305314 1.3212458-1.4337314.3190716-.5797732.5000648-1.2448822.5000648-1.9505667 0-2.192658-1.7480965-3.99203268-3.9352162-4.06001624-.2434102.00746009-.4811598.03576874-.71156.08315782l-.5899085-.58990849 2.1213203-2.12132034-1.5686734-1.56867347zm.5825516 11.31047354c-1.5432061-.1158101-2.785827-1.4309019-2.7998935-3.0263431l1.4400052.0160855.0132056 1.663575zm.3862064-6.0990749 2.6953695 2.6953695c-.1620682-1.4162721-1.2944557-2.546541-2.6953695-2.6953695zm-2.9962781 2.0747898-1.76776691-1.767767-2.12132034 2.1213204-5.15685425-5.15685429 6.07106781-6.07106781 5.15685429 5.15685425-2.1213204 2.12132034 4.9497475 4.94974751.2228454 1.2873773c.001192.4230825-.3408127.7650872-.7638952.7638952l-1.2873773-.2228454-.9218742-.9218742-.0177421-2.2350581zm-3.3459415-3.52842715c.82842712 0 1.5-.67157288 1.5-1.5 0-.82842713-.67157288-1.5-1.5-1.5s-1.5.67157287-1.5 1.5c0 .82842712.67157288 1.5 1.5 1.5z" fill-rule="evenodd"/></svg>