<svg height="24" viewBox="0 0 24 24" width="24" xmlns="http://www.w3.org/2000/svg"><path d="m3.5058398 15h10.3078687v1h-11.3137085c-.27614237 0-.5-.2030423-.5-.4791847v-11.31370852h1v9.78855692c.02330735-.0320459.03671873-.050491.03723032-.0511906.3945636-.5395698.71119114-.9606637 1.03514914-1.3713933 2.61867179-3.32007845 5.14880044-5.0730798 8.44843584-5.0730798 5.2544212 0 9.5 3.7568111 9.5 8.5h-1c0-4.1618212-3.7724817-7.5-8.5-7.5-2.92214453 0-5.21547991 1.588939-7.66327219 4.6923681-.31521251.3996417-.62510582.8117795-1.01310881 1.3423776-.00061272.0008379-.15398498.2118129-.3385945.4652543z" fill-rule="evenodd"/></svg>