<svg height="24" viewBox="0 0 24 24" width="24" xmlns="http://www.w3.org/2000/svg"><path d="m10 2.33333333 3.401 4.53466667 5.1237469-1.27996314-1.68179 5.04559764c.4700049.0770247.9211659.2967776 1.283647.6592587.1929553.1929552.3505715.4175719.4662749.6635755l.0788161.1883523 2.5253175 6.8545123 1.8029876.0006667v2h-17.5v-2l1.76701235-.0006667 2.14060889-6.7776104c.38050066-1.2049187 1.66573706-1.8732417 2.87065586-1.492741.2920019.0922112.5619153.2419028.7941413.4396047l.1346884.1243066c.3322021.3322022.8209866.4123889 1.2287802.2405602l1.039113-3.1214534-2.8766149.71918013-2.5983851-3.46418013-2.5983851 3.46418013-2.9396149-.73518013.781 2.604h2.757v2h-4.24403065l-2.218957-7.39652332 5.06198765 1.26452332zm8.6970124 15.66599997h-9.01700005l-.316 1h9.70100005zm-2.4899056-5.2922265c-1.2189514 1.2189514-3.1952622 1.2189514-4.4142136 0-.0326959-.0326959-.0727861-.0570355-.1168789-.0709596-.1299604-.0410401-.2673461.0148834-.3340988.1271802l-.0271289.0606583-1.0037742 3.1753476h7.649l-1.1650037-3.1631016c-.0178729-.0485121-.046061-.0925676-.0826183-.1291249-.1395302-.1395302-.3657534-.1395302-.5052836 0zm-8.2071068 1.2928932v2h-4v-2z" fill-rule="evenodd"/></svg>