<svg height="24" viewBox="0 0 24 24" width="24" xmlns="http://www.w3.org/2000/svg"><path d="m12 5.99999967c4.1218379-.00099533 7.9321911 2.28564295 10 6.00111953-2.0693758 3.7135458-5.8789781 5.9988805-10 5.9988805-4.12102188 0-7.93062416-2.2853347-10-5.9988805 2.06780887-3.71547658 5.87816214-6.00211486 10-6.00111953zm.0004831 2.00000001c2.2086551.00000032 3.9995169 1.79086109 3.9995169 4.00000032.0007632 1.0610994-.4204187 2.078959-1.1707299 2.8292701-.7503111.7503112-1.7681707 1.1714931-2.8292701 1.1707299-2.20913923 0-4-1.7908618-4-4 0-2.14219562 1.68396825-3.89107889 3.8003596-3.99510469l.2001235-.00489563c-2.9789634-.0007191-5.76875924 1.45676141-7.56733954 3.90522652l-.06814356.0947735.06808505.0956259c1.73749258 2.3630664 4.39792255 3.8027198 7.25957255 3.8991964l.3073424.0051777c2.9777845 0 5.7673691-1.4569125 7.566915-3.9043741l.067085-.0956259-.0671436-.0947735c-1.7365602-2.36403528-4.397155-3.80425138-7.2590089-3.90011817zm-.0004831 2.00000032c-1.1045697 0-2 .8954303-2 2 0 1.1045691.8954307 2 2.0014384 2 .5301687.0003818 1.0387327-.2100579 1.4136182-.5849434s.5853252-.8834495.5849434-1.4150566c0-1.1045693-.8954309-2-2-2z" fill-rule="evenodd"/></svg>