<svg height="24" viewBox="0 0 24 24" width="24" xmlns="http://www.w3.org/2000/svg"><path d="m3.50187394 17h18.49812606v-11h-20v11h1.00187034c-.00199615-.5269105-.00199372-1.1718723.00003589-1.9393539.00278243-.2448233.04395063-.4876939.12168924-.7188123.12029839-.3600035.34809374-.6744308.65781066-.9046188.11028541-.0798154.23009662-.1470979.35911203-.2012897.18195564-.0749279.37410979-.1221488.57556351-.1405615.14664742-.0117935.29593871-.0221858.4937716-.0347871.08794741-.0055653.08794741-.0055653.17546463-.0110311.15504049-.009685.15504049-.009685.3082118-.0196651l.65743672-.0442562 1.14740261 1.0921473 1.14879421-1.0918128.21920824.0149499c.12516807.0085365.22499351.01511.45115775.0298248.12588517.0081893.12588517.0081893.2520994.0164792.28545164.0188393.50017957.0339864.72070057.0514763.202171.0200225.3912429.0647821.5696558.1396044.1263035.0530662.246503.1206653.3560404.2004416.3288428.2388777.5647875.5882348.6831203.9863945.0554753.1842184.0852259.3763213.0954825.5936235.005061.1735634.006231.5051199.0048328.9993249-.0006867.212056-.0006867.212056-.0015457.4144771-.0015598.343851-.0020753.4724088-.0020753.567445h-1c0-.0973773.0005246-.2282158.0020847-.5717887.000857-.2019653.000857-.2019653.0015403-.4129626.0013633-.4818915.0002096-.8088575-.0040592-.9581541-.006239-.1311008-.023656-.2435642-.0543029-.3453454-.0582428-.1959666-.1683778-.3590405-.3132941-.4643111-.0471725-.0343555-.0997578-.063929-.1548701-.0870845-.0809668-.0339556-.1735648-.0558766-.2711929-.0656461-.2055355-.0162077-.4164097-.031083-.69797206-.0496656-.12542876-.0082383-.12542876-.0082383-.25116382-.0164179-.09750455-.0063437-.17176204-.0111897-.23480183-.0153396l-1.51996231 1.4445708-1.51808569-1.4449796-.21947071.0147739c-.15691036.0102242-.15691036.0102242-.31263454.0199513-.08732029.0054536-.08732029.0054536-.1742337.0109534-.19277318.0122791-.33704849.0223222-.47167344.0331181-.09639928.0088256-.19093473.0320572-.27716947.0675542-.05549561.0233164-.10854484.0531073-.15173066.0843112-.14034691.1043317-.24534412.24926-.3011176.416164-.0447109.1329281-.06829436.2720581-.06985775.4079364-.00199626.7620445-.00199626 1.4055693-.00000189 1.9304621zm-2.50187394-12h22v13h-22zm6.46318848 2.99961764c-.08686484.00339905-.15396621.00876671-.21389745.01752562-.12949997.01911208-.25296416.05383441-.36757729.1037118-.086835.03759262-.17093603.08590095-.24908244.14273092-.10801044.07928324-.20362683.17422078-.28427663.28245994-.23058063.30822862-.34912943.72916199-.34912943 1.20425647-.00030144.13273233.00951195.26529491.02917473.39525871.05233908.3399917.17759797.639622.36613834.8660101.1562146.1874296.36095888.3281996.59225535.4070529.15751567.0538723.33036782.0811546.51404857.0811546.17400305.0009055.34697588-.0268283.50927886-.081223.23073162-.078804.43537745-.2195927.59143482-.4068398.18866096-.2265328.31391985-.5261631.36624475-.8660626.01952677-.1270023.02917306-.25930097.02917306-.39654084 0-.47390455-.11853295-.89483792-.34955046-1.20365144-.03728743-.04999599-.07711946-.09663282-.12076306-.14106172-.11706149-.12051883-.25674748-.2167114-.41303482-.28392434-.11373743-.04949729-.23720162-.08421962-.36641093-.10328889-.0580121-.00852681-.12254801-.01382152-.20535554-.01723379zm.08988775-.99961764.01955018.00038236c.11951999.00467685.21987554.01271589.32029957.02747663.21526842.0317701.42382936.09042455.61774354.17481903.27528822.11838139.52449281.28999224.73129602.50291519.07381165.07511971.14306612.15620543.20663077.24143552.37095801.49587808.54837741 1.1259286.54837741 1.80208373 0 .1870046-.01334369.37001304-.04080145.54859864-.07868843.5111555-.27460933.9798155-.58631626 1.3540946-.27360611.3282892-.63218789.5749801-1.03922245.71399-.26917987.0902279-.55137832.1354746-.83252615.134004-.28831609 0-.57037499-.0445061-.83445893-.1348263-.40464643-.1379512-.76351667-.3846891-1.03740507-.7133062-.31159153-.3741406-.50751243-.8428006-.58639512-1.3552289-.02746804-.1815383-.04104273-.36490977-.04062704-.54732584 0-.67615513.17743924-1.30620565.54782369-1.80131548.13938049-.1870636.30582336-.35232478.49562796-.49164166.13863911-.10083229.28662258-.18583523.440877-.25261408.19590957-.0852577.40447051-.14391215.62042952-.17578367.10042434-.01467778.20078715-.02270613.33965888-.02775757zm5.44692377 2v-1h8v1zm0 3v-1h6.125v1zm0 3v-1h6.125v1z" fill-rule="evenodd"/></svg>