<svg height="24" viewBox="0 0 24 24" width="24" xmlns="http://www.w3.org/2000/svg"><path d="m3 5v5h5v-5zm6 3.05000906v2.94999094h-7v-7h7v3h6.0354444c.2426149-1.69614707 1.7013196-3 3.4645556-3 1.9329966 0 3.5 1.56700338 3.5 3.5s-1.5670034 3.5-3.5 3.5c-1.763236 0-3.2219407-1.30385293-3.4645556-3h-4.085953c.648275.63525852 1.0505086 1.52065591 1.0505086 2.5v4c0 1.3807119 1.1192881 2.5 2.5 2.5h.5354444c.2426149-1.6961471 1.7013196-3 3.4645556-3 1.9329966 0 3.5 1.5670034 3.5 3.5s-1.5670034 3.5-3.5 3.5c-1.763236 0-3.2219407-1.3038529-3.4645556-3h-.5354444c-1.9329966 0-3.5-1.5670034-3.5-3.5v-4c0-1.20947896-.8588798-2.21835578-2-2.44999094zm9.5 11.94999094c1.3807119 0 2.5-1.1192881 2.5-2.5s-1.1192881-2.5-2.5-2.5-2.5 1.1192881-2.5 2.5 1.1192881 2.5 2.5 2.5zm0-10c1.3807119 0 2.5-1.11928813 2.5-2.5s-1.1192881-2.5-2.5-2.5-2.5 1.11928813-2.5 2.5 1.1192881 2.5 2.5 2.5z" fill-rule="evenodd"/></svg>