<svg height="24" viewBox="0 0 24 24" width="24" xmlns="http://www.w3.org/2000/svg"><path d="m9.5 3.5v3h5.127l.0442329-.16172935c.4615393-1.52567718 1.8036722-2.64962772 3.4121373-2.81673785l.2112597-.01632503.2053701-.00520777c2.209139 0 4 1.790861 4 4s-1.790861 4-4 4c-1.7211095 0-3.2092206-1.093361-3.7664166-2.64936931l-.0623505-.18890134-.0442329-.16172935h-2.663l.0230904.03879607c.2528636.44886958.4181547.94578568.48253 1.46663363l.0237163.2623066.0066633.2322637v4c0 1.0543618.8158778 1.9181651 1.8507377 1.9945143l.1492623.0054857h.127l.0442329-.1617294c.4615393-1.5256771 1.8036722-2.6496277 3.4121373-2.8167378l.2112597-.016325.2053701-.0052078c2.209139 0 4 1.790861 4 4s-1.790861 4-4 4c-1.7211095 0-3.2092206-1.093361-3.7664166-2.6493693l-.0623505-.1889013-.0442329-.1617294h-.127c-2.0730923 0-3.7778384-1.5770777-3.9799449-3.5969395l-.0151598-.2034202-.0048953-.1996403v-4c0-.63251259-.2959623-1.20435374-.76418389-1.57306733l-.13187476-.095415-.10394135-.06451767v2.733h-8v-8z" fill-rule="evenodd"/></svg>