<svg height="24" viewBox="0 0 24 24" width="24" xmlns="http://www.w3.org/2000/svg"><path d="m18.3604758 13c2.097326 0 3.7185274 1.6596455 3.6935602 3.6802082l-.0071991.1904456-.0468785 5.1384689-1.9999168-.0182454.0487843-5.1917245c.0598477-.957563-.607326-1.7194917-1.5390969-1.7932907l-.1492532-.0058621h-.7394758l-1.0603398 1.0606602-1.4142136-1.4142136 1.6464466-1.6464466zm-12.65792655-.0040539 2.69745075 2.6960539 2.6915769-2.690806.5553873.146055c1.892968.4978103 3.2563284 2.1759256 3.3481024 4.141135l.0049346.211616v4.500017h-2v-4.500017c0-.9010693-.4828763-1.7086249-1.2210314-2.1493631l-.1349698-.0746369-3.2439345 3.2452812-3.2490655-3.2492812-.1017973.0587635c-.63947169.3930531-1.04257661 1.1030026-1.04735882 1.9549232l.00513104.1846637-.00697373 4.5312061-2-.0030791.00892234-4.4672883c-.12514072-2.0022513 1.09050634-3.757246 2.93935819-4.3341786l.20048201-.0572639zm2.79745075-9.9959461c2.4852814 0 4.5 2.01471863 4.5 4.5s-2.0147186 4.5-4.5 4.5c-2.48528137 0-4.5-2.01471863-4.5-4.5s2.01471863-4.5 4.5-4.5zm6.0269585.00036345.2190714.00627419c2.3806191.1287285 4.2539701 2.09988048 4.2539701 4.49336236 0 2.41427333-1.9012365 4.3844891-4.3174592 4.4946338l-.2144973.0048555-.2600381-.0088298c-.3871917-.0248404-.7670359-.0990749-1.1321023-.2207921l-.2709129-.1001611.7537392-1.85253263c.185239.07536812.3784856.12786618.5635369.15603844l.1817194.02000975.1960143.00677814c1.3807119 0 2.5-1.11928813 2.5-2.5 0-1.27409042-.9560742-2.33316498-2.1745593-2.4811115l-.160364-.01407308-.1650767-.00481542c-.1928691 0-.3824749.02157847-.5513894.05904582l-.161372.04255293-.2484367.08834027-.670068-1.88441208.2844837-.10039142c.3472492-.1087998.7066177-.17480665 1.0856561-.19667132zm-6.0269585 1.99963655c-1.38071187 0-2.5 1.11928813-2.5 2.5s1.11928813 2.5 2.5 2.5 2.5-1.11928813 2.5-2.5-1.11928813-2.5-2.5-2.5z" fill-rule="evenodd"/></svg>