<svg width="24" height="24" viewBox="0 0 24 24" fill="none" xmlns="http://www.w3.org/2000/svg">
<path fill-rule="evenodd" clip-rule="evenodd" d="M7.5 7H7V7.5V12.1667V12.6667H7.5H9.82325C9.67761 13.1074 9.44458 13.5183 9.13402 13.8733L7.12371 16.1707L7.87629 16.8293L9.8866 14.5318C10.6044 13.7114 11 12.6585 11 11.5685V7.5V7H10.5H7.5ZM10 11.5685C10 11.6013 9.99954 11.634 9.99862 11.6667H8V8H10V11.5685ZM14 7H13.5V7.5V12.1667V12.6667H14H16.3233C16.1776 13.1074 15.9446 13.5183 15.634 13.8733L13.6237 16.1707L14.3763 16.8293L16.3866 14.5318C17.1044 13.7114 17.5 12.6585 17.5 11.5685V7.5V7H17H14ZM16.5 11.5685C16.5 11.6013 16.4995 11.634 16.4986 11.6667H14.5V8H16.5V11.5685Z" fill="black"/>
</svg>
