<svg height="24" viewBox="0 0 24 24" width="24" xmlns="http://www.w3.org/2000/svg"><path d="m12 5.99999967c4.1218379-.00099533 7.9321911 2.28564295 10 6.00111953-2.0693758 3.7135458-5.8789781 5.9988805-10 5.9988805-4.12102188 0-7.93062416-2.2853347-10-5.9988805 2.06780887-3.71547658 5.87816214-6.00211486 10-6.00111953zm0 2.00000033c-2.20913923 0-4 1.79086077-4 4 0 2.2091382 1.79086077 4 4 4 1.0610994.0007632 2.078959-.4204187 2.8292701-1.1707299.7503112-.7503111 1.1714931-1.7681707 1.1707299-2.8292701 0-2.20913923-1.7908618-4-4-4zm0 .99999935c1.6568531 0 3 1.34314575 3 3.00000005.000572.7974096-.3150876 1.5602553-.8774158 2.1225835-.5623282.5623281-1.3251741.8779876-2.1204269.8774165-1.6590114 0-3.0021573-1.3431476-3.0021573-3 0-1.656855 1.3431452-3.00000005 3-3.00000005z" fill-rule="evenodd"/></svg>