<svg height="24" viewBox="0 0 24 24" width="24" xmlns="http://www.w3.org/2000/svg"><path d="m2.55355339 20v-1l10.63221241.0011443c-.1210913-.1491196-.1857658-.3152125-.1857658-.4984638v-9.01966836c0-1.00849694 1.9587906-1.49731949 4.5-1.49731949s4.5.48882255 4.5 1.49731949v9.01966836c0 .9748804-1.830381 1.4641539-4.2478714 1.4956889l-.1985752.0016306zm18.44644661-3.4678164c-.8157211.3173034-2.0650007.4731774-3.5.4731774s-2.6842789-.155874-3.5-.4731774v1.9561343c.0000915-.0664103.0028962-.0656094.0687547-.0267523.1533829.0904975.4023546.1824646.724086.2627537.6764913.1688206 1.5989913.2698004 2.5922486.2770488l.1684641-.0013681-.0005534.001.2897881-.0029567c.9058473-.0198604 1.7399177-.1178896 2.3643712-.273724.3217314-.0802891.5707031-.1722562.724086-.2627537.052687-.0310858.0650192-.0378154.0678915-.0052618zm-10.9464466-14.5321836-.0005534 13.271 1.8501808-1.9257274v1.5122068l-2.34962741 2.3496274-7.85355339-7.85355341.70710678-.70710678 6.64589322 6.64555339.00055339-13.292zm10.9464466 11.5375446c-.8157211.3173034-2.0650007.4731774-3.5.4731774s-2.6842789-.155874-3.5-.4731774v1.9561343c.0000915-.0664103.0028962-.0656094.0687547-.0267522.1533829.0904974.4023546.1824645.724086.2627536.7025102.1753137 1.6703168.2774677 2.7071593.2774677s2.0046491-.102154 2.7071593-.2774677c.3217314-.0802891.5707031-.1722562.724086-.2627536.052687-.0310859.0650192-.0378155.0678915-.0052619zm0-3.0303904c-.8157211.3173034-2.0650007.4731774-3.5.4731774s-2.6842789-.155874-3.5-.4731774v1.9918858c.0000915-.0664103.0028962-.0656095.0687547-.0267523.1533829.0904975.4023546.1824645.724086.2627536.7025102.1753137 1.6703168.2774677 2.7071593.2774677s2.0046491-.102154 2.7071593-.2774677c.3217314-.0802891.5707031-.1722561.724086-.2627536.052687-.0310859.0650192-.0378155.0678915-.0052618zm-3.5-1.52324856c-1.0368425 0-2.0046491.10215404-2.7071593.27746775-.2730739.06814647-.4937318.14470573-.6480148.22163875.154283.07693302.3749409.15349228.6480148.22163875.7025102.17531371 1.6703168.27746775 2.7071593.27746775s2.0046491-.10215404 2.7071593-.27746775c.2730739-.06814647.4937318-.14470573.6480148-.22163875-.154283-.07693302-.3749409-.15349228-.6480148-.22163875-.7025102-.17531371-1.6703168-.27746775-2.7071593-.27746775z" fill="#1e2832" fill-rule="evenodd"/></svg>