<?xml version="1.0" encoding="UTF-8" standalone="no"?>
<!DOCTYPE svg PUBLIC "-//W3C//DTD SVG 1.1//EN" "http://www.w3.org/Graphics/SVG/1.1/DTD/svg11.dtd">
<svg width="100%" height="100%" viewBox="0 0 24 24" version="1.1" xmlns="http://www.w3.org/2000/svg" xmlns:xlink="http://www.w3.org/1999/xlink" xml:space="preserve" xmlns:serif="http://www.serif.com/" style="fill-rule:evenodd;clip-rule:evenodd;stroke-linejoin:round;stroke-miterlimit:2;">
    <path d="M16.227,8.48C17.053,9.469 17.506,10.717 17.506,12.006C17.506,15.023 15.023,17.506 12.006,17.506C10.717,17.506 9.469,17.053 8.48,16.227L3.354,21.354L2.647,20.646L20.647,2.646L21.354,3.354L16.227,8.48ZM15.516,9.192L15.517,9.191L15.515,9.191C15.515,9.191 15.516,9.192 15.516,9.192ZM15.516,9.192L9.19,15.516C9.988,16.154 10.979,16.502 12.001,16.502C14.47,16.502 16.501,14.471 16.501,12.002C16.501,10.981 16.153,9.99 15.516,9.192ZM12,22L12,19L13,19L13,22L12,22ZM17.006,17.714L17.714,17.007L19.634,18.927L18.926,19.634L17.006,17.714ZM22,13L19,13L19,12L22,12L22,13ZM9.835,7.691C9.924,8.882 10.315,10.031 10.972,11.028L10.252,11.748C8.766,9.613 8.409,6.883 9.295,4.438C6.125,5.583 4,8.61 4,11.98C4,13.618 4.502,15.218 5.438,16.562L4.721,17.279C3.604,15.739 3.001,13.884 3.001,11.982C3.001,7.347 6.574,3.428 11.189,3C10.191,4.351 9.71,6.016 9.835,7.691Z"/>
</svg>
