<svg height="24" viewBox="0 0 24 24" width="24" xmlns="http://www.w3.org/2000/svg"><path d="m7.68122022 15.2373721c-.59822934.4773157-1.35640566.7626279-2.18122022.7626279-1.93299662 0-3.5-1.5670034-3.5-3.5s1.56700338-3.5 3.5-3.5c.82283172 0 1.57934521.2839421 2.17690304.75918888l6.39181776-4.56558409c-.0450716-.22419356-.0687208-.4561374-.0687208-.69360479 0-1.93299662 1.5670034-3.5 3.5-3.5s3.5 1.56700338 3.5 3.5-1.5670034 3.5-3.5 3.5c-.8228317 0-1.5793452-.2839421-2.176903-.75918888l-6.39181776 4.56558408c.0450716.2241936.06872076.4561374.06872076.6936048 0 .2750463-.0317263.5426826-.09171894.7994488l.05994389-.0718108 6.01411645 3.8410211c.636457-.6589092 1.5292067-1.0686591 2.5176586-1.0686591 1.9329966 0 3.5 1.5670034 3.5 3.5s-1.5670034 3.5-3.5 3.5-3.5-1.5670034-3.5-3.5c0-.0212174.0001888-.0423907.0005648-.0635183z" fill-rule="evenodd"/></svg>