<svg height="24" viewBox="0 0 24 24" width="24" xmlns="http://www.w3.org/2000/svg"><path d="m12 1c1.0288642 0 1.876275.77689417 1.9876021 1.77605222.2956282-.17551069.6422717-.27605222 1.0123979-.27605222 1.0543618 0 1.9181651.81587779 1.9945143 1.85073766l.0054857.14926234-.0002739 4.55078819c.5934876-.60578284 1.4053692-.99678798 2.3082387-1.04560933l.1920352-.00517886h.5256246l-.3974066 7.9481326c-.0841574 1.6831482-.8183203 3.2637178-2.0409503 4.4124127l-.220796.1981607-1.6815097 1.441294h-9.54534161l-.88236119-2.6470836c-.77324572-2.3197371-1.19452901-4.7411433-1.2507672-7.1835995l-.006492-.5639807v-5.6053362c0-1.1045695.8954305-2 2-2 .36456587 0 .70634926.09754338 1.00067515.26795512l-.00067515-.26795512c0-1.1045695.8954305-2 2-2 .41196636 0 .7948408.12455733 1.113018.33806669.2718431-.77889502 1.0141118-1.33806669 1.886982-1.33806669zm5 14h-1v-10.5c0-.55228475-.4477153-1-1-1-.5128358 0-.9355072.38604019-.9932723.88337887l-.0067277.11662113v6.5h-1v-8c0-.55228475-.4477153-1-1-1-.5128358 0-.9355072.38604019-.9932723.88337887l-.0067277.11662113v8h-1v-7c0-.55228475-.44771525-1-1-1-.51283584 0-.93550716.38604019-.99327227.88337887l-.00672773.11662113v7.5h-1v-5.5c0-.55228475-.44771525-1-1-1-.51283584 0-.93550716.38604019-.99327227.88337887l-.00672773.11662113v5.6053362c0 2.3315346.34696771 4.6489948 1.0285759 6.8764167l.1773666.5549358.6540575 1.9633113h8.454l1.4016803-1.2005506c1.0789396-.9248053 1.7554009-2.2287955 1.8941118-3.6362179l.0196735-.2650365.3415344-6.842195-.1101505.02644752c-1.020076.26896869-1.7849954 1.16643648-1.8555318 2.25317678l-.0053177.1643757z"/></svg>