<svg height="24" viewBox="0 0 24 24" width="24" xmlns="http://www.w3.org/2000/svg"><path d="m4.35355339 17.8535534c-.19526215.1952621-.51184463.1952621-.70710678 0-.19526215-.1952622-.19526215-.5118446 0-.7071068l7.99999999-7.99999999c.1952622-.19526215.5118446-.19526215.7071068 0l8 7.99999999c.1952621.1952622.1952621.5118446 0 .7071068-.1952622.1952621-.5118446.1952621-.7071068 0l-7.6464466-7.6464466zm16.64644661-11.3535534c0 .27614237-.2238576.5-.5.5h-17c-.27614237 0-.5-.22385763-.5-.5s.22385763-.5.5-.5h17c.2761424 0 .5.22385763.5.5z" fill-rule="evenodd"/></svg>