<svg height="24" viewBox="0 0 24 24" width="24" xmlns="http://www.w3.org/2000/svg"><path d="m16.9639136 14.1354865c.3304533-.088372.6777677-.1354865 1.0360864-.1354865 2.209139 0 4 1.790861 4 4 0 .6783613-.1688643 1.3172822-.4668507 1.8770205l-1.4844129-1.4821061c-.2146358-.2422308-.5280691-.3949144-.8771635-.3949144-.6470419 0-1.1715729.524531-1.1715729 1.1715729 0 .3490944.1526836.6625277.3949144.8771635l1.4821061 1.4844129c-.5597383.2979864-1.1986592.4668507-1.8770205.4668507-2.209139 0-4-1.790861-4-4 0-.3583187.0471145-.7056331.1354865-1.0360864l-2.4890399-2.4890399 2.8284271-2.8284271zm-7.4248263-.3816806 7.1966842-7.19668422-.6909751-1.38034498 3.8890873-3.18198052 2.1213203 2.12132034-3.1819805 3.8890873-1.3798723-.67276556-.0593414-.05934133-7.1878157 7.18781577 1.0675144 1.0675144-6.48528138 6.4852814-2.82842712-2.8284271 6.48528137-6.4852814zm2.8144661-4.22867963-2.82842713 2.82842713-2.48903988-2.48903988c-.33045326.08837197-.67776773.13548648-1.03608639.13548648-2.209139 0-4-1.790861-4-4 0-.67836131.16886433-1.31728224.46685073-1.87702051l1.48441288 1.48210608c.21463575.24223082.52806905.39491443.87716351.39491443.64704184 0 1.17157288-.52453104 1.17157288-1.17157288 0-.34909446-.15268361-.66252776-.39339828-.87867965l-1.48314876-1.48314876c.55962509-.29782959 1.198377-.46659871 1.87654704-.46659871 2.209139 0 4 1.790861 4 4 0 .35831866-.04711451.70563313-.13548648 1.03608639z" fill-rule="evenodd"/></svg>