<?xml version="1.0" encoding="UTF-8" standalone="no"?>
<!DOCTYPE svg PUBLIC "-//W3C//DTD SVG 1.1//EN" "http://www.w3.org/Graphics/SVG/1.1/DTD/svg11.dtd">
<svg width="100%" height="100%" viewBox="0 0 24 24" version="1.1" xmlns="http://www.w3.org/2000/svg" xmlns:xlink="http://www.w3.org/1999/xlink" xml:space="preserve" xmlns:serif="http://www.serif.com/" style="fill-rule:evenodd;clip-rule:evenodd;stroke-linejoin:round;stroke-miterlimit:2;">
    <path d="M15,2L20,7L20,22L11,22L11,20L18,20L18,7.83L14.17,4L6,4L6,13L4,13L4,2L15,2ZM5.359,19.384L5.694,17.876C5.878,17.051 6.56,16.43 7.399,16.325L7.448,16.319C8.743,16.157 9.843,17.257 9.681,18.552L9.675,18.601C9.57,19.44 8.949,20.122 8.124,20.306L6.616,20.641L5,21L5.359,19.384ZM6.761,19.239L7.873,18.992C8.152,18.93 8.362,18.699 8.397,18.416L8.406,18.348C8.46,17.911 8.089,17.54 7.651,17.594L7.584,17.603C7.301,17.638 7.07,17.848 7.008,18.127L6.761,19.239ZM11,17L10.414,16.414L9.586,15.586L9,15L10.414,13.586L14.5,9.5C15.052,8.948 15.948,8.948 16.5,9.5C17.052,10.052 17.052,10.948 16.5,11.5L11,17Z"/>
</svg>
