<svg height="24" viewBox="0 0 24 24" width="24" xmlns="http://www.w3.org/2000/svg"><path d="m12 17c3.5722149 0 6.8932044-1.8880351 8.8390735-4.9991883-1.9445885-3.11267233-5.26608-5.00167471-8.8388319-5.0008117-3.57323513-.00086301-6.89472657 1.88813937-8.83931513 5.0008117 1.94586917 3.1111532 5.2668586 4.9991883 8.83907353 4.9991883zm0-11c4.1218379-.00099566 7.9321911 2.28564262 10 6.0011192-2.0693758 3.7135458-5.8789781 5.9988808-10 5.9988808-4.12102188 0-7.93062416-2.285335-10-5.9988808 2.06780887-3.71547658 5.87816214-6.00211486 10-6.0011192zm0 9c.7963536.0005722 1.5595651-.3152384 2.1221634-.8778366.5625982-.5625983.8784088-1.3258098.8778366-2.1221634 0-1.6568545-1.3431466-3-3-3-1.6568545 0-3 1.3431455-3 3 0 1.6568534 1.3431455 3 3 3zm0 1c-2.20913923 0-4-1.7908618-4-4 0-2.20913923 1.79086077-4 4-4 2.2091382 0 4 1.79086077 4 4 .0007632 1.0610994-.4204187 2.078959-1.1707299 2.8292701-.7503111.7503112-1.7681707 1.1714931-2.8292701 1.1707299z" fill-rule="evenodd"/></svg>