<svg height="24" viewBox="0 0 24 24" width="24" xmlns="http://www.w3.org/2000/svg"><path d="m22 7v3l-2.909 2.909-1.091-.909v2l-3.969 3.969-2.031.0006699.923 1.1073301-2.923 2.923h-3zm0 4v3l-8 8h-3l2.378-2.378 1.122 1.3476699 2.5-3-1.969-.0006699 2.969-2.969v2l3-2.5-1.364-1.136zm0 4v3l-4 4h-3zm0 4v3h-3zm-1-12-14 14v-3l2.364-2.364 1.636 1.364v-3l3.031-3.031 2.969.0006699-1.35-1.6196699 2.35-2.35zm-4 0-1.804 1.804-.696-.83433009-2.5 2.99999999 1.031-.0006699-2.031 2.031v-1l-3 2.5.818.682-1.818 1.818v-3l7-7zm-2-5v4h-9v9h-4v-13zm-2 5-6 6v-3l3-3zm-4 0-2 2v-2z"/></svg>