<svg height="24" viewBox="0 0 24 24" width="24" xmlns="http://www.w3.org/2000/svg"><path d="m12 2c5.5228475 0 10 4.4771525 10 10s-4.4771525 10-10 10-10-4.4771525-10-10 4.4771525-10 10-10zm0 1c-4.97056275 0-9 4.02943725-9 9 0 4.9705627 4.02943725 9 9 9 4.9705627 0 9-4.0294373 9-9 0-4.97056275-4.0294373-9-9-9zm0 2v2h3v1h-3c-2.209139 0-4 1.790861-4 4 0 2.1421954 1.68396847 3.8910789 3.8003597 3.9951047l.1996403.0048953h3v1h-3v2h-1l-.000188-2.1000563c-2.28214664-.4633429-3.999812-2.4810522-3.999812-4.8999437 0-2.41889279 1.7176672-4.43660292 3.9998157-4.89994447l.0001843-2.10005553z"/></svg>