<svg height="24" viewBox="0 0 24 24" width="24" xmlns="http://www.w3.org/2000/svg"><path d="m5.8458278 2h12.3083444c1.3372781 0 1.8222075.13923842 2.3110964.40069906.4888888.26146063.8725717.6451435 1.1340323 1.13403238.2614607.48888889.4006991.97381825.4006991 2.31109636v12.3083444c0 1.3372781-.1392384 1.8222075-.4006991 2.3110964-.2614606.4888888-.6451435.8725717-1.1340323 1.1340323-.4888889.2614607-.9738183.4006991-2.3110964.4006991h-12.3083444c-1.33727811 0-1.82220747-.1392384-2.31109636-.4006991-.48888888-.2614606-.87257175-.6451435-1.13403238-1.1340323-.26146064-.4888889-.40069906-.9738183-.40069906-2.3110964v-12.3083444c0-1.33727811.13923842-1.82220747.40069906-2.31109636.26146063-.48888888.6451435-.87257175 1.13403238-1.13403238.48888889-.26146064.97381825-.40069906 2.31109636-.40069906zm0 2c-.91729552 0-1.14164559.043324-1.36789864.16432545-.14035194.07506104-.23854267.17325177-.31360371.31360371-.12100145.22625305-.16432545.45060312-.16432545 1.36789864v12.3083444c0 .9172955.043324 1.1416456.16432545 1.3678986.07506104.140352.17325177.2385427.31360371.3136037.22625305.1210015.45060312.1643255 1.36789864.1643255h12.3083444c.9172955 0 1.1416456-.043324 1.3678986-.1643255.140352-.075061.2385427-.1732517.3136037-.3136037.1210015-.226253.1643255-.4506031.1643255-1.3678986v-12.3083444c0-.91729552-.043324-1.14164559-.1643255-1.36789864-.075061-.14035194-.1732517-.23854267-.3136037-.31360371-.226253-.12100145-.4506031-.16432545-1.3678986-.16432545zm2.77037034 7.9648987-2.18775868 2.44859c-.18971884.2123377-.46096157.3337272-.74570801.3337272h-.68273145v-1.6100048l-.06297656-.0562681.06297656-.0704849v-.2632422h.2352009l3.01135684-3.37038018c.50560496-.56588476 1.43254785-.38449492 1.68755508.33023108l1.32366608 3.7099282 1.7233145-7.63711072c.2242242-.99368068 1.6169796-1.05508938 1.9277894-.08499915l2.2595146 7.05233077h1.8316026v2h-1.8091152-.7521669c-.4347378 0-.8196705-.2808776-.9523155-.6948852l-1.362267-4.2518677-1.6742452 7.4196527c-.2204534.9769703-1.5807634 1.0592181-1.9173208.1159261z" fill-rule="evenodd"/></svg>