<?xml version="1.0" encoding="UTF-8" standalone="no"?>
<!DOCTYPE svg PUBLIC "-//W3C//DTD SVG 1.1//EN" "http://www.w3.org/Graphics/SVG/1.1/DTD/svg11.dtd">
<svg width="100%" height="100%" viewBox="0 0 24 24" version="1.1" xmlns="http://www.w3.org/2000/svg" xmlns:xlink="http://www.w3.org/1999/xlink" xml:space="preserve" xmlns:serif="http://www.serif.com/" style="fill-rule:evenodd;clip-rule:evenodd;stroke-linejoin:round;stroke-miterlimit:2;">
    <path d="M4,2L14.957,2L15.104,2.146L19.854,6.896L20,7.043L20,11L19,11L19,7.457L14.543,3L5,3L5,11L4,11L4,2ZM20,21L4,21L4,13L20,13L20,21ZM9,14L5,14L5,16L9,16L9,14ZM14,14L10,14L10,16L14,16L14,14ZM19,16L19,14L15,14L15,16L19,16ZM15,20L19,20L19,17L15,17L15,20ZM10,20L14,20L14,17L10,17L10,20ZM5,17L5,20L9,20L9,17L5,17Z"/>
</svg>
