<?xml version="1.0" encoding="UTF-8" standalone="no"?>
<!DOCTYPE svg PUBLIC "-//W3C//DTD SVG 1.1//EN" "http://www.w3.org/Graphics/SVG/1.1/DTD/svg11.dtd">
<svg width="100%" height="100%" viewBox="0 0 24 24" version="1.1" xmlns="http://www.w3.org/2000/svg" xmlns:xlink="http://www.w3.org/1999/xlink" xml:space="preserve" xmlns:serif="http://www.serif.com/" style="fill-rule:evenodd;clip-rule:evenodd;stroke-linejoin:round;stroke-miterlimit:2;">
    <path d="M13,3C17.971,3 22,7.029 22,12C22,16.971 17.971,21 13,21C10.559,21 8.346,20.029 6.724,18.451L8.118,17.017C9.379,18.244 11.101,19 13,19C16.866,19 20,15.866 20,12C20,8.134 16.866,5 13,5C9.134,5 6,8.134 6,12C6,12.189 6.007,12.376 6.022,12.562L8,10.586L9.414,12L5,16.414L0.586,12L2,10.586L4.02,12.606C4.007,12.406 4,12.204 4,12C4,7.029 8.029,3 13,3ZM12,7L14,7C14,7 14,12.586 14,12.586L16.707,15.293L15.293,16.707L12,13.414L12,7Z"/>
</svg>
