<svg height="24" viewBox="0 0 24 24" width="24" xmlns="http://www.w3.org/2000/svg"><path d="m20.4994322 10.5h2.7505678l-2.6737531 3.0959247c-.2091986-.1547803-.4652041-.2409247-.7355009-.2409247l-.272.015-.83.324-.101-.694c-.11-.579-.62-1-1.212-1h-1.852c-.15937 0-.3124898.0303276-.4534916.0866104l-1.3702544-1.5866104h2.7488191c-.0544887-2.19547978-1.9878799-4-4.4128895-4-1.2273073 0-2.36531281.46471495-3.19217455 1.26815789l-2.7875101-2.86876062c1.57121005-1.52670942 3.70826964-2.39939727 5.97968465-2.39939727 4.5920863 0 8.360421 3.55014947 8.4135026 8zm-8.7275099 9.998807c-4.57531368-.0768538-8.24797001-3.8570414-8.27180562-8.498807h-2.75011668l4.75-5.5 4.75 5.5h-2.74978439c.02075565 2.1869751 1.53772716 3.9934904 3.53488289 4.409692.061769.2642645.2113763.51348.4436475.703308l.513.391-.535.409c-.475.383-.596 1.065-.285 1.577zm8.1647506-2.5615129.9780965.7454118c.0859985.0709412.1126689.1932353.0533408.2895882l-.9253 1.5554118c-.0598723.0963529-.1785284.135-.2846658.0963529l-1.1495491-.45c-.2384008.18-.5023834.3282353-.7799734.4436471l-.171997 1.1895882c-.0201388.1090588-.1192004.1927059-.2313249.1927059h-1.8506c-.1121245 0-.2117304-.0836471-.2313249-.1863529l-.171997-1.1895883c-.2841215-.1154117-.5415726-.2631176-.7799734-.4431176l-1.1495491.45c-.1061374.0381176-.2247935 0-.2846658-.0968824l-.9253-1.5554117c-.0593281-.096353-.0326577-.2186471.0533408-.2895883l.9780965-.7454117c-.0201389-.1477059-.0332019-.2959412-.0332019-.4436471s.013063-.2959412.0332019-.4372941l-.9780965-.7454118c-.0859985-.0709412-.1126689-.1932353-.0533408-.2895882l.9253-1.5554118c.0598723-.0963529.1785284-.135.2846658-.0963529l1.1495491.45c.2384008-.18.5023834-.3282353.7799734-.4436471l.171997-1.1895882c.0195945-.1090588.1192004-.1927059.2313249-.1927059h1.8506c.1121245 0 .2111861.0836471.2313249.1863529l.171997 1.1895883c.2841215.1154117.5415726.2631176.7799734.4431176l1.1495491-.45c.1061374-.0381176.2247935 0 .2846658.0968824l.9253 1.5554117c.0593281.096353.0326577.2186471-.0533408.2890589l-.9780965.7459411c.0201389.1477059.0332019.2959412.0332019.4436471s-.013063.2959412-.0332019.4372941zm-3.4366729.8862353c.7516701 0 1.3607352-.5924118 1.3607352-1.3235294s-.6090651-1.3235294-1.3607352-1.3235294-1.3607352.5924118-1.3607352 1.3235294.6090651 1.3235294 1.3607352 1.3235294z" fill-rule="evenodd"/></svg>