<?xml version="1.0" encoding="UTF-8" standalone="no"?>
<!DOCTYPE svg PUBLIC "-//W3C//DTD SVG 1.1//EN" "http://www.w3.org/Graphics/SVG/1.1/DTD/svg11.dtd">
<svg width="100%" height="100%" viewBox="0 0 24 24" version="1.1" xmlns="http://www.w3.org/2000/svg" xmlns:xlink="http://www.w3.org/1999/xlink" xml:space="preserve" xmlns:serif="http://www.serif.com/" style="fill-rule:evenodd;clip-rule:evenodd;stroke-linejoin:round;stroke-miterlimit:2;">
    <path d="M4,2L15,2L20,7L20,11L18,11L18,7.83L14.17,4L6,4L6,11L4,11L4,2ZM20,21L4,21L4,13L20,13L20,21ZM9,15L6,15L6,16L9,16L9,15ZM14,15L11,15L11,16L14,16L14,15ZM18,16L18,15L16,15L16,16L18,16ZM16,19L18,19L18,18L16,18L16,19ZM11,19L14,19L14,18L11,18L11,19ZM6,18L6,19L9,19L9,18L6,18Z"/>
</svg>
