<svg height="24" viewBox="0 0 24 24" width="24" xmlns="http://www.w3.org/2000/svg"><path d="m8.95464341 3 .98121171 10.302723 2.06414488-.802723v3l9-3v8.5h-18v-5l1.50538588-.5854278 1.03454768-12.4145722zm1.04535659 11.9618449-5 2.2222222v1.8159329h14v-3.5381551l-9 3zm-2.45464341-9.9618449h-.58529015l-.46006644 9.5 1.5-.5zm7.45464341-3c2.209139 0 4 1.790861 4 4 0 .75395236-.2085949 1.45918479-.5712212 2.06113389l2.278328 2.27863961-1.4142136 1.4142136-2.2907954-2.29033025c-.5888206.34109119-1.2726574.53634315-2.0020978.53634315-2.209139 0-4-1.790861-4-4s1.790861-4 4-4zm0 2c-1.1045695 0-2 .8954305-2 2s.8954305 2 2 2 2-.8954305 2-2-.8954305-2-2-2z" fill-rule="evenodd"/></svg>