<svg height="24" viewBox="0 0 24 24" width="24" xmlns="http://www.w3.org/2000/svg"><path d="m4.35355339 6.14644661 7.64644661 7.64644659 7.6464466-7.64644659c.1952622-.19526215.5118446-.19526215.7071068 0 .1952621.19526215.1952621.51184463 0 .70710678l-8 8.00000001c-.1952622.1952621-.5118446.1952621-.7071068 0l-7.99999999-8.00000001c-.19526215-.19526215-.19526215-.51184463 0-.70710678s.51184463-.19526215.70710678 0zm16.64644661 11.35355339c0 .2761424-.2238576.5-.5.5h-17c-.27614237 0-.5-.2238576-.5-.5s.22385763-.5.5-.5h17c.2761424 0 .5.2238576.5.5z" fill-rule="evenodd"/></svg>