<svg height="24" viewBox="0 0 24 24" width="24" xmlns="http://www.w3.org/2000/svg"><path d="m4.54468254 6h-1.54468254v-1h5v-.5c0-1.38071187 1.11928813-2.5 2.5-2.5h3c1.3807119 0 2.5 1.11928813 2.5 2.5v.5h5v1h-1.5446825l-1.2025025 12.8266925c-.1686135 1.7985449-1.6782884 3.1733075-3.4847198 3.1733075h-5.53619045c-1.80643137 0-3.3161062-1.3747626-3.48471979-3.1733075zm4.45531746-1h6v-.5c0-.82842712-.6715729-1.5-1.5-1.5h-3c-.82842712 0-1.5.67157288-1.5 1.5zm-3.45093254 1 1.19375173 12.7333518c.12043827 1.2846749 1.19877744 2.2666482 2.48908556 2.2666482h5.53619045c1.2903082 0 2.3686473-.9819733 2.4890856-2.2666482l1.1937517-12.7333518z" fill-rule="evenodd"/></svg>