<?xml version="1.0" encoding="UTF-8" standalone="no"?>
<!DOCTYPE svg PUBLIC "-//W3C//DTD SVG 1.1//EN" "http://www.w3.org/Graphics/SVG/1.1/DTD/svg11.dtd">
<svg width="100%" height="100%" viewBox="0 0 24 24" version="1.1" xmlns="http://www.w3.org/2000/svg" xmlns:xlink="http://www.w3.org/1999/xlink" xml:space="preserve" xmlns:serif="http://www.serif.com/" style="fill-rule:evenodd;clip-rule:evenodd;stroke-linejoin:round;stroke-miterlimit:2;">
    <path d="M14.957,2L15.104,2.146L19.854,6.896L20,7.043L20,13L19,13L19,7.457L14.543,3L5,3L5,13L4,13L4,2L14.957,2ZM8.889,11.06L12.998,15.998L16,12.996L16.707,13.703L19.707,16.702L20,16.995L20,22L4,22L4,16.426L4.151,16.183L7.271,11.172L8.003,9.996L8.889,11.06ZM12.93,17.48L12.288,16.708L8.794,12.51L8.12,11.7L7.563,12.594L5,16.712L5,21L19,21L19,17.409L16,14.41L12.93,17.48ZM14.5,8C15.881,8 17,9.119 17,10.5C17,11.881 15.881,13 14.5,13C13.119,13 12,11.881 12,10.5C12,9.119 13.119,8 14.5,8ZM14.5,9C13.672,9 13,9.672 13,10.5C13,11.328 13.672,12 14.5,12C15.328,12 16,11.328 16,10.5C16,9.672 15.328,9 14.5,9Z"/>
</svg>
