<?xml version="1.0" encoding="UTF-8" standalone="no"?>
<!DOCTYPE svg PUBLIC "-//W3C//DTD SVG 1.1//EN" "http://www.w3.org/Graphics/SVG/1.1/DTD/svg11.dtd">
<svg width="100%" height="100%" viewBox="0 0 24 24" version="1.1" xmlns="http://www.w3.org/2000/svg" xmlns:xlink="http://www.w3.org/1999/xlink" xml:space="preserve" xmlns:serif="http://www.serif.com/" style="fill-rule:evenodd;clip-rule:evenodd;stroke-linejoin:round;stroke-miterlimit:2;">
    <path d="M2,13C2,7.477 6.477,3 12,3C17.523,3 22,7.477 22,13C22,16.271 20.429,19.176 18.001,21L5.999,21C3.571,19.176 2,16.271 2,13ZM3,13C3,15.826 4.302,18.349 6.343,20L17.657,20C19.698,18.349 21,15.826 21,13C21,8.029 16.971,4 12,4C7.029,4 3,8.029 3,13ZM12.146,12.854L6.146,6.854L6.854,6.146L12.854,12.146L12.146,12.854Z"/>
</svg>
