<svg height="24" viewBox="0 0 24 24" width="24" xmlns="http://www.w3.org/2000/svg"><path d="m5.8458278 2h12.3083444c1.3372781 0 1.8222075.13923842 2.3110964.40069906.4888888.26146063.8725717.6451435 1.1340323 1.13403238.2614607.48888889.4006991.97381825.4006991 2.31109636v12.3083444c0 1.3372781-.1392384 1.8222075-.4006991 2.3110964-.2614606.4888888-.6451435.8725717-1.1340323 1.1340323-.4888889.2614607-.9738183.4006991-2.3110964.4006991h-12.3083444c-1.33727811 0-1.82220747-.1392384-2.31109636-.4006991-.48888888-.2614606-.87257175-.6451435-1.13403238-1.1340323-.26146064-.4888889-.40069906-.9738183-.40069906-2.3110964v-12.3083444c0-1.33727811.13923842-1.82220747.40069906-2.31109636.26146063-.48888888.6451435-.87257175 1.13403238-1.13403238.48888889-.26146064.97381825-.40069906 2.31109636-.40069906zm2.58965615 9.3978523 2.32345225 6.7645707c.164363.4785317.8540817.4381564.9614882-.0562843l2.2021236-10.13737857 2.0449568 6.63011497c.0646579.2096323.2584125.3526331.4777897.3526331h.7899205 3.764785v-1h-4.18568l-2.4979732-8.09887507c-.1515939-.49149449-.8572113-.46139154-.9663945.04122818l-2.2267462 10.25072739-2.02524047-5.8963478c-.12546704-.36528861-.60008932-.45644401-.85195175-.1636248l-3.32602856 3.8668921h-1.91998532v1h2.14943225c.1456622 0 .28408261-.0635203.37906831-.1739521z" fill-rule="evenodd"/></svg>