<svg height="24" viewBox="0 0 24 24" width="24" xmlns="http://www.w3.org/2000/svg"><path d="m6.14644661 19.6464466 7.64644659-7.6464466-7.64644659-7.64644661c-.19526215-.19526215-.19526215-.51184463 0-.70710678s.51184463-.19526215.70710678 0l8.00000001 7.99999999c.1952621.1952622.1952621.5118446 0 .7071068l-8.00000001 8c-.19526215.1952621-.51184463.1952621-.70710678 0-.19526215-.1952622-.19526215-.5118446 0-.7071068zm11.35355339-16.6464466c.2761424 0 .5.22385763.5.5v17c0 .2761424-.2238576.5-.5.5s-.5-.2238576-.5-.5v-17c0-.27614237.2238576-.5.5-.5z" fill-rule="evenodd"/></svg>