<svg height="24" viewBox="0 0 24 24" width="24" xmlns="http://www.w3.org/2000/svg"><path d="m19.5 21v1h-15v-1zm-7-3v1h7v1h-15v-1h7v-1zm-.5-16c4.418278 0 8 3.581722 8 8s-3.581722 8-8 8-8-3.581722-8-8 3.581722-8 8-8zm0 1c-3.86599325 0-7 3.13400675-7 7 0 3.8659932 3.13400675 7 7 7 3.8659932 0 7-3.1340068 7-7 0-3.86599325-3.1340068-7-7-7zm3.6464466 2.64644661.7071068.70710678-2.6305367 2.63033821c.1759904.29778436.2769833.6451523.2769833 1.0161084 0 1.1045695-.8954305 2-2 2s-2-.8954305-2-2 .8954305-2 2-2c.3709561 0 .718324.10099289 1.0161084.27698325zm-3.6464466 3.35355339c-.5522847 0-1 .44771525-1 1 0 .5522847.4477153 1 1 1s1-.4477153 1-1c0-.55228475-.4477153-1-1-1z" fill-rule="evenodd"/></svg>