<svg height="24" viewBox="0 0 24 24" width="24" xmlns="http://www.w3.org/2000/svg"><path d="m11 20.5358154v-9.0358154c0-1.0103024 1.9587906-1.5 4.5-1.5s4.5.4896976 4.5 1.5v9.0358154c0 1.0103024-1.9587906 1.5-4.5 1.5s-4.5-.4896976-4.5-1.5zm1-1.9740245v1.9596362c.0000915-.0665292.0028962-.0657269.0687547-.0268001.1533829.0906595.4023546.1827911.724086.263224.7025102.1756275 1.6703168.2779644 2.7071593.2779644s2.0046491-.1023369 2.7071593-.2779644c.3217314-.0804329.5707031-.1725645.724086-.263224.0658587-.0389269.0686632-.0397291.0687547.0268001v-1.9596362c-.8157211.3178715-2.0650007.4740245-3.5.4740245s-2.6842789-.156153-3.5-.4740245zm0-3v1.9596362c.0000915-.0665292.0028962-.0657269.0687547-.0268001.1533829.0906595.4023546.1827911.724086.263224.7025102.1756275 1.6703168.2779644 2.7071593.2779644s2.0046491-.1023369 2.7071593-.2779644c.3217314-.0804329.5707031-.1725645.724086-.263224.0658587-.0389269.0686632-.0397291.0687547.0268001v-1.9596362c-.8157211.3178715-2.0650007.4740245-3.5.4740245s-2.6842789-.156153-3.5-.4740245zm7-1.0403638v-1.9954516c-.8157211.3178715-2.0650007.4740245-3.5.4740245s-2.6842789-.156153-3.5-.4740245v1.9954516c.0000915-.0665292.0028962-.0657269.0687547-.0268001.1533829.0906595.4023546.1827911.724086.263224.7025102.1756275 1.6703168.2779644 2.7071593.2779644s2.0046491-.1023369 2.7071593-.2779644c.3217314-.0804329.5707031-.1725645.724086-.263224.0658587-.0389269.0686632-.0397291.0687547.0268001zm-14-5.30107022-2.08763406 1.67010722c-.21563097.1725048-.53027716.1375441-.70278193-.0780868-.17250478-.215631-.13754409-.5302772.07808688-.702782l10.00000001-7.99999998c.2020895-.1616716.4911486-.1411169.6686604.0396067l8.8368816 7.96079798c.215631.1725048.2505916.484369.0780869.7-.1725048.215631-.487151.2525048-.702782.08l-8.5870046-7.73485367-6.5815132 5.26521055v11.57967282h4v1h-5zm7.7928407 2.05760762c-.2730739.0682684-.4937318.1449648-.6480148.2220355.154283.0770707.3749409.1537671.6480148.2220355.7025102.1756276 1.6703168.2779645 2.7071593.2779645s2.0046491-.1023369 2.7071593-.2779645c.2730739-.0682684.4937318-.1449648.6480148-.2220355-.154283-.0770707-.3749409-.1537671-.6480148-.2220355-.7025102-.1756276-1.6703168-.2779645-2.7071593-.2779645s-2.0046491.1023369-2.7071593.2779645z" fill-rule="evenodd"/></svg>