<svg height="24" viewBox="0 0 24 24" width="24" xmlns="http://www.w3.org/2000/svg"><path d="m11 16v2h2v-2zm1.7173229-12.91988641 9.2673958 16.42856521c.0845805.1499382.1290215.3191721.1290215.4913212 0 .5522847-.4477153 1-1 1h-18.11354628c-.16548914 0-.32839142-.0410705-.47409983-.1195289-.48627076-.2618381-.66820937-.8683002-.40637127-1.3545709l8.84615048-16.42856524c.0896051-.16640946.2245346-.30401871.3891499-.39687865.4810282-.2713492 1.0909505-.10137084 1.3622997.37965728zm-.8513229 2.56188641-7.192 13.358h14.727zm1.134 2.358v6h-2v-6z" fill-rule="evenodd"/></svg>