<svg height="24" viewBox="0 0 24 24" width="24" xmlns="http://www.w3.org/2000/svg"><path d="m12 22c-5.5228475 0-10-4.4771525-10-10s4.4771525-10 10-10 10 4.4771525 10 10-4.4771525 10-10 10zm0-1c4.9705627 0 9-4.0294373 9-9 0-4.97056275-4.0294373-9-9-9-4.97056275 0-9 4.02943725-9 9 0 4.9705627 4.02943725 9 9 9zm-2.90505048-12.35176737c-.35317081-.35423207-.4918503-.76803212-.48252797-1.33467106.02547213-1.43162878 1.39222185-2.34373719 3.16277895-2.31279843 1.288516.02266218 2.3863494.37325268 3.2730028.93844814l-.5375262.84324706c-.7356343-.46892865-1.6550378-.76253799-2.7530048-.78184883-1.279987-.02236652-2.13144403.54585829-2.14539752 1.33007155-.01058132.64317755.46372392.96692503 2.29324212 1.61226772 2.5752089.88930719 3.7866322 1.94023552 3.7519697 3.90929162-.0155687.9261477-.3503288 1.7040974-.9777228 2.3693939.385284.4044675.5441793.868114.5342372 1.4598444-.0272223 1.5903528-1.4179816 2.5192548-3.3361932 2.4864663-1.3598044-.0247097-2.66750392-.5199649-3.55767657-1.1764808l.59355013-.8047971c.73192197.5398037 1.84340584.9607476 2.98175604.9814335 1.4270849.0243933 2.3025619-.5603466 2.3187074-1.503579.0122309-.7279492-.4474683-1.1346927-2.2314852-1.7832546-2.82144688-1.0137051-4.0164354-1.9989041-3.9819346-3.9118143.01412253-.8374852.38784591-1.65532203 1.09422452-2.32122007zm.85383831.57944536c-.6255636.51316749-.93773341 1.13765411-.9482152 1.75922141-.02413114 1.3379737.86528652 2.0712472 3.32197977 2.9539053.6296154.2288892 1.1406728.4492741 1.5479557.6788545.5178709-.5127385.775391-1.0865056.7871266-1.7846231.0248037-1.4090191-.8679016-2.1834547-3.0816497-2.94794865-.6702385-.23641511-1.2059152-.44678828-1.62719717-.65940946z" fill-rule="evenodd"/></svg>