<svg height="24" viewBox="0 0 24 24" width="24" xmlns="http://www.w3.org/2000/svg"><path d="m13 16v6h-1v-6zm3-2v6h-1v-6zm-6 0v6h-1v-6zm-.5-12c3.3557302 0 6.1175244 2.54294222 6.4634854 5.80692952l.0165146.19307048h1.02c2.6887547 0 4.8818181 2.1223067 4.9953805 4.7831104l.0046195.2168896c0 2.6887547-2.1223067 4.8818181-4.7831104 4.9953805l-.2168896.0046195v-1c2.209139 0 4-1.790861 4-4 0-2.1421954-1.6839685-3.89107888-3.8003597-3.99510469l-.1996403-.00489531h-1.5c-2.1421954 0-3.8910789 1.6839685-3.9951047 3.8003597l-.0048953.1996403h-1c0-2.585631 1.9626319-4.71286467 4.479421-4.97322634-.2328838-2.74313989-2.4808334-4.9125479-5.25821386-5.02240646l-.22120714-.0043672h-.5c-3.23839694 0-5.87757176 2.56557489-5.99586153 5.77506174l-.00413847.22493826v1c0 3.0633121 1.98511285 5.7363677 4.83979576 6.6605153l.24679065.074898-.27274164.9620873c-3.32861361-.943627-5.69321686-3.9414309-5.80936664-7.4283386l-.00447813-.269162v-1c0-3.78545172 3.00478338-6.86909868 6.75935025-6.99594098l.24064975-.00405902z"/></svg>