<svg width="24" height="24" viewBox="0 0 24 24" fill="none" xmlns="http://www.w3.org/2000/svg">
<path fill-rule="evenodd" clip-rule="evenodd" d="M4.5 2H4V2.5V13H5V3H14.5429L19 7.45711V13H20V7.25V7.04289L19.8536 6.89645L15.1036 2.14645L14.9571 2H14.75H4.5ZM4.82431 15.1189V21H5.8536V18.6509H6.32675C6.71688 18.6509 7.0337 18.6246 7.27719 18.572C7.52068 18.5194 7.73373 18.4309 7.91635 18.3064C8.37842 17.9937 8.60946 17.5192 8.60946 16.8828C8.60946 16.252 8.38949 15.7816 7.94955 15.4717C7.76417 15.3389 7.54558 15.2476 7.29379 15.1978C7.042 15.1452 6.6906 15.1189 6.23959 15.1189H4.82431ZM6.16903 17.8457H5.837V15.9241H6.21884C6.67261 15.9241 6.99358 15.9863 7.18173 16.1108C7.43352 16.2741 7.55941 16.5411 7.55941 16.9119C7.55941 17.3048 7.42107 17.569 7.14437 17.7046C6.95346 17.7987 6.62834 17.8457 6.16903 17.8457ZM9.84595 15.1189V21H11.2363C11.798 21 12.2435 20.9668 12.5728 20.9004C12.902 20.8312 13.1912 20.7136 13.4402 20.5476C14.1651 20.0662 14.5276 19.2333 14.5276 18.0491C14.5276 17.385 14.4045 16.8247 14.1582 16.3682C13.8566 15.8065 13.3876 15.4399 12.7512 15.2683C12.386 15.1687 11.9115 15.1189 11.3276 15.1189H9.84595ZM11.282 20.1699H10.8752V15.949H11.2363C11.6624 15.949 11.9792 15.9711 12.1868 16.0154C12.6212 16.1067 12.9435 16.3502 13.1538 16.7458C13.353 17.1166 13.4526 17.5552 13.4526 18.0615C13.4526 18.4129 13.4028 18.7311 13.3032 19.0161C13.1759 19.3813 12.9823 19.6553 12.7222 19.8379C12.4123 20.0592 11.9322 20.1699 11.282 20.1699ZM16.0214 15.1189V21H17.0507V18.4309H19.3583V17.6008H17.0507V15.949H19.4787V15.1189H16.0214Z" fill="black"/>
</svg>
