<svg height="24" viewBox="0 0 24 24" width="24" xmlns="http://www.w3.org/2000/svg"><path d="m22 4v16h-20v-16zm-14.037 11.878-2.358 2.122h4.481zm9.07-1.43-3.228 3.552h6.195v-.585zm2.967-8.448h-16v10.754l4.03623745-3.6319761 3.92976255 3.9289761 4.999527-5.4996866 3.034473 3.0336866zm-11.5.5c1.6568542 0 3 1.34314575 3 3 0 1.6568542-1.3431458 3-3 3-1.65685425 0-3-1.3431458-3-3 0-1.65685425 1.34314575-3 3-3zm0 2c-.55228475 0-1 .44771525-1 1 0 .5522847.44771525 1 1 1s1-.4477153 1-1c0-.55228475-.44771525-1-1-1z" fill-rule="evenodd"/></svg>