<svg height="24" viewBox="0 0 24 24" width="24" xmlns="http://www.w3.org/2000/svg"><path d="m9.13163907 4.66190205.73672186.6761959-5.60080754 6.10145545c-.81148228.8114823-1.26755339 1.912409-1.26755339 3.0604466v4c0 .8288576.67114237 1.5 1.5 1.5h4c1.1480376 0 2.2489643-.4560711 3.0505213-1.2573413l8.5349253-9.03521209c.5852557-.58525568.9145534-1.38008861.9145534-2.20744661s-.3292977-1.62219093-.9145534-2.20744661l-.878-.878c-.5852557-.58525568-1.3800886-.91455339-2.2074466-.91455339s-1.6221909.32929771-2.1958369.90254931l-7.24360971 7.74400409c-.3590224.3590224-.56055339.8457585-.56055339 1.3534466v2c0 .2758576.22414237.5.5.5h2c.5076881 0 .9944242-.201531 1.3345542-.5405927l4.293-4.793.7448916.6671854-4.3118924 4.8129607c-.5465953.5465952-1.2877004.8534466-2.0605534.8534466h-2c-.82814237 0-1.5-.6718576-1.5-1.5v-2c0-.772853.30685136-1.5139581.84183693-2.0485493l7.24360967-7.74400409c.7727737-.77277373 1.821953-1.20744661 2.9145534-1.20744661s2.1417797.43467288 2.9145534 1.20744661l.878.878c.7727737.77277373 1.2074466 1.82195297 1.2074466 2.91455339s-.4346729 2.14177966-1.1975213 2.9043413l-8.5349253 9.0352121c-.9990084.9990083-2.35428471 1.5604466-3.7675534 1.5604466h-4c-1.38114237 0-2.5-1.1188576-2.5-2.5v-4c0-1.4132687.56143827-2.768545 1.54563907-3.752098z" fill-rule="evenodd"/></svg>