<svg height="24" viewBox="0 0 24 24" width="24" xmlns="http://www.w3.org/2000/svg"><path d="m18.1146618 15.8217686c-.5449014.4444905-1.8297816 1.1782314-3.1146618 1.1782314-2.7614237 0-5-2.2385763-5-5 0-2.76142375 2.2385763-5 5-5s5 2.23857625 5 5c0 1.1743279-.4048411 2.2541001-1.0825707 3.1073642.0011527.0010785-.0184398.0207238-.0511503.051808l3.8763617 3.8763617-.7071068.7071068zm-3.1146618.1782314c2.209139 0 4-1.790861 4-4s-1.790861-4-4-4-4 1.790861-4 4 1.790861 4 4 4zm-3 1v2h3v1h-7v-1h3v-2h-7.16666667c-.98124717 0-1.83333333-.7303596-1.83333333-1.7142857v-10.57142859c0-.98392614.85208616-1.71428571 1.83333333-1.71428571h14.33333337c.9812471 0 1.8333333.73035957 1.8333333 1.71428571v3.96791917c-.2834196-.4262666-.6198954-.81421506-1-1.15441789v-2.81350128c0-.3944891-.373096-.71428571-.8333333-.71428571h-14.33333337c-.46023729 0-.83333333.31979661-.83333333.71428571v10.57142859c0 .3944891.37309604.7142857.83333333.7142857h6.69445367c.2268019.2534031.7175395.5867364 1.472213 1zm-7.5-6c.27614237 0 .5.2238576.5.5v2c0 .2761424-.22385763.5-.5.5s-.5-.2238576-.5-.5v-2c0-.2761424.22385763-.5.5-.5zm2-4c.27614237 0 .5.22385763.5.5v6c0 .2761424-.22385763.5-.5.5s-.5-.2238576-.5-.5v-6c0-.27614237.22385763-.5.5-.5zm2 3c.27614237 0 .5.2238576.5.5v3c0 .2761424-.22385763.5-.5.5s-.5-.2238576-.5-.5v-3c0-.2761424.22385763-.5.5-.5z" fill-rule="evenodd"/></svg>