<svg height="24" viewBox="0 0 24 24" width="24" xmlns="http://www.w3.org/2000/svg"><path d="m12 1.76393202 10.2183399 7.42405848-4.0012691 11.8120095h-12.43414158l-4.00126909-11.8120095zm-2.67033987 14.72099998-1.844 2.515h9.02799997l-1.101-1.501zm-5.034-6.107 2.614 7.717 1.651-2.251-1.573-4.718zm15.01699997 1.149-2.98 5.535.756 1.032zm-2.013-.481-4.469 1.241 2.191 2.989zm-5.2996601 1.799068-1.3443399 1.832932 3.063.511zm-2.69033987-1.074068.69999997 2.097 1.159-1.581zm3.18999997-3.03099998.0003399 2.60206798 4.0976601-1.138068zm-1 .525-1.80199997 1.57599998 1.80199997.501zm0-4.666-6.71399997 4.878 2.608.72399998 4.10599997-3.59299998zm1 0v2.017l5.461 1.95z" fill-rule="evenodd"/></svg>