<svg height="24" viewBox="0 0 24 24" width="24" xmlns="http://www.w3.org/2000/svg"><path d="m18.1541722 2c1.3372781 0 1.8222075.13923842 2.3110964.40069906.4888888.26146063.8725717.6451435 1.1340323 1.13403238.2614607.48888889.4006991.97381825.4006991 2.31109636v12.3083444c0 1.3372781-.1392384 1.8222075-.4006991 2.3110964-.2614606.4888888-.6451435.8725717-1.1340323 1.1340323-.4888889.2614607-.9738183.4006991-2.3110964.4006991h-12.3083444c-1.33727811 0-1.82220747-.1392384-2.31109636-.4006991-.48888888-.2614606-.87257175-.6451435-1.13403238-1.1340323-.26146064-.4888889-.40069906-.9738183-.40069906-2.3110964v-12.3083444c0-1.33727811.13923842-1.82220747.40069906-2.31109636.26146063-.48888888.6451435-.87257175 1.13403238-1.13403238.48888889-.26146064.97381825-.40069906 2.31109636-.40069906zm0 1h-12.3083444c-1.06826023 0-1.44856785.07344079-1.8394975.28251225-.31462041.16826084-.55555721.40919764-.72381805.72381805-.20907146.39092965-.28251225.77123727-.28251225 1.8394975v12.3083444c0 1.0682602.07344079 1.4485678.28251225 1.8394975.16826084.3146204.40919764.5555572.72381805.723818.39092965.2090715.77123727.2825123 1.8394975.2825123h12.3083444c1.0682602 0 1.4485678-.0734408 1.8394975-.2825123.3146204-.1682608.5555572-.4091976.723818-.723818.2090715-.3909297.2825123-.7712373.2825123-1.8394975v-12.3083444c0-1.06826023-.0734408-1.44856785-.2825123-1.8394975-.1682608-.31462041-.4091976-.55555721-.723818-.72381805-.3909297-.20907146-.7712373-.28251225-1.8394975-.28251225zm-6.1484264 1c.2157063.00294393.431791.01443743.6462582.03437768l.320238.03623258.3030363.04047317.4964363 2.69805665.256266.09722842.2498992.1093204 2.2855663-1.5605955.2411312.18084392c.4807115.36052473.9180342.77291986 1.305815 1.23065606l.2266742.28003041.1899881.24573322-1.5855192 2.25412271.1095183.24354331.0974882.24896987 2.737426.4882961.0414167.3037974c.0806838.5918262.0941311 1.1887398.0403419 1.7822617l-.0403419.3556383-.0414167.3037975-2.73776.4883556-.0972913.2483577-.1093927.2431984 1.5854894 2.2550736-.1899468.2456799c-.3670972.4748087-.7853324.9057435-1.2489319 1.2869819l-.2835573.2227328-.2411312.1808439-2.2854448-1.5605125-.2489047.1090285-.2574764.0980404-.4964423 2.6990819-.3038056.0399319c-.1361478.0178951-.4080235.0406836-.8683802.0704221l-.0164841-.0003262-.2321863-.0004627c-.3580033-.024814-.608892-.0451014-.7590057-.0616606l-.0666883-.0079726-.3038056-.0399319-.4964387-2.6990621-.25767819-.0981088-.24873487-.1089606-2.28541646 1.5604932-.2411312-.1808439c-.48151435-.3611268-.91881901-.7731147-1.30614047-1.2301409l-.22634871-.2795738-.18994685-.2456799 1.58550328-2.2550932-.10940053-.243229-.0972753-.2483036-2.73778198-.4883595-.04141675-.3037975c-.08068374-.5918261-.09413104-1.1887397-.04034187-1.7822616l.04034187-.3556384.04141675-.3037974 2.73738236-.4882883.09744305-.24885955.10959276-.24368171-1.58550485-2.25410243.18998806-.24573322c.36771788-.47561145.78620829-.9071877 1.24931815-1.28819942l.28317103-.22248705.2411312-.18084392 2.285583 1.56060692.25071414-.10969156.25544308-.09691621.4964276-2.69800912.3030363-.04047317c.3185258-.04254193.6429368-.06619437.9779878-.07061026zm.0131786.99991316-.2238195.00625751-.2206517.01283248-.4676115 2.54139797-.5471526.19218352-.2091383.07935226-.2048389.08962447-.51654681.24153405-2.15482931-1.47132769c-.17906976.15146216-.35031981.31174453-.5132719.48036979l-.23814487.2591354 1.49067675 2.1192859-.25354204.52846418-.0893548.1986855-.07937684.2027211-.19681482.5418046-2.5749933.4593217c-.01734574.2302053-.02312766.4608716-.01734574.6913842l.01734574.3455769 2.57521476.4593612.19690018.541581.07926644.2023361.08922914.198382.2534229.5283133-1.4906414 2.1201693c.15428965.1764433.31724597.3449131.48843907.5049805l.26291351.2337457 2.15517276-1.4715622.51683018.2421648.2031928.088987.2123984.0808472.5453852.1929113.466533 2.5364691c.0844916.0069194.1778213.0142913.2778178.0220115l.1866723.0006534.0108709.000496.0008681.0006358.1329465-.0084421c.0447843-.0030174.0874776-.0059591.1280803-.0088224l.1155372-.0083529.4661939-2.5346257.5453319-.1929322.2123159-.0808242.203422-.0890862.5167837-.2420612 2.1551296 1.4715327c.1793227-.1515576.3506234-.3117321.5134723-.4800946l.237881-.258631-1.49066-2.1201956.2534909-.5283426.0891917-.1982913.0792536-.2023131.1968793-.5416356 2.5752362-.459365c.0173458-.2302053.0231277-.4608716.0173459-.6913842l-.0173454-.3455768-2.5749707-.4593177-.1968468-.5417208-.0794435-.2028956-.0893357-.1986666-.2534621-.52842979 1.4906533-2.11925259c-.1545346-.17684883-.3176062-.34559342-.4887367-.50575646l-.2626801-.23374873-2.1548314 1.47132916-.5165592-.24156156-.2042556-.08934597-.2098822-.07962178-.5469923-.19224698-.46766-2.54166137c-.1396262-.01052096-.2765763-.0167904-.4065591-.01874607zm-.0189244 4.00008684c1.6571361 0 3 1.3428639 3 3s-1.3428639 3-3 3-3-1.3428639-3-3 1.3428639-3 3-3zm0 1c-1.1048676 0-2 .8951324-2 2s.8951324 2 2 2 2-.8951324 2-2-.8951324-2-2-2z" fill-rule="evenodd"/></svg>