<svg height="24" viewBox="0 0 24 24" width="24" xmlns="http://www.w3.org/2000/svg"><path d="m10 0c5.5228475 0 10 4.4771525 10 10s-4.4771525 10-10 10-10-4.4771525-10-10 4.4771525-10 10-10zm2.7110565 14.0009479h-5.00789949c.49137504 1.2869618 1.2410967 2.4622063 2.25171734 3.5324294l.25223245.2595159.2522324-.2595159c1.0106207-1.0702231 1.7603423-2.2454676 2.2517173-3.5324294zm-7.12365227-.0002028-2.51647569.0004146c.95544132 1.6510344 2.4840432 2.9289223 4.31370021 3.5615582-.80033436-1.0998401-1.39952616-2.2884597-1.79722452-3.5619728zm11.34166727.0004146-2.1022622-.0004146c-.3708805 1.1876369-.9169963 2.3014434-1.6372325 3.3384947 1.5743398-.685398 2.8857418-1.8627667 3.7394947-3.3380801zm.8190593-6.00051566-2.472114-.00030622c.0920815.64780003.1381968 1.31448439.1381968 1.99966218 0 .6855308-.0461628 1.3525491-.1383392 2.0006634l2.4719985-.0003053c.1645884-.6393477.2521271-1.30963.2521271-2.0003581 0-.69036721-.0874472-1.36031003-.2518692-1.99935596zm-12.609934-.00030622-2.88632757.00030622c-.16442199.63904593-.25186923 1.30898875-.25186923 1.99935596 0 .6907281.08753869 1.3610104.25212715 2.0003581l2.88621201.0003053c-.09217636-.6481143-.13833916-1.3151326-.13833916-2.0006634 0-.68517779.04611527-1.35186215.1381968-1.99966218zm8.1140633-.00065109h-6.09030659c-.10805125.64232376-.16195351 1.30887908-.16195351 2.00031327 0 .6917921.05395807 1.3586795.16212133 2.0013106h6.08997087c.1081633-.6426311.1621214-1.3095185.1621214-2.0013106 0-.69143419-.0539023-1.35798951-.1619535-2.00031327zm-.0632517-5.3388094.088669.12840307c.6770182 1.00069007 1.193827 2.0718737 1.5494429 3.21097045l2.1025296-.00041083c-.8537389-1.47578128-2.1653776-2.65352703-3.7406415-3.33896269zm-5.80540338-.22387488c-1.83066419.63443278-3.35837143 1.91221684-4.31325491 3.56283757l2.51674313.00041083c.39769696-1.27388931.99699278-2.46284184 1.79651178-3.5632484zm.31917074 3.56304832h5.00866204c-.5313946-1.3922183-1.3650947-2.65370763-2.504331-3.79294399-1.13923637 1.13923636-1.97293645 2.40072569-2.50433104 3.79294399z" fill-rule="evenodd" transform="translate(2 2)"/></svg>