<svg width="24" height="24" viewBox="0 0 24 24" version="1.1" xmlns="http://www.w3.org/2000/svg" xmlns:xlink="http://www.w3.org/1999/xlink" xml:space="preserve" xmlns:serif="http://www.serif.com/" style="fill-rule:evenodd;clip-rule:evenodd;stroke-linejoin:round;stroke-miterlimit:2;">
    <g transform="matrix(0.0234375,0,0,0.0234375,0,0)">
        <path d="M512,938.667C747.648,938.667 938.667,747.648 938.667,512C938.667,276.352 747.648,85.333 512,85.333C276.352,85.333 85.333,276.352 85.333,512C85.333,747.648 276.352,938.667 512,938.667ZM256.896,489.131L316.459,489.131L316.459,531.798L174.208,531.798L174.208,489.131L214.101,489.131C225.024,334.123 354.218,192 512,192C669.782,192 798.976,334.123 809.899,489.131L849.792,489.131L849.792,531.798L809.899,531.798C798.976,686.806 688.128,789.334 530.347,789.334L530.347,849.793L487.68,849.793L487.68,707.542L530.347,707.542L530.347,746.667C664.534,746.667 756.267,663.211 767.104,531.798L707.541,531.798L707.541,489.131L767.104,489.131C756.267,357.718 646.187,234.667 512,234.667C377.813,234.667 267.733,357.718 256.896,489.131ZM714.965,600.363L693.034,636.971L495.402,502.742L495.402,298.667L538.069,298.667L538.069,478.592L714.965,600.363Z" style="fill-rule:nonzero;"/>
    </g>
</svg>
