<svg width="24" height="24" viewBox="0 0 24 24" fill="none" xmlns="http://www.w3.org/2000/svg">
<path fill-rule="evenodd" clip-rule="evenodd" d="M15 2H4V13H6V4H14.17L18 7.83V13H20V7L15 2ZM5.86569 19.5972H8.08615L8.5925 21H9.99533L7.67111 15.1189H6.28903L4.04367 21H5.3635L5.86569 19.5972ZM7.27268 17.3311L7.73752 18.6011H6.21018L6.66672 17.3311C6.79953 16.9603 6.90052 16.6545 6.9697 16.4138C7.07207 16.7458 7.17307 17.0516 7.27268 17.3311ZM10.7424 15.1189V21H12.0664V18.7588H12.6226C13.0265 18.7588 13.3558 18.7284 13.6104 18.6675C13.8677 18.6038 14.0863 18.5001 14.2661 18.3562C14.6812 18.0242 14.8887 17.5469 14.8887 16.9243C14.8887 16.5425 14.8015 16.2091 14.6272 15.9241C14.4114 15.5671 14.0987 15.3361 13.6892 15.231C13.3931 15.1562 12.9629 15.1189 12.3984 15.1189H10.7424ZM12.415 17.7627H12.0332V16.115H12.415C12.783 16.115 13.0514 16.1662 13.2202 16.2686C13.4499 16.4069 13.5647 16.6407 13.5647 16.97C13.5647 17.3048 13.4457 17.5303 13.2078 17.6465C13.0473 17.724 12.783 17.7627 12.415 17.7627ZM15.7229 15.1189V21H17.0469V18.7588H17.603C18.007 18.7588 18.3363 18.7284 18.5908 18.6675C18.8481 18.6038 19.0667 18.5001 19.2466 18.3562C19.6616 18.0242 19.8691 17.5469 19.8691 16.9243C19.8691 16.5425 19.782 16.2091 19.6077 15.9241C19.3918 15.5671 19.0792 15.3361 18.6697 15.231C18.3736 15.1562 17.9434 15.1189 17.3789 15.1189H15.7229ZM17.3955 17.7627H17.0137V16.115H17.3955C17.7635 16.115 18.0319 16.1662 18.2007 16.2686C18.4303 16.4069 18.5452 16.6407 18.5452 16.97C18.5452 17.3048 18.4262 17.5303 18.1882 17.6465C18.0278 17.724 17.7635 17.7627 17.3955 17.7627Z" fill="black"/>
</svg>
