<svg height="24" viewBox="0 0 24 24" width="24" xmlns="http://www.w3.org/2000/svg"><path d="m4 2h16v20h-16zm4.10065363 5.26858154c-1.01792772 1.02329182-1.60065363 2.40621383-1.60065363 3.87880126 0 3.0375661 2.46243388 5.5 5.5 5.5 3.0375661 0 5.5-2.4624339 5.5-5.5 0-1.45018079-.5650634-2.81385447-1.5557035-3.83308709l-1.4341871 1.39395382c.6313636.64958652.9898906 1.51482347.9898906 2.43913327 0 1.9329966-1.5670034 3.5-3.5 3.5s-3.5-1.5670034-3.5-3.5c0-.9385531.36976419-1.81607545 1.01857869-2.46830896zm4.89934637 5.35641846v-7.25h-2v7.25z" fill-rule="evenodd"/></svg>