<svg height="24" viewBox="0 0 24 24" width="24" xmlns="http://www.w3.org/2000/svg"><path d="m17.1336491 8h-10.26729821l-.62222223 2h11.51174264zm-.3111111-1-.9752431-3.13471006c-.0236414-.0759901-.0546012-.14950668-.0924441-.21951612-.323056-.59765362-1.0694387-.82025897-1.6670923-.49720295l-.8989659.48592753c-.7418098.40097828-1.6357754.40097828-2.3775852 0l-.89896592-.48592753c-.07000944-.03784295-.14352602-.06880274-.21951612-.0924441-.64870908-.20182061-1.33819963.16045408-1.54002023.80916317l-.97524313 3.13471006zm-11.62568682 3 2.00099717-6.43177661c.36588593-1.17606192 1.61588164-1.83283933 2.79194356-1.4669534.13776449.04286006.27104459.09898789.39796659.16759436l.8989659.48592753c.4450859.24058697.9814653.24058697 1.4265512 0l.8989659-.48592753c1.0835021-.58567682 2.436639-.18210968 3.0223158.90139243.0686065.12692198.1247343.26020213.1675943.39796661l2.0009972 6.43177661h2.1968512v1h-18v-1zm12.80314882 3h-5.0758395c.1710799.1207675.3199983.276185.4445159.4594785.1748939.2574488.2603913.4665879.4158659.924835l.0110158.0324679c.0919832.2709894.1389439.3862158.1800205.4490637-.1137202-.1739938.2572866.4140832.3372586.5156541.3140822.3989098.8191835.6185008 1.9767746.6185008.5568803 0 .9876031-.4096961 1.324643-1.2348376.1387243-.3396251.2433921-.7135839.3162822-1.0889643.0376612-.1939534.0595585-.34663.069463-.4381244zm-12.00313864 0-.00062738.1998892c.00723888.0831737.02970883.2521819.07322904.4763089.07289009.3753804.17755786.7493392.31628222 1.0889643.33703987.8251415.76776266 1.2348376 1.32464301 1.2348376 1.1576703 0 1.66314254-.2197084 1.97706386-.6184582.08002751-.1016528.45742109-.700345.33648839-.5149603.0410974-.0630005.0879677-.1781315.1801687-.4497807l.0105181-.0310019c.155696-.4589114.2411017-.6679097.4159913-.9255213.1246688-.1836365.2737967-.339332.4451474-.4602776zm13.00313864.2865948s-.3231899 3.7134052-2.7103882 3.7134052c-2.3798531 0-2.7684156-1.0015408-3.1511018-1.587057-.3826863-.5855162-.389297-1.6996886-1.13851-1.6996886s-.7565582 1.1141724-1.13851 1.6996886c-.3819517.5855162-.7712487 1.587057-3.15110175 1.587057-2.38719832 0-2.71038825-3.7134052-2.71038825-3.7134052v-1.2865948h14zm-16 4.0035051v3.7099001h7.8320113zm18 3.7099001v-3.7099001l-7.8320113 3.7099001zm-9-.5532578 10-4.7368421v6.2900999h-20v-6.2900999z" fill-rule="evenodd"/></svg>