<svg height="24" viewBox="0 0 24 24" width="24" xmlns="http://www.w3.org/2000/svg"><path d="m22.025 18v2h-20.05v-2zm-18.45153766-11.81923192c2.96286774 2.07400742 6.46933206 3.22492473 10.07820486 3.3136797l.4516106.00555222h1.3967222v-2.5l6.6666667 5-6.6666667 5v-2.5h-1.3967222c-3.616641 0-7.14925617 1.067957-10.15665767 3.0647988l-.37315779.2544331-1.14692468-1.6384638c3.29572883-2.3070102 7.19799038-3.5840573 11.21299784-3.6754888l.4637423-.0052793h3.3967222v.5l1.333-1-1.333-1v.5h-3.3967222c-4.0229497 0-7.95214538-1.1916023-11.29380012-3.41915429l-.38294002-.26161379zm18.45153766-2.18076808v2h-20.05v-2z"/></svg>