<?xml version="1.0" encoding="UTF-8" standalone="no"?>
<!DOCTYPE svg PUBLIC "-//W3C//DTD SVG 1.1//EN" "http://www.w3.org/Graphics/SVG/1.1/DTD/svg11.dtd">
<svg width="100%" height="100%" viewBox="0 0 24 24" version="1.1" xmlns="http://www.w3.org/2000/svg" xmlns:xlink="http://www.w3.org/1999/xlink" xml:space="preserve" xmlns:serif="http://www.serif.com/" style="fill-rule:evenodd;clip-rule:evenodd;stroke-linejoin:round;stroke-miterlimit:2;">
    <path d="M2,13C2,7.477 6.477,3 12,3C17.523,3 22,7.477 22,13C22,16.271 20.429,19.176 18.001,21L5.999,21C3.571,19.176 2,16.271 2,13ZM4,13C4,15.388 5.045,17.532 6.708,19L17.292,19C18.955,17.532 20,15.388 20,13C20,8.582 16.418,5 12,5C10.355,5 8.826,5.496 7.555,6.348L12.889,11.682L11.682,12.889L6.241,7.448C4.853,8.886 4,10.844 4,13Z"/>
</svg>
