<svg height="24" viewBox="0 0 24 24" width="24" xmlns="http://www.w3.org/2000/svg"><path d="m8.19153258 14.7374716c-.64201365.7714522-1.60942461 1.2625284-2.69153258 1.2625284-1.93299662 0-3.5-1.5670034-3.5-3.5s1.56700338-3.5 3.5-3.5c1.07806373 0 2.04228619.48741244 2.68432064 1.2538906l6.10418896-4.36013496c-.1856024-.42707524-.2885096-.89839781-.2885096-1.39375564 0-1.93299662 1.5670034-3.5 3.5-3.5s3.5 1.56700338 3.5 3.5-1.5670034 3.5-3.5 3.5c-1.0780637 0-2.0422862-.48741244-2.6843206-1.2538906l-6.10418898 4.360135c.18560237.4270752.28850958.8983978.28850958 1.3937556 0 .4921036-.10155958.9604868-.28486241 1.3853331l5.83660911 3.7276529c.622216-.97013 1.7101611-1.612986 2.9482533-1.612986 1.9329966 0 3.5 1.5670034 3.5 3.5s-1.5670034 3.5-3.5 3.5-3.5-1.5670034-3.5-3.5c0-.3352751.0471423-.6595396.1351598-.9665265zm-2.69153258.2625284c1.38071187 0 2.5-1.1192881 2.5-2.5s-1.11928813-2.5-2.5-2.5-2.5 1.1192881-2.5 2.5 1.11928813 2.5 2.5 2.5zm12-8c1.3807119 0 2.5-1.11928813 2.5-2.5s-1.1192881-2.5-2.5-2.5-2.5 1.11928813-2.5 2.5 1.1192881 2.5 2.5 2.5zm0 15c1.3807119 0 2.5-1.1192881 2.5-2.5s-1.1192881-2.5-2.5-2.5-2.5 1.1192881-2.5 2.5 1.1192881 2.5 2.5 2.5z" fill-rule="evenodd"/></svg>