<svg width="24" height="24" viewBox="0 0 24 24" fill="none" xmlns="http://www.w3.org/2000/svg">
<path fill-rule="evenodd" clip-rule="evenodd" d="M4.5 2H4V2.5V13H5V3H14.5429L19 7.45711V13H20V7.25V7.04289L19.8536 6.89645L15.1036 2.14645L14.9571 2H14.75H4.5ZM5.90756 20.228V21H10.2198V20.1699H7.16513L10.1244 15.8909V15.1189H6.00717V15.949H8.87094L5.90756 20.228ZM11.5767 15.1189V21H12.606V15.1189H11.5767ZM14.4069 15.1189V21H15.4362V18.6509H15.9093C16.2995 18.6509 16.6163 18.6246 16.8598 18.572C17.1033 18.5194 17.3163 18.4309 17.4989 18.3064C17.961 17.9937 18.1921 17.5192 18.1921 16.8828C18.1921 16.252 17.9721 15.7816 17.5321 15.4717C17.3468 15.3389 17.1282 15.2476 16.8764 15.1978C16.6246 15.1452 16.2732 15.1189 15.8222 15.1189H14.4069ZM15.7516 17.8457H15.4196V15.9241H15.8014C16.2552 15.9241 16.5762 15.9863 16.7643 16.1108C17.0161 16.2741 17.142 16.5411 17.142 16.9119C17.142 17.3048 17.0037 17.569 16.727 17.7046C16.536 17.7987 16.2109 17.8457 15.7516 17.8457Z" fill="black"/>
</svg>
