<svg width="24" height="24" viewBox="0 0 24 24" fill="none" xmlns="http://www.w3.org/2000/svg">
<path fill-rule="evenodd" clip-rule="evenodd" d="M15 2H4V13H6V4H14.17L18 7.83V13H20V7L15 2ZM5.83249 20.0662V21H10.4561V19.9624H7.4885L10.3564 16.0527V15.1189H5.93625V16.1565H8.70456L5.83249 20.0662ZM11.3816 15.1189V21H12.7056V15.1189H11.3816ZM14.1042 15.1189V21H15.4282V18.7588H15.9844C16.3883 18.7588 16.7176 18.7284 16.9722 18.6675C17.2295 18.6038 17.4481 18.5001 17.6279 18.3562C18.043 18.0242 18.2505 17.5469 18.2505 16.9243C18.2505 16.5425 18.1633 16.2091 17.989 15.9241C17.7732 15.5671 17.4605 15.3361 17.051 15.231C16.755 15.1562 16.3247 15.1189 15.7603 15.1189H14.1042ZM15.7769 17.7627H15.395V16.115H15.7769C16.1449 16.115 16.4132 16.1662 16.582 16.2686C16.8117 16.4069 16.9265 16.6407 16.9265 16.97C16.9265 17.3048 16.8075 17.5303 16.5696 17.6465C16.4091 17.724 16.1449 17.7627 15.7769 17.7627Z" fill="black"/>
</svg>
