<?xml version="1.0" encoding="UTF-8" standalone="no"?>
<!DOCTYPE svg PUBLIC "-//W3C//DTD SVG 1.1//EN" "http://www.w3.org/Graphics/SVG/1.1/DTD/svg11.dtd">
<svg width="100%" height="100%" viewBox="0 0 24 24" version="1.1" xmlns="http://www.w3.org/2000/svg" xmlns:xlink="http://www.w3.org/1999/xlink" xml:space="preserve" xmlns:serif="http://www.serif.com/" style="fill-rule:evenodd;clip-rule:evenodd;stroke-linejoin:round;stroke-miterlimit:2;">
    <path d="M11.066,13.897L11.066,22.069C7.923,21.755 5.85,20.52 4.241,18.069L11.066,13.897ZM12.065,13.308L19.661,8.948C20.274,10.128 20.581,11.581 20.581,13.308C20.581,15.036 20.147,16.536 19.28,17.811L12.065,13.308ZM12.065,14.668L15.741,16.896C14.913,17.864 13.439,18.589 12.066,18.84L12.065,14.668ZM6.629,11.407L9.902,13.371L6.289,15.392C6.142,14.891 6.066,14.368 6.066,13.835C6.066,12.981 6.261,12.154 6.629,11.407ZM11.065,4.393L11.065,12.722L4.1,8.724C4.925,6.831 7.667,4.561 10.076,4.393L11.065,4.393ZM20.938,7L12.065,12.163L12.066,2C16.066,2 19.452,4.335 20.938,7Z"/>
</svg>
