<?xml version="1.0" encoding="UTF-8" standalone="no"?>
<!DOCTYPE svg PUBLIC "-//W3C//DTD SVG 1.1//EN" "http://www.w3.org/Graphics/SVG/1.1/DTD/svg11.dtd">
<svg width="100%" height="100%" viewBox="0 0 24 24" version="1.1" xmlns="http://www.w3.org/2000/svg" xmlns:xlink="http://www.w3.org/1999/xlink" xml:space="preserve" xmlns:serif="http://www.serif.com/" style="fill-rule:evenodd;clip-rule:evenodd;stroke-linejoin:round;stroke-miterlimit:2;">
    <path d="M15,2L20,7L20,22L4,22L4,2L15,2ZM19,13L5,13L5,21L19,21L19,13ZM7,16L7,15L9,15L9,16L7,16ZM11,16L11,15L13,15L13,16L11,16ZM15,16L15,15L17,15L17,16L15,16ZM15,18L17,18L17,19L15,19L15,18ZM13,18L13,19L11,19L11,18L13,18ZM9,18L9,19L7,19L7,18L9,18Z"/>
</svg>
