<svg width="24" height="24" viewBox="0 0 24 24" fill="none" xmlns="http://www.w3.org/2000/svg">
<path fill-rule="evenodd" clip-rule="evenodd" d="M4.50001 2H4.00001V2.5V13H5.00001V3H14.5429L19 7.45711V13H20V7.25V7.04289L19.8536 6.89645L15.1036 2.14645L14.9571 2H14.75H4.50001ZM4.00934 15.949V21H5.03864V15.949H6.7735V15.1189H2.29938V15.949H4.00934ZM7.49783 15.1189V21H11.063V20.1699H8.52713V18.4309H10.8181V17.6008H8.52713V15.949H10.9385V15.1189H7.49783ZM13.7131 17.9951L11.6172 21H12.8208L14.3274 18.8335L15.8091 21H17.0459L14.9541 17.9993L17.0044 15.1189H15.8381L14.3606 17.2107L12.9204 15.1189H11.7209L13.7131 17.9951ZM18.9365 15.949V21H19.9658V15.949H21.7006V15.1189H17.2265V15.949H18.9365Z" fill="black"/>
</svg>
