<svg height="24" viewBox="0 0 24 24" width="24" xmlns="http://www.w3.org/2000/svg"><path d="m12 2c5.5228475 0 10 4.4771525 10 10s-4.4771525 10-10 10-10-4.4771525-10-10 4.4771525-10 10-10zm0 2c-4.418278 0-8 3.581722-8 8s3.581722 8 8 8 8-3.581722 8-8-3.581722-8-8-8zm1 1.5v1.5h2v2h-3c-1.6568542 0-3 1.3431458-3 3 0 1.5976809 1.24892 2.9036609 2.8237272 2.9949073l.1762728.0050927h3v2h-2v1.5h-2l-.000188-1.6000563c-2.28214664-.4633429-3.999812-2.4810522-3.999812-4.8999437 0-2.41889279 1.7176672-4.43660292 3.9998157-4.89994447l.0001843-1.60005553z"/></svg>