<svg width="24" height="24" viewBox="0 0 24 24" fill="none" xmlns="http://www.w3.org/2000/svg">
<path fill-rule="evenodd" clip-rule="evenodd" d="M4.50001 2H4.00001V2.5V13H5.00001V3H14.5429L19 7.45711V13H20V7.25V7.04289L19.8535 6.89645L15.1035 2.14645L14.9571 2H14.75H4.50001ZM4.9397 15.1189H3.9104V18.8335C3.9104 19.1489 3.9021 19.3841 3.8855 19.5391C3.8689 19.694 3.83708 19.8158 3.79004 19.9043C3.67936 20.134 3.45109 20.2488 3.10523 20.2488C2.86727 20.2488 2.60995 20.1865 2.33325 20.062L2.24609 20.9211C2.55599 21.0374 2.89771 21.0955 3.27124 21.0955C3.9021 21.0955 4.35311 20.9101 4.62427 20.5393C4.75155 20.3705 4.83594 20.1713 4.87744 19.9417C4.91895 19.7092 4.9397 19.3288 4.9397 18.8003V15.1189ZM5.86972 19.896L5.72445 20.7925C6.31658 20.9945 6.90178 21.0955 7.48007 21.0955C8.10263 21.0955 8.59376 20.9557 8.95346 20.6763C9.35466 20.3636 9.55526 19.9154 9.55526 19.3315C9.55526 18.8224 9.39202 18.4337 9.06552 18.1653C8.94101 18.0601 8.79436 17.9633 8.62558 17.8748C8.45679 17.7862 8.19394 17.6686 7.837 17.522C7.41643 17.3477 7.1342 17.1982 6.99032 17.0737C6.84921 16.9492 6.77865 16.7901 6.77865 16.5964C6.77865 16.3723 6.86581 16.1911 7.04013 16.0527C7.20614 15.9199 7.43026 15.8535 7.71249 15.8535C8.09986 15.8535 8.56609 15.967 9.11117 16.1938L9.31454 15.3181C8.70305 15.1217 8.15382 15.0234 7.66684 15.0234C7.09132 15.0234 6.63477 15.159 6.29721 15.4302C5.90154 15.7456 5.7037 16.1869 5.7037 16.7542C5.7037 17.2135 5.86557 17.5718 6.1893 17.8291C6.31104 17.9232 6.44524 18.009 6.59189 18.0864C6.73853 18.1611 6.98617 18.2732 7.33481 18.4226C7.82178 18.6274 8.13306 18.7892 8.26864 18.9082C8.40422 19.0272 8.47201 19.1946 8.47201 19.4104C8.47201 19.6539 8.39039 19.8531 8.22714 20.0081C8.05006 20.1796 7.79273 20.2654 7.45517 20.2654C7.02353 20.2654 6.49504 20.1423 5.86972 19.896ZM14.8224 15.9116C14.3465 15.3195 13.6658 15.0234 12.7804 15.0234C11.6294 15.0234 10.8242 15.527 10.3649 16.5342C10.1574 16.9852 10.0536 17.4819 10.0536 18.0242C10.0536 18.9068 10.2833 19.6345 10.7426 20.2073C11.2185 20.7994 11.8978 21.0955 12.7804 21.0955C13.5939 21.0955 14.2331 20.8464 14.6979 20.3484C15.2402 19.7646 15.5114 19.0023 15.5114 18.0615C15.5114 17.2038 15.2817 16.4871 14.8224 15.9116ZM11.5312 16.5093C11.8272 16.0721 12.2436 15.8535 12.7804 15.8535C13.2702 15.8535 13.6631 16.0389 13.9591 16.4097C14.2773 16.8026 14.4364 17.3532 14.4364 18.0615C14.4364 18.7035 14.3022 19.2195 14.0338 19.6096C13.7323 20.0468 13.3144 20.2654 12.7804 20.2654C12.2962 20.2654 11.9047 20.08 11.6059 19.7092C11.2877 19.3136 11.1286 18.756 11.1286 18.0366C11.1286 17.4113 11.2628 16.9022 11.5312 16.5093ZM16.3169 15.1189V21H17.3047V17.8623C17.3047 17.3311 17.2978 16.9049 17.2839 16.584C17.5606 17.1401 17.8083 17.5994 18.0269 17.9619L19.8696 21H21.011V15.1189H20.0232V18.5181C20.0232 18.9442 20.0301 19.2817 20.0439 19.5308C19.7368 18.9248 19.5072 18.4959 19.355 18.2441L17.4666 15.1189H16.3169Z" fill="black"/>
</svg>
