<?xml version="1.0" encoding="UTF-8" standalone="no"?>
<!DOCTYPE svg PUBLIC "-//W3C//DTD SVG 1.1//EN" "http://www.w3.org/Graphics/SVG/1.1/DTD/svg11.dtd">
<svg width="100%" height="100%" viewBox="0 0 24 24" version="1.1" xmlns="http://www.w3.org/2000/svg" xmlns:xlink="http://www.w3.org/1999/xlink" xml:space="preserve" xmlns:serif="http://www.serif.com/" style="fill-rule:evenodd;clip-rule:evenodd;stroke-linejoin:round;stroke-miterlimit:2;">
    <path d="M2,7L2,5L12.671,5C13.083,3.835 14.194,3 15.5,3C16.806,3 17.918,3.835 18.329,5L22,5L22,7L18.329,7C17.918,8.165 16.806,9 15.5,9C14.194,9 13.083,8.165 12.671,7L2,7ZM15.5,4.775C14.823,4.775 14.275,5.323 14.275,6C14.275,6.677 14.823,7.225 15.5,7.225C16.177,7.225 16.725,6.677 16.725,6C16.725,5.323 16.177,4.775 15.5,4.775ZM2,13L2,11L3.671,11C4.083,9.835 5.194,9 6.5,9C7.806,9 8.917,9.835 9.329,11L22,11L22,13L9.329,13C8.917,14.165 7.806,15 6.5,15C5.194,15 4.083,14.165 3.671,13L2,13ZM6.5,10.764C5.818,10.764 5.264,11.318 5.264,12C5.264,12.682 5.818,13.236 6.5,13.236C7.182,13.236 7.736,12.682 7.736,12C7.736,11.318 7.182,10.764 6.5,10.764ZM10.671,19L2,19L2,17L10.671,17C11.083,15.835 12.194,15 13.5,15C14.806,15 15.918,15.835 16.329,17L22,17L22,19L16.329,19C15.918,20.165 14.806,21 13.5,21C12.194,21 11.083,20.165 10.671,19ZM12.275,18C12.275,18.677 12.823,19.225 13.5,19.225C14.177,19.225 14.725,18.677 14.725,18C14.725,17.323 14.177,16.775 13.5,16.775C12.823,16.775 12.275,17.323 12.275,18Z"/>
</svg>
