<svg height="24" viewBox="0 0 24 24" width="24" xmlns="http://www.w3.org/2000/svg"><path d="m20 22h-16c0-2.289-.003-4.578.003-6.867.00437888-.3850548.06916726-.7670363.192-1.132.17585796-.5259457.50883926-.9852784.954-1.316.159-.115.332-.212.513-.288.27163327-.1117873.55848547-.1822363.851-.209.647-.052 1.296-.087 1.943-.13l.877-.059 2.667 2.537 2.67-2.536c.939.064 1.88.119 2.819.193.293.029.579.092.851.206.181.076.354.173.512.288.489.355.826.877.997 1.452.091.302.134.613.149.928.022.754.002 1.509.002 2.263zm-13.443-8.811c-.22865797.023289-.45051981.0912406-.653.2-.093.05-.18.11-.26.178-.26799261.2377583-.45824045.5506568-.546.898-.04966077.1864062-.08015233.3773973-.091.57l-.002.057c-.006.217-.003.433-.003.65l-.001 1.16-.001 4.098h14v-3.67c0-.742.02-1.484-.002-2.225-.006628-.2780606-.0579505-.5532438-.152-.815-.1155892-.3285493-.3296398-.6134846-.613-.816-.0992827-.0678837-.2059693-.1242465-.318-.168-.1813254-.0680106-.3717251-.1087865-.565-.121l-2.31-.157-3.04 2.887-3.038-2.888-.439.029c-.655.044-1.312.066-1.966.133zm6.087-11.143c.339.05.672.142.987.279.4298238.18472187.818935.4525119 1.145.788.117.119.226.247.326.381.643.859.898 1.946.898 3.005 0 .317-.022.633-.07.945-.124.805-.428 1.59-.953 2.22-.4300226.5156489-.9935697.9031092-1.629 1.12-.4344252.1455276-.8898546.2185044-1.348.216-.457 0-.914-.068-1.347-.216-.6358395-.2166354-1.19977372-.6041239-1.63-1.12-.525-.63-.829-1.415-.953-2.22-.04735192-.31275918-.07075327-.62867748-.07003444-.945 0-1.059.25503444-2.146.89803444-3.005.2195812-.29451978.48178909-.5547055.778-.772.216-.157.448-.291.693-.397.315-.137.648-.229.987-.279.178-.026.356-.038.535-.045h.219c.179.007.357.019.534.045zm-1.943 1.226c-.1527864.07174524-.2984364.15779592-.435.257-.1164698.08570661-.2258255.18068218-.327.284-.546.556-.819 1.321-.906 2.084-.022.2-.033.401-.033.602 0 .891.209 1.826.791 2.524.18486938.22451371.4063142.41620718.655.567.188.115.391.206.601.271.308.096.631.139.953.139s.645-.043.953-.139c.3724949-.11539026.7151927-.31097378 1.004-.573.09-.083.174-.171.252-.265.582-.698.791-1.633.791-2.524 0-.201-.011-.402-.033-.602-.087-.763-.36-1.528-.905-2.084-.2205739-.2237597-.4788577-.40689405-.763-.541-.3819625-.17108398-.7945443-.26326014-1.213-.271h-.172c-.4184425.00784941-.8310028.10002074-1.213.271z" fill-rule="evenodd"/></svg>