<svg height="24" viewBox="0 0 24 24" width="24" xmlns="http://www.w3.org/2000/svg"><path d="m11 4h-3.778l2.74616459 7.3244383.03183541.1755617c0 1.9329966-1.56700338 3.5-3.5 3.5-1.8685634 0-3.39512645-1.4642776-3.49482114-3.3079648l-.00517886-.1920352.03183541-.1755617 2.74616459-7.3244383h-2.778v-2h19v2h-2.778l2.7461646 7.3244383.0318354.1755617c0 1.9329966-1.5670034 3.5-3.5 3.5-1.8685634 0-3.3951264-1.4642776-3.4948211-3.3079648l-.0051789-.1920352.0318354-.1755617 2.7461646-7.3244383h-3.778v14h6v4h-15v-4h6zm-4.5 3.771-1.212 3.2289994h2.422zm12 0-1.212 3.2289994h2.422z"/></svg>