<svg width="24" height="24" viewBox="0 0 24 24" fill="none" xmlns="http://www.w3.org/2000/svg">
<path fill-rule="evenodd" clip-rule="evenodd" d="M4.5 3.30896L3.22361 3.94716L2.7764 3.05273L4.7764 2.05273L5.5 2.49995V6.99995H7V7.99995H3V6.99995H4.5V3.30896ZM8 3.99995H21V4.99995H8V3.99995ZM8 10.9999H21V11.9999H8V10.9999ZM8 17.9999H21V18.9999H8V17.9999ZM4.84805 8.99995C3.8274 8.99995 3 9.82735 3 10.848V10.9999H4V10.848C4 10.3796 4.37969 9.99995 4.84805 9.99995C5.73033 9.99995 6.16578 11.0724 5.53325 11.6874L3.3181 13.8415L3.16667 13.9887V14.1999V14.4999V14.9999H3.66667H7V13.9999H4.58955L6.2304 12.4044C7.50648 11.1635 6.62799 8.99995 4.84805 8.99995ZM6.5 15.9999H3V16.9999H5.03326L3.27794 18.3541L3.62604 19.2481L4.98425 19.1317C5.53063 19.0849 6 19.5157 6 20.0641C6 20.5759 5.5749 20.9999 5.05301 20.9999C4.51869 20.9999 4.08334 20.5659 4.08334 20.0416V19.9999H3.08334V20.0416C3.08334 21.1282 3.9765 21.9999 5.05301 21.9999C6.11709 21.9999 7 21.1383 7 20.0641C7 19.0327 6.19723 18.2022 5.2019 18.1328L6.80541 16.8958L6.5 15.9999Z" fill="black"/>
</svg>
