<svg height="24" viewBox="0 0 24 24" width="24" xmlns="http://www.w3.org/2000/svg"><path d="m3.5 3h7c.2761424 0 .5.22385763.5.5v7c0 .2761424-.2238576.5-.5.5h-7c-.27614237 0-.5-.2238576-.5-.5v-7c0-.27614237.22385763-.5.5-.5zm10 0h7c.2761424 0 .5.22385763.5.5v7c0 .2761424-.2238576.5-.5.5h-7c-.2761424 0-.5-.2238576-.5-.5v-7c0-.27614237.2238576-.5.5-.5zm0 10h7c.2761424 0 .5.2238576.5.5v7c0 .2761424-.2238576.5-.5.5h-7c-.2761424 0-.5-.2238576-.5-.5v-7c0-.2761424.2238576-.5.5-.5zm-10 0h7c.2761424 0 .5.2238576.5.5v7c0 .2761424-.2238576.5-.5.5h-7c-.27614237 0-.5-.2238576-.5-.5v-7c0-.2761424.22385763-.5.5-.5z" fill-rule="evenodd"/></svg>