<?xml version="1.0" encoding="UTF-8" standalone="no"?>
<!DOCTYPE svg PUBLIC "-//W3C//DTD SVG 1.1//EN" "http://www.w3.org/Graphics/SVG/1.1/DTD/svg11.dtd">
<svg width="100%" height="100%" viewBox="0 0 24 24" version="1.1" xmlns="http://www.w3.org/2000/svg" xmlns:xlink="http://www.w3.org/1999/xlink" xml:space="preserve" xmlns:serif="http://www.serif.com/" style="fill-rule:evenodd;clip-rule:evenodd;stroke-linejoin:round;stroke-miterlimit:2;">
    <g>
        <path d="M10.99,3.993C7.674,4.101 5.083,6.688 4.039,8.908L3.846,9.318L6.673,11.085C6.237,11.892 5.99,12.809 5.99,13.781C5.99,14.571 6.153,15.324 6.448,16.011L3.984,17.527L4.252,17.962C5.751,20.391 8.436,22.01 11.5,22.01L12.01,22.01L12.01,18.61C13.611,18.607 15.04,17.778 15.957,16.48L18.891,18.191L19.152,17.768C20.014,16.375 20.51,14.744 20.51,13C20.51,11.404 20.095,9.902 19.364,8.591L21.215,7.533L20.931,7.082C19.007,4.034 15.505,1.99 11.5,1.99L10.99,1.99L10.99,3.993ZM10.99,14.413L10.988,18.52L10.99,18.521L10.99,20.973C8.687,20.818 6.669,19.622 5.403,17.852L10.99,14.413ZM15.072,15.964C14.345,16.95 13.246,17.587 12.01,17.59L12.01,14.179L15.072,15.964ZM12.16,12.914L18.534,9.199C19.145,10.336 19.49,11.629 19.49,13C19.49,14.371 19.144,15.665 18.533,16.802L15.704,15.152L12.16,12.914ZM9.407,12.793L10.434,13.435L7.254,15.266C7.096,14.799 7.01,14.3 7.01,13.781C7.01,13.035 7.188,12.328 7.504,11.698L7.504,11.698L9.407,12.793ZM10.99,5.014L10.99,12.415L10.893,12.472L9.932,11.918L5.167,8.94C6.181,7.104 8.302,5.115 10.99,5.014ZM12.01,4.014L12.01,3.022C15.238,3.177 18.063,4.788 19.771,7.183L12.01,11.621L12.011,4.014L12.01,4.014Z" style="fill:rgb(33,33,33);"/>
    </g>
</svg>
