<svg height="24" viewBox="0 0 24 24" width="24" xmlns="http://www.w3.org/2000/svg"><path d="m12 2c5.5228475 0 10 4.4771525 10 10s-4.4771525 10-10 10-10-4.4771525-10-10 4.4771525-10 10-10zm2.5301942 3.00714286h-.6578355c-1.3330851 0-2.5165716.85312582-2.9379655 2.11785627l-.8088483 2.42759827h-3.17035009v.9987013h2.83759403l-1.569088 4.7093071c-.28549461.8568556-1.08730731 1.4348487-1.99047318 1.4348487h-.57673415v.9987013h.57673415c1.33308512 0 2.5165716-.8531258 2.93796552-2.1178562l1.67427362-5.0250009h.8124849c.556438 0 1.0900857.2210441 1.4835468.6145052l.8338085.8338085-.8338085.8338085c-.3934611.3934611-.9271088.6145052-1.4835468.6145052h-.1573023v.9987013h.1573023c.8213101 0 1.6089814-.3262641 2.1897353-.907018l.8338085-.8338085.8338085.8338085c.578503.578503 1.3623226.9044851 2.1801871.9070034v-.9987084c-.5529914-.0025132-1.0827886-.2232734-1.4739987-.6144835l-.8338085-.8338085.8338085-.8338085c.3934611-.3934611.9271088-.6145052 1.4835468-.6145052h1.2891532v-.9987013h-1.2891532c-.82131 0-1.6089813.32626414-2.1897352.907018l-.8338085.8338085-.8338085-.8338085c-.5807539-.58075386-1.3684252-.907018-2.1897353-.907018h-.4797289l.7036628-2.11190451c.2854946-.85685554 1.0873073-1.43484873 1.9904731-1.43484873h.6578355z" fill-rule="evenodd"/></svg>