<svg height="24" viewBox="0 0 24 24" width="24" xmlns="http://www.w3.org/2000/svg"><path d="m12 3.12962717-2.64164633 5.35168479c-.07276987.14742375-.21336247.24965338-.37603957.27343107l-5.90810827.86355852 4.27466057 4.16351935c.11793687.1148706.17176818.2804361.14393791.4427008l-1.00871391 5.881315 5.283184-2.7783735c.1456914-.0766176.3197598-.0766176.4654512 0l5.283184 2.7783735-1.0087139-5.881315c-.0278303-.1622647.026001-.3278302.1439379-.4427008l4.2746606-4.16351935-5.9081083-.86355852c-.1626771-.02377769-.3032697-.12600732-.3760396-.27343107zm-3.42213068 4.67360588 2.97377698-6.02454501c.1834177-.37158405.7132897-.37158405.8967074 0l2.973777 6.02454501 6.6501834.97202392c.4099573.0599214.5733491.56384204.2765523.85292208l-4.8116055 4.68650375 1.1355434 6.6207955c.0700593.4084811-.3587152.7199627-.7255299.5270585l-5.9472744-3.127612-5.94727436 3.127612c-.36681479.1929042-.79558921-.1185774-.72552995-.5270585l1.13554342-6.6207955-4.81160551-4.68650375c-.29679676-.28908004-.13340504-.79300068.2765523-.85292208z" fill-rule="evenodd"/></svg>