<svg height="24" viewBox="0 0 24 24" width="24" xmlns="http://www.w3.org/2000/svg"><path d="M19,10.5l0,2.5l2.1,-2.8c0.166,-0.221 0.479,-0.266 0.7,-0.1c0.221,0.166 0.266,0.479 0.1,0.7l-3,4c-0.2,0.267 -0.6,0.267 -0.8,0l-3,-4c-0.166,-0.221 -0.121,-0.534 0.1,-0.7c0.221,-0.166 0.534,-0.121 0.7,0.1l2.1,2.8l0,-2.5l-0.9,-1.2c-0.663,-0.884 -1.916,-1.063 -2.8,-0.4c-0.884,0.663 -1.063,1.916 -0.4,2.8l3,4c0.18,0.24 0.401,0.427 0.644,0.559c-1.528,2.257 -4.113,3.741 -7.044,3.741c-4.694,0 -8.5,-3.806 -8.5,-8.5c0,-4.694 3.806,-8.5 8.5,-8.5c4.356,0 8.005,3.277 8.5,7.5Zm-12.652,2.943l0.514,0.857l4.195,-2.517l0,-6.783l-1,0l0,6.217l-3.709,2.226Z"/></svg>
