<svg height="24" viewBox="0 0 24 24" width="24" xmlns="http://www.w3.org/2000/svg"><path d="m2.9995721 11.874 8 3.295v5.831h-7.9995721zm10 4.118 8 3.295.0004279 1.713h-8.0004279zm8.0004279-12.992-.0004279 14.125-12-4.942v-9.183zm-6 3c-1.6568542 0-3 1.34314575-3 3 0 1.1045695 1 2.7712362 3 5 2-2.2287638 3-3.8954305 3-5 0-1.65685425-1.3431458-3-3-3zm-8.0004279-3v8.359l-4-1.647.0004279-6.712zm8.0004279 5c.5522847 0 1 .44771525 1 1l-.0038685.05785326c-.0361275.28981624-.3256102.85580587-.8813925 1.63466334l-.1151669.1574834-.1143111-.1574834c-.595481-.83449014-.885261-1.4246167-.885261-1.6925166 0-.55228475.4477153-1 1-1z" fill-rule="evenodd"/></svg>