<svg xmlns="http://www.w3.org/2000/svg" width="24" height="24" viewBox="0 0 24 24"><path d="M17 14.5h1v6h-1z"/><circle cx="17.5" cy="14.5" r=".5"/><circle cx="17.5" cy="20.5" r=".5"/><path d="M14.5 17h6v1h-6z"/><circle cx="14.5" cy="17.5" r=".5"/><circle cx="20.5" cy="17.5" r=".5"/><path d="M15 3h1v1h-1zM13 3h1v1h-1zM11 3h1v1h-1zM9 3h1v1H9zM7 3h1v1H7zM5 3h1v1H5zM4 3H3v1h1V3zM3 5h1v1H3zM3 7h1v1H3zM3 9h1v1H3zM3 11h1v1H3zM3 13h1v1H3zM4 15H3v1h1v-1zM5 17h1v1H5zM7 17h1v1H7zM9 17h1v1H9zM17 9h1v1h-1zM17 7h1v1h-1zM17 5h1v1h-1zM17 3h1v1h-1zM3 17h1v1H3zM11 17h1v1h-1zM17 11h1v1h-1z"/></svg>
