<svg height="24" viewBox="0 0 24 24" width="24" xmlns="http://www.w3.org/2000/svg"><path d="m7 2.15v1.85h10v-1.85h1v1.85h-12v-1.85zm1 14.85-6-.001v1.901c0 .5870005.60918686 1.1 1.4 1.1l4.6-.001zm7 0h-6v2.999h6zm7-.001-6 .001v2.999l4.6.001c.7908131 0 1.4-.5129995 1.4-1.1zm0-4-6 .001v3l6-.001zm-14 .001-6-.001v3l6 .001zm7 0h-6v3h6zm-13-4v2.999l6 .001v-3.001zm13-.001h-6v3.001h6zm7 .001-6-.001v3.001l6-.001zm-20-1h20v-2.53333333c0-.78266739-.6768743-1.46666667-1.5555556-1.46666667h-16.88888884c-.87868127 0-1.55555556.68399928-1.55555556 1.46666667z" fill-rule="evenodd"/></svg>