<svg height="24" viewBox="0 0 24 24" width="24" xmlns="http://www.w3.org/2000/svg"><path d="m16 15h-1v-11.5c0-.55228475-.4477153-1-1-1-.5128358 0-.9355072.38604019-.9932723.88337887l-.0067277.11662113v7.5h-1v-9c0-.55228475-.4477153-1-1-1-.5128358 0-.9355072.38604019-.9932723.88337887l-.0067277.11662113v9h-1v-8c0-.55228475-.44771525-1-1-1-.51283584 0-.93550716.38604019-.99327227.88337887l-.00672773.11662113v8.5h-1v-6.5c0-.55228475-.44771525-1-1-1-.51283584 0-.93550716.38604019-.99327227.88337887l-.00672773.11662113v6.6053362c0 2.3315346.34696771 4.6489948 1.0285759 6.8764167l1.3314241 3.5182471h9.954c1.7291833-1.9313291 2.682199-4.4344132 2.6753298-7.026721l-.0183298-6.917279-.1101505.02644752c-1.020076.26896869-2.7849954 1.16643648-2.8555318 2.25317678l-.0053177.1643757z"/></svg>