<?xml version="1.0" encoding="UTF-8" standalone="no"?>
<!DOCTYPE svg PUBLIC "-//W3C//DTD SVG 1.1//EN" "http://www.w3.org/Graphics/SVG/1.1/DTD/svg11.dtd">
<svg width="100%" height="100%" viewBox="0 0 24 24" version="1.1" xmlns="http://www.w3.org/2000/svg" xmlns:xlink="http://www.w3.org/1999/xlink" xml:space="preserve" xmlns:serif="http://www.serif.com/" style="fill-rule:evenodd;clip-rule:evenodd;stroke-linejoin:round;stroke-miterlimit:2;">
    <path d="M2,6.5L2,5.5L13.05,5.5C13.282,4.359 14.291,3.5 15.5,3.5C16.709,3.5 17.718,4.359 17.95,5.5L22,5.5L22,6.5L17.95,6.5C17.718,7.641 16.709,8.5 15.5,8.5C14.291,8.5 13.282,7.641 13.05,6.5L2,6.5ZM15.5,4.5C14.672,4.5 14,5.172 14,6C14,6.828 14.672,7.5 15.5,7.5C16.328,7.5 17,6.828 17,6C17,5.172 16.328,4.5 15.5,4.5ZM2,12.5L2,11.5L4.05,11.5C4.282,10.359 5.291,9.5 6.5,9.5C7.709,9.5 8.718,10.359 8.95,11.5L22,11.5L22,12.5L8.95,12.5C8.718,13.641 7.709,14.5 6.5,14.5C5.291,14.5 4.282,13.641 4.05,12.5L2,12.5ZM6.5,10.5C5.672,10.5 5,11.172 5,12C5,12.828 5.672,13.5 6.5,13.5C7.328,13.5 8,12.828 8,12C8,11.172 7.328,10.5 6.5,10.5ZM11.05,18.5L2,18.5L2,17.5L11.05,17.5C11.282,16.359 12.291,15.5 13.5,15.5C14.71,15.5 15.718,16.359 15.95,17.5L22,17.5L22,18.5L15.95,18.5C15.718,19.641 14.71,20.5 13.5,20.5C12.291,20.5 11.282,19.641 11.05,18.5ZM12,18C12,18.828 12.672,19.5 13.5,19.5C14.328,19.5 15,18.828 15,18C15,17.172 14.328,16.5 13.5,16.5C12.672,16.5 12,17.172 12,18Z"/>
</svg>
