<svg height="24" viewBox="0 0 24 24" width="24" xmlns="http://www.w3.org/2000/svg"><path d="m12 2c5.5228475 0 10 4.4771525 10 10s-4.4771525 10-10 10-10-4.4771525-10-10 4.4771525-10 10-10zm-1.8217042 15.1911351-1.02118808 3.3506392c.89359858.2972649 1.84944818.4582257 2.84289228.4582257.9487381 0 1.8631893-.1468 2.7218779-.4189244l-1.0214854-3.348963c-.5354635.1739005-1.1069521.2678874-1.7003925.2678874-.6384883 0-1.2515655-.1087975-1.8217042-.3088649zm6.6587977-2.5711913c-.5074088.9348318-1.2779147 1.7060965-2.2121646 2.2144405l1.0336927 3.3908739c2.0311181-.9048063 3.6652472-2.5398582 4.5688575-4.5716263zm-9.67147783.0049851-3.39087386 1.0336927c.88646686 1.9899496 2.47387681 3.5988401 4.44857281 4.5130143l1.03758667-3.4011486c-.88123163-.5070743-1.60870406-1.2513043-2.09528562-2.1455584zm4.83438433-7.1249289c-2.48528137 0-4.5 2.01471863-4.5 4.5 0 2.4852814 2.01471863 4.5 4.5 4.5 2.4852814 0 4.5-2.0147186 4.5-4.5 0-2.48528137-2.0147186-4.5-4.5-4.5zm-8.5417743 1.65710772c-.2972649.89359858-.4582257 1.84944818-.4582257 2.84289228 0 .9487381.14679997 1.8631893.41892441 2.7218779l3.34896302-1.0214854c-.17390053-.5354635-.26788743-1.1069521-.26788743-1.7003925 0-.6384883.10879751-1.2515655.30886492-1.8217042zm17.0852141.00501149-3.3505572 1.02116439c.1989534.5687259.3071174 1.1800896.3071174 1.8167164 0 .5915955-.0934034 1.1613755-.2662679 1.6953975l3.3489267 1.0214797c.2711105-.857238.4173412-1.7699806.4173412-2.7168772 0-.9915872-.1603596-1.9457203-.4565602-2.83788079zm-4.8898079-5.38959831-1.0336881 3.39038562c.8981633.48750576 1.6453395 1.21787371 2.1534139 2.10298924l3.4010752-1.03653361c-.9144502-1.97915333-2.5265195-3.56990275-4.520801-4.45684125zm-7.42426975.05304622c-1.93828401.89556689-3.50403949 2.46023884-4.40099809 4.3977475l3.40114861 1.03758667c.48629486-.84511956 1.19070686-1.54882354 2.03638309-2.03425903zm3.77063785-.82556712c-.9915872 0-1.9457203.16035964-2.83788079.45656023l1.02116439 3.35055715c.5687259-.19895333 1.1800896-.30711738 1.8167164-.30711738.5915955 0 1.1613755.09340344 1.6953975.26626787l1.0214797-3.34892662c-.857238-.2711106-1.7699806-.41734125-2.7168772-.41734125z"/></svg>