<svg height="24" viewBox="0 0 24 24" width="24" xmlns="http://www.w3.org/2000/svg"><path d="m19.3342191 4h-5.8342191c-.2761424 0-.5-.22385763-.5-.5s.2238576-.5.5-.5h6.9698267c.0050467 0 .0100759 0 .0150866.00022326.0050108-.00022326.01004-.00022326.0150867-.00022326.0046241 0 .0092336 0 .0138276.00018751.1254143-.00353047.2519602.04279285.3476786.13896995.0954319.0958892.1415444.22256839.1384938.34821289v.01262965 6.9698267c0 .2761424-.2238576.5-.5.5s-.5-.2238576-.5-.5v-5.79498099l-14.69279892 14.73152009c-.18465842.1855433-.48404886.1855433-.66870727 0s-.18465841-.4863684 0-.6719116z" fill-rule="evenodd"/></svg>