<?xml version="1.0" encoding="UTF-8" standalone="no"?>
<!DOCTYPE svg PUBLIC "-//W3C//DTD SVG 1.1//EN" "http://www.w3.org/Graphics/SVG/1.1/DTD/svg11.dtd">
<svg width="100%" height="100%" viewBox="0 0 24 24" version="1.1" xmlns="http://www.w3.org/2000/svg" xmlns:xlink="http://www.w3.org/1999/xlink" xml:space="preserve" xmlns:serif="http://www.serif.com/" style="fill-rule:evenodd;clip-rule:evenodd;stroke-linejoin:round;stroke-miterlimit:2;">
    <path d="M8.857,19.359C9.448,20.436 10.311,21.34 11.36,21.98C6.135,21.65 2,17.308 2,12C2,6.477 6.477,2 12,2C17.523,2 22,6.477 22,12C22.001,12.734 21.921,13.465 21.761,14.181C21.441,12.994 20.814,11.912 19.943,11.044C19.901,10.688 19.835,10.34 19.748,10L18.608,10C17.554,9.365 16.32,9 15,9C13.729,8.998 12.481,9.344 11.392,10L9.158,10C9.03,10.787 8.978,11.586 9.005,12.383C8.082,13.917 7.779,15.748 8.16,17.498C7.944,17.04 7.747,16.54 7.58,16L5.07,16C5.937,17.498 7.266,18.677 8.857,19.359ZM5.07,8L7.58,8C7.977,6.701 8.61,5.486 9.447,4.416C7.602,5.04 6.045,6.314 5.07,8ZM4.252,10C4.084,10.653 3.999,11.325 4,12C4,12.69 4.088,13.36 4.252,14L7.135,14C7.044,13.337 6.999,12.669 7,12C7,11.29 7.048,10.624 7.135,10L4.252,10ZM18.93,8C17.955,6.314 16.398,5.039 14.552,4.416C15.389,5.486 16.022,6.701 16.42,8L18.93,8ZM9.694,8L14.306,8C13.982,7.148 13.53,6.35 12.966,5.634C12.63,5.209 12.295,4.869 12,4.605C11.649,4.92 11.326,5.264 11.034,5.634C10.47,6.35 10.018,7.148 9.694,8ZM9,16C9,12.708 11.708,10 15,10C18.292,10 21,12.708 21,16C21,19.292 18.292,22 15,22C11.708,22 9,19.292 9,16ZM15,12C12.806,12 11,13.806 11,16C11,18.194 12.806,20 15,20C17.194,20 19,18.194 19,16C19,13.806 17.194,12 15,12ZM14,13L16,13L16,15L18,15L18,17L14,17L14,13Z"/>
</svg>
