<svg height="24" viewBox="0 0 24 24" width="24" xmlns="http://www.w3.org/2000/svg"><path d="m3 19 5-4 4.25 3.5416667 4.75-5.5416667 4 4v-12h-18zm18 0v-.5857864l-3.9435182-3.9435183-3.8822612 4.5293047zm-9.7620499 0-3.25085832-2.7090486-3.38631072 2.7090486zm-2.7379501-6.5c-1.65685425 0-3-1.3431458-3-3 0-1.65685425 1.34314575-3 3-3 1.6568542 0 3 1.34314575 3 3 0 1.6568542-1.3431458 3-3 3zm0-1c1.1045695 0 2-.8954305 2-2s-.8954305-2-2-2-2 .8954305-2 2 .8954305 2 2 2zm-6.5-7.5h20v16h-20z" fill-rule="evenodd"/></svg>