<svg height="24" viewBox="0 0 24 24" width="24" xmlns="http://www.w3.org/2000/svg"><path d="m16.3910438 6.90184944 4.7554028-4.75540283c.1952622-.19526215.5118446-.19526215.7071068 0 .1952621.19526215.1952621.51184463 0 .70710678l-4.5097162 4.5097162c1.9106722 1.03774366 3.5381267 2.62894208 4.6561628 4.63784961-2.0693758 3.7135458-5.8789781 5.9988808-10 5.9988808-1.5309451 0-3.0189112-.3153982-4.39064339-.9022498l-4.75580322 4.7558032c-.19526215.1952621-.51184463.1952621-.70710678 0-.19526215-.1952622-.19526215-.5118446 0-.7071068l4.51007172-4.5100717c-1.91030023-1.0373369-3.53773448-2.6275706-4.65651833-4.6352557 2.06780887-3.71547658 5.87816214-6.00211486 10-6.0011192 1.5311118-.00036985 3.0192434.31491955 4.3910438.90184944zm-8.01383454 9.42804806c1.1441194.4371279 2.36795504.6701025 3.62279074.6701025 3.5722149 0 6.8932044-1.8880351 8.8390735-4.9991883-1.062243-1.7003158-2.5353478-3.03549389-4.2358342-3.89694421l-1.4433107 1.44331068c.5265305.67734183.8400714 1.52846613.8400714 2.45282183.0007632 1.0610994-.4204187 2.078959-1.1707299 2.8292701-.7503111.7503112-1.7681707 1.1714931-2.8292701 1.1707299-.9243557 0-1.77548-.3135409-2.45282183-.8400714zm-.98007505-.4341385 1.44293719-1.4429372c-.52653057-.6773419-.8400714-1.5284663-.8400714-2.4528221 0-2.20913893 1.79086077-4 4-4 .9243555 0 1.7754799.31354113 2.4528218.8400717l1.1703756-1.17037555c-1.1441341-.43714404-2.3680456-.66999898-3.6229558-.66969615-3.57323513-.00086271-6.89472657 1.88813967-8.83931513 5.000812 1.0628563 1.6993479 2.53597576 3.0337821 4.23620774 3.8949473zm2.86459869-1.4503851c.4904094.3492305 1.0903519.5546269 1.7382671.5546269.7963536.0005714 1.5595651-.3152392 2.1221634-.8778374.5625982-.5625983.8784088-1.3258098.8778374-2.1221634 0-.6479152-.2053964-1.2478577-.5546269-1.7382671zm-.70710675-.7071068 4.18364095-4.18364095c-.4904095-.34923064-1.0903521-.55462615-1.7382671-.55462615-1.6568545 0-3 1.3431455-3 3 0 .647915.20539551 1.2478576.55462615 1.7382671z" fill-rule="evenodd"/></svg>