<svg height="24" viewBox="0 0 24 24" width="24" xmlns="http://www.w3.org/2000/svg"><path d="m10.6834645 16.8023782c-.0232982-.2751577.1808743-.5171042.4560321-.5404024.2751577-.0232982.5171041.1808743.5404024.4560321.119317 1.4091632-.3778297 2.8061217-1.3974639 3.8257559-1.88648223 1.8864823-4.94533821 1.8864823-6.83164588 0-1.88647954-1.8864795-1.88647954-4.9450098 0-6.8314894 1.09918886-1.0991888 2.63509215-1.5885428 4.14281765-1.3602737.27303091.0413368.46085612.2961822.41951934.5692131-.04133679.2730309-.29618216.4608561-.56921308.4195194-1.19689182-.181209-2.41391598.2065469-3.28601713 1.078648-1.49595525 1.4959553-1.49595525 3.9213206.00001636 5.4172922 1.49579771 1.4959362 3.92146347 1.4959362 5.41741599-.0000164.80905405-.809054 1.20285575-1.9156179 1.10813615-3.0342788zm2.6277909-9.61028212c.023333.27515483-.1808088.51712708-.4559637.54046015-.2751548.02333308-.517127-.18080879-.5404601-.45596362-.1194877-1.40905691.3777336-2.80609412 1.3974585-3.82581904 1.8865335-1.88653353 4.9450764-1.88658753 6.8314894 0 1.8864283 1.88642827 1.8865362 4.9451277.0000273 6.83146203-1.0991396 1.0993097-2.635134 1.5885834-4.1430992 1.3599732-.2730227-.0413907-.4607976-.2962732-.4194068-.569296.0413907-.2730227.2962732-.4607975.5692959-.4194068 1.1970469.1814744 2.414049-.2061879 3.2860924-1.07836618 1.4959789-1.49584054 1.4958933-3.92134977-.0000328-5.41727583-1.4958973-1.49603583-3.9212501-1.49599302-5.4172594.00001636-.8091383.80913831-1.2029885 1.91573472-1.1081415 3.03421573zm2.8243043-.04564947.7071067.70710678-8.98911301 8.98911301-.70710678-.7071067z" fill-rule="evenodd"/></svg>