<svg height="24" viewBox="0 0 24 24" width="24" xmlns="http://www.w3.org/2000/svg"><path d="m21 21v1h-2v-1zm-3 0v1h-2v-1zm-3 0v1h-2v-1zm-3 0v1h-2v-1zm-3 0v1h-2v-1zm13-2v2h-1v-2zm-7.4964466-10.03033009 2.3535534 2.35355339-.7071068.7071068-1.1501068-1.1496602v3.119h2.939l-1.146-1.1461165.7071068-.7071068 2.3535534 2.3535534-2.3535534 2.3535534-.7071068-.7071068 1.146-1.1467767h-2.939v3.139l1.1697768-1.169.7071068.7071068-2.3535534 2.3535534-2.3535534-2.3535534.7071068-.7071068 1.1231164 1.123v-3.093h-3.293l1.1466602 1.1467767-.7071068.7071068-2.35355338-2.3535534 2.35355338-2.3535534.7071068.7071068-1.1466602 1.1461165h3.293v-3.113l-1.1427864 1.1436602-.7071068-.7071068zm-6.5035534 9.03033009v2h-1v-2zm14-2v2h-1v-2zm-14-1v2h-1v-2zm7-13v4h-1v-3h-11v11h3v1h-4v-13zm7 11v2h-1v-2zm-14-1v2h-1v-2zm14-2v2h-1v-2zm-14-1v2h-1v-2zm14-2v2h-1v-1h-2v-1zm-13 0v1h-2v-1zm3 0v1h-2v-1zm3 0v1h-2v-1zm3 0v1h-2v-1z"/></svg>