<svg height="24" viewBox="0 0 24 24" width="24" xmlns="http://www.w3.org/2000/svg"><path d="m20 22h-16c0-2.289-.003-4.578.003-6.867.00437888-.3850548.06916726-.7670363.192-1.132.17585796-.5259457.50883926-.9852784.954-1.316.159-.115.332-.212.513-.288.27163327-.1117873.55848547-.1822363.851-.209.647-.052 1.296-.087 1.943-.13l.877-.059 2.667 2.537 2.67-2.536c.939.064 1.88.119 2.819.193.293.029.579.092.851.206.181.076.354.173.512.288.489.355.826.877.997 1.452.091.302.134.613.149.928.022.754.002 1.509.002 2.263zm-7.89-19.999c.179.007.357.019.534.045.339.05.672.142.987.279.4298238.18472187.818935.4525119 1.145.788.117.119.226.247.326.381.643.859.898 1.946.898 3.005 0 .317-.022.633-.07.945-.124.805-.428 1.59-.953 2.22-.4300226.5156489-.9935697.9031092-1.629 1.12-.4344252.1455276-.8898546.2185044-1.348.2160623-.457 0-.914-.0680623-1.347-.2160623-.6358395-.2166354-1.19977372-.6041239-1.63-1.12-.525-.63-.829-1.415-.953-2.22-.04735192-.31275918-.07075327-.62867748-.07001762-.945 0-1.059.25501762-2.146.89801762-3.005.2195812-.29451978.48178909-.5547055.778-.772.216-.157.448-.291.693-.397.315-.137.648-.229.987-.279.178-.026.356-.038.535-.045z" fill-rule="evenodd"/></svg>