<svg height="24" viewBox="0 0 24 24" width="24" xmlns="http://www.w3.org/2000/svg"><path d="m19.5644969 20h-15.09921213c-1.5352251-1.7578504-2.46528477-4.4828012-2.46528477-7 0-5.5228475 4.4771525-10 10-10s10 4.4771525 10 10c0 2.5008801-.9180398 5.2465757-2.4355031 7zm-14.03970351-9.5c-.42975422 0-.78925475.1363623-1.0785124.4090909-.29752215.2892577-.44628099.6528904-.44628099 1.0909091 0 .4297542.14875884.7933869.44628099 1.0909091.28099314.2727286.6322293.4090909 1.05371901.4090909s.77272587-.1363623 1.05371901-.4090909c.29752215-.2975222.44628099-.6611549.44628099-1.0909091 0-.4380187-.14875884-.8016514-.44628099-1.0909091-.28099314-.2727286-.62396492-.4090909-1.02892562-.4090909zm6.50000001-5.5c-.4297542 0-.7892548.13636227-1.0785124.40909091-.2975222.28925764-.446281.65289037-.446281 1.09090909 0 .42975421.1487588.79338694.446281 1.09090909.2809931.27272864.6322293.40909091 1.053719.40909091s.7727259-.13636227 1.053719-.40909091c.2975222-.29752215.446281-.66115488.446281-1.09090909 0-.43801872-.1487588-.80165145-.446281-1.09090909-.2809931-.27272864-.6239649-.40909091-1.0289256-.40909091zm6.5 5.5c-.4297542 0-.7892548.1363623-1.0785124.4090909-.2975222.2892577-.446281.6528904-.446281 1.0909091 0 .4297542.1487588.7933869.446281 1.0909091.2809931.2727286.6322293.4090909 1.053719.4090909s.7727259-.1363623 1.053719-.4090909c.2975222-.2975222.446281-.6611549.446281-1.0909091 0-.4380187-.1487588-.8016514-.446281-1.0909091-.2809931-.2727286-.6239649-.4090909-1.0289256-.4090909zm.0107405-3.82842712-1.2071068-1.20710679-6.2175144 6.21751441 1.2071068 1.2071068z" fill-rule="evenodd"/></svg>