<?xml version="1.0" encoding="UTF-8" standalone="no"?>
<!DOCTYPE svg PUBLIC "-//W3C//DTD SVG 1.1//EN" "http://www.w3.org/Graphics/SVG/1.1/DTD/svg11.dtd">
<svg width="100%" height="100%" viewBox="0 0 24 24" version="1.1" xmlns="http://www.w3.org/2000/svg" xmlns:xlink="http://www.w3.org/1999/xlink" xml:space="preserve" xmlns:serif="http://www.serif.com/" style="fill-rule:evenodd;clip-rule:evenodd;stroke-linejoin:round;stroke-miterlimit:2;">
    <path d="M13.324,7.98L13.22,8.23C12.131,10.859 9.501,12.025 7.11,12C4.718,11.974 2.116,10.75 1.099,8.09L3.901,7.019C4.366,8.235 5.635,8.983 7.142,9C8.649,9.016 9.946,8.295 10.449,7.081L10.552,6.831C11.63,4.23 14.213,3.027 16.603,3C18.993,2.974 21.604,4.117 22.755,6.686L22.869,6.941L20.131,8.168L20.017,7.913C19.472,6.697 18.151,5.983 16.637,6C15.122,6.017 13.829,6.76 13.324,7.98ZM2,17L10,17L10,12L22,12L22,15L13,15L13,20L2,20L2,17Z"/>
</svg>
