<svg height="24" viewBox="0 0 24 24" width="24" xmlns="http://www.w3.org/2000/svg"><path d="m12 2c5.5228475 0 10 4.4771525 10 10s-4.4771525 10-10 10-10-4.4771525-10-10 4.4771525-10 10-10zm-8 10c0 4.418278 3.581722 8 8 8 1.8482015 0 3.550021-.6267357 4.9045228-1.6792713l-2.147075-2.1491636c-.7904446.5235432-1.7383406.8284349-2.7574478.8284349-2.76142375 0-5-2.2385763-5-5 0-2.4188915 1.71766536-4.43660076 3.999812-4.89994372l.0002367-3.0381686c-3.94633514.49207646-7.0000487 3.85847788-7.0000487 7.93811232zm15.9379871 1.0009551-3.0382462.0002313c-.1296583.637948-.380782 1.2317668-.7281758 1.7562614l2.1491636 2.147075c.8594839-1.1060647 1.4350403-2.4437242 1.6172584-3.9035677zm-7.9379871-4.0009551c-1.6568542 0-3 1.3431458-3 3s1.3431458 3 3 3 3-1.3431458 3-3-1.3431458-3-3-3zm1.0008953-4.93799455-.0004329 3.03810655c1.9588481.39781868 3.5017696 1.94081304 3.8994813 3.8997l3.0381686.0002367c-.4511908-3.61844185-3.3189057-6.48643217-6.937217-6.93804325z" fill-rule="evenodd"/></svg>