<svg height="24" viewBox="0 0 24 24" width="24" xmlns="http://www.w3.org/2000/svg"><path d="m22 2v1h-3.153l3.1211646 8.3244383.0318354.1755617c0 1.9329966-1.5670034 3.5-3.5 3.5-1.8685634 0-3.3951264-1.4642776-3.4948211-3.3079648l-.0051789-.1920352.0318354-.1755617 3.1211646-8.3244383h-5.153v15h7v4h-15v-4h7v-15h-5.153l3.12116459 8.3244383.03183541.1755617c0 1.9329966-1.56700338 3.5-3.5 3.5-1.8685634 0-3.39512645-1.4642776-3.49482114-3.3079648l-.00517886-.1920352.03183541-.1755617 3.12116459-8.3244383h-3.153v-1zm-3 17h-13v2h13zm-10.05009729-6.9995655h-4.89980542c.21063069 1.0366962 1.06278105 1.8403546 2.12399042 1.9785144l.1615366.0157334.16437569.0053177c1.20932545 0 2.21809967-.8586618 2.44990271-1.9995655zm11.99999999 0h-4.8998054c.2106307 1.0366962 1.062781 1.8403546 2.1239904 1.9785144l.1615366.0157334.1643757.0053177c1.2093254 0 2.2180997-.8586618 2.4499027-1.9995655zm-2.4499027-7.0764345-2.279 6.076h4.558zm-12 0-2.279 6.076h4.558z"/></svg>