<svg height="24" viewBox="0 0 24 24" width="24" xmlns="http://www.w3.org/2000/svg"><path d="m18.1541722 2c1.3372781 0 1.8222075.13923842 2.3110964.40069906.4888888.26146063.8725717.6451435 1.1340323 1.13403238.2614607.48888889.4006991.97381825.4006991 2.31109636v12.3083444c0 1.3372781-.1392384 1.8222075-.4006991 2.3110964-.2614606.4888888-.6451435.8725717-1.1340323 1.1340323-.4888889.2614607-.9738183.4006991-2.3110964.4006991h-12.3083444c-1.33727811 0-1.82220747-.1392384-2.31109636-.4006991-.48888888-.2614606-.87257175-.6451435-1.13403238-1.1340323-.26146064-.4888889-.40069906-.9738183-.40069906-2.3110964v-12.3083444c0-1.33727811.13923842-1.82220747.40069906-2.31109636.26146063-.48888888.6451435-.87257175 1.13403238-1.13403238.48888889-.26146064.97381825-.40069906 2.31109636-.40069906zm-6.1491446 3c-.1954464.00257594-.3867551.01263275-.5751586.03008047l-.2805807.03170351-.2651568.03541402-.4343742 2.36075798-.2235127.08480169-.2193748.09598011-1.99988515-1.36553106-.21098981.15823844-.29621344.2348944c-.30880447.2587512-.59445399.54346377-.85450973.85154972l-.19020486.23540654-.16623955.21501656 1.38731675 1.97233963-.09589367.21322149-.08526267.2177521-2.39520957.4272523-.03623965.2658227-.04066461.3735172c-.03253168.3990199-.03036291.7996153.00650634 1.1984252l.03415827.2987201.03623965.2658228 2.39555923.4273146.08511589.2172656.09572547.2128254-1.38731537 1.9732065.16620349.21497.23893348.2924253c.26296091.3046941.55159877.5860239.86362516.8416815l.23836939.1868935.21098981.1582385 1.99973945-1.3654316.217643.0953405.2254684.0858452.4343839 2.3616794.3241821.0419164.66413.053953.2175866.0006903.5375926-.0389864.1637789-.0156549.324291-.0419184.4343871-2.3616967.2252918-.0857853.2177917-.0954 1.9997642 1.3654485.2109898-.1582385.2965997-.2351296c.3090938-.2588576.5946562-.5432431.8543985-.8508488l.1899298-.2350219.1662035-.21497-1.3873033-1.9731894.0957186-.2127986.0851299-.2173129 2.39554-.4273112.0362397-.2658228.0406646-.3735171c.0325316-.3990199.0303629-.7996153-.0065064-1.1984252l-.0341582-.2987202-.0362397-.2658227-2.3952478-.4272591-.0853021-.2178486-.0958285-.21310044 1.3873292-1.97235738-.1662395-.21501656-.2392647-.29289812c-.2632454-.30515417-.5519322-.5867732-.8636215-.84226912l-.2380418-.18668342-.2109898-.15823844-1.9998705 1.36552107-.2186619-.09565535-.2242327-.08507487-.4343818-2.36079957-.2651568-.03541402-.2802082-.03170351c-.1876588-.01744772-.3767329-.02750453-.5654759-.03008047zm-.0050276 4c1.6571361 0 3 1.3428639 3 3s-1.3428639 3-3 3-3-1.3428639-3-3 1.3428639-3 3-3z" fill-rule="evenodd"/></svg>