<svg height="24" viewBox="0 0 24 24" width="24" xmlns="http://www.w3.org/2000/svg"><path d="m12 2c5.5228475 0 10 4.4771525 10 10s-4.4771525 10-10 10-10-4.4771525-10-10 4.4771525-10 10-10zm0 1c-4.97056275 0-9 4.02943725-9 9 0 4.9705627 4.02943725 9 9 9 4.9705627 0 9-4.0294373 9-9 0-4.97056275-4.0294373-9-9-9zm4 12v1h-8v-1zm-8.5-7c.82842712 0 1.5.67157288 1.5 1.5 0 .8284271-.67157288 1.5-1.5 1.5s-1.5-.6715729-1.5-1.5c0-.82842712.67157288-1.5 1.5-1.5zm9 0c.8284271 0 1.5.67157288 1.5 1.5 0 .8284271-.6715729 1.5-1.5 1.5s-1.5-.6715729-1.5-1.5c0-.82842712.6715729-1.5 1.5-1.5zm-9 1c-.27614237 0-.5.22385763-.5.5s.22385763.5.5.5.5-.22385763.5-.5-.22385763-.5-.5-.5zm9 0c-.2761424 0-.5.22385763-.5.5s.2238576.5.5.5.5-.22385763.5-.5-.2238576-.5-.5-.5z"/></svg>