<svg height="24" viewBox="0 0 24 24" width="24" xmlns="http://www.w3.org/2000/svg"><path d="M11.914,14.766c0.384,-0 0.725,0.135 0.997,0.399c0.286,0.278 0.433,0.637 0.433,1.046c-0,0.403 -0.146,0.759 -0.433,1.046c-0.273,0.265 -0.619,0.399 -1.013,0.399c-0.393,0 -0.739,-0.134 -1.017,-0.404c-0.282,-0.282 -0.428,-0.638 -0.428,-1.041c0,-0.409 0.147,-0.768 0.438,-1.051c0.278,-0.262 0.627,-0.394 1.023,-0.394Zm0.477,-8.813c0.979,0 1.784,0.262 2.39,0.795c0.59,0.512 0.891,1.187 0.891,1.986c-0,0.607 -0.193,1.18 -0.57,1.705c-0.205,0.288 -0.534,0.638 -0.988,1.06c-0.562,0.522 -0.922,0.902 -1.055,1.098c-0.086,0.141 -0.137,0.368 -0.137,0.684l-0,0.836l-2.086,0l-0,-0.464c0.006,-0.944 0.061,-1.537 0.189,-1.84c0.155,-0.404 0.582,-0.916 1.299,-1.594c0.405,-0.376 0.674,-0.666 0.795,-0.85c0.132,-0.203 0.193,-0.398 0.193,-0.596c0,-0.29 -0.097,-0.488 -0.306,-0.64c-0.186,-0.133 -0.431,-0.203 -0.748,-0.203c-0.497,-0 -1.147,0.222 -1.936,0.682l-0.534,0.31l-0.66,-2.011l0.374,-0.197c0.96,-0.506 1.924,-0.761 2.889,-0.761Z"/></svg>
