<svg height="24" viewBox="0 0 24 24" width="24" xmlns="http://www.w3.org/2000/svg"><path d="m9.81195252 18.5667271-.37406674 2.4953871 2.49538712-.3740667 8.9306881-8.9306882-2.1213203-2.12132033zm9.28424158-9.9913483 2.8284271 2.8284271c.1952621.1952622.1952621.5118447 0 .7071068l-9.4007393 9.4007393c-.0756642.0756643-.1736068.1250586-.2794299.1409218l-3.32718279.4987556c-.33249759.0498425-.61844113-.236101-.56859865-.5685986l.49875566-3.3271828c.01586322-.1058231.06525752-.2037657.1409218-.2794299l9.40073928-9.4007393c.1952621-.19526215.5118446-.19526215.7071068 0zm-1.810931 2.5162045-.6952973.6992645 2.1155548 2.1273041.7033844-.7065735zm-13.2852631 8.9084167h3v1h-4v-19h15v4.5h-1v-3.5h-13z" fill-rule="evenodd"/></svg>