<svg height="24" viewBox="0 0 24 24" width="24" xmlns="http://www.w3.org/2000/svg"><path d="m19.4120452 2.03435648.4272534.42725342.1421394.14907032c1.5161531 1.6680571 1.4687733 4.25042462-.1421394 5.86133732l-7.0288503 7.02733896 1.242512 1.2425545.1108532-.1388796c.0377885-.0475036.076909-.0939164.1173128-.1391837l.1250128-.1323109c1.2104929-1.2104929 3.147155-1.252234 4.4077286-.1252234l.1324104.1252234.8213835.8213835c.9274952.9274952.9274952 2.431262 0 3.3587572-.8888495.8888496-2.3069486.925885-3.2399022.1111062l-.118855-.1111062-4.3054561-4.305321-4.30380966 4.305321-.11885494.1111062c-.93295369.8147788-2.35105271.7777434-3.23990227-.1111062-.9274952-.9274952-.9274952-2.431262 0-3.3587572l.82138347-.8213835.1324105-.1252234c1.26057352-1.1270106 3.19723565-1.0852695 4.40772853.1252234l.1250128.1323109c.04040385.0452673.07952437.0916801.11731277.1391837l.1106851.1387115 1.2410337-1.2423864-7.02720386-7.02733896c-1.61091271-1.6109127-1.65829249-4.19328022-.14213936-5.86133732l.14213936-.14907032.42725341-.42725342 7.30695045 10.74700002zm-4.2987993 15.00428712-.0860724.0910972-.0807709.0958292-.1820929.2276905 2.3517015 2.3513102c.5053844.5053844 1.3063034.5351129 1.8464566.0891855l.098087-.0891855c.5053844-.5053843.5351129-1.3063034.0891855-1.8464566l-.0891855-.098087-.8213834-.8213835c-.8632005-.8632005-2.262725-.8632005-3.1259255 0zm-6.01794875 0c-.86320048-.8632005-2.26272498-.8632005-3.12592547 0l-.82138347.8213835-.08918548.098087c-.44592739.5401532-.4161989 1.3410723.08918548 1.8464566l.09808705.0891855c.54015316.4459274 1.34107222.4161989 1.8464566-.0891855l2.35153334-2.3514784-.18192475-.2275223-.08077089-.0958292zm10.43069655-13.3925183-6.8767231 9.9364264h-1.0899982l-6.87618409-9.93696535-.05948523.08918774c-.76061687 1.20557658-.65195732 2.80225943.32597866 3.89609136l.12676948.13404531 7.02709708 7.02744574 7.0287435-7.02744574.1267695-.13404531c.977936-1.09383193 1.0865955-2.69051478.3259787-3.89609136z"/></svg>