<?xml version="1.0" encoding="UTF-8" standalone="no"?>
<!DOCTYPE svg PUBLIC "-//W3C//DTD SVG 1.1//EN" "http://www.w3.org/Graphics/SVG/1.1/DTD/svg11.dtd">
<svg width="100%" height="100%" viewBox="0 0 24 24" version="1.1" xmlns="http://www.w3.org/2000/svg" xmlns:xlink="http://www.w3.org/1999/xlink" xml:space="preserve" xmlns:serif="http://www.serif.com/" style="fill-rule:evenodd;clip-rule:evenodd;stroke-linejoin:round;stroke-miterlimit:2;">
    <path d="M7.95,15.5L7,15.5L7,13.5L8.55,13.5L9.45,10.5L8,10.5L8,8.5L10.05,8.5L10.5,7L12.5,7L12.05,8.5L14.05,8.5L14.5,7L16.5,7L16.05,8.5L17,8.5L17,10.5L15.45,10.5L14.55,13.5L16,13.5L16,15.5L13.95,15.5L13.5,17L11.5,17L11.95,15.5L9.95,15.5L9.5,17L7.5,17L7.95,15.5ZM11.45,10.5L10.55,13.5L12.55,13.5L13.45,10.5L11.45,10.5ZM5.5,5.5L5.5,9.731C5.5,10.613 5.113,11.437 4.463,12C5.113,12.563 5.5,13.387 5.5,14.269L5.5,18.5L8,18.5L8,20.5L5.5,20.5C4.395,20.5 3.5,19.605 3.5,18.5L3.5,14.269C3.5,13.9 3.297,13.562 2.972,13.387L2.028,12.881L2.028,11.119L2.972,10.612C3.297,10.438 3.5,10.1 3.5,9.731L3.5,5.5C3.5,4.395 4.395,3.5 5.5,3.5L7.444,3.5L7.444,5.5L5.5,5.5ZM18.5,18.5L18.5,14.269C18.5,13.387 18.887,12.563 19.537,12C18.887,11.437 18.5,10.613 18.5,9.731L18.5,5.5L16,5.5L16,3.5L18.5,3.5C19.605,3.5 20.5,4.395 20.5,5.5L20.5,9.731C20.5,10.1 20.703,10.438 21.028,10.613L21.972,11.119L21.972,12.881L21.028,13.388C20.703,13.562 20.5,13.9 20.5,14.269L20.5,18.5C20.5,19.605 19.605,20.5 18.5,20.5L16.556,20.5L16.556,18.5L18.5,18.5Z"/>
</svg>
