<svg height="24" viewBox="0 0 24 24" width="24" xmlns="http://www.w3.org/2000/svg"><path d="m10.2749 15.25c.116.57.62 1 1.225 1s1.109-.43 1.225-1zm2.882-1h1.163l-.32-.372v-2.628c0-1.236-.921-2.3-2.142-2.475l-.358-.051-.358.051c-1.221.175-2.142 1.239-2.142 2.475v2.694l-.272.306zm-1.157-6.465c1.696.243 3 1.701 3 3.465v2.257l1.5 1.743h-2.551c-.261 1.11-1.258 1.937-2.449 1.937-1.19 0-2.187-.827-2.449-1.937h-2.551l1.5-1.687v-2.313c0-1.764 1.304-3.222 3-3.465v-.785c0-.276.224-.5.5-.5s.5.224.5.5zm-6.1540722-5.785h11.3083444c1.1871298 0 1.7361175.09319695 2.3110963.40069904.4888889.26146064.8725718.64514351 1.1340324 1.13403238.3075021.57497896.4006991 1.12396662.4006991 2.31109638v12.3083444c0 1.1871298-.093197 1.7361175-.4006991 2.3110963-.2614606.488889-.6451434.8725718-1.1340323 1.1340324-.5749789.3075021-1.1239666.4006991-2.3110964.4006991h-11.3083444c-1.18712976 0-1.73611742-.093197-2.31109633-.4006991-.48888892-.2614606-.87257179-.6451435-1.13403241-1.1340324-.30750211-.5749788-.40069906-1.1239665-.40069906-2.3110963v-12.3083444c0-1.18712977.09319695-1.73611741.40069905-2.31109636.26146064-.48888889.6451435-.87257175 1.13403239-1.13403239.57497895-.3075021 1.12396659-.40069905 2.31109636-.40069905zm0 1c-1.0373269 0-1.43862955.06812573-1.8394975.28251225-.31462041.16826084-.55555721.40919764-.72381805.72381805-.21438652.40086795-.28251225.8021706-.28251225 1.8394975v12.3083444c0 1.0373269.06812573 1.4386296.28251226 1.8394975.16826082.3146204.4091976.5555572.72381806.723818.40086795.2143866.8021706.2825123 1.83949748.2825123h11.3083444c1.0373269 0 1.4386295-.0681257 1.8394975-.2825123.3146204-.1682608.5555572-.4091976.723818-.7238181.2143866-.4008679.2825123-.8021705.2825123-1.8394974v-12.3083444c0-1.03732688-.0681257-1.43862953-.2825123-1.83949753-.1682608-.31462041-.4091976-.55555719-.723818-.72381803-.4008679-.21438651-.8021706-.28251224-1.8394975-.28251224z" fill-rule="evenodd"/></svg>