<svg height="24" viewBox="0 0 24 24" width="24" xmlns="http://www.w3.org/2000/svg"><path d="m13.9499909 20h7.0500091v1h-7.0500091c-.2316351 1.1411202-1.2405119 2-2.4499909 2s-2.21835578-.8588798-2.44999094-2h-7.05000906v-1h7.05000906c.19884124-.9795652.97042574-1.7511497 1.94999094-1.9499909v-.7473775l-7-3.8684211v-8.28947366l7.5-4.14473684 7.5 4.14473684v8.28947366l-7 3.8684211v.7473775c.9795652.1988412 1.7511497.9704257 1.9499909 1.9499909zm-2.4499909-17.85745824-6.5 3.59210526v7.10965338l6.5 3.5921052 6.5-3.5921052v-7.10965338zm-3.5 5.85745824h1v3h-1zm3-2h1v7h-1zm3 2h1v3h-1zm-2.5 14c.8284271 0 1.5-.6715729 1.5-1.5s-.6715729-1.5-1.5-1.5-1.5.6715729-1.5 1.5.6715729 1.5 1.5 1.5z" fill-rule="evenodd"/></svg>