<svg height="24" viewBox="0 0 24 24" width="24" xmlns="http://www.w3.org/2000/svg"><path d="m20.5223197 2-7.6276436 9.8069703-.7893522-.6139406 6.3716761-8.1930297h-14.955l6.478 8.3284461v6.9645539l2.8535534 2.8534466-.7071068.7071068-3.1464466-3.1464466v-7.0361068l-7.52231968-9.671zm.1241269 7.64644661.7071068.70710679-2.1782817 2.1766521c1.1785004.4873273 2.2867432 1.3105921 3.3247283 2.4697945-1.790861 2-3.790861 3-6 3-.8214384 0-1.6139608-.1382624-2.3775672-.4147871l-1.7688794 1.7683405-.7071068-.7071068 1.4994634-1.4986701c-.9275836-.4978238-1.8095536-1.2137493-2.64591-2.1477765 1.790861-2 3.790861-3 6-3 .5483555 0 1.083825.0616138 1.6064088.1848415zm-2.2479485 3.66056809-3.4806233 3.4822152c.4318612.1183763.8726803.1865592 1.3230554.2053814l.2590698.0053887c1.5505407 0 2.988309-.5737801 4.3371255-1.7545033l.2678745-.2454967-.016008-.0169904c-.8586962-.8066593-1.7534277-1.3624009-2.6904939-1.6759949zm-1.8984981-.3070147c-1.5505407 0-2.988309.5737801-4.3371255 1.7545033l-.2688745.2454967.017008.0169904c.6388802.6001641 1.2977079 1.0614319 1.9790775 1.3874151l3.3554548-3.3589965c-.160918-.0198644-.3230653-.0331912-.4864705-.0400203z"/></svg>