<svg height="24" viewBox="0 0 24 24" width="24" xmlns="http://www.w3.org/2000/svg"><path d="m9.0858139 6.9518054c-.15681996-.15681996-.34275639-.27338961-.53640917-.34201153-.10569415-.03474297-.23674061-.09877168-.37034036-.20676859-.60136469-.48612016-.54808973-1.28143386.30783267-2.13735627l2.97274526-2.97274528.3535534.35349237 3.2093977 3.20884426c.4670442.46582734.5743375.47281936.6473107.38249954.0205449-.02542865.0342115-.05341855.0385837-.06617765.1229789-.3437011.3192356-.65660341.5809981-.91870455.9122126-.91155507 2.3584621-.96031308 3.3265635-.14639821l.1606656.14644661c.9628841.96288407.9628841 2.52328556.0002288 3.48594071-.2629903.2633309-.5770529.46033786-.9312376.58486316-.14458.10775234-.1375952.21572191.3273672.68256384l3.5340488 3.53374089-.3535688.3535688-2.6193893 2.6193892c-.8564103.8556026-1.651768.908652-2.1376513.3070906-.107985-.1336938-.171972-.2648249-.2029747-.3597401-.0721659-.2040479-.188898-.3901911-.3454711-.5465618-.5717979-.5722108-1.4989359-.5722108-2.1474777.0625994l.0753722-.0619177c-.5716139.5716139-.5714222 1.4993553.0019734 2.0725481.1539024.1549018.3395041.2710528.5350919.3409903.1056134.0348098.2365314.0989203.3699706.2069936.600625.4864496.5470492 1.2816362-.3086365 2.1375239l-3.0340126 3.0346397-.3535899-.3536207-3.17597517-3.1762522c-.47027323-.4701623-.57933233-.4774814-.65295167-.3864414-.02059819.0254724-.03429217.0534908-.03800203.0643767-.12191958.3447258-.31908079.6589819-.58124597.9197896-.91038135.9120259-2.35760256.9606933-3.32628386.1467658l-.15999146-.1465104c-.9622343-.9625818-.9622343-2.5225586-.00039149-3.4850959.26242045-.2630976.57545004-.4590821.9318599-.5855921.14517105-.1082378.13786942-.2172605-.33218015-.6873101l-3.55871557-3.5581004.35354741-.3535839 2.68078078-2.68105782c.85607526-.8558733 1.6513855-.90924814 2.13755289-.3080379.10800956.1335681.17204651.26459018.20340527.36031761.07174907.20367477.18836179.38970106.34528588.54682825.57222209.57180909 1.49928146.57197584 2.07171051.00050027.57271171-.57278166.57271171-1.50047374.00065023-2.07232871zm7.5684814-1.45576139c-.0346987.10565026-.0986518.23662985-.2065451.37017069-.4846981.59991678-1.27797.54822139-2.1317716-.30335617l-2.8562752-2.85578226-2.26569958 2.26569953c-.47006555.47006555-.47735889.57894407-.38628737.65256281.02551378.02062436.05358084.0343378.06454134.03807216.34394813.12164453.65775607.31838102.92059905.58122402.96256716.96221968.96269216 2.52299326.00037492 3.48536837-.96357059.96315254-2.52377524.96315254-3.4869859.00063676-.26322101-.2635611-.46011125-.57765001-.58465626-.93152999-.00011327-.00034447-.01380725-.02836288-.03440544-.05383527-.07361934-.09104005-.18267844-.08372088-.6528917.38638144l-2.32717339 2.3274139 2.85155365 2.8510607c.85590781.8559078.90917449 1.6512467.30791797 2.1374975-.13358545.1080339-.26462413.1720979-.35913469.203043-.20628631.0733084-.39149773.1892673-.54784954.3460223-.56624875.5666577-.57190813 1.480989-.01704001 2.054334.58949191.5897047 1.51698684.5898325 2.08950737.0162821.15617953-.1553735.27265983-.3410319.34138497-.5349792.03474841-.1056825.09878536-.2367046.20679492-.3702727.48616739-.6012102 1.28147763-.5478354 2.13761001.3080951l2.82244228 2.8226885 2.3268698-2.3273508c.470143-.4702539.4775128-.5796387.3864441-.6533958-.0254093-.0205791-.0533398-.0342566-.0651232-.038296-.3456455-.1233172-.6592414-.3195681-.9187471-.580763-.9627972-.9624498-.9631197-2.5234545.0753084-3.5481511l-.0753722.0619177c.9629053-.9629053 2.5234053-.9629053 3.4853864-.0002291.2625756.2622355.4596095.5764296.5849364.931183.0001253.0003822.0138286.0284648.0344411.0539847.0735511.0910619.182515.0837942.6527745-.3860217l2.2656537-2.2656537-2.8276077-2.82736278c-.8505277-.85396295-.9018537-1.647348-.3021386-2.1322012.1336114-.10802115.2646747-.17205396.3605044-.20342977.2035771-.07164067.389124-.18803153.5459722-.34508281.5607098-.56070975.5721227-1.46199667.0342387-2.03657089-.6072621-.60792008-1.5340395-.60804322-2.1069752-.03571263-.1563594.15661418-.2731772.34289435-.3425764.53633859z" fill-rule="evenodd"/></svg>