<svg height="24" viewBox="0 0 24 24" width="24" xmlns="http://www.w3.org/2000/svg"><path d="m18 7.4-8 3.2v7.4h-.05000906c.03279393.161555.05000906.3287671.05000906.5 0 1.3807119-1.11928813 2.5-2.5 2.5s-2.5-1.1192881-2.5-2.5 1.11928813-2.5 2.5-2.5c.56280296 0 1.08216973.1859724 1.5.4998169v-8.4998169l10-4v12h-.0500091c.032794.161555.0500091.3287671.0500091.5 0 1.3807119-1.1192881 2.5-2.5 2.5s-2.5-1.1192881-2.5-2.5 1.1192881-2.5 2.5-2.5c.562803 0 1.0821697.1859724 1.5.4998169zm0-1.92296704-8 3.2v.84593408l8-3.2zm-10.5 11.52296704c-.82842712 0-1.5.6715729-1.5 1.5s.67157288 1.5 1.5 1.5 1.5-.6715729 1.5-1.5-.67157288-1.5-1.5-1.5zm9-2c-.8284271 0-1.5.6715729-1.5 1.5s.6715729 1.5 1.5 1.5 1.5-.6715729 1.5-1.5-.6715729-1.5-1.5-1.5z" fill-rule="evenodd"/></svg>