<?xml version="1.0" encoding="UTF-8" standalone="no"?>
<!DOCTYPE svg PUBLIC "-//W3C//DTD SVG 1.1//EN" "http://www.w3.org/Graphics/SVG/1.1/DTD/svg11.dtd">
<svg width="100%" height="100%" viewBox="0 0 24 24" version="1.1" xmlns="http://www.w3.org/2000/svg" xmlns:xlink="http://www.w3.org/1999/xlink" xml:space="preserve" xmlns:serif="http://www.serif.com/" style="fill-rule:evenodd;clip-rule:evenodd;stroke-linejoin:round;stroke-miterlimit:2;">
    <path d="M11,5L11,2L12,2L12,5L11,5ZM18,12C18,15.292 15.292,18 12,18C8.708,18 6,15.292 6,12C6,8.708 8.708,6 12,6C15.292,6 18,8.708 18,12ZM17,12C17,9.257 14.743,7 12,7C9.257,7 7,9.257 7,12C7,14.743 9.257,17 12,17C14.743,17 17,14.743 17,12ZM12,19L13,19L13,22L12,22L12,19ZM6.286,6.994L4.366,5.074L5.074,4.366L6.994,6.286L6.286,6.994ZM17.006,17.714L17.714,17.006L19.634,18.926L18.926,19.634L17.006,17.714ZM5,13L2,13L2,12L5,12L5,13ZM19,12L19,11L22,11L22,12L19,12ZM6.994,17.713L5.074,19.633L4.366,18.926L6.286,17.006L6.994,17.713ZM17.714,6.994L17.006,6.286L18.926,4.366L19.634,5.073L17.714,6.994Z"/>
</svg>
