<svg height="24" viewBox="0 0 24 24" width="24" xmlns="http://www.w3.org/2000/svg"><path d="m22 4v16h-20v-16zm-1 4h-18v11h18zm-12.5 2c1.9329966 0 3.5 1.5670034 3.5 3.5s-1.5670034 3.5-3.5 3.5c-1.93299662 0-3.5-1.5670034-3.5-3.5s1.56700338-3.5 3.5-3.5zm6.5546508 4.0461787v2.9433179h-1v-2.9433179zm1.9453492-2v4.9433179h-1v-4.9433179zm2-2v6.9433179h-1v-6.9433179zm-10.99942595 1.0037139c-1.14140616.2314133-2.00057405 1.2404256-2.00057405 2.4501074 0 1.3807119 1.11928813 2.5 2.5 2.5 1.20932545 0 2.2180997-.8586618 2.4499027-1.9995655l-2.9499027-.0004345zm.99986044.0002047-.00043449 1.9499027 1.9501074.000574c-.1986269-.9796929-.97012273-1.7514567-1.94967291-1.9504767zm11.99956551-6.0500973h-18v2h18z" fill-rule="evenodd"/></svg>