<svg height="24" viewBox="0 0 24 24" width="24" xmlns="http://www.w3.org/2000/svg"><path d="m21 1.58578644 1.4142136 1.41421356-4.6207491 4.62084456c1.7162589 1.03546984 3.1772665 2.53086534 4.2065355 4.38027464-2.0693758 3.7135458-5.8789781 5.9988805-10 5.9988805-1.3448275 0-2.65649089-.2433735-3.88533558-.7003332l-5.11466442 5.1145471-1.41421356-1.4142136 4.62164388-4.620817c-1.71616812-1.0350258-3.17738135-2.5296156-4.20743032-4.3780638 2.06780887-3.71547658 5.87816214-6.00211486 10-6.00111953 1.3450938-.00032481 2.6570165.24296863 3.8860354.7000351zm-4.6724194 7.50179943-.8814448.88033967c.3519105.59553706.5538642 1.29022136.5538642 2.03207446.0007632 1.0610994-.4204187 2.078959-1.1707299 2.8292701-.7503111.7503112-1.7681707 1.1714931-2.8292701 1.1707299 2.9777845-.0000003 5.7673691-1.4569128 7.566915-3.9043744l.067085-.0956259-.0671436-.0947735c-.8756855-1.1920988-1.9863369-2.1492865-3.2392758-2.81764033zm-6.35965505 6.35853163-.26005867.2610078c.64402572.1671631 1.30879392.2649064 1.98479072.2876967l.3073424.0051777c-.7418531.0000003-1.4365374-.2019534-2.03207445-.5538822zm2.03255755-7.44611782c-2.9789634-.0007191-5.76875924 1.45676141-7.56733954 3.90522652l-.06814356.0947735.06808505.0956259c.87638718 1.1919251 1.98758532 2.1489183 3.24097834 2.8171124l.87981887-.880664c-.35192871-.5955371-.55388226-1.2902212-.55388226-2.032074 0-2.14219562 1.68396825-3.89107889 3.8003596-3.99510469zm1.9320413 3.48295912-2.4497191 2.4492986c.1653896.0441856.3392414.0677426.5186331.0677426.5301687.0003818 1.0387327-.2100579 1.4136182-.5849434s.5853252-.8834495.5849434-1.4150566c0-.1787972-.0234621-.3521145-.0674756-.5170412zm-1.9325244-1.4829588c-1.1045697 0-2 .8954303-2 2 0 .1791584.023557.3528147.0677487.5180406l2.4502919-2.450298c-.1652259-.0441856-.3388822-.0677426-.5180406-.0677426zm.0004831-2.00000032c.7416906.0000001 1.436267.20195373 2.0317324.55388249l.2605467-.26132336c-.6440556-.16713978-1.3088697-.26480453-1.9849147-.28745078z" fill-rule="evenodd"/></svg>