<?xml version="1.0" encoding="UTF-8" standalone="no"?>
<!DOCTYPE svg PUBLIC "-//W3C//DTD SVG 1.1//EN" "http://www.w3.org/Graphics/SVG/1.1/DTD/svg11.dtd">
<svg width="100%" height="100%" viewBox="0 0 24 24" version="1.1" xmlns="http://www.w3.org/2000/svg" xmlns:xlink="http://www.w3.org/1999/xlink" xml:space="preserve" xmlns:serif="http://www.serif.com/" style="fill-rule:evenodd;clip-rule:evenodd;stroke-linejoin:round;stroke-miterlimit:2;">
    <path d="M2,1L16,1L16,23L2,23L2,1ZM3,2L3,22L15,22L15,2L3,2ZM5,4L13,4L13,10L5,10L5,4ZM6,5L6,9L12,9L12,5L6,5ZM7,15L7,17L6,17L6,15L7,15ZM8,14L8,13L10,13L10,14L8,14ZM12,15L12,17L11,17L11,15L12,15ZM8,19L8,18L10,18L10,19L8,19ZM19,1L19,23L18,23L18,1L19,1ZM22,23L21,23L21,1L22,1L22,23Z"/>
</svg>
