<svg height="24" viewBox="0 0 24 24" width="24" xmlns="http://www.w3.org/2000/svg"><path d="m14 21v1h-4v-1zm1-3v2h-6v-2zm-3-15c3.3137085 0 6 2.6862915 6 6 0 2.0946859-1.0861962 4.0141144-2.8387874 5.1007966l-.1612126.0952034-.000241 2.8041481-1.9999447-.000482-4.00011052.0001857.00029622-2.8028518-.18436389-.1106702c-1.6732976-1.0481432-2.72875405-2.8535501-2.81051329-4.83745401l-.00512282-.24887579c0-3.3137085 2.6862915-6 6-6zm-.9363292 2.64887656-2.00667127 5.35112344h2.99900047l-.9923292 2.6488766 1.8726584.7022468 2.0066713-5.3511234h-3.0000005l.9933292-2.64887656z" fill-rule="evenodd"/></svg>