<?xml version="1.0" encoding="UTF-8" standalone="no"?>
<!DOCTYPE svg PUBLIC "-//W3C//DTD SVG 1.1//EN" "http://www.w3.org/Graphics/SVG/1.1/DTD/svg11.dtd">
<svg width="100%" height="100%" viewBox="0 0 24 24" version="1.1" xmlns="http://www.w3.org/2000/svg" xmlns:xlink="http://www.w3.org/1999/xlink" xml:space="preserve" xmlns:serif="http://www.serif.com/" style="fill-rule:evenodd;clip-rule:evenodd;stroke-linejoin:round;stroke-miterlimit:2;">
    <path d="M8.766,4L7,4L7,3L8.766,3C10.055,3 11.1,4.045 11.1,5.334C11.1,6.24 10.576,7.063 9.757,7.448L8.476,8.048C8.124,8.213 7.9,8.566 7.9,8.953L7.9,10L11,10L11,11L6.9,11L6.9,8.953C6.9,8.178 7.349,7.472 8.051,7.143L9.332,6.542C9.801,6.322 10.1,5.852 10.1,5.334C10.1,4.597 9.503,4 8.766,4ZM22.354,12.854L17.354,17.854L17,18.207L13.5,14.707L6.854,21.354L6.5,21.707L6.146,21.354L1.646,16.854L2.354,16.146L6.5,20.293L13.5,13.293L13.854,13.646L17,16.793L21.647,12.146L22.354,12.854ZM2,4L2,3L5,3L5,10L6,10L6,11L2,11L2,10L4,10L4,4L2,4ZM15.5,3L15.874,3.832L13.502,6.5L13.75,6.5C14.993,6.5 16,7.507 16,8.75C16,9.993 14.993,11 13.75,11L12,11L12,10L13.75,10C14.44,10 15,9.44 15,8.75C15,8.06 14.44,7.5 13.75,7.5L12.389,7.5L12.015,6.668L14.387,4L12,4L12,3L15.5,3ZM23,8.5L19,8.5L19.4,7.5L20.462,4.846L21,3.5L21.539,4.846L22.6,7.5L23,8.5ZM21,5.658L20.163,7.749L21.837,7.749L21,5.658Z"/>
</svg>
