<?xml version="1.0" encoding="UTF-8"?>
<svg width="770px" height="240px" viewBox="0 0 770 240" version="1.1" xmlns="http://www.w3.org/2000/svg" xmlns:xlink="http://www.w3.org/1999/xlink">
    <!-- Generator: Sketch 52.5 (67469) - http://www.bohemiancoding.com/sketch -->
    <title>were_sorry-2</title>
    <desc>Created with Sketch.</desc>
    <defs>
        <rect id="path-1" x="0" y="0" width="752" height="210"></rect>
    </defs>
    <g id="Page-1" stroke="none" stroke-width="1" fill="none" fill-rule="evenodd">
        <g id="201_Error-generic" transform="translate(-339.000000, -142.000000)">
            <g id="were_sorry-2" transform="translate(336.000000, 108.000000)">
                <g id="Group-2" transform="translate(12.000000, 0.000000)">
                    <rect id="Rectangle-3" x="53" y="0" width="639" height="264"></rect>
                    <g id="Group-1003">
                        <mask id="mask-2" fill="white">
                            <use xlink:href="#path-1"></use>
                        </mask>
                        <use id="Mask" fill="#FFFFFF" opacity="0" transform="translate(376.000000, 105.000000) scale(1, -1) translate(-376.000000, -105.000000) " xlink:href="#path-1"></use>
                        <g opacity="0.200000003" mask="url(#mask-2)" fill="#151616">
                            <g transform="translate(372.000000, 124.500000) scale(-1, 1) translate(-372.000000, -124.500000) translate(108.000000, 41.000000)">
                                <polygon id="Fill-125" points="0.783 89.362 3.689 89.362 3.689 86.455 0.783 86.455"></polygon>
                                <path d="M1.891,102.769 L2.577,102.769 L2.577,102.084 L1.891,102.084 L1.891,102.769 Z M0.586,104.078 L3.886,104.078 L3.886,100.774 L0.586,100.774 L0.586,104.078 Z" id="Fill-155"></path>
                                <path d="M1.891,117.29 L2.577,117.29 L2.577,116.606 L1.891,116.606 L1.891,117.29 Z M0.586,118.597 L3.886,118.597 L3.886,115.296 L0.586,115.296 L0.586,118.597 Z" id="Fill-183"></path>
                                <path d="M1.747,131.951 L2.717,131.951 L2.717,130.984 L1.747,130.984 L1.747,131.951 Z M0.44,133.262 L4.026,133.262 L4.026,129.674 L0.44,129.674 L0.44,133.262 Z" id="Fill-212"></path>
                                <path d="M1.665,146.557 L2.804,146.557 L2.804,145.418 L1.665,145.418 L1.665,146.557 Z M0.358,147.867 L4.114,147.867 L4.114,144.109 L0.358,144.109 L0.358,147.867 Z" id="Fill-240"></path>
                                <path d="M1.936,160.807 L2.536,160.807 L2.536,160.203 L1.936,160.203 L1.936,160.807 Z M0.679,162.065 L3.792,162.065 L3.792,158.949 L0.679,158.949 L0.679,162.065 Z" id="Fill-269"></path>
                                <polygon id="Fill-502" points="103.364 1.575 104.939 1.575 104.939 0 103.364 0"></polygon>
                                <polygon id="Fill-503" points="118.007 1.457 119.335 1.457 119.335 0.123 118.007 0.123"></polygon>
                                <polygon id="Fill-504" points="132.609 1.372 133.773 1.372 133.773 0.206 132.609 0.206"></polygon>
                                <polygon id="Fill-505" points="147.176 1.326 148.246 1.326 148.246 0.255 147.176 0.255"></polygon>
                                <polygon id="Fill-506" points="161.567 1.452 162.895 1.452 162.895 0.125 161.567 0.125"></polygon>
                                <polygon id="Fill-507" points="176.107 1.428 177.39 1.428 177.39 0.146 176.107 0.146"></polygon>
                                <polygon id="Fill-508" points="59.917 15.98 61.26 15.98 61.26 14.637 59.917 14.637"></polygon>
                                <polygon id="Fill-509" points="73.902 16.515 76.32 16.515 76.32 14.102 73.902 14.102"></polygon>
                                <polygon id="Fill-510" points="88.273 16.669 90.992 16.669 90.992 13.95 88.273 13.95"></polygon>
                                <polygon id="Fill-511" points="102.792 16.664 105.511 16.664 105.511 13.955 102.792 13.955"></polygon>
                                <polygon id="Fill-512" points="117.363 16.617 119.978 16.617 119.978 13.999 117.363 13.999"></polygon>
                                <polygon id="Fill-513" points="131.896 16.604 134.486 16.604 134.486 14.011 131.896 14.011"></polygon>
                                <path d="M147.521,15.499 L147.898,15.499 L147.898,15.122 L147.521,15.122 L147.521,15.499 Z M146.437,16.583 L148.988,16.583 L148.988,14.036 L146.437,14.036 L146.437,16.583 Z" id="Fill-514"></path>
                                <path d="M162.02,15.516 L162.437,15.516 L162.437,15.101 L162.02,15.101 L162.02,15.516 Z M160.956,16.58 L163.501,16.58 L163.501,14.036 L160.956,14.036 L160.956,16.58 Z" id="Fill-515"></path>
                                <polygon id="Fill-516" points="190.502 16.075 192.035 16.075 192.035 14.543 190.502 14.543"></polygon>
                                <polygon id="Fill-517" points="205.116 15.984 206.462 15.984 206.462 14.635 205.116 14.635"></polygon>
                                <polygon id="Fill-518" points="219.737 15.875 220.876 15.875 220.876 14.736 219.737 14.736"></polygon>
                                <polygon id="Fill-519" points="234.403 15.735 235.255 15.735 235.255 14.882 234.403 14.882"></polygon>
                                <polygon id="Fill-520" points="249.049 15.609 249.646 15.609 249.646 15.011 249.049 15.011"></polygon>
                                <polygon id="Fill-521" points="16.527 30.335 17.539 30.335 17.539 29.324 16.527 29.324"></polygon>
                                <polygon id="Fill-522" points="30.922 30.463 32.188 30.463 32.188 29.193 30.922 29.193"></polygon>
                                <polygon id="Fill-523" points="45.128 30.769 47.015 30.769 47.015 28.884 45.128 28.884"></polygon>
                                <polygon id="Fill-524" points="59.486 30.932 61.698 30.932 61.698 28.722 59.486 28.722"></polygon>
                                <polygon id="Fill-525" points="73.794 31.149 76.43 31.149 76.43 28.511 73.794 28.511"></polygon>
                                <polygon id="Fill-526" points="88.177 31.279 91.084 31.279 91.084 28.377 88.177 28.377"></polygon>
                                <path d="M103.923,30.055 L104.378,30.055 L104.378,29.6 L103.923,29.6 L103.923,30.055 Z M102.615,31.364 L105.689,31.364 L105.689,28.288 L102.615,28.288 L102.615,31.364 Z" id="Fill-527"></path>
                                <path d="M117.79,30.708 L119.551,30.708 L119.551,28.948 L117.79,28.948 L117.79,30.708 Z M116.485,32.016 L120.861,32.016 L120.861,27.638 L116.485,27.638 L116.485,32.016 Z" id="Fill-528"></path>
                                <path d="M132.536,30.485 L133.847,30.485 L133.847,29.174 L132.536,29.174 L132.536,30.485 Z M131.279,31.739 L135.104,31.739 L135.104,27.917 L131.279,27.917 L131.279,31.739 Z" id="Fill-529"></path>
                                <path d="M147.26,30.279 L148.167,30.279 L148.167,29.373 L147.26,29.373 L147.26,30.279 Z M146.036,31.504 L149.386,31.504 L149.386,28.152 L146.036,28.152 L146.036,31.504 Z" id="Fill-530"></path>
                                <path d="M161.941,30.115 L162.518,30.115 L162.518,29.542 L161.941,29.542 L161.941,30.115 Z M160.739,31.322 L163.722,31.322 L163.722,28.339 L160.739,28.339 L160.739,31.322 Z" id="Fill-531"></path>
                                <path d="M176.513,30.065 L176.991,30.065 L176.991,29.593 L176.513,29.593 L176.513,30.065 Z M175.311,31.266 L178.193,31.266 L178.193,28.391 L175.311,28.391 L175.311,31.266 Z" id="Fill-532"></path>
                                <path d="M190.974,30.119 L191.56,30.119 L191.56,29.538 L190.974,29.538 L190.974,30.119 Z M189.756,31.341 L192.777,31.341 L192.777,28.319 L189.756,28.319 L189.756,31.341 Z" id="Fill-533"></path>
                                <path d="M205.469,30.147 L206.107,30.147 L206.107,29.504 L205.469,29.504 L205.469,30.147 Z M204.239,31.378 L207.333,31.378 L207.333,28.278 L204.239,28.278 L204.239,31.378 Z" id="Fill-534"></path>
                                <path d="M219.989,30.146 L220.626,30.146 L220.626,29.507 L219.989,29.507 L219.989,30.146 Z M218.943,31.189 L221.671,31.189 L221.671,28.466 L218.943,28.466 L218.943,31.189 Z" id="Fill-535"></path>
                                <polygon id="Fill-536" points="248.88 30.298 249.818 30.298 249.818 29.361 248.88 29.361"></polygon>
                                <polygon id="Fill-537" points="263.535 30.163 264.204 30.163 264.204 29.494 263.535 29.494"></polygon>
                                <polygon id="Fill-538" points="16.254 45.129 17.812 45.129 17.812 43.568 16.254 43.568"></polygon>
                                <polygon id="Fill-539" points="30.655 45.245 32.454 45.245 32.454 43.453 30.655 43.453"></polygon>
                                <path d="M45.796,44.623 L46.353,44.623 L46.353,44.068 L45.796,44.068 L45.796,44.623 Z M44.628,45.789 L47.519,45.789 L47.519,42.903 L44.628,42.903 L44.628,45.789 Z" id="Fill-540"></path>
                                <path d="M74.426,45.035 L75.796,45.035 L75.796,43.663 L74.426,43.663 L74.426,45.035 Z M73.119,46.343 L77.105,46.343 L77.105,42.356 L73.119,42.356 L73.119,46.343 Z" id="Fill-541"></path>
                                <path d="M88.861,45.114 L90.399,45.114 L90.399,43.58 L88.861,43.58 L88.861,45.114 Z M87.552,46.429 L91.709,46.429 L91.709,42.271 L87.552,42.271 L87.552,46.429 Z" id="Fill-542"></path>
                                <path d="M103.295,45.201 L105.007,45.201 L105.007,43.493 L103.295,43.493 L103.295,45.201 Z M101.986,46.512 L106.313,46.512 L106.313,42.183 L101.986,42.183 L101.986,46.512 Z" id="Fill-543"></path>
                                <path d="M117.788,45.233 L119.552,45.233 L119.552,43.465 L117.788,43.465 L117.788,45.233 Z M116.48,46.542 L120.865,46.542 L120.865,42.158 L116.48,42.158 L116.48,46.542 Z" id="Fill-544"></path>
                                <path d="M132.165,45.372 L134.218,45.372 L134.218,43.324 L132.165,43.324 L132.165,45.372 Z M130.859,46.68 L135.526,46.68 L135.526,42.014 L130.859,42.014 L130.859,46.68 Z" id="Fill-545"></path>
                                <path d="M146.629,45.432 L148.791,45.432 L148.791,43.269 L146.629,43.269 L146.629,45.432 Z M145.319,46.741 L150.101,46.741 L150.101,41.959 L145.319,41.959 L145.319,46.741 Z" id="Fill-546"></path>
                                <path d="M161.061,45.515 L163.4,45.515 L163.4,43.177 L161.061,43.177 L161.061,45.515 Z M159.751,46.824 L164.708,46.824 L164.708,41.867 L159.751,41.867 L159.751,46.824 Z" id="Fill-547"></path>
                                <path d="M175.894,45.201 L177.605,45.201 L177.605,43.493 L175.894,43.493 L175.894,45.201 Z M174.586,46.512 L178.914,46.512 L178.914,42.183 L174.586,42.183 L174.586,46.512 Z" id="Fill-548"></path>
                                <path d="M190.5,45.114 L192.037,45.114 L192.037,43.58 L190.5,43.58 L190.5,45.114 Z M189.189,46.429 L193.348,46.429 L193.348,42.271 L189.189,42.271 L189.189,46.429 Z" id="Fill-549"></path>
                                <path d="M204.422,45.716 L207.154,45.716 L207.154,42.979 L204.422,42.979 L204.422,45.716 Z M203.114,47.027 L208.463,47.027 L208.463,41.671 L203.114,41.671 L203.114,47.027 Z" id="Fill-550"></path>
                                <path d="M218.869,45.782 L221.748,45.782 L221.748,42.905 L218.869,42.905 L218.869,45.782 Z M217.573,47.079 L223.044,47.079 L223.044,41.61 L217.573,41.61 L217.573,47.079 Z" id="Fill-551"></path>
                                <path d="M234.475,44.7 L235.183,44.7 L235.183,43.992 L234.475,43.992 L234.475,44.7 Z M233.396,45.78 L236.266,45.78 L236.266,42.91 L233.396,42.91 L233.396,45.78 Z" id="Fill-552"></path>
                                <path d="M249.022,44.675 L249.675,44.675 L249.675,44.022 L249.022,44.022 L249.022,44.675 Z M248.136,45.557 L250.558,45.557 L250.558,43.139 L248.136,43.139 L248.136,45.557 Z" id="Fill-553"></path>
                                <path d="M278.199,44.538 L278.58,44.538 L278.58,44.158 L278.199,44.158 L278.199,44.538 Z M277.687,45.051 L279.089,45.051 L279.089,43.649 L277.687,43.649 L277.687,45.051 Z" id="Fill-554"></path>
                                <path d="M292.763,44.491 L293.05,44.491 L293.05,44.205 L292.763,44.205 L292.763,44.491 Z M292.401,44.857 L293.419,44.857 L293.419,43.84 L292.401,43.84 L292.401,44.857 Z" id="Fill-555"></path>
                                <polygon id="Fill-556" points="15.753 60.15 18.314 60.15 18.314 57.587 15.753 57.587"></polygon>
                                <path d="M31.339,59.076 L31.762,59.076 L31.762,58.658 L31.339,58.658 L31.339,59.076 Z M30.131,60.287 L32.972,60.287 L32.972,57.446 L30.131,57.446 L30.131,60.287 Z" id="Fill-557"></path>
                                <path d="M88.066,60.433 L91.197,60.433 L91.197,57.3 L88.066,57.3 L88.066,60.433 Z M86.755,61.742 L92.504,61.742 L92.504,55.99 L86.755,55.99 L86.755,61.742 Z" id="Fill-558"></path>
                                <path d="M160.036,61.059 L164.425,61.059 L164.425,56.675 L160.036,56.675 L160.036,61.059 Z M158.728,62.368 L165.736,62.368 L165.736,55.365 L158.728,55.365 L158.728,62.368 Z" id="Fill-559"></path>
                                <path d="M174.527,61.087 L178.971,61.087 L178.971,56.647 L174.527,56.647 L174.527,61.087 Z M173.22,62.398 L180.277,62.398 L180.277,55.332 L173.22,55.332 L173.22,62.398 Z" id="Fill-560"></path>
                                <path d="M189.017,61.117 L193.517,61.117 L193.517,56.618 L189.017,56.618 L189.017,61.117 Z M187.711,62.425 L194.826,62.425 L194.826,55.31 L187.711,55.31 L187.711,62.425 Z" id="Fill-561"></path>
                                <path d="M203.452,61.203 L208.124,61.203 L208.124,56.534 L203.452,56.534 L203.452,61.203 Z M202.142,62.51 L209.431,62.51 L209.431,55.224 L202.142,55.224 L202.142,62.51 Z" id="Fill-562"></path>
                                <path d="M218.855,60.322 L221.761,60.322 L221.761,57.415 L218.855,57.415 L218.855,60.322 Z M217.547,61.63 L223.072,61.63 L223.072,56.106 L217.547,56.106 L217.547,61.63 Z" id="Fill-563"></path>
                                <path d="M233.388,60.308 L236.271,60.308 L236.271,57.422 L233.388,57.422 L233.388,60.308 Z M232.114,61.579 L237.542,61.579 L237.542,56.153 L232.114,56.153 L232.114,61.579 Z" id="Fill-564"></path>
                                <path d="M247.961,60.251 L250.732,60.251 L250.732,57.484 L247.961,57.484 L247.961,60.251 Z M246.783,61.429 L251.914,61.429 L251.914,56.306 L246.783,56.306 L246.783,61.429 Z" id="Fill-565"></path>
                                <path d="M262.668,60.067 L265.068,60.067 L265.068,57.665 L262.668,57.665 L262.668,60.067 Z M261.666,61.071 L266.07,61.071 L266.07,56.663 L261.666,56.663 L261.666,61.071 Z" id="Fill-566"></path>
                                <path d="M277.361,59.892 L279.416,59.892 L279.416,57.842 L277.361,57.842 L277.361,59.892 Z M276.535,60.721 L280.244,60.721 L280.244,57.015 L276.535,57.015 L276.535,60.721 Z" id="Fill-567"></path>
                                <path d="M292.423,59.348 L293.388,59.348 L293.388,58.385 L292.423,58.385 L292.423,59.348 Z M291.751,60.02 L294.058,60.02 L294.058,57.712 L291.751,57.712 L291.751,60.02 Z" id="Fill-568"></path>
                                <path d="M307.084,59.213 L307.775,59.213 L307.775,58.522 L307.084,58.522 L307.084,59.213 Z M306.548,59.747 L308.304,59.747 L308.304,57.993 L306.548,57.993 L306.548,59.747 Z" id="Fill-569"></path>
                                <path d="M321.402,59.41 L322.49,59.41 L322.49,58.325 L321.402,58.325 L321.402,59.41 Z M320.964,59.849 L322.929,59.849 L322.929,57.886 L320.964,57.886 L320.964,59.849 Z" id="Fill-570"></path>
                                <path d="M336.13,59.204 L336.802,59.204 L336.802,58.531 L336.13,58.531 L336.13,59.204 Z M335.742,59.592 L337.189,59.592 L337.189,58.143 L335.742,58.143 L335.742,59.592 Z" id="Fill-571"></path>
                                <path d="M408.847,59.08 L409.277,59.08 L409.277,58.654 L408.847,58.654 L408.847,59.08 Z M408.359,59.575 L409.769,59.575 L409.769,58.162 L408.359,58.162 L408.359,59.575 Z" id="Fill-572"></path>
                                <path d="M452.45,59.041 L452.796,59.041 L452.796,58.694 L452.45,58.694 L452.45,59.041 Z M451.441,60.048 L453.8,60.048 L453.8,57.687 L451.441,57.687 L451.441,60.048 Z" id="Fill-573"></path>
                                <polygon id="Fill-574" points="465.782 60.226 468.501 60.226 468.501 57.512 465.782 57.512"></polygon>
                                <path d="M481.435,59.093 L481.892,59.093 L481.892,58.642 L481.435,58.642 L481.435,59.093 Z M480.125,60.403 L483.199,60.403 L483.199,57.331 L480.125,57.331 L480.125,60.403 Z" id="Fill-575"></path>
                                <polygon id="Fill-576" points="494.759 60.293 497.607 60.293 497.607 57.445 494.759 57.445"></polygon>
                                <polygon id="Fill-577" points="509.422 60.145 511.988 60.145 511.988 57.588 509.422 57.588"></polygon>
                                <path d="M30.953,73.984 L32.15,73.984 L32.15,72.789 L30.953,72.789 L30.953,73.984 Z M29.642,75.295 L33.46,75.295 L33.46,71.482 L29.642,71.482 L29.642,75.295 Z" id="Fill-578"></path>
                                <path d="M45.19,74.27 L46.957,74.27 L46.957,72.505 L45.19,72.505 L45.19,74.27 Z M43.88,75.579 L48.265,75.579 L48.265,71.193 L43.88,71.193 L43.88,75.579 Z" id="Fill-579"></path>
                                <path d="M59.422,74.55 L61.761,74.55 L61.761,72.218 L59.422,72.218 L59.422,74.55 Z M58.113,75.861 L63.068,75.861 L63.068,70.908 L58.113,70.908 L58.113,75.861 Z" id="Fill-580"></path>
                                <path d="M73.63,74.866 L76.591,74.866 L76.591,71.908 L73.63,71.908 L73.63,74.866 Z M72.321,76.176 L77.9,76.176 L77.9,70.598 L72.321,70.598 L72.321,76.176 Z" id="Fill-581"></path>
                                <path d="M131.081,75.496 L135.297,75.496 L135.297,71.28 L131.081,71.28 L131.081,75.496 Z M129.775,76.804 L136.605,76.804 L136.605,69.971 L129.775,69.971 L129.775,76.804 Z" id="Fill-582"></path>
                                <path d="M144.976,76.124 L150.444,76.124 L150.444,70.655 L144.976,70.655 L144.976,76.124 Z M143.667,77.433 L151.755,77.433 L151.755,69.345 L143.667,69.345 L143.667,77.433 Z" id="Fill-583"></path>
                                <path d="M159.92,75.69 L164.533,75.69 L164.533,71.081 L159.92,71.081 L159.92,75.69 Z M158.613,77.001 L165.845,77.001 L165.845,69.774 L158.613,69.774 L158.613,77.001 Z" id="Fill-584"></path>
                                <path d="M173.814,76.32 L179.683,76.32 L179.683,70.456 L173.814,70.456 L173.814,76.32 Z M172.507,77.627 L180.992,77.627 L180.992,69.142 L172.507,69.142 L172.507,77.627 Z" id="Fill-585"></path>
                                <path d="M232.608,75.61 L237.048,75.61 L237.048,71.166 L232.608,71.166 L232.608,75.61 Z M231.297,76.916 L238.361,76.916 L238.361,69.854 L231.297,69.854 L231.297,76.916 Z" id="Fill-586"></path>
                                <path d="M246.765,75.97 L251.933,75.97 L251.933,70.802 L246.765,70.802 L246.765,75.97 Z M245.486,77.25 L253.21,77.25 L253.21,69.522 L245.486,69.522 L245.486,77.25 Z" id="Fill-587"></path>
                                <path d="M261.363,75.894 L266.371,75.894 L266.371,70.883 L261.363,70.883 L261.363,75.894 Z M260.166,77.094 L267.571,77.094 L267.571,69.683 L260.166,69.683 L260.166,77.094 Z" id="Fill-588"></path>
                                <path d="M291.423,74.87 L294.39,74.87 L294.39,71.904 L291.423,71.904 L291.423,74.87 Z M290.451,75.847 L295.365,75.847 L295.365,70.93 L290.451,70.93 L290.451,75.847 Z" id="Fill-589"></path>
                                <path d="M335.361,74.496 L337.576,74.496 L337.576,72.281 L335.361,72.281 L335.361,74.496 Z M334.716,75.137 L338.216,75.137 L338.216,71.638 L334.716,71.638 L334.716,75.137 Z" id="Fill-590"></path>
                                <path d="M349.818,74.556 L352.156,74.556 L352.156,72.217 L349.818,72.217 L349.818,74.556 Z M349.226,75.151 L352.744,75.151 L352.744,71.628 L349.226,71.628 L349.226,75.151 Z" id="Fill-591"></path>
                                <path d="M364.857,74.041 L366.158,74.041 L366.158,72.736 L364.857,72.736 L364.857,74.041 Z M364.279,74.616 L366.732,74.616 L366.732,72.157 L364.279,72.157 L364.279,74.616 Z" id="Fill-592"></path>
                                <path d="M379.398,74.014 L380.652,74.014 L380.652,72.762 L379.398,72.762 L379.398,74.014 Z M378.8,74.612 L381.253,74.612 L381.253,72.161 L378.8,72.161 L378.8,74.612 Z" id="Fill-593"></path>
                                <path d="M393.851,74.081 L395.236,74.081 L395.236,72.699 L393.851,72.699 L393.851,74.081 Z M393.189,74.74 L395.898,74.74 L395.898,72.033 L393.189,72.033 L393.189,74.74 Z" id="Fill-594"></path>
                                <path d="M408.428,74.024 L409.699,74.024 L409.699,72.751 L408.428,72.751 L408.428,74.024 Z M407.657,74.791 L410.47,74.791 L410.47,71.984 L407.657,71.984 L407.657,74.791 Z" id="Fill-595"></path>
                                <path d="M422.894,74.075 L424.273,74.075 L424.273,72.699 L422.894,72.699 L422.894,74.075 Z M421.969,75.008 L425.203,75.008 L425.203,71.767 L421.969,71.767 L421.969,75.008 Z" id="Fill-596"></path>
                                <path d="M437.396,74.1 L438.816,74.1 L438.816,72.677 L437.396,72.677 L437.396,74.1 Z M436.302,75.188 L439.904,75.188 L439.904,71.584 L436.302,71.584 L436.302,75.188 Z" id="Fill-597"></path>
                                <path d="M452.041,73.971 L453.207,73.971 L453.207,72.802 L452.041,72.802 L452.041,73.971 Z M450.759,75.251 L454.488,75.251 L454.488,71.525 L450.759,71.525 L450.759,75.251 Z" id="Fill-598"></path>
                                <path d="M466.657,73.871 L467.626,73.871 L467.626,72.906 L466.657,72.906 L466.657,73.871 Z M465.349,75.181 L468.939,75.181 L468.939,71.595 L465.349,71.595 L465.349,75.181 Z" id="Fill-599"></path>
                                <path d="M480.978,74.071 L482.347,74.071 L482.347,72.704 L480.978,72.704 L480.978,74.071 Z M479.668,75.379 L483.658,75.379 L483.658,71.395 L479.668,71.395 L479.668,75.379 Z" id="Fill-600"></path>
                                <polygon id="Fill-601" points="494.759 74.81 497.607 74.81 497.607 71.964 494.759 71.964"></polygon>
                                <path d="M510.388,73.7 L511.015,73.7 L511.015,73.074 L510.388,73.074 L510.388,73.7 Z M509.082,75.012 L512.324,75.012 L512.324,71.765 L509.082,71.765 L509.082,75.012 Z" id="Fill-602"></path>
                                <path d="M30.331,89.133 L32.775,89.133 L32.775,86.685 L30.331,86.685 L30.331,89.133 Z M29.021,90.438 L34.085,90.438 L34.085,85.373 L29.021,85.373 L29.021,90.438 Z" id="Fill-603"></path>
                                <path d="M44.623,89.362 L47.525,89.362 L47.525,86.455 L44.623,86.455 L44.623,89.362 Z M43.312,90.671 L48.833,90.671 L48.833,85.147 L43.312,85.147 L43.312,90.671 Z" id="Fill-604"></path>
                                <path d="M58.794,89.699 L62.382,89.699 L62.382,86.11 L58.794,86.11 L58.794,89.699 Z M57.486,91.006 L63.693,91.006 L63.693,84.804 L57.486,84.804 L57.486,91.006 Z" id="Fill-605"></path>
                                <path d="M73.004,90.015 L77.217,90.015 L77.217,85.801 L73.004,85.801 L73.004,90.015 Z M71.695,91.322 L78.527,91.322 L78.527,84.488 L71.695,84.488 L71.695,91.322 Z" id="Fill-606"></path>
                                <path d="M87.384,90.156 L91.878,90.156 L91.878,85.657 L87.384,85.657 L87.384,90.156 Z M86.076,91.467 L93.189,91.467 L93.189,84.348 L86.076,84.348 L86.076,91.467 Z" id="Fill-607"></path>
                                <path d="M101.73,90.327 L106.57,90.327 L106.57,85.486 L101.73,85.486 L101.73,90.327 Z M100.419,91.636 L107.878,91.636 L107.878,84.175 L100.419,84.175 L100.419,91.636 Z" id="Fill-608"></path>
                                <path d="M116.083,90.498 L121.259,90.498 L121.259,85.317 L116.083,85.317 L116.083,90.498 Z M114.773,91.804 L122.571,91.804 L122.571,84.008 L114.773,84.008 L114.773,91.804 Z" id="Fill-609"></path>
                                <path d="M130.46,90.644 L135.921,90.644 L135.921,85.172 L130.46,85.172 L130.46,90.644 Z M129.152,91.95 L137.23,91.95 L137.23,83.863 L129.152,83.863 L129.152,91.95 Z" id="Fill-610"></path>
                                <path d="M144.867,90.753 L150.556,90.753 L150.556,85.058 L144.867,85.058 L144.867,90.753 Z M143.558,92.061 L151.869,92.061 L151.869,83.749 L143.558,83.749 L143.558,92.061 Z" id="Fill-611"></path>
                                <path d="M173.814,90.844 L179.683,90.844 L179.683,84.977 L173.814,84.977 L173.814,90.844 Z M172.507,92.151 L180.992,92.151 L180.992,83.668 L172.507,83.668 L172.507,92.151 Z" id="Fill-612"></path>
                                <path d="M231.725,91.007 L237.934,91.007 L237.934,84.805 L231.725,84.805 L231.725,91.007 Z M230.415,92.319 L239.243,92.319 L239.243,83.495 L230.415,83.495 L230.415,92.319 Z" id="Fill-613"></path>
                                <path d="M246.273,90.98 L252.423,90.98 L252.423,84.833 L246.273,84.833 L246.273,90.98 Z M244.962,92.289 L253.732,92.289 L253.732,83.523 L244.962,83.523 L244.962,92.289 Z" id="Fill-614"></path>
                                <path d="M260.681,91.094 L267.056,91.094 L267.056,84.719 L260.681,84.719 L260.681,91.094 Z M259.371,92.402 L268.365,92.402 L268.365,83.41 L259.371,83.41 L259.371,92.402 Z" id="Fill-615"></path>
                                <path d="M289.425,91.389 L296.386,91.389 L296.386,84.421 L289.425,84.421 L289.425,91.389 Z M288.24,92.575 L297.576,92.575 L297.576,83.236 L288.24,83.236 L288.24,92.575 Z" id="Fill-616"></path>
                                <path d="M318.947,90.907 L324.943,90.907 L324.943,84.913 L318.947,84.913 L318.947,90.907 Z M317.919,91.933 L325.976,91.933 L325.976,83.882 L317.919,83.882 L317.919,91.933 Z" id="Fill-617"></path>
                                <path d="M333.686,90.691 L339.248,90.691 L339.248,85.125 L333.686,85.125 L333.686,90.691 Z M332.71,91.666 L340.224,91.666 L340.224,84.15 L332.71,84.15 L332.71,91.666 Z" id="Fill-618"></path>
                                <path d="M348.437,90.456 L353.537,90.456 L353.537,85.357 L348.437,85.357 L348.437,90.456 Z M347.499,91.392 L354.47,91.392 L354.47,84.415 L347.499,84.415 L347.499,91.392 Z" id="Fill-619"></path>
                                <path d="M363.764,89.65 L367.246,89.65 L367.246,86.168 L363.764,86.168 L363.764,89.65 Z M362.843,90.569 L368.167,90.569 L368.167,85.247 L362.843,85.247 L362.843,90.569 Z" id="Fill-620"></path>
                                <path d="M392.734,89.715 L396.353,89.715 L396.353,86.098 L392.734,86.098 L392.734,89.715 Z M391.71,90.742 L397.382,90.742 L397.382,85.07 L391.71,85.07 L391.71,90.742 Z" id="Fill-621"></path>
                                <path d="M407.353,89.618 L410.779,89.618 L410.779,86.199 L407.353,86.199 L407.353,89.618 Z M406.217,90.756 L411.916,90.756 L411.916,85.058 L406.217,85.058 L406.217,90.756 Z" id="Fill-622"></path>
                                <path d="M451.398,89.133 L453.847,89.133 L453.847,86.685 L451.398,86.685 L451.398,89.133 Z M450.094,90.438 L455.156,90.438 L455.156,85.373 L450.094,85.373 L450.094,90.438 Z" id="Fill-623"></path>
                                <path d="M495.302,88.793 L497.066,88.793 L497.066,87.025 L495.302,87.025 L495.302,88.793 Z M493.989,90.1 L498.376,90.1 L498.376,85.716 L493.989,85.716 L493.989,90.1 Z" id="Fill-624"></path>
                                <path d="M510.047,88.565 L511.359,88.565 L511.359,87.252 L510.047,87.252 L510.047,88.565 Z M508.735,89.873 L512.667,89.873 L512.667,85.944 L508.735,85.944 L508.735,89.873 Z" id="Fill-625"></path>
                                <polygon id="Fill-626" points="523.771 89.362 526.677 89.362 526.677 86.455 523.771 86.455"></polygon>
                                <path d="M15.666,103.795 L18.402,103.795 L18.402,101.059 L15.666,101.059 L15.666,103.795 Z M14.358,105.102 L19.71,105.102 L19.71,99.75 L14.358,99.75 L14.358,105.102 Z" id="Fill-627"></path>
                                <path d="M30.128,103.849 L32.976,103.849 L32.976,101.005 L30.128,101.005 L30.128,103.849 Z M28.82,105.159 L34.283,105.159 L34.283,99.695 L28.82,99.695 L28.82,105.159 Z" id="Fill-628"></path>
                                <path d="M44.164,104.334 L47.982,104.334 L47.982,100.52 L44.164,100.52 L44.164,104.334 Z M42.855,105.644 L49.289,105.644 L49.289,99.208 L42.855,99.208 L42.855,105.644 Z" id="Fill-629"></path>
                                <path d="M58.255,104.76 L62.924,104.76 L62.924,100.092 L58.255,100.092 L58.255,104.76 Z M56.948,106.07 L64.236,106.07 L64.236,98.784 L56.948,98.784 L56.948,106.07 Z" id="Fill-630"></path>
                                <path d="M72.405,105.127 L77.818,105.127 L77.818,99.721 L72.405,99.721 L72.405,105.127 Z M71.098,106.439 L79.126,106.439 L79.126,98.408 L71.098,98.408 L71.098,106.439 Z" id="Fill-631"></path>
                                <path d="M101.161,105.413 L107.138,105.413 L107.138,99.436 L101.161,99.436 L101.161,105.413 Z M99.853,106.722 L108.449,106.722 L108.449,98.127 L99.853,98.127 L99.853,106.722 Z" id="Fill-632"></path>
                                <path d="M115.424,105.672 L121.916,105.672 L121.916,99.179 L115.424,99.179 L115.424,105.672 Z M114.113,106.978 L123.224,106.978 L123.224,97.871 L114.113,97.871 L114.113,106.978 Z" id="Fill-633"></path>
                                <path d="M144.234,105.897 L151.183,105.897 L151.183,98.956 L144.234,98.956 L144.234,105.897 Z M142.927,107.207 L152.494,107.207 L152.494,97.644 L142.927,97.644 L142.927,107.207 Z" id="Fill-634"></path>
                                <path d="M158.47,106.184 L165.988,106.184 L165.988,98.669 L158.47,98.669 L158.47,106.184 Z M157.159,107.493 L167.298,107.493 L167.298,97.359 L157.159,97.359 L157.159,107.493 Z" id="Fill-635"></path>
                                <path d="M172.85,106.326 L180.653,106.326 L180.653,98.526 L172.85,98.526 L172.85,106.326 Z M171.539,107.631 L181.961,107.631 L181.961,97.216 L171.539,97.216 L171.539,107.631 Z" id="Fill-636"></path>
                                <path d="M187.256,106.439 L195.283,106.439 L195.283,98.408 L187.256,98.408 L187.256,106.439 Z M185.947,107.75 L196.593,107.75 L196.593,97.104 L185.947,97.104 L185.947,107.75 Z" id="Fill-637"></path>
                                <path d="M201.659,106.555 L209.917,106.555 L209.917,98.296 L201.659,98.296 L201.659,106.555 Z M200.349,107.863 L211.227,107.863 L211.227,96.99 L200.349,96.99 L200.349,107.863 Z" id="Fill-638"></path>
                                <path d="M216.093,106.641 L224.523,106.641 L224.523,98.212 L216.093,98.212 L216.093,106.641 Z M214.783,107.949 L225.83,107.949 L225.83,96.903 L214.783,96.903 L214.783,107.949 Z" id="Fill-639"></path>
                                <path d="M230.982,106.271 L238.668,106.271 L238.668,98.584 L230.982,98.584 L230.982,106.271 Z M229.673,107.582 L239.979,107.582 L239.979,97.274 L229.673,97.274 L229.673,107.582 Z" id="Fill-640"></path>
                                <path d="M259.968,106.326 L267.771,106.326 L267.771,98.526 L259.968,98.526 L259.968,106.326 Z M258.66,107.631 L269.078,107.631 L269.078,97.216 L258.66,97.216 L258.66,107.631 Z" id="Fill-641"></path>
                                <path d="M273.863,106.952 L282.912,106.952 L282.912,97.901 L273.863,97.901 L273.863,106.952 Z M272.552,108.26 L284.224,108.26 L284.224,96.592 L272.552,96.592 L272.552,108.26 Z" id="Fill-642"></path>
                                <path d="M288.324,107.014 L297.486,107.014 L297.486,97.841 L288.324,97.841 L288.324,107.014 Z M287.013,108.322 L298.8,108.322 L298.8,96.534 L287.013,96.534 L287.013,108.322 Z" id="Fill-643"></path>
                                <path d="M317.539,106.838 L326.359,106.838 L326.359,98.019 L317.539,98.019 L317.539,106.838 Z M316.272,108.105 L327.626,108.105 L327.626,96.752 L316.272,96.752 L316.272,108.105 Z" id="Fill-644"></path>
                                <path d="M347.009,106.399 L354.958,106.399 L354.958,98.453 L347.009,98.453 L347.009,106.399 Z M345.792,107.621 L356.177,107.621 L356.177,97.236 L345.792,97.236 L345.792,107.621 Z" id="Fill-645"></path>
                                <path d="M361.827,106.105 L369.181,106.105 L369.181,98.751 L361.827,98.751 L361.827,106.105 Z M360.591,107.333 L370.417,107.333 L370.417,97.515 L360.591,97.515 L360.591,107.333 Z" id="Fill-646"></path>
                                <path d="M376.706,105.743 L383.341,105.743 L383.341,99.111 L376.706,99.111 L376.706,105.743 Z M375.452,106.996 L384.593,106.996 L384.593,97.857 L375.452,97.857 L375.452,106.996 Z" id="Fill-647"></path>
                                <path d="M391.331,105.642 L397.761,105.642 L397.761,99.214 L391.331,99.214 L391.331,105.642 Z M390.062,106.913 L399.033,106.913 L399.033,97.939 L390.062,97.939 L390.062,106.913 Z" id="Fill-648"></path>
                                <path d="M406.103,105.388 L412.025,105.388 L412.025,99.464 L406.103,99.464 L406.103,105.388 Z M404.796,106.696 L413.335,106.696 L413.335,98.155 L404.796,98.155 L404.796,106.696 Z" id="Fill-649"></path>
                                <path d="M420.963,105.049 L426.207,105.049 L426.207,99.811 L420.963,99.811 L420.963,105.049 Z M419.655,106.359 L427.509,106.359 L427.509,98.498 L419.655,98.498 L419.655,106.359 Z" id="Fill-650"></path>
                                <path d="M435.685,104.847 L440.523,104.847 L440.523,100.006 L435.685,100.006 L435.685,104.847 Z M434.372,106.156 L441.833,106.156 L441.833,98.697 L434.372,98.697 L434.372,106.156 Z" id="Fill-651"></path>
                                <path d="M465.467,104.105 L468.824,104.105 L468.824,100.747 L465.467,100.747 L465.467,104.105 Z M464.155,105.414 L470.13,105.414 L470.13,99.437 L464.155,99.437 L464.155,105.414 Z" id="Fill-652"></path>
                                <path d="M480.097,103.991 L483.226,103.991 L483.226,100.862 L480.097,100.862 L480.097,103.991 Z M478.787,105.3 L484.537,105.3 L484.537,99.552 L478.787,99.552 L478.787,105.3 Z" id="Fill-653"></path>
                                <path d="M495.045,103.567 L497.324,103.567 L497.324,101.287 L495.045,101.287 L495.045,103.567 Z M493.734,104.876 L498.632,104.876 L498.632,99.976 L493.734,99.976 L493.734,104.876 Z" id="Fill-654"></path>
                                <path d="M509.732,103.392 L511.669,103.392 L511.669,101.459 L509.732,101.459 L509.732,103.392 Z M508.423,104.703 L512.98,104.703 L512.98,100.152 L508.423,100.152 L508.423,104.703 Z" id="Fill-655"></path>
                                <path d="M524.878,102.769 L525.564,102.769 L525.564,102.084 L524.878,102.084 L524.878,102.769 Z M523.574,104.078 L526.875,104.078 L526.875,100.774 L523.574,100.774 L523.574,104.078 Z" id="Fill-656"></path>
                                <path d="M15.378,118.597 L18.687,118.597 L18.687,115.296 L15.378,115.296 L15.378,118.597 Z M14.072,119.908 L19.998,119.908 L19.998,113.986 L14.072,113.986 L14.072,119.908 Z" id="Fill-657"></path>
                                <path d="M57.887,119.653 L63.3,119.653 L63.3,114.242 L57.887,114.242 L57.887,119.653 Z M56.581,120.962 L64.608,120.962 L64.608,112.934 L56.581,112.934 L56.581,120.962 Z" id="Fill-658"></path>
                                <path d="M72.039,120.022 L78.187,120.022 L78.187,113.87 L72.039,113.87 L72.039,120.022 Z M70.73,121.332 L79.498,121.332 L79.498,112.561 L70.73,112.561 L70.73,121.332 Z" id="Fill-659"></path>
                                <path d="M86.641,119.934 L92.623,119.934 L92.623,113.956 L86.641,113.956 L86.641,119.934 Z M85.332,121.245 L93.931,121.245 L93.931,112.645 L85.332,112.645 L85.332,121.245 Z" id="Fill-660"></path>
                                <path d="M100.766,120.332 L107.541,120.332 L107.541,113.56 L100.766,113.56 L100.766,120.332 Z M99.453,121.641 L108.849,121.641 L108.849,112.252 L99.453,112.252 L99.453,121.641 Z" id="Fill-661"></path>
                                <path d="M129.633,120.507 L136.75,120.507 L136.75,113.386 L129.633,113.386 L129.633,120.507 Z M128.324,121.814 L138.058,121.814 L138.058,112.076 L128.324,112.076 L128.324,121.814 Z" id="Fill-662"></path>
                                <path d="M143.781,120.872 L151.638,120.872 L151.638,113.02 L143.781,113.02 L143.781,120.872 Z M142.471,122.183 L152.947,122.183 L152.947,111.71 L142.471,111.71 L142.471,122.183 Z" id="Fill-663"></path>
                                <path d="M158.045,121.131 L166.416,121.131 L166.416,112.76 L158.045,112.76 L158.045,121.131 Z M156.736,122.437 L167.726,122.437 L167.726,111.449 L156.736,111.449 L156.736,122.437 Z" id="Fill-664"></path>
                                <path d="M172.735,120.962 L180.763,120.962 L180.763,112.932 L172.735,112.932 L172.735,120.962 Z M171.426,122.27 L182.072,122.27 L182.072,111.622 L171.426,111.622 L171.426,122.27 Z" id="Fill-665"></path>
                                <path d="M187.142,121.073 L195.396,121.073 L195.396,112.82 L187.142,112.82 L187.142,121.073 Z M185.835,122.38 L196.708,122.38 L196.708,111.512 L185.835,111.512 L185.835,122.38 Z" id="Fill-666"></path>
                                <path d="M201.547,121.188 L210.033,121.188 L210.033,112.703 L201.547,112.703 L201.547,121.188 Z M200.237,122.499 L211.341,122.499 L211.341,111.394 L200.237,111.394 L200.237,122.499 Z" id="Fill-667"></path>
                                <path d="M215.611,121.641 L225.005,121.641 L225.005,112.252 L215.611,112.252 L215.611,121.641 Z M214.302,122.951 L226.314,122.951 L226.314,110.94 L214.302,110.94 L214.302,122.951 Z" id="Fill-668"></path>
                                <path d="M230.442,121.332 L239.211,121.332 L239.211,112.561 L230.442,112.561 L230.442,121.332 Z M229.132,122.639 L240.521,122.639 L240.521,111.252 L229.132,111.252 L229.132,122.639 Z" id="Fill-669"></path>
                                <path d="M244.901,121.385 L253.789,121.385 L253.789,112.509 L244.901,112.509 L244.901,121.385 Z M243.597,122.694 L255.1,122.694 L255.1,111.198 L243.597,111.198 L243.597,122.694 Z" id="Fill-670"></path>
                                <path d="M259.337,121.47 L268.391,121.47 L268.391,112.417 L259.337,112.417 L259.337,121.47 Z M258.027,122.779 L269.703,122.779 L269.703,111.108 L258.027,111.108 L258.027,122.779 Z" id="Fill-671"></path>
                                <path d="M287.894,121.959 L297.919,121.959 L297.919,111.936 L287.894,111.936 L287.894,121.959 Z M286.585,123.271 L299.228,123.271 L299.228,110.629 L286.585,110.629 L286.585,123.271 Z" id="Fill-672"></path>
                                <path d="M302.642,121.728 L312.21,121.728 L312.21,112.163 L302.642,112.163 L302.642,121.728 Z M301.333,123.04 L313.519,123.04 L313.519,110.852 L301.333,110.852 L301.333,123.04 Z" id="Fill-673"></path>
                                <path d="M331.599,121.814 L341.337,121.814 L341.337,112.076 L331.599,112.076 L331.599,121.814 Z M330.289,123.123 L342.646,123.123 L342.646,110.769 L330.289,110.769 L330.289,123.123 Z" id="Fill-674"></path>
                                <path d="M346.314,121.615 L355.652,121.615 L355.652,112.28 L346.314,112.28 L346.314,121.615 Z M345.005,122.927 L356.964,122.927 L356.964,110.97 L345.005,110.97 L345.005,122.927 Z" id="Fill-675"></path>
                                <path d="M361.146,121.305 L369.865,121.305 L369.865,112.591 L361.146,112.591 L361.146,121.305 Z M359.837,122.611 L371.171,122.611 L371.171,111.284 L359.837,111.284 L359.837,122.611 Z" id="Fill-676"></path>
                                <path d="M376.01,120.962 L384.041,120.962 L384.041,112.932 L376.01,112.932 L376.01,120.962 Z M374.703,122.27 L385.349,122.27 L385.349,111.622 L374.703,111.622 L374.703,122.27 Z" id="Fill-677"></path>
                                <path d="M390.585,120.903 L398.501,120.903 L398.501,112.988 L390.585,112.988 L390.585,120.903 Z M389.277,122.213 L399.812,122.213 L399.812,111.677 L389.277,111.677 L389.277,122.213 Z" id="Fill-678"></path>
                                <path d="M435.17,119.88 L441.035,119.88 L441.035,114.017 L435.17,114.017 L435.17,119.88 Z M433.859,121.188 L442.343,121.188 L442.343,112.703 L433.859,112.703 L433.859,121.188 Z" id="Fill-679"></path>
                                <path d="M450.062,119.51 L455.187,119.51 L455.187,114.385 L450.062,114.385 L450.062,119.51 Z M448.752,120.821 L456.494,120.821 L456.494,113.074 L448.752,113.074 L448.752,120.821 Z" id="Fill-680"></path>
                                <path d="M465.006,119.077 L469.281,119.077 L469.281,114.811 L465.006,114.811 L465.006,119.077 Z M463.696,120.386 L470.589,120.386 L470.589,113.502 L463.696,113.502 L463.696,120.386 Z" id="Fill-681"></path>
                                <path d="M479.896,118.71 L483.427,118.71 L483.427,115.18 L479.896,115.18 L479.896,118.71 Z M478.59,120.022 L484.74,120.022 L484.74,113.87 L478.59,113.87 L478.59,120.022 Z" id="Fill-682"></path>
                                <path d="M509.849,117.804 L511.556,117.804 L511.556,116.088 L509.849,116.088 L509.849,117.804 Z M508.541,119.114 L512.865,119.114 L512.865,114.779 L508.541,114.779 L508.541,119.114 Z" id="Fill-683"></path>
                                <path d="M524.878,117.29 L525.564,117.29 L525.564,116.606 L524.878,116.606 L524.878,117.29 Z M523.574,118.597 L526.875,118.597 L526.875,115.296 L523.574,115.296 L523.574,118.597 Z" id="Fill-684"></path>
                                <path d="M15.378,133.119 L18.687,133.119 L18.687,129.814 L15.378,129.814 L15.378,133.119 Z M14.072,134.429 L19.998,134.429 L19.998,128.506 L14.072,128.506 L14.072,134.429 Z" id="Fill-685"></path>
                                <path d="M57.715,134.342 L63.465,134.342 L63.465,128.588 L57.715,128.588 L57.715,134.342 Z M56.406,135.65 L64.776,135.65 L64.776,127.279 L56.406,127.279 L56.406,135.65 Z" id="Fill-686"></path>
                                <path d="M71.863,134.712 L78.355,134.712 L78.355,128.221 L71.863,128.221 L71.863,134.712 Z M70.556,136.023 L79.661,136.023 L79.661,126.909 L70.556,126.909 L70.556,136.023 Z" id="Fill-687"></path>
                                <path d="M86.3,134.8 L92.961,134.8 L92.961,128.137 L86.3,128.137 L86.3,134.8 Z M84.992,136.107 L94.271,136.107 L94.271,126.827 L84.992,126.827 L84.992,136.107 Z" id="Fill-688"></path>
                                <path d="M100.621,134.995 L107.679,134.995 L107.679,127.933 L100.621,127.933 L100.621,134.995 Z M99.312,136.307 L108.988,136.307 L108.988,126.625 L99.312,126.625 L99.312,136.307 Z" id="Fill-689"></path>
                                <path d="M114.91,135.223 L122.433,135.223 L122.433,127.705 L114.91,127.705 L114.91,135.223 Z M113.601,136.534 L123.742,136.534 L123.742,126.393 L113.601,126.393 L113.601,136.534 Z" id="Fill-690"></path>
                                <path d="M129.347,135.311 L137.031,135.311 L137.031,127.623 L129.347,127.623 L129.347,135.311 Z M128.038,136.62 L138.341,136.62 L138.341,126.316 L128.038,126.316 L128.038,136.62 Z" id="Fill-691"></path>
                                <path d="M143.609,135.57 L151.814,135.57 L151.814,127.367 L143.609,127.367 L143.609,135.57 Z M142.3,136.877 L153.119,136.877 L153.119,126.061 L142.3,126.061 L142.3,136.877 Z" id="Fill-692"></path>
                                <path d="M158.017,135.683 L166.445,135.683 L166.445,127.255 L158.017,127.255 L158.017,135.683 Z M156.709,136.991 L167.753,136.991 L167.753,125.944 L156.709,125.944 L156.709,136.991 Z" id="Fill-693"></path>
                                <path d="M172.42,135.795 L181.077,135.795 L181.077,127.137 L172.42,127.137 L172.42,135.795 Z M171.109,137.099 L182.386,137.099 L182.386,125.828 L171.109,125.828 L171.109,137.099 Z" id="Fill-694"></path>
                                <path d="M186.829,135.906 L195.709,135.906 L195.709,127.025 L186.829,127.025 L186.829,135.906 Z M185.52,137.219 L197.017,137.219 L197.017,125.717 L185.52,125.717 L185.52,137.219 Z" id="Fill-695"></path>
                                <path d="M201.203,136.049 L210.369,136.049 L210.369,126.885 L201.203,126.885 L201.203,136.049 Z M199.896,137.36 L211.682,137.36 L211.682,125.571 L199.896,125.571 L199.896,137.36 Z" id="Fill-696"></path>
                                <path d="M244.51,136.307 L254.186,136.307 L254.186,126.625 L244.51,126.625 L244.51,136.307 Z M243.199,137.616 L255.493,137.616 L255.493,125.319 L243.199,125.319 L243.199,137.616 Z" id="Fill-697"></path>
                                <path d="M258.97,136.363 L268.763,136.363 L268.763,126.568 L258.97,126.568 L258.97,136.363 Z M257.663,137.672 L270.074,137.672 L270.074,125.259 L257.663,125.259 L257.663,137.672 Z" id="Fill-698"></path>
                                <path d="M273.433,136.416 L283.345,136.416 L283.345,126.512 L273.433,126.512 L273.433,136.416 Z M272.123,137.727 L284.652,137.727 L284.652,125.205 L272.123,125.205 L272.123,137.727 Z" id="Fill-699"></path>
                                <path d="M287.894,136.479 L297.919,136.479 L297.919,126.454 L287.894,126.454 L287.894,136.479 Z M286.585,137.786 L299.228,137.786 L299.228,125.145 L286.585,125.145 L286.585,137.786 Z" id="Fill-700"></path>
                                <path d="M302.416,136.479 L312.437,136.479 L312.437,126.454 L302.416,126.454 L302.416,136.479 Z M301.107,137.786 L313.746,137.786 L313.746,125.145 L301.107,125.145 L301.107,137.786 Z" id="Fill-701"></path>
                                <path d="M316.962,136.449 L326.927,136.449 L326.927,126.484 L316.962,126.484 L316.962,136.449 Z M315.654,137.762 L328.24,137.762 L328.24,125.174 L315.654,125.174 L315.654,137.762 Z" id="Fill-702"></path>
                                <path d="M331.568,136.363 L341.365,136.363 L341.365,126.568 L331.568,126.568 L331.568,136.363 Z M330.261,137.672 L342.669,137.672 L342.669,125.259 L330.261,125.259 L330.261,137.672 Z" id="Fill-703"></path>
                                <path d="M361.003,135.964 L370.005,135.964 L370.005,126.969 L361.003,126.969 L361.003,135.964 Z M359.699,137.275 L371.314,137.275 L371.314,125.66 L359.699,125.66 L359.699,137.275 Z" id="Fill-704"></path>
                                <path d="M375.726,135.764 L384.324,135.764 L384.324,127.169 L375.726,127.169 L375.726,135.764 Z M374.417,137.073 L385.634,137.073 L385.634,125.858 L374.417,125.858 L374.417,137.073 Z" id="Fill-705"></path>
                                <path d="M390.472,135.537 L398.617,135.537 L398.617,127.394 L390.472,127.394 L390.472,135.537 Z M389.161,136.847 L399.927,136.847 L399.927,126.084 L389.161,126.084 L389.161,136.847 Z" id="Fill-706"></path>
                                <path d="M405.31,135.223 L412.822,135.223 L412.822,127.705 L405.31,127.705 L405.31,135.223 Z M403.997,136.534 L414.13,136.534 L414.13,126.393 L403.997,126.393 L403.997,136.534 Z" id="Fill-707"></path>
                                <path d="M435.031,134.541 L441.177,134.541 L441.177,128.393 L435.031,128.393 L435.031,134.541 Z M433.72,135.85 L442.486,135.85 L442.486,127.082 L433.72,127.082 L433.72,135.85 Z" id="Fill-708"></path>
                                <path d="M449.978,134.115 L455.273,134.115 L455.273,128.818 L449.978,128.818 L449.978,134.115 Z M448.666,135.422 L456.582,135.422 L456.582,127.509 L448.666,127.509 L448.666,135.422 Z" id="Fill-709"></path>
                                <path d="M464.892,133.715 L469.39,133.715 L469.39,129.221 L464.892,129.221 L464.892,133.715 Z M463.583,135.024 L470.7,135.024 L470.7,127.909 L463.583,127.909 L463.583,135.024 Z" id="Fill-710"></path>
                                <path d="M479.812,133.319 L483.513,133.319 L483.513,129.618 L479.812,129.618 L479.812,133.319 Z M478.504,134.629 L484.824,134.629 L484.824,128.307 L478.504,128.307 L478.504,134.629 Z" id="Fill-711"></path>
                                <path d="M494.759,132.891 L497.607,132.891 L497.607,130.046 L494.759,130.046 L494.759,132.891 Z M493.451,134.198 L498.916,134.198 L498.916,128.735 L493.451,128.735 L493.451,134.198 Z" id="Fill-712"></path>
                                <path d="M523.427,133.262 L527.013,133.262 L527.013,129.674 L523.427,129.674 L523.427,133.262 Z M524.735,131.952 L525.704,131.952 L525.704,130.985 L524.735,130.985 L524.735,131.952 Z" id="Fill-713"></path>
                                <path d="M15.297,147.723 L18.769,147.723 L18.769,144.248 L15.297,144.248 L15.297,147.723 Z M13.988,149.03 L20.081,149.03 L20.081,142.937 L13.988,142.937 L13.988,149.03 Z" id="Fill-714"></path>
                                <path d="M29.531,148.008 L33.576,148.008 L33.576,143.967 L29.531,143.967 L29.531,148.008 Z M28.22,149.317 L34.884,149.317 L34.884,142.655 L28.22,142.655 L28.22,149.317 Z" id="Fill-715"></path>
                                <path d="M57.748,148.832 L63.439,148.832 L63.439,143.143 L57.748,143.143 L57.748,148.832 Z M56.437,150.141 L64.75,150.141 L64.75,141.832 L56.437,141.832 L56.437,150.141 Z" id="Fill-716"></path>
                                <path d="M86.245,149.375 L93.017,149.375 L93.017,142.596 L86.245,142.596 L86.245,149.375 Z M84.934,150.686 L94.325,150.686 L94.325,141.29 L84.934,141.29 L84.934,150.686 Z" id="Fill-717"></path>
                                <path d="M100.589,149.545 L107.71,149.545 L107.71,142.426 L100.589,142.426 L100.589,149.545 Z M99.283,150.853 L109.021,150.853 L109.021,141.118 L99.283,141.118 L99.283,150.853 Z" id="Fill-718"></path>
                                <path d="M114.854,149.799 L122.488,149.799 L122.488,142.172 L114.854,142.172 L114.854,149.799 Z M113.544,151.108 L123.794,151.108 L123.794,140.861 L113.544,140.861 L113.544,151.108 Z" id="Fill-719"></path>
                                <path d="M129.259,149.912 L137.118,149.912 L137.118,142.055 L129.259,142.055 L129.259,149.912 Z M127.955,151.222 L138.426,151.222 L138.426,140.748 L127.955,140.748 L127.955,151.222 Z" id="Fill-720"></path>
                                <path d="M143.64,150.059 L151.779,150.059 L151.779,141.914 L143.64,141.914 L143.64,150.059 Z M142.332,151.368 L153.091,151.368 L153.091,140.605 L142.332,140.605 L142.332,151.368 Z" id="Fill-721"></path>
                                <path d="M157.871,150.346 L166.584,150.346 L166.584,141.629 L157.871,141.629 L157.871,150.346 Z M156.561,151.655 L167.894,151.655 L167.894,140.318 L156.561,140.318 L156.561,151.655 Z" id="Fill-722"></path>
                                <path d="M186.656,150.599 L195.883,150.599 L195.883,141.373 L186.656,141.373 L186.656,150.599 Z M185.349,151.908 L197.191,151.908 L197.191,140.069 L185.349,140.069 L185.349,151.908 Z" id="Fill-723"></path>
                                <path d="M201.035,150.738 L210.547,150.738 L210.547,141.229 L201.035,141.229 L201.035,150.738 Z M199.726,152.046 L211.853,152.046 L211.853,139.919 L199.726,139.919 L199.726,152.046 Z" id="Fill-724"></path>
                                <path d="M215.468,150.824 L225.15,150.824 L225.15,141.143 L215.468,141.143 L215.468,150.824 Z M214.162,152.133 L226.458,152.133 L226.458,139.836 L214.162,139.836 L214.162,152.133 Z" id="Fill-725"></path>
                                <path d="M273.263,151.116 L283.511,151.116 L283.511,140.861 L273.263,140.861 L273.263,151.116 Z M271.955,152.423 L284.822,152.423 L284.822,139.552 L271.955,139.552 L271.955,152.423 Z" id="Fill-726"></path>
                                <path d="M287.726,151.165 L298.091,151.165 L298.091,140.802 L287.726,140.802 L287.726,151.165 Z M286.414,152.477 L299.398,152.477 L299.398,139.495 L286.414,139.495 L286.414,152.477 Z" id="Fill-727"></path>
                                <path d="M302.246,151.165 L312.605,151.165 L312.605,140.802 L302.246,140.802 L302.246,151.165 Z M300.937,152.477 L313.914,152.477 L313.914,139.495 L300.937,139.495 L300.937,152.477 Z" id="Fill-728"></path>
                                <path d="M316.791,151.141 L327.104,151.141 L327.104,140.829 L316.791,140.829 L316.791,151.141 Z M315.486,152.449 L328.412,152.449 L328.412,139.521 L315.486,139.521 L315.486,152.449 Z" id="Fill-729"></path>
                                <path d="M331.396,151.055 L341.533,151.055 L341.533,140.916 L331.396,140.916 L331.396,151.055 Z M330.087,152.364 L342.841,152.364 L342.841,139.609 L330.087,139.609 L330.087,152.364 Z" id="Fill-730"></path>
                                <path d="M346.119,150.855 L355.851,150.855 L355.851,141.117 L346.119,141.117 L346.119,150.855 Z M344.808,152.164 L357.162,152.164 L357.162,139.807 L344.808,139.807 L344.808,152.164 Z" id="Fill-731"></path>
                                <path d="M360.835,150.654 L370.179,150.654 L370.179,141.319 L360.835,141.319 L360.835,150.654 Z M359.525,151.965 L371.486,151.965 L371.486,140.011 L359.525,140.011 L359.525,151.965 Z" id="Fill-732"></path>
                                <path d="M375.583,150.427 L384.468,150.427 L384.468,141.544 L375.583,141.544 L375.583,150.427 Z M374.275,151.735 L385.777,151.735 L385.777,140.235 L374.275,140.235 L374.275,151.735 Z" id="Fill-733"></path>
                                <path d="M390.328,150.2 L398.758,150.2 L398.758,141.771 L390.328,141.771 L390.328,150.2 Z M389.021,151.504 L400.07,151.504 L400.07,140.46 L389.021,140.46 L389.021,151.504 Z" id="Fill-734"></path>
                                <path d="M405.164,149.887 L412.965,149.887 L412.965,142.086 L405.164,142.086 L405.164,149.887 Z M403.859,151.197 L414.273,151.197 L414.273,140.777 L403.859,140.777 L403.859,151.197 Z" id="Fill-735"></path>
                                <path d="M434.916,149.174 L441.293,149.174 L441.293,142.796 L434.916,142.796 L434.916,149.174 Z M433.607,150.481 L442.603,150.481 L442.603,141.487 L433.607,141.487 L433.607,150.481 Z" id="Fill-736"></path>
                                <path d="M449.832,148.777 L455.414,148.777 L455.414,143.197 L449.832,143.197 L449.832,148.777 Z M448.521,150.084 L456.724,150.084 L456.724,141.883 L448.521,141.883 L448.521,150.084 Z" id="Fill-737"></path>
                                <path d="M479.697,147.952 L483.627,147.952 L483.627,144.021 L479.697,144.021 L479.697,147.952 Z M478.388,149.26 L484.937,149.26 L484.937,142.711 L478.388,142.711 L478.388,149.26 Z" id="Fill-738"></path>
                                <path d="M494.703,147.467 L497.662,147.467 L497.662,144.506 L494.703,144.506 L494.703,147.467 Z M493.392,148.778 L498.972,148.778 L498.972,143.198 L493.392,143.198 L493.392,148.778 Z" id="Fill-739"></path>
                                <path d="M509.675,147.012 L511.724,147.012 L511.724,144.963 L509.675,144.963 L509.675,147.012 Z M508.367,148.32 L513.035,148.32 L513.035,143.652 L508.367,143.652 L508.367,148.32 Z" id="Fill-740"></path>
                                <path d="M523.345,147.867 L527.101,147.867 L527.101,144.109 L523.345,144.109 L523.345,147.867 Z M524.652,146.556 L525.791,146.556 L525.791,145.418 L524.652,145.418 L524.652,146.556 Z" id="Fill-741"></path>
                                <path d="M29.588,162.471 L33.515,162.471 L33.515,158.542 L29.588,158.542 L29.588,162.471 Z M28.281,163.777 L34.824,163.777 L34.824,157.229 L28.281,157.229 L28.281,163.777 Z" id="Fill-742"></path>
                                <path d="M43.851,162.731 L48.293,162.731 L48.293,158.285 L43.851,158.285 L43.851,162.731 Z M42.539,164.035 L49.601,164.035 L49.601,156.976 L42.539,156.976 L42.539,164.035 Z" id="Fill-743"></path>
                                <path d="M57.887,163.212 L63.3,163.212 L63.3,157.799 L57.887,157.799 L57.887,163.212 Z M56.581,164.523 L64.608,164.523 L64.608,156.491 L56.581,156.491 L56.581,164.523 Z" id="Fill-744"></path>
                                <path d="M72.039,163.579 L78.187,163.579 L78.187,157.428 L72.039,157.428 L72.039,163.579 Z M70.73,164.888 L79.498,164.888 L79.498,156.121 L70.73,156.121 L70.73,164.888 Z" id="Fill-745"></path>
                                <path d="M100.765,163.892 L107.54,163.892 L107.54,157.117 L100.765,157.117 L100.765,163.892 Z M99.454,165.201 L108.85,165.201 L108.85,155.812 L99.454,155.812 L99.454,165.201 Z" id="Fill-746"></path>
                                <path d="M115.03,164.145 L122.317,164.145 L122.317,156.861 L115.03,156.861 L115.03,164.145 Z M113.72,165.453 L123.623,165.453 L123.623,155.554 L113.72,155.554 L113.72,165.453 Z" id="Fill-747"></path>
                                <path d="M143.781,164.435 L151.638,164.435 L151.638,156.576 L143.781,156.576 L143.781,164.435 Z M142.471,165.744 L152.947,165.744 L152.947,155.265 L142.471,155.265 L142.471,165.744 Z" id="Fill-748"></path>
                                <path d="M158.017,164.715 L166.445,164.715 L166.445,156.291 L158.017,156.291 L158.017,164.715 Z M156.709,166.03 L167.753,166.03 L167.753,154.978 L156.709,154.978 L156.709,166.03 Z" id="Fill-749"></path>
                                <path d="M172.394,164.859 L181.107,164.859 L181.107,156.148 L172.394,156.148 L172.394,164.859 Z M171.084,166.168 L182.413,166.168 L182.413,154.84 L171.084,154.84 L171.084,166.168 Z" id="Fill-750"></path>
                                <path d="M186.798,164.977 L195.739,164.977 L195.739,156.037 L186.798,156.037 L186.798,164.977 Z M185.49,166.28 L197.049,166.28 L197.049,154.728 L185.49,154.728 L185.49,166.28 Z" id="Fill-751"></path>
                                <path d="M201.178,165.118 L210.398,165.118 L210.398,155.893 L201.178,155.893 L201.178,165.118 Z M199.87,166.425 L211.709,166.425 L211.709,154.584 L199.87,154.584 L199.87,166.425 Z" id="Fill-752"></path>
                                <path d="M230.016,165.315 L239.64,165.315 L239.64,155.694 L230.016,155.694 L230.016,165.315 Z M228.708,166.627 L240.95,166.627 L240.95,154.385 L228.708,154.385 L228.708,166.627 Z" id="Fill-753"></path>
                                <path d="M244.478,165.372 L254.216,165.372 L254.216,155.636 L244.478,155.636 L244.478,165.372 Z M243.169,166.682 L255.524,166.682 L255.524,154.328 L243.169,154.328 L243.169,166.682 Z" id="Fill-754"></path>
                                <path d="M258.912,165.46 L268.819,165.46 L268.819,155.554 L258.912,155.554 L258.912,165.46 Z M257.604,166.769 L270.128,166.769 L270.128,154.245 L257.604,154.245 L257.604,166.769 Z" id="Fill-755"></path>
                                <path d="M273.349,165.543 L283.425,165.543 L283.425,155.465 L273.349,155.465 L273.349,165.543 Z M272.041,166.854 L284.736,166.854 L284.736,154.154 L272.041,154.154 L272.041,166.854 Z" id="Fill-756"></path>
                                <path d="M287.812,165.601 L298.003,165.601 L298.003,155.408 L287.812,155.408 L287.812,165.601 Z M286.5,166.91 L299.313,166.91 L299.313,154.1 L286.5,154.1 L286.5,166.91 Z" id="Fill-757"></path>
                                <path d="M302.326,165.601 L312.523,165.601 L312.523,155.408 L302.326,155.408 L302.326,165.601 Z M301.017,166.91 L313.833,166.91 L313.833,154.1 L301.017,154.1 L301.017,166.91 Z" id="Fill-758"></path>
                                <path d="M316.88,165.574 L327.015,165.574 L327.015,155.439 L316.88,155.439 L316.88,165.574 Z M315.57,166.877 L328.324,166.877 L328.324,154.131 L315.57,154.131 L315.57,166.877 Z" id="Fill-759"></path>
                                <path d="M331.482,165.487 L341.449,165.487 L341.449,155.526 L331.482,155.526 L331.482,165.487 Z M330.175,166.796 L342.755,166.796 L342.755,154.215 L330.175,154.215 L330.175,166.796 Z" id="Fill-760"></path>
                                <path d="M346.205,165.288 L355.769,165.288 L355.769,155.722 L346.205,155.722 L346.205,165.288 Z M344.894,166.594 L357.078,166.594 L357.078,154.412 L344.894,154.412 L344.894,166.594 Z" id="Fill-761"></path>
                                <path d="M360.923,165.088 L370.087,165.088 L370.087,155.922 L360.923,155.922 L360.923,165.088 Z M359.613,166.397 L371.396,166.397 L371.396,154.612 L359.613,154.612 L359.613,166.397 Z" id="Fill-762"></path>
                                <path d="M375.667,164.859 L384.378,164.859 L384.378,156.148 L375.667,156.148 L375.667,164.859 Z M374.359,166.168 L385.691,166.168 L385.691,154.84 L374.359,154.84 L374.359,166.168 Z" id="Fill-763"></path>
                                <path d="M390.416,164.634 L398.674,164.634 L398.674,156.375 L390.416,156.375 L390.416,164.634 Z M389.107,165.945 L399.982,165.945 L399.982,155.067 L389.107,155.067 L389.107,165.945 Z" id="Fill-764"></path>
                                <path d="M405.277,164.295 L412.855,164.295 L412.855,156.718 L405.277,156.718 L405.277,164.295 Z M403.968,165.602 L414.161,165.602 L414.161,155.409 L403.968,155.409 L403.968,165.602 Z" id="Fill-765"></path>
                                <path d="M420.138,163.951 L427.027,163.951 L427.027,157.065 L420.138,157.065 L420.138,163.951 Z M418.832,165.26 L428.342,165.26 L428.342,155.752 L418.832,155.752 L418.832,165.26 Z" id="Fill-766"></path>
                                <path d="M479.812,162.356 L483.513,162.356 L483.513,158.656 L479.812,158.656 L479.812,162.356 Z M478.503,163.664 L484.823,163.664 L484.823,157.346 L478.503,157.346 L478.503,163.664 Z" id="Fill-767"></path>
                                <path d="M494.759,161.929 L497.607,161.929 L497.607,159.081 L494.759,159.081 L494.759,161.929 Z M493.451,163.235 L498.916,163.235 L498.916,157.772 L493.451,157.772 L493.451,163.235 Z" id="Fill-768"></path>
                                <path d="M509.732,161.472 L511.669,161.472 L511.669,159.535 L509.732,159.535 L509.732,161.472 Z M508.423,162.781 L512.98,162.781 L512.98,158.224 L508.423,158.224 L508.423,162.781 Z" id="Fill-769"></path>
                                <path d="M524.923,160.807 L525.523,160.807 L525.523,160.203 L524.923,160.203 L524.923,160.807 Z M523.667,162.065 L526.78,162.065 L526.78,158.949 L523.667,158.949 L523.667,162.065 Z" id="Fill-770"></path>
                            </g>
                        </g>
                    </g>
                    <path d="M60.5531915,208.5 L683.446809,208.5" id="Line-4" stroke="#CBCBCB" stroke-linecap="square"></path>
                </g>
                <path d="M284.222019,188.027653 C277.25554,188.027653 271.545093,190.36009 267.02189,195.044793 C263.006762,199.140223 261,204.438076 261,210.99736 C261,217.30705 263.008492,222.569299 267.039711,226.842423 C271.38763,231.51241 277.008148,233.84091 283.969707,233.84091 C290.846314,233.84091 296.424954,231.513132 300.778046,226.837621 C304.804765,222.569299 306.813257,217.30705 306.813257,210.99736 C306.813257,204.602733 304.8041,199.29856 300.773545,195.02614 C296.423604,190.353981 290.928657,188.027653 284.222019,188.027653 Z M284.222019,97.1950808 C277.25554,97.1950808 271.545093,99.5275172 267.02189,104.212221 C263.006762,108.307651 261,113.605504 261,120.164787 C261,126.474477 263.008492,131.736727 267.039711,136.009851 C271.38763,140.679837 277.008148,143.008338 283.969707,143.008338 C290.846314,143.008338 296.424954,140.68056 300.778046,136.005049 C304.804765,131.736727 306.813257,126.474477 306.813257,120.164787 C306.813257,113.77016 304.8041,108.465988 300.779815,104.200241 C296.344274,99.5227602 290.846134,97.1950808 284.222019,97.1950808 Z M323.036652,172.65508 L399.884371,172.65508 L399.884371,144.629869 L323.036652,144.629869 L323.036652,172.65508 Z M506.246494,249.571692 C494.291266,239.72816 484.872384,229.793498 477.991506,219.762338 C464.922931,200.668641 458.388645,178.562388 458.388645,153.470064 C458.388645,128.461677 464.923041,106.397482 477.992085,87.3031009 C484.872397,77.272767 494.291266,67.3381235 506.246494,57.4945926 L485.514918,35.3414227 C479.656707,39.7894808 475.118823,43.4214452 471.895197,46.2419915 C462.958523,53.8423408 455.024189,62.486588 448.090608,72.1768945 C430.802985,96.3127546 422.163271,123.400554 422.163271,153.470064 C422.163271,192.147094 435.726114,225.156968 462.876737,252.55822 C468.013035,257.776046 475.560904,264.167684 485.51478,271.72501 L506.246489,249.571697 Z" id=":-(" stroke="#CBCBCB" stroke-width="2" fill="#FFFFFF"></path>
                <text id="Were-sorry" opacity="0.100000001" font-family="SiemensSans-Black, Siemens Sans Black" font-size="150" font-weight="700" line-spacing="150" letter-spacing="-6.976744" fill="#212121">
                    <tspan x="0" y="190">Were sorry</tspan>
                </text>
            </g>
        </g>
    </g>
</svg>